<?xml version="1.0" standalone="no"?>
<!DOCTYPE svg PUBLIC "-//W3C//DTD SVG 20010904//EN"
 "http://www.w3.org/TR/2001/REC-SVG-20010904/DTD/svg10.dtd">
<svg version="1.0" xmlns="http://www.w3.org/2000/svg"
 width="1280.000000pt" height="1280.000000pt" viewBox="0 0 1280.000000 1280.000000"
 preserveAspectRatio="xMidYMid meet">
<g transform="translate(0.000000,1280.000000) scale(0.100000,-0.100000)"
fill="#000000" stroke="none">
<path d="M4442 12382 c-126 -45 -220 -146 -263 -281 -30 -95 -36 -273 -15
-421 31 -215 111 -479 227 -748 27 -63 49 -116 49 -118 0 -10 -28 -1 -89 28
-53 25 -82 32 -146 36 -107 5 -175 -20 -249 -91 -114 -112 -133 -291 -55 -534
l30 -92 -35 -45 c-57 -75 -69 -121 -64 -238 4 -69 13 -125 28 -171 13 -37 20
-70 16 -74 -3 -4 -43 12 -89 35 -154 79 -277 91 -379 38 -27 -14 -54 -26 -59
-26 -5 0 -56 22 -112 49 -122 60 -201 81 -296 81 -79 0 -151 -23 -206 -64 -18
-14 -38 -26 -43 -26 -6 0 -41 14 -79 31 -129 58 -227 82 -343 82 -127 1 -189
-20 -266 -87 l-51 -45 -99 34 c-248 84 -458 87 -590 10 -95 -56 -171 -163
-195 -276 -65 -302 276 -672 918 -997 73 -37 133 -72 133 -77 0 -6 -29 -16
-64 -22 -185 -32 -295 -146 -304 -318 -3 -64 0 -91 17 -135 38 -102 164 -231
302 -312 l57 -32 4 -76 c8 -129 77 -231 217 -320 39 -25 71 -50 71 -56 0 -6
-35 -18 -78 -27 -100 -22 -207 -74 -257 -126 -22 -23 -53 -69 -70 -103 l-30
-61 -94 -23 c-160 -40 -289 -112 -346 -194 -15 -22 -38 -68 -49 -102 l-21 -62
-106 -36 c-241 -83 -385 -201 -420 -345 -24 -100 -21 -96 -87 -121 -104 -39
-253 -121 -321 -177 -36 -28 -84 -80 -108 -115 -57 -84 -76 -153 -71 -257 10
-200 144 -336 396 -402 81 -21 127 -26 282 -30 206 -6 376 9 610 54 154 30
210 38 210 29 0 -3 -18 -30 -40 -62 -56 -80 -73 -140 -68 -233 10 -159 106
-265 280 -306 71 -17 212 -19 307 -5 l65 9 60 -63 c79 -83 142 -108 271 -109
50 -1 111 2 138 6 59 10 60 1 9 -67 -110 -146 -146 -276 -106 -381 28 -72 27
-77 -21 -140 -25 -33 -66 -100 -90 -150 -71 -144 -79 -255 -24 -367 l22 -46
-52 -85 c-101 -168 -135 -273 -129 -407 3 -74 8 -95 37 -153 l33 -66 -50 -98
c-152 -298 -155 -534 -8 -691 85 -90 219 -141 335 -127 132 16 283 86 430 197
133 101 369 349 515 540 32 43 62 75 66 73 5 -3 11 -33 15 -67 11 -94 40 -162
93 -216 65 -66 129 -96 220 -100 132 -7 240 46 387 191 l90 89 48 -11 c139
-32 247 10 382 146 35 36 68 62 74 58 6 -3 11 -34 11 -69 0 -84 33 -208 71
-268 28 -44 103 -108 126 -108 32 0 43 -28 53 -138 22 -240 112 -399 248 -443
20 -6 40 -14 44 -18 4 -3 12 -40 18 -81 36 -256 132 -430 272 -495 29 -14 61
-25 70 -25 23 0 24 -3 58 -136 59 -236 168 -402 306 -470 55 -27 67 -29 174
-29 107 0 119 2 174 29 172 84 286 300 341 648 12 70 19 194 22 391 3 158 8
287 11 287 3 0 23 -15 46 -34 68 -56 124 -79 202 -84 228 -15 364 143 394 455
5 59 10 111 10 114 0 4 24 19 54 33 117 57 185 192 186 368 0 37 5 70 10 73 6
4 48 -29 94 -72 126 -122 228 -160 353 -134 l58 13 90 -89 c175 -172 322 -226
480 -177 l52 17 78 -67 c144 -122 243 -176 364 -195 72 -12 154 0 214 30 42
22 41 22 113 -33 195 -147 397 -217 540 -188 172 36 299 170 323 342 36 259
-148 626 -523 1044 -42 47 -74 89 -71 93 2 5 36 11 74 13 200 15 333 185 301
386 -16 99 -69 204 -178 353 -12 15 -11 26 7 74 46 122 14 251 -100 401 -22
28 -39 56 -39 62 0 14 1 14 100 2 159 -19 280 18 363 111 l52 58 65 -9 c36 -5
106 -10 155 -10 196 0 330 63 399 187 l21 37 145 2 c165 3 262 23 359 74 74
40 114 82 155 161 l33 64 106 7 c191 13 362 67 460 146 60 49 107 113 106 147
l0 30 -21 -40 c-79 -153 -301 -257 -558 -259 l-85 -1 -5 80 c-8 108 -40 176
-127 266 -253 262 -843 440 -1658 500 -82 6 -298 9 -480 8 l-330 -3 -62 42
c-35 24 -63 47 -63 52 0 16 205 66 428 105 91 15 97 15 255 -9 288 -45 477
-59 742 -53 302 6 465 33 621 102 l57 25 119 -15 c460 -60 793 -168 995 -321
73 -56 107 -94 149 -167 23 -40 24 -41 24 -14 0 39 -70 128 -151 192 -200 156
-582 281 -1012 331 -31 3 -60 11 -63 16 -3 5 18 35 48 66 69 73 93 132 93 232
0 140 -75 244 -228 320 -45 22 -125 51 -177 64 l-95 23 -30 61 c-59 120 -151
185 -316 224 -49 11 -89 26 -89 32 0 6 32 31 72 56 141 89 218 206 218 330 l0
59 88 57 c112 74 220 182 258 260 26 53 29 69 29 163 l1 103 84 67 c115 91
194 181 238 270 32 65 37 86 41 158 2 57 -2 97 -13 129 l-16 47 104 103 c180
178 249 308 250 469 1 84 -2 95 -35 165 -80 165 -209 240 -412 240 -254 0
-600 -143 -1012 -419 -49 -33 -93 -57 -97 -53 -4 4 -3 25 4 47 6 22 11 72 11
112 1 182 -145 323 -334 323 -95 0 -174 -21 -296 -81 -56 -27 -107 -49 -112
-49 -6 0 -31 11 -56 24 -102 55 -221 43 -374 -35 -52 -27 -97 -47 -99 -44 -2
2 8 48 23 102 49 171 35 302 -41 391 l-35 41 30 94 c78 244 55 436 -65 545
-31 29 -44 48 -40 60 31 100 40 169 40 307 1 133 -2 156 -22 207 -29 72 -78
135 -136 173 -25 17 -47 35 -49 40 -2 6 2 51 10 100 20 125 12 328 -16 415
-38 122 -111 209 -221 263 -61 30 -71 32 -175 32 -106 0 -113 -1 -179 -35 -90
-45 -216 -164 -294 -278 -123 -180 -218 -385 -317 -687 -35 -104 -67 -191 -73
-193 -5 -1 -22 23 -38 55 -61 125 -169 193 -307 193 -169 0 -300 -119 -408
-370 -36 -83 -38 -85 -80 -96 -137 -36 -209 -107 -284 -279 -19 -44 -38 -81
-43 -83 -5 -1 -22 28 -37 65 -68 171 -150 258 -277 293 l-61 16 -36 85 c-50
115 -104 201 -164 261 -60 60 -155 108 -214 108 -62 0 -71 7 -110 84 -54 107
-99 174 -166 243 -106 111 -207 157 -328 151 -52 -2 -64 0 -73 16 -116 198
-262 357 -381 416 -62 30 -80 34 -165 37 -74 3 -107 -1 -148 -15z m303 -42
c114 -56 281 -237 358 -386 18 -36 16 -39 -41 -68 -213 -109 -275 -424 -176
-900 95 -454 348 -1048 660 -1549 l74 -119 0 -73 c0 -43 -5 -77 -11 -81 -21
-12 -200 184 -389 426 -84 107 -105 143 -150 250 -148 354 -325 649 -501 835
-75 79 -108 139 -197 360 -206 514 -255 912 -140 1138 27 53 93 123 145 154
71 42 120 53 213 50 73 -3 95 -8 155 -37z m4037 8 c154 -71 233 -210 245 -428
5 -93 -8 -265 -22 -303 -4 -10 -33 -13 -118 -13 -111 1 -114 1 -192 -38 -65
-32 -99 -58 -180 -140 -151 -152 -269 -342 -396 -636 -165 -381 -297 -860
-374 -1355 l-25 -160 -60 -60 c-46 -46 -62 -57 -71 -48 -16 16 -25 545 -11
623 5 30 32 129 61 220 106 340 155 623 151 875 -5 316 -9 281 59 487 34 103
80 231 102 284 159 383 353 632 549 704 79 29 203 24 282 -12z m-3405 -472
c67 -31 170 -129 228 -216 55 -83 108 -189 102 -204 -3 -6 -28 -19 -57 -29
-66 -24 -136 -91 -174 -170 -16 -32 -33 -56 -38 -55 -6 2 -38 89 -73 193 -64
196 -88 257 -158 408 -34 74 -38 90 -26 98 23 16 137 2 196 -25z m-182 -98
c61 -131 127 -309 186 -505 l42 -137 -12 -127 c-25 -274 36 -658 169 -1059
l42 -125 5 -217 c6 -260 3 -265 -80 -130 -265 429 -504 973 -610 1387 -60 233
-71 312 -71 505 -1 157 1 183 23 250 28 91 58 143 108 191 38 37 107 78 131
79 7 0 37 -51 67 -112z m3754 -197 c45 -12 46 -29 8 -169 -42 -154 -116 -356
-195 -532 -49 -108 -66 -135 -127 -200 -89 -95 -149 -172 -231 -302 -79 -125
-203 -368 -274 -538 -40 -94 -69 -146 -118 -210 -123 -159 -226 -280 -239
-280 -19 0 -16 36 12 200 115 665 332 1286 580 1660 79 119 224 272 300 316
97 56 205 77 284 55z m133 -67 c45 -32 91 -97 115 -168 25 -72 23 -300 -4
-406 l-19 -75 -34 3 c-19 2 -78 4 -130 5 -89 2 -100 0 -161 -30 -60 -30 -89
-39 -89 -29 0 2 22 55 49 118 71 165 136 349 172 487 36 135 39 138 101 95z
m-3201 -99 c97 -34 186 -130 260 -280 49 -100 60 -143 37 -149 -7 -2 -33 -9
-58 -16 -34 -9 -61 -29 -114 -82 -68 -70 -85 -75 -86 -26 0 35 -79 326 -119
437 -22 63 -38 118 -35 123 8 13 68 9 115 -7z m1648 -4 c98 -37 161 -109 202
-230 l21 -61 -30 -127 c-76 -317 -129 -664 -152 -993 -10 -128 -17 -171 -42
-245 -72 -211 -228 -548 -356 -770 -92 -161 -160 -265 -172 -265 -5 0 -14 17
-20 38 -11 34 -7 47 43 172 275 684 387 1415 271 1780 -43 137 -127 234 -226
262 -69 19 -71 34 -15 150 74 156 165 256 263 292 56 21 154 20 213 -3z
m-1761 -85 c45 -121 95 -297 127 -446 24 -115 25 -126 11 -169 -76 -239 -54
-649 59 -1117 l36 -149 -11 -135 c-12 -159 -17 -183 -33 -178 -26 7 -224 441
-286 625 -24 71 -32 118 -41 243 -23 317 -74 658 -146 968 l-35 153 17 56 c42
135 158 248 244 240 22 -2 29 -14 58 -91z m-313 -335 c19 -32 94 -445 124
-686 32 -260 35 -308 20 -303 -42 14 -149 494 -167 748 -13 180 -3 283 23 241z
m2317 -43 c8 -231 -34 -520 -117 -808 -35 -120 -48 -150 -61 -138 -22 23 103
861 146 974 16 40 30 27 32 -28z m-1534 -73 c30 -105 71 -330 78 -425 5 -66 2
-86 -24 -165 -43 -127 -62 -271 -62 -471 0 -184 8 -277 42 -517 22 -156 22
-159 4 -265 -23 -142 -26 -152 -41 -152 -16 0 -93 193 -161 405 l-49 150 3
180 c6 309 -25 764 -71 1053 -12 75 -12 86 4 122 40 90 149 173 219 168 35 -3
35 -4 58 -83z m110 59 c85 -42 155 -138 206 -282 33 -92 32 -100 -1 -108 -64
-13 -111 -36 -153 -74 -24 -22 -47 -37 -51 -32 -4 4 -17 70 -29 147 -12 77
-35 191 -51 253 -16 62 -29 115 -29 118 0 13 63 0 108 -22z m605 18 c3 -4 -6
-48 -19 -97 -25 -96 -74 -368 -74 -415 0 -47 -17 -44 -72 13 -35 35 -70 60
-103 72 -27 10 -54 22 -59 27 -26 22 80 251 148 321 60 62 162 107 179 79z
m142 -13 c95 -44 167 -160 202 -320 27 -128 25 -434 -6 -638 -29 -197 -76
-406 -136 -607 -55 -184 -161 -472 -181 -493 -11 -12 -15 -11 -23 11 -5 15
-21 98 -34 185 -20 124 -23 170 -16 213 27 160 41 343 41 520 1 208 -13 327
-53 454 -19 64 -20 76 -9 170 20 176 69 419 100 501 12 32 52 33 115 4z
m-2753 -117 c109 -54 127 -76 232 -272 144 -269 315 -545 500 -805 71 -100
237 -656 301 -1010 28 -152 43 -295 30 -295 -27 0 -75 45 -88 83 -135 387
-191 526 -306 756 -250 498 -537 841 -775 923 -62 21 -157 22 -211 2 -70 -27
-73 -27 -84 -6 -6 11 -22 64 -36 118 -36 133 -37 263 -5 349 29 74 99 145 172
174 79 32 186 25 270 -17z m4759 27 c63 -21 63 -26 26 -130 -49 -135 -124
-300 -202 -442 -60 -111 -74 -129 -126 -167 -188 -137 -421 -455 -609 -830
-48 -95 -64 -116 -178 -232 -69 -70 -129 -128 -134 -128 -4 0 -8 10 -8 23 0
43 81 333 152 546 58 173 80 225 113 270 150 203 350 527 492 795 95 179 105
193 177 238 96 62 214 84 297 57z m128 -74 c71 -60 108 -197 90 -338 -10 -77
-53 -233 -69 -251 -5 -5 -30 0 -59 13 -59 25 -146 28 -217 6 -27 -8 -50 -15
-51 -15 -12 0 8 48 70 171 59 116 142 310 180 422 8 23 20 22 56 -8z m-3270
-285 c37 -292 63 -829 42 -860 -16 -23 -22 -9 -47 107 -75 349 -95 764 -43
899 17 47 28 15 48 -146z m-1210 -81 c70 -105 248 -438 266 -496 17 -57 -23
-11 -119 135 -155 236 -327 539 -326 574 1 24 101 -95 179 -213z m3847 133
c-130 -258 -416 -702 -416 -645 0 13 86 192 143 298 107 198 294 460 305 427
2 -6 -13 -42 -32 -80z m-2022 -47 c0 -11 -9 -74 -20 -140 -15 -99 -19 -174
-19 -430 0 -302 7 -422 41 -647 14 -95 13 -102 -12 -230 -31 -162 -83 -368
-97 -386 -5 -7 -14 -9 -18 -5 -11 11 -82 266 -109 390 -21 101 -21 105 -6 245
36 318 45 656 26 925 -12 162 -10 171 57 235 66 64 159 89 157 43z m175 -34
c19 -15 49 -54 67 -87 l31 -59 -9 -130 c-12 -169 -3 -586 17 -792 15 -157 15
-164 -5 -265 -29 -142 -99 -411 -111 -422 -16 -17 -25 4 -54 119 -54 220 -75
350 -65 409 37 229 45 347 44 691 0 305 -3 364 -20 462 -13 73 -17 116 -11
122 13 13 71 -11 116 -48z m-118 -136 c19 -123 19 -665 0 -836 -22 -207 -41
-202 -62 14 -18 187 -19 668 0 802 22 168 39 173 62 20z m-294 -72 c13 -46 8
-647 -6 -793 -12 -123 -21 -163 -36 -148 -15 14 -37 244 -42 433 -6 219 7 364
43 484 17 57 30 65 41 24z m562 -112 c35 -177 31 -584 -6 -715 -12 -44 -23 18
-34 200 -11 189 -8 551 5 573 13 20 23 3 35 -58z m-2673 41 c284 -98 639 -577
908 -1226 79 -190 153 -402 144 -412 -11 -10 -42 13 -165 120 -147 128 -181
165 -253 281 -152 243 -380 505 -526 603 -61 41 -108 102 -214 282 -50 83
-150 286 -150 303 0 55 153 84 256 49z m4967 -6 c23 -12 37 -25 37 -37 0 -41
-197 -402 -276 -506 -13 -17 -47 -45 -76 -62 -194 -111 -417 -359 -633 -704
-81 -129 -100 -153 -185 -227 -105 -90 -126 -105 -134 -91 -9 14 87 286 163
461 63 147 72 161 162 265 199 231 372 463 525 705 50 79 102 153 116 163 75
56 221 72 301 33z m-5198 -158 c28 -56 87 -164 133 -240 45 -76 82 -143 82
-148 0 -12 0 -12 -74 0 -60 11 -79 8 -183 -25 -18 -6 -25 0 -42 33 -60 118
-79 305 -40 392 19 43 55 90 69 90 3 0 28 -46 55 -102z m5314 57 c39 -61 54
-150 40 -235 -11 -73 -53 -203 -75 -237 l-14 -22 -56 26 c-46 21 -70 25 -135
25 -44 -1 -79 1 -79 4 0 4 33 61 74 128 41 66 100 174 132 239 32 64 64 117
72 117 7 0 25 -20 41 -45z m-519 -23 c0 -42 -432 -638 -519 -716 -96 -86 145
321 312 529 100 124 207 220 207 187z m-6334 -268 c89 -25 214 -78 214 -90 0
-3 -14 -35 -32 -71 -26 -54 -31 -75 -31 -136 0 -40 5 -90 11 -112 7 -22 8 -43
4 -47 -4 -4 -52 22 -106 58 -149 100 -266 169 -397 234 -64 33 -121 65 -125
71 -9 16 47 65 104 91 97 44 212 45 358 2z m608 -10 c79 -20 244 -98 252 -119
4 -9 -1 -24 -9 -33 -38 -41 -59 -113 -59 -193 1 -44 -3 -79 -8 -79 -5 0 -73
49 -152 108 -79 59 -181 131 -228 159 -117 71 -130 81 -124 97 6 15 72 54 112
66 45 14 151 11 216 -6z m7344 -19 c65 -35 107 -81 140 -153 21 -48 24 -64 20
-140 -7 -134 -29 -175 -141 -260 -228 -174 -519 -434 -728 -650 -117 -121
-132 -132 -262 -206 -167 -95 -416 -215 -592 -286 -183 -74 -387 -142 -398
-131 -5 5 0 26 12 49 16 32 36 49 88 78 636 347 1119 751 1320 1103 102 179
116 345 37 449 -14 18 -23 40 -20 48 7 19 171 97 246 118 35 10 86 14 140 13
72 -3 93 -7 138 -32z m-8740 9 c97 -20 222 -59 246 -77 19 -14 19 -15 -4 -68
-141 -325 221 -749 999 -1174 246 -134 591 -283 903 -390 l136 -47 41 -55 c22
-30 38 -60 35 -65 -13 -21 -395 43 -674 112 -88 22 -157 49 -290 114 -305 147
-552 231 -755 258 -82 11 -105 20 -265 99 -762 381 -1095 789 -905 1114 29 49
107 125 153 149 89 46 243 58 380 30z m10205 -13 c75 -30 164 -111 200 -185
73 -149 56 -285 -58 -456 -43 -65 -219 -250 -238 -250 -5 0 -33 24 -61 54 -60
62 -110 90 -198 111 -400 94 -1220 -308 -1976 -970 -191 -166 -169 -152 -261
-165 -97 -13 -117 -9 -102 19 17 31 216 277 315 389 81 93 108 115 262 217
356 236 586 444 731 663 46 68 70 93 141 144 308 219 653 388 902 443 96 22
268 14 343 -14z m-8208 -55 c81 -26 213 -98 222 -123 3 -8 -4 -28 -16 -44 -31
-42 -51 -104 -51 -160 0 -26 -5 -51 -10 -54 -6 -3 -56 35 -113 86 -56 51 -147
126 -202 167 -55 41 -102 78 -103 83 -11 29 76 67 155 68 23 1 76 -10 118 -23z
m6102 -3 c21 -10 38 -25 38 -34 0 -9 -45 -50 -100 -91 -91 -68 -305 -254 -320
-278 -3 -5 -12 -10 -19 -10 -10 0 -14 19 -13 75 0 65 -4 83 -32 137 l-31 61
20 22 c28 30 185 111 251 130 66 18 155 14 206 -12z m-4027 -173 c34 -80 98
-218 142 -307 80 -162 81 -163 72 -215 -5 -28 -14 -53 -21 -55 -12 -4 -112
123 -221 281 l-62 89 0 182 c0 100 3 185 7 189 9 9 11 6 83 -164z m-2926 100
c124 -76 203 -131 345 -244 98 -79 117 -98 138 -145 92 -210 363 -501 711
-764 99 -75 165 -152 277 -325 50 -76 27 -71 -222 48 -89 43 -224 113 -300
156 -130 74 -145 85 -262 206 -209 216 -500 476 -728 650 -74 56 -95 79 -112
117 -43 100 -45 215 -5 293 18 36 43 68 53 68 4 0 51 -27 105 -60z m4739 -222
l7 -283 -98 -95 c-53 -52 -137 -126 -186 -164 -93 -73 -215 -156 -228 -156
-18 0 -4 31 60 135 126 201 271 487 369 725 43 103 51 120 62 120 4 0 11 -127
14 -282z m-5411 185 c161 -82 496 -297 522 -335 9 -13 45 -63 79 -113 76 -109
244 -280 392 -398 61 -49 193 -144 296 -212 168 -113 193 -134 275 -227 189
-217 204 -238 169 -238 -23 0 -278 94 -450 166 -312 129 -588 273 -830 432
-456 298 -694 579 -695 818 0 81 43 184 76 184 9 0 84 -35 166 -77z m1338 -31
c138 -103 338 -286 355 -326 76 -176 126 -260 243 -408 79 -99 225 -251 337
-351 63 -57 105 -105 141 -161 86 -137 126 -214 114 -221 -11 -7 -113 47 -269
143 -212 130 -276 178 -332 249 -182 229 -541 613 -718 767 -63 55 -80 94 -80
191 -1 95 45 195 88 195 9 0 63 -35 121 -78z m6403 46 c73 -100 68 -226 -16
-393 -147 -294 -578 -685 -1098 -998 -147 -89 -236 -134 -245 -124 -7 7 39 92
124 232 43 69 95 131 227 265 239 244 350 389 428 561 30 66 47 87 153 186
172 162 351 302 386 303 9 0 28 -15 41 -32z m-5675 -10 c49 -18 60 -29 156
-156 136 -178 233 -290 421 -489 l154 -161 115 -234 c115 -232 138 -288 118
-288 -14 0 -225 158 -330 247 -70 60 -97 91 -167 201 -208 327 -470 646 -654
797 -65 53 -72 68 -42 85 60 32 138 31 229 -2z m4980 2 c25 -11 42 -25 40 -33
-2 -7 -43 -50 -93 -94 -197 -177 -456 -503 -649 -819 -42 -69 -173 -184 -394
-344 -129 -94 -159 -107 -146 -67 13 43 122 276 178 380 49 91 67 115 150 190
165 153 408 426 578 652 50 66 92 122 94 123 1 2 20 10 41 17 57 21 150 18
201 -5z m-3886 -137 c58 -71 151 -177 207 -238 81 -88 101 -116 101 -140 0
-59 -41 -312 -70 -430 -40 -165 -64 -229 -83 -233 -10 -2 -17 3 -17 12 0 8 -7
68 -15 133 -34 254 -108 576 -196 849 -51 157 -55 174 -41 174 5 0 56 -57 114
-127z m2718 115 c0 -6 -21 -75 -46 -152 -25 -78 -70 -234 -99 -348 -50 -200
-53 -207 -90 -240 -77 -68 -81 -63 -71 95 15 255 27 341 50 369 101 126 241
288 248 288 4 0 8 -5 8 -12z m-4026 -140 c130 -221 323 -455 584 -710 163
-159 170 -167 237 -288 88 -161 165 -320 165 -344 0 -12 -5 -16 -16 -12 -27
11 -185 122 -309 219 -104 81 -128 106 -184 188 -174 256 -314 436 -499 642
l-125 139 -5 66 c-2 37 1 86 7 109 11 40 54 103 71 103 4 0 37 -51 74 -112z
m4867 74 c-55 -99 -546 -652 -579 -652 -21 0 -13 17 59 126 144 214 318 412
448 507 62 46 91 53 72 19z m447 -32 c17 -34 22 -60 21 -115 -1 -105 -14 -133
-119 -251 -134 -151 -263 -313 -397 -502 -127 -179 -177 -227 -436 -416 -112
-81 -147 -99 -147 -76 0 13 130 272 186 371 35 62 81 115 247 280 263 263 426
464 557 687 23 40 48 71 54 69 6 -1 21 -23 34 -47z m-5169 -108 c190 -193 512
-615 499 -654 -9 -25 -271 247 -430 447 -73 91 -208 293 -208 311 0 30 28 9
139 -104z m361 11 c134 -135 335 -403 302 -403 -29 0 -432 465 -432 499 0 26
30 4 130 -96z m4656 14 c-25 -40 -78 -118 -119 -173 -141 -189 -441 -511 -467
-502 -15 5 114 200 228 347 166 214 390 443 400 412 2 -6 -17 -44 -42 -84z
m-3063 -227 c30 -85 73 -201 96 -257 39 -94 41 -105 31 -142 -6 -23 -15 -41
-20 -41 -11 0 -66 84 -155 234 l-58 99 13 131 c6 72 14 135 17 139 10 17 22
-10 76 -163z m-408 63 c10 -16 69 -96 131 -180 63 -83 114 -157 114 -162 0
-34 -63 13 -212 155 l-78 75 0 63 c0 83 14 98 45 49z m2021 -100 c-3 -49 -9
-153 -13 -231 -4 -107 -10 -148 -21 -159 -10 -10 -18 -11 -25 -4 -11 11 -41
180 -52 299 l-8 72 47 55 c69 81 81 76 72 -32z m-4195 -60 c182 -178 479 -508
479 -533 0 -19 -16 -10 -100 57 -120 95 -397 374 -459 463 -135 193 -110 197
80 13z m-630 26 c139 -112 220 -183 412 -363 143 -134 186 -181 175 -192 -8
-8 -198 124 -320 221 -206 164 -445 425 -390 425 5 0 60 -41 123 -91z m7569
82 c0 -20 -95 -135 -182 -223 -166 -165 -526 -439 -537 -407 -7 23 355 361
588 548 111 88 131 101 131 82z m-6452 -109 c129 -144 364 -449 401 -519 26
-51 -18 -19 -124 89 -160 164 -291 332 -354 455 -47 93 -21 84 77 -25z m2895
16 c3 -13 15 -80 28 -150 l22 -127 -27 -63 c-46 -109 -68 -140 -107 -154 -70
-24 -78 8 -35 149 18 62 46 164 60 227 15 63 29 121 31 128 7 20 22 14 28 -10z
m2315 -64 c-55 -92 -151 -214 -248 -317 -86 -91 -110 -110 -110 -88 0 21 261
356 355 456 42 44 43 15 3 -51z m-3476 -21 c40 -38 99 -90 131 -117 36 -31 57
-56 57 -70 0 -31 -45 -208 -79 -313 -44 -135 -100 -253 -120 -253 -22 0 -221
117 -227 134 -3 7 11 64 29 127 45 147 106 459 107 547 0 26 32 9 102 -55z
m932 -160 c51 -213 53 -229 30 -261 -14 -20 -24 -22 -104 -22 -119 0 -125 6
-99 98 25 85 89 352 89 373 0 8 6 21 12 27 17 17 16 18 72 -215z m911 175 c3
-29 16 -111 27 -183 l20 -130 -42 -37 c-100 -89 -415 -278 -463 -278 -9 0 -23
12 -31 28 -22 43 -76 222 -70 235 3 7 30 27 62 46 89 54 268 191 371 285 51
47 99 86 106 86 8 0 16 -19 20 -52z m505 48 c0 -3 -26 -71 -59 -153 -32 -81
-78 -208 -102 -282 -40 -120 -48 -136 -79 -157 -19 -13 -39 -24 -44 -24 -13 0
-2 121 25 275 l22 130 106 108 c88 90 131 124 131 103z m-1750 -68 c6 -24 31
-115 56 -203 62 -216 60 -205 36 -205 -51 0 -69 18 -117 117 l-48 98 18 105
c10 58 20 111 22 118 10 23 22 12 33 -30z m5171 18 c37 -8 86 -24 109 -36 48
-25 130 -104 130 -127 0 -20 -23 -39 -170 -136 -156 -104 -254 -160 -440 -251
-128 -63 -157 -73 -236 -84 -202 -27 -475 -121 -769 -265 -132 -65 -183 -84
-295 -111 -211 -52 -370 -80 -381 -69 -7 7 25 41 98 105 398 348 839 643 1213
814 200 91 353 139 530 167 56 9 149 6 211 -7z m-5423 -150 c45 -74 82 -139
82 -145 0 -25 -28 -8 -83 52 -95 101 -117 134 -111 170 8 46 12 57 22 57 5 0
45 -60 90 -134z m1732 -66 c0 -5 -9 -65 -19 -132 -11 -68 -23 -151 -26 -185
-5 -42 -11 -63 -20 -63 -20 0 -24 22 -31 171 l-7 140 38 39 c37 38 65 51 65
30z m3966 -27 c11 -26 15 -60 12 -113 -2 -63 -9 -88 -40 -151 -21 -43 -63
-103 -97 -141 -62 -67 -198 -178 -219 -178 -6 0 -18 13 -26 28 -41 80 -160
153 -275 168 -28 4 -51 12 -51 18 0 6 60 41 133 78 158 80 319 176 442 264 49
35 94 64 98 64 4 0 15 -17 23 -37z m-5728 -27 c42 -30 90 -68 106 -85 28 -29
28 -31 17 -78 -20 -78 -79 -231 -133 -340 -40 -84 -54 -103 -71 -103 -32 0
-198 71 -204 87 -3 8 9 46 27 85 43 94 93 244 126 378 18 75 31 110 41 110 7
0 48 -24 91 -54z m232 -36 c33 -65 22 -89 -28 -54 -22 15 -28 47 -16 78 10 26
22 19 44 -24z m685 -10 c0 -27 -6 -38 -27 -49 -39 -22 -45 -7 -20 45 26 52 47
53 47 4z m-1828 -75 c185 -155 169 -134 205 -273 26 -101 29 -127 20 -147 -17
-37 -37 -40 -84 -12 -38 22 -47 35 -82 118 -22 52 -72 160 -113 241 -72 146
-82 173 -63 166 5 -1 58 -43 117 -93z m2553 41 c0 -46 -15 -54 -29 -15 -12 34
-7 49 15 49 9 0 14 -11 14 -34z m-19 -139 c21 -71 35 -135 32 -143 -14 -38
-409 -244 -467 -244 -20 0 -31 14 -70 93 -25 50 -46 100 -46 109 0 11 41 38
128 83 70 36 179 103 242 149 63 46 121 84 129 83 10 -1 28 -46 52 -130z
m-638 -26 c47 -146 51 -139 -78 -166 -98 -21 -105 -18 -129 50 l-15 45 77 99
c42 55 83 99 91 98 7 -1 30 -54 54 -126z m1057 120 c0 -4 -25 -61 -56 -125
-30 -65 -75 -164 -99 -219 -24 -56 -50 -103 -58 -105 -17 -3 -47 34 -47 57 0
8 14 68 32 134 l31 119 89 74 c84 70 108 85 108 65z m-1813 -70 c33 -28 72
-67 87 -89 l27 -39 -46 -104 c-25 -57 -60 -131 -79 -164 -28 -52 -37 -60 -66
-63 -46 -5 -167 17 -179 32 -8 9 2 39 37 107 26 52 69 156 96 232 27 75 53
137 57 137 4 0 34 -22 66 -49z m73 13 c7 -13 10 -27 6 -31 -10 -10 -60 43 -52
56 10 15 31 4 46 -25z m550 18 c0 -5 -13 -21 -30 -37 -31 -30 -38 -23 -18 20
10 23 48 36 48 17z m-90 -37 c0 -19 -20 -29 -32 -17 -8 8 -7 16 2 26 14 17 30
12 30 -9z m-385 -5 c0 -22 -29 -18 -33 3 -3 14 1 18 15 15 10 -2 18 -10 18
-18z m334 -33 c13 -35 12 -39 -20 -93 -41 -68 -62 -85 -83 -64 -12 13 -10 26
17 95 18 44 36 86 40 93 14 20 31 9 46 -31z m-95 -2 c-2 -43 -44 -135 -61
-135 -31 0 -56 24 -79 76 -40 92 -38 95 59 92 l82 -3 -1 -30z m-178 -21 c18
-43 7 -62 -25 -43 -26 17 -30 28 -20 57 12 32 28 27 45 -14z m-1443 -152 c171
-129 176 -133 197 -190 l22 -57 -36 -31 c-19 -17 -51 -39 -71 -50 -36 -19 -36
-19 -73 2 -20 12 -44 35 -52 53 -8 18 -58 120 -111 226 -53 107 -94 197 -91
200 3 3 13 -1 22 -7 10 -7 96 -73 193 -146z m3337 154 c0 -3 -47 -100 -105
-217 -95 -193 -109 -215 -148 -241 -53 -35 -68 -35 -120 1 -66 46 -111 96
-101 114 5 9 61 52 124 96 63 44 164 119 225 166 99 77 125 94 125 81z m-2987
-66 c14 -11 28 -34 32 -51 8 -34 -12 -92 -29 -86 -22 7 -59 157 -39 157 6 0
22 -9 36 -20z m2457 5 c0 -37 -33 -145 -45 -145 -19 0 -38 55 -30 89 6 28 46
71 66 71 5 0 9 -7 9 -15z m-1310 -169 c12 -24 12 -29 -6 -46 -26 -26 -140 -86
-191 -101 -74 -21 -79 -10 -34 78 21 43 49 103 61 133 38 91 38 90 100 22 30
-33 62 -72 70 -86z m278 85 c-4 -19 -55 -26 -78 -12 -12 8 -10 15 15 41 l30
31 18 -22 c10 -12 16 -29 15 -38z m-296 32 c18 -16 25 -43 11 -43 -12 0 -43
33 -43 47 0 17 10 17 32 -4z m-4166 -61 c229 -97 539 -203 805 -277 148 -41
658 -378 959 -633 167 -142 204 -178 196 -190 -4 -7 -31 -12 -62 -12 -51 0
-65 6 -177 73 -437 264 -844 440 -1212 522 -145 33 -350 44 -447 25 -121 -23
-210 -85 -261 -179 -20 -39 -23 -38 -121 26 -97 64 -196 166 -232 239 -25 51
-29 70 -29 144 0 69 5 93 24 130 64 124 182 188 347 189 65 1 83 -4 210 -57z
m8868 28 c67 -26 147 -93 167 -142 11 -28 10 -32 -12 -49 -77 -59 -370 -201
-564 -275 -89 -33 -114 -38 -230 -45 -234 -13 -481 -80 -814 -218 -56 -24
-110 -36 -225 -51 -196 -25 -271 -29 -271 -13 0 26 359 273 584 402 68 39 149
77 180 86 295 83 585 183 801 276 l135 59 95 -4 c68 -2 112 -10 154 -26z
m-5627 -52 c58 -35 107 -68 110 -75 6 -14 -63 -117 -106 -157 l-31 -30 -51 24
c-28 13 -55 32 -60 41 -10 19 -13 218 -3 243 10 26 29 19 141 -46z m-3080 27
c153 -41 472 -169 488 -196 12 -19 -34 -7 -205 50 -205 69 -378 135 -406 156
-18 14 -18 14 6 15 14 0 66 -11 117 -25z m1342 -37 c64 -34 202 -101 306 -149
181 -82 192 -88 223 -134 38 -56 39 -65 9 -65 -28 0 -244 52 -354 85 l-82 25
-121 144 c-66 80 -120 147 -120 150 0 14 30 2 139 -56z m2741 58 c0 -3 -4 -8
-10 -11 -5 -3 -10 -1 -10 4 0 6 5 11 10 11 6 0 10 -2 10 -4z m539 -98 c37 -73
48 -105 40 -114 -12 -15 -134 -37 -180 -32 -31 3 -37 10 -81 93 -26 50 -46 94
-45 100 3 9 153 51 194 54 17 1 30 -17 72 -101z m593 -3 c25 -142 22 -148 -72
-195 -43 -22 -118 -56 -166 -76 -71 -29 -91 -34 -110 -25 -29 13 -134 139
-134 161 0 11 27 27 84 49 81 31 241 116 316 167 55 38 63 31 82 -81z m886 93
c-2 -7 -38 -74 -81 -149 l-77 -137 -113 -51 c-112 -50 -173 -63 -183 -38 -2 7
2 29 11 49 11 28 39 54 122 111 60 41 153 109 207 151 98 75 121 88 114 64z
m862 6 c0 -3 -49 -64 -109 -137 -61 -73 -141 -172 -178 -222 -63 -82 -73 -90
-113 -99 -58 -11 -567 -12 -602 0 -15 5 -27 14 -26 19 0 6 73 35 162 66 260
91 511 200 731 319 102 55 135 68 135 54z m1326 -9 c-40 -30 -555 -215 -599
-215 -31 0 -10 17 66 53 165 78 452 175 522 176 28 0 29 0 11 -14z m-6469 -73
c59 -38 160 -97 223 -132 63 -35 125 -69 137 -77 28 -17 68 -92 56 -104 -6 -6
-68 11 -154 40 -232 79 -217 70 -309 204 -112 165 -110 168 47 69z m2311 56
c-6 -18 -28 -21 -28 -4 0 9 7 16 16 16 9 0 14 -5 12 -12z m179 -13 c7 -2 33
-45 58 -95 51 -102 48 -113 -28 -91 -50 15 -164 75 -191 101 -19 19 -19 20 7
59 l26 40 58 -6 c32 -2 63 -6 70 -8z m-2095 -78 c62 -46 154 -111 204 -145 65
-43 93 -68 98 -87 16 -63 -36 -60 -183 11 l-116 55 -65 115 c-36 64 -66 120
-68 125 -9 23 26 3 130 -74z m698 -30 c-1 -39 -2 -41 -15 -23 -23 30 -18 85 6
70 5 -3 9 -24 9 -47z m2366 38 c8 -20 -4 -65 -16 -65 -6 0 -10 18 -10 40 0 40
15 54 26 25z m-1938 -72 c61 -25 92 -43 92 -53 0 -21 -105 -148 -134 -161 -32
-15 -206 54 -206 81 0 11 5 22 11 25 6 4 35 41 66 82 30 41 60 72 66 69 7 -2
54 -22 105 -43z m887 -18 c39 -20 103 -44 144 -55 41 -10 79 -26 83 -35 5 -8
31 -44 59 -80 27 -35 49 -70 49 -76 0 -22 -92 -1 -170 38 -54 27 -100 62 -163
123 -48 47 -87 93 -87 103 0 23 5 22 85 -18z m-1447 2 c2 -10 -3 -17 -11 -17
-16 0 -30 24 -19 34 10 10 27 1 30 -17z m82 13 c0 -5 -4 -10 -10 -10 -5 0 -10
5 -10 10 0 6 5 10 10 10 6 0 10 -4 10 -10z m1255 -22 c15 -18 54 -76 88 -128
76 -119 210 -256 287 -293 129 -63 279 -60 520 8 47 13 113 27 148 31 l62 7 0
-40 c0 -21 -7 -90 -16 -153 -20 -143 -14 -297 15 -391 41 -132 146 -235 331
-327 92 -46 264 -154 276 -173 3 -6 -16 -31 -43 -57 -194 -186 -241 -235 -284
-296 -87 -124 -112 -231 -86 -367 20 -100 65 -214 128 -324 28 -49 53 -95 56
-102 9 -22 -46 -34 -192 -44 -333 -22 -479 -99 -579 -303 -45 -91 -85 -220
-106 -348 -7 -37 -17 -74 -24 -83 -11 -16 -17 -15 -67 10 -30 15 -97 58 -149
94 -126 90 -173 115 -263 146 -181 60 -350 15 -571 -152 -124 -95 -156 -115
-170 -110 -15 6 -70 150 -97 252 -53 207 -145 347 -268 410 -92 47 -268 85
-392 85 -86 0 -169 19 -169 39 0 25 53 176 94 267 20 44 45 116 56 159 57 222
-5 374 -246 603 -115 110 -123 120 -107 133 32 27 116 76 211 123 189 92 293
191 333 316 16 50 23 108 30 255 5 105 12 232 15 284 l7 94 56 -7 c31 -3 91
-17 134 -31 43 -14 117 -32 164 -40 262 -46 412 21 591 263 69 93 181 222 192
222 5 0 20 -15 35 -32z m1205 28 c0 -3 -4 -8 -10 -11 -5 -3 -10 -1 -10 4 0 6
5 11 10 11 6 0 10 -2 10 -4z m-1340 -21 c0 -53 -107 -158 -216 -211 -73 -37
-164 -56 -164 -36 0 6 22 40 49 76 27 36 53 72 58 81 5 9 41 24 79 34 39 10
95 30 125 44 65 31 69 31 69 12z m4926 -30 c12 -50 -1 -140 -31 -200 -35 -72
-135 -175 -231 -238 -99 -65 -97 -65 -127 -15 -40 68 -97 116 -173 147 -38 15
-67 32 -65 37 3 5 52 28 110 52 138 57 329 150 411 200 78 48 97 51 106 17z
m-6047 -3 c16 -13 25 -36 34 -91 10 -68 9 -74 -8 -87 -10 -8 -29 -14 -41 -14
-20 0 -26 11 -48 81 -23 75 -23 84 -9 105 18 28 43 30 72 6z m2481 1 c0 -29
-23 -83 -36 -83 -30 0 -32 64 -2 84 29 20 38 20 38 -1z m-1750 -25 c41 -6 79
-15 84 -19 11 -10 -48 -100 -98 -148 -35 -34 -36 -34 -103 -28 -79 7 -143 24
-143 38 0 5 32 48 72 95 58 69 75 84 92 80 12 -4 55 -11 96 -18z m1169 -63
c39 -47 71 -89 71 -94 0 -12 -127 -41 -179 -41 -34 0 -45 6 -81 48 -58 65 -93
119 -85 131 3 6 21 11 38 12 18 0 57 7 87 14 30 7 60 13 66 14 7 0 44 -37 83
-84z m680 23 c31 -24 59 -47 63 -53 9 -12 -11 -29 -84 -66 -51 -26 -58 -27
-72 -13 -9 8 -18 25 -22 38 -6 26 32 136 48 136 6 0 36 -19 67 -42z m-2451 -8
c29 -18 32 -23 21 -36 -17 -20 -65 -45 -73 -37 -8 8 -8 78 1 86 10 10 15 9 51
-13z m2237 10 c8 -14 9 -173 0 -200 -7 -21 -11 -22 -73 -16 -98 10 -232 59
-232 85 0 4 44 27 98 50 53 23 117 53 142 66 51 27 57 29 65 15z m-2445 -67
c28 -91 18 -98 -67 -53 -37 20 -68 40 -70 47 -5 13 75 72 99 73 13 0 23 -18
38 -67z m-700 -17 c85 -30 154 -58 152 -62 -4 -13 -137 -10 -215 5 -60 12 -71
17 -92 50 -27 39 -32 61 -12 61 6 0 82 -25 167 -54z m-369 -11 c107 -26 200
-49 207 -51 6 -2 12 -11 12 -20 0 -15 -13 -16 -147 -10 -212 11 -221 13 -260
64 -34 45 -43 78 -19 69 7 -3 101 -27 207 -52z m624 23 c36 -18 65 -38 65 -45
0 -17 -67 -28 -95 -15 -26 12 -59 67 -50 82 8 14 6 14 80 -22z m3276 9 c-13
-13 -26 -3 -16 12 3 6 11 8 17 5 6 -4 6 -10 -1 -17z m-2459 -24 c49 -20 87
-41 85 -47 -5 -18 -92 -55 -167 -71 -125 -26 -140 -21 -140 48 0 28 8 37 58
69 31 20 61 37 67 37 5 1 49 -15 97 -36z m2758 30 c0 -19 -41 -72 -60 -78 -30
-10 -90 3 -90 19 0 7 26 25 58 39 57 26 92 34 92 20z m-4843 -47 c98 -19 232
-42 298 -51 195 -26 177 -15 276 -167 98 -151 182 -299 228 -405 38 -88 39
-103 5 -103 -18 0 -56 28 -132 97 -202 183 -488 400 -717 543 -55 35 -117 74
-138 87 -35 22 -43 51 -11 39 7 -3 93 -21 191 -40z m6238 34 c3 -5 -22 -26
-56 -47 -122 -75 -371 -244 -472 -320 l-102 -78 -77 -3 c-65 -3 -78 -2 -78 11
0 8 75 92 168 186 l167 171 215 44 c118 23 218 44 222 44 4 1 10 -2 13 -8z
m-2981 -30 c69 -47 126 -69 212 -81 60 -9 91 -20 129 -46 52 -34 150 -73 184
-73 26 0 51 -10 51 -21 0 -25 -198 -46 -285 -30 -114 21 -221 94 -317 214 -58
75 -49 87 26 37z m964 8 c-4 -27 -28 -36 -28 -10 0 20 8 32 22 32 5 0 8 -10 6
-22z m297 -2 c18 -13 18 -15 2 -39 -18 -28 -165 -84 -193 -73 -31 12 -7 41 66
83 82 46 97 50 125 29z m-2936 -15 c51 -26 69 -49 47 -57 -52 -20 -144 24
-129 61 7 20 37 19 82 -4z m1191 -14 c0 -24 -140 -154 -199 -186 -83 -44 -176
-58 -290 -43 -144 19 -159 33 -55 51 84 15 149 40 205 78 33 22 63 32 121 40
47 7 102 23 140 41 73 35 78 36 78 19z m-1302 -37 c3 0 1 -5 -5 -11 -12 -12
-89 -3 -98 11 -12 19 30 28 64 14 18 -8 36 -14 39 -14z m839 0 c126 -30 123
-28 90 -55 -61 -53 -252 -87 -376 -66 -109 18 -108 38 3 60 48 10 144 49 193
80 1 1 41 -8 90 -19z m1549 -11 c33 -16 91 -38 129 -48 38 -9 70 -22 72 -28 2
-6 -20 -19 -48 -28 -62 -21 -200 -16 -285 10 -56 16 -119 54 -117 70 1 8 115
41 184 54 3 0 33 -13 65 -30z m390 4 c-10 -10 -19 5 -10 18 6 11 8 11 12 0 2
-7 1 -15 -2 -18z m409 13 c0 -13 -60 -28 -94 -24 l-26 3 30 17 c31 18 90 20
90 4z m-2835 -15 c0 -27 -19 -36 -37 -18 -18 18 -9 37 18 37 12 0 19 -7 19
-19z m3900 -2 c0 -6 -73 -87 -162 -180 -134 -138 -168 -169 -190 -169 -17 0
-28 5 -28 13 0 13 56 106 151 250 35 53 51 69 79 77 68 19 150 24 150 9z
m-946 -7 c3 -5 -5 -31 -18 -58 -12 -27 -35 -82 -51 -121 -21 -55 -33 -73 -47
-73 -10 0 -55 16 -98 36 -89 41 -92 46 -64 127 11 33 23 49 37 52 12 3 58 14
102 24 89 21 131 25 139 13z m-3050 -8 c19 -7 22 -34 4 -34 -30 0 -58 13 -58
26 0 15 27 18 54 8z m3524 -7 c216 2 253 0 248 -12 -3 -8 -32 -54 -64 -102
-32 -49 -76 -117 -97 -152 l-38 -64 -141 6 c-184 8 -435 51 -451 77 -6 10 79
225 98 248 8 10 31 11 101 5 50 -4 205 -7 344 -6z m-4352 -19 c37 -29 227
-460 241 -544 5 -29 2 -33 -23 -38 -70 -15 -226 -35 -237 -30 -7 2 -31 44 -52
92 -51 114 -160 310 -235 423 -34 49 -63 96 -67 105 -5 14 13 15 178 9 101 -4
189 -12 195 -17z m317 10 c36 -27 162 -366 174 -469 l6 -47 -79 -25 c-116 -36
-131 -38 -141 -24 -5 6 -24 54 -42 106 -38 111 -107 266 -163 369 -23 42 -37
77 -32 82 20 20 252 26 277 8z m3067 -3 c0 -8 -7 -15 -15 -15 -16 0 -20 12 -8
23 11 12 23 8 23 -8z m-2788 -10 c20 -8 73 -164 103 -300 l18 -79 -29 -23
c-16 -13 -56 -37 -88 -53 -67 -34 -80 -30 -91 28 -10 58 -73 246 -111 335 -19
44 -32 87 -29 95 4 12 24 14 108 10 56 -3 110 -9 119 -13z m-2247 -44 c346
-74 829 -278 1201 -508 116 -72 110 -79 -71 -75 -140 3 -157 5 -259 38 -330
106 -675 161 -861 136 -65 -9 -79 -7 -187 24 -193 56 -473 170 -484 198 -8 22
30 89 72 126 42 36 84 57 159 76 73 20 304 11 430 -15z m2492 8 c24 -9 43 -45
43 -82 0 -31 -61 -154 -97 -196 -32 -37 -63 -38 -63 -2 0 11 -16 75 -36 143
-20 68 -39 131 -42 142 -5 18 0 18 84 11 48 -4 99 -11 111 -16z m2743 15 c0
-4 -5 -24 -12 -45 -14 -49 -34 -50 -77 -5 -31 32 -32 35 -14 45 19 11 103 15
103 5z m2485 -9 c0 -14 -109 -48 -360 -110 -285 -71 -374 -74 -190 -7 119 44
296 93 410 113 107 19 140 20 140 4z m301 -16 c90 -34 188 -139 171 -183 -11
-28 -270 -136 -472 -197 -108 -32 -114 -33 -275 -30 -238 3 -447 -33 -745
-128 -110 -36 -133 -39 -276 -46 -97 -5 -163 -4 -174 2 -15 9 -14 13 16 36 57
43 315 186 464 258 133 64 152 71 303 99 208 39 521 118 692 174 152 51 195
53 296 15z m-2883 -45 l59 -55 -23 -96 c-14 -57 -29 -98 -38 -101 -29 -11
-102 101 -142 217 -24 69 -24 67 9 79 54 20 75 13 135 -44z m-2535 -24 c4 -40
-5 -80 -18 -80 -13 0 -24 64 -16 96 9 35 30 25 34 -16z m2373 -27 c22 -70 67
-148 114 -201 l46 -51 -8 -107 c-5 -70 -12 -109 -20 -111 -31 -10 -103 96
-139 204 -26 77 -45 251 -31 287 10 26 25 18 38 -21z m354 -67 c92 -41 90 -35
55 -166 -32 -116 -33 -117 -106 -80 -32 16 -72 40 -87 53 l-29 22 22 95 c23
98 35 124 54 116 6 -3 47 -21 91 -40z m-2768 -23 c4 -16 8 -62 8 -103 0 -64
-5 -85 -32 -140 -39 -81 -94 -146 -115 -138 -11 5 -16 31 -21 113 l-7 107 43
48 c24 26 54 68 67 94 28 52 46 58 57 19z m2975 -43 c100 -24 316 -50 411 -50
51 0 69 -4 73 -15 3 -8 -14 -56 -38 -107 -25 -51 -50 -107 -57 -125 -7 -17
-19 -34 -27 -37 -48 -19 -494 81 -515 115 -10 16 51 239 65 239 2 0 42 -9 88
-20z m-6120 -26 c71 -36 139 -62 293 -114 76 -26 141 -52 143 -58 2 -6 -18
-22 -45 -36 -57 -29 -103 -75 -132 -133 -12 -24 -25 -43 -29 -43 -17 0 -160
91 -203 129 -85 75 -142 196 -125 265 8 31 18 30 98 -10z m8796 -11 c5 -70
-32 -148 -107 -222 -62 -62 -200 -151 -237 -155 -11 0 -27 19 -45 54 -31 59
-72 100 -132 131 -21 11 -35 24 -32 29 3 5 43 21 88 35 117 36 281 99 368 139
41 20 79 34 84 32 6 -1 11 -21 13 -43z m-1492 12 c2 -5 -49 -37 -113 -70 -64
-33 -190 -104 -280 -158 -161 -96 -165 -98 -220 -95 -31 2 -58 8 -60 14 -3 10
132 134 265 243 l53 43 147 14 c81 8 154 16 162 18 23 6 43 2 46 -9z m-1781
-92 c27 -91 71 -169 130 -226 49 -48 56 -61 70 -125 10 -42 32 -96 55 -134 44
-73 34 -86 -33 -43 -141 92 -203 164 -238 276 -32 102 -39 332 -9 314 5 -3 16
-31 25 -62z m1355 54 c0 -7 -53 -59 -117 -114 -65 -56 -131 -115 -147 -132
-28 -29 -76 -43 -76 -21 0 11 135 191 183 243 33 35 38 37 96 37 43 0 61 -4
61 -13z m-180 -6 c0 -14 -101 -133 -107 -127 -7 6 13 58 40 104 13 22 26 32
43 32 13 0 24 -4 24 -9z m-3736 -118 c3 -21 6 -73 6 -115 0 -87 -3 -91 -103
-143 -73 -38 -87 -31 -87 42 0 32 -3 81 -6 110 l-7 51 59 30 c33 17 68 37 79
46 34 26 52 20 59 -21z m2834 18 c15 -10 51 -30 79 -45 l53 -26 -6 -108 c-4
-59 -10 -111 -15 -116 -10 -11 -70 14 -137 57 l-45 28 5 103 c6 133 13 145 66
107z m-4813 -51 c132 -21 344 -73 378 -92 21 -12 21 -13 -12 -16 -75 -7 -676
90 -699 113 -30 30 124 28 333 -5z m2185 -33 c0 -59 -26 -172 -50 -222 -11
-23 -36 -60 -55 -83 -40 -45 -182 -145 -196 -137 -4 3 11 34 35 69 43 63 69
125 81 197 5 26 19 46 50 73 24 20 60 63 81 96 20 33 41 57 45 54 5 -3 9 -24
9 -47z m4870 43 c0 -17 -238 -66 -489 -99 -172 -24 -191 -25 -191 -12 0 19
176 67 365 100 117 21 315 28 315 11z m-7325 -45 c246 -53 499 -89 765 -110
71 -6 109 -17 235 -67 175 -69 400 -179 397 -193 -2 -17 -68 -24 -287 -31
l-210 -7 -140 46 c-374 122 -697 184 -1000 194 -99 3 -185 10 -192 15 -16 13
13 72 54 109 49 46 159 92 198 84 11 -3 92 -21 180 -40z m7540 11 c56 -25 107
-72 131 -118 27 -52 16 -58 -100 -58 -277 0 -699 -79 -1071 -200 l-130 -43
-200 7 c-205 7 -265 14 -268 31 -2 14 224 124 399 194 148 59 153 60 315 76
90 8 227 25 304 36 133 19 475 86 484 95 13 12 93 1 136 -20z m-5504 -51 c4
-16 7 -67 8 -112 1 -94 6 -88 -98 -122 -102 -33 -108 -31 -115 37 -4 31 -12
81 -17 111 -6 30 -7 57 -2 62 14 14 165 57 193 56 19 -2 26 -9 31 -32z m3326
10 c74 -22 202 -47 361 -71 17 -3 32 -10 32 -15 0 -15 -110 -207 -127 -220
-10 -9 -44 -5 -146 20 -73 18 -159 42 -192 54 l-60 22 0 100 c0 108 6 135 30
135 8 0 54 -11 102 -25z m-3591 -43 c12 -7 28 -77 39 -168 8 -65 -2 -76 -91
-93 l-68 -14 -58 62 c-41 45 -61 77 -72 114 -8 29 -12 55 -7 60 4 4 54 14 112
23 57 8 109 17 114 19 15 6 19 5 31 -3z m-308 -106 c58 -60 79 -106 50 -106
-12 0 -168 107 -197 135 -21 21 -4 35 43 35 40 0 47 -5 104 -64z m20 46 c2 -7
-3 -12 -12 -12 -9 0 -16 7 -16 16 0 17 22 14 28 -4z m4332 3 c0 -8 -7 -15 -15
-15 -16 0 -20 12 -8 23 11 12 23 8 23 -8z m147 -1 c4 -13 -184 -154 -204 -154
-30 0 -9 46 49 106 60 63 64 65 107 62 24 -2 46 -8 48 -14z m-4617 -69 c117
-82 190 -142 190 -155 0 -4 -11 -11 -25 -14 -18 -5 -61 12 -167 63 -79 39
-190 90 -248 115 -57 24 -106 49 -108 55 -3 8 36 11 123 11 l128 0 107 -75z
m4968 64 c-2 -6 -51 -31 -108 -55 -58 -25 -170 -77 -248 -115 -121 -60 -149
-70 -178 -65 -18 4 -36 10 -38 15 -8 12 37 51 169 145 l120 86 143 0 c99 0
143 -3 140 -11z m-4072 -52 c8 -23 -35 -123 -77 -179 -64 -87 -184 -177 -205
-155 -3 3 12 36 35 74 22 37 47 95 55 127 9 32 18 61 20 63 7 7 150 81 159 82
4 0 10 -5 13 -12z m2884 -27 c64 -32 81 -45 86 -68 13 -60 28 -100 57 -154 17
-31 28 -60 25 -64 -25 -25 -152 75 -209 165 -46 71 -70 161 -43 161 2 0 40
-18 84 -40z m-5070 1 c230 -36 608 -128 672 -162 42 -23 0 -29 -132 -19 -285
21 -536 62 -761 124 -143 40 -199 62 -199 78 0 16 266 3 420 -21z m7578 17
c-9 -27 -312 -110 -533 -147 -185 -31 -480 -59 -552 -52 -34 3 -6 22 60 42
232 70 555 138 747 158 134 13 282 13 278 -1z m295 -24 c92 -24 169 -67 220
-124 41 -45 67 -103 54 -116 -3 -3 -76 0 -164 6 -90 7 -210 9 -279 5 -136 -7
-153 -1 -111 43 35 38 63 99 72 157 4 28 11 53 16 56 13 7 115 -7 192 -27z
m-8405 -9 c4 -57 24 -110 59 -158 19 -27 32 -52 28 -55 -3 -4 -92 -7 -198 -8
-106 0 -227 -4 -269 -9 -70 -7 -78 -6 -78 9 0 29 37 89 77 127 71 69 237 131
333 126 42 -2 45 -4 48 -32z m172 -20 c272 -95 651 -158 1020 -171 161 -5 168
-6 275 -45 168 -61 390 -163 393 -181 3 -17 -18 -21 -208 -38 -203 -18 -302
-13 -409 20 -283 86 -643 160 -953 194 -141 15 -171 30 -222 106 -49 74 -60
170 -18 157 9 -3 64 -22 122 -42z m8000 0 c0 -64 -67 -167 -130 -200 -14 -7
-56 -16 -95 -19 -269 -27 -681 -110 -954 -193 l-85 -25 -195 11 c-207 12 -306
23 -318 34 -4 4 -2 12 4 18 13 13 227 108 349 155 93 35 108 38 254 45 422 22
792 84 1060 178 47 16 91 30 98 30 7 1 12 -12 12 -34z m-5667 -60 c-6 -82
-130 -255 -183 -255 -49 0 -56 20 -35 108 31 134 23 123 111 153 96 34 110 33
107 -6z m3278 20 c38 -14 164 -47 262 -69 15 -4 27 -12 26 -19 0 -15 -108
-157 -129 -170 -10 -6 -31 -5 -58 2 -35 10 -51 23 -87 72 -65 88 -102 199 -67
199 5 0 29 -7 53 -15z m-3712 -34 c6 -10 7 -21 4 -25 -9 -8 -33 14 -33 30 0
20 18 17 29 -5z m4109 2 c-2 -10 -11 -19 -21 -21 -16 -3 -17 -1 -7 17 13 25
33 28 28 4z m-3899 -55 c-1 -44 -22 -111 -36 -115 -13 -5 -95 106 -87 118 7
11 61 27 97 28 24 1 27 -2 26 -31z m-298 -40 c39 -22 39 -22 38 -82 0 -34 -6
-79 -13 -101 -18 -60 -43 -58 -200 14 -72 33 -171 77 -220 98 -48 21 -89 43
-90 48 0 6 56 13 139 18 113 6 241 17 299 26 4 0 26 -9 47 -21z m135 -14 c42
-34 55 -54 34 -54 -22 0 -100 56 -100 72 0 27 18 22 66 -18z m4056 11 c-4 -24
-51 -65 -74 -65 -28 0 -21 28 15 61 35 33 64 34 59 4z m58 15 c0 -5 -7 -10
-15 -10 -8 0 -15 5 -15 10 0 6 7 10 15 10 8 0 15 -4 15 -10z m325 -13 c111 -8
179 -16 176 -22 -2 -5 -71 -40 -155 -76 -83 -36 -175 -78 -205 -93 -44 -23
-62 -27 -97 -21 -23 3 -48 13 -55 21 -6 8 -14 45 -17 83 l-4 68 43 27 c50 30
51 30 314 13z m-6333 -103 c227 -115 532 -179 913 -190 167 -5 200 -9 270 -31
128 -41 235 -84 235 -94 0 -5 -10 -13 -22 -18 -32 -12 -293 -58 -423 -75 -109
-14 -111 -14 -245 14 -379 80 -814 130 -1128 130 -126 0 -130 1 -168 28 -74
54 -123 138 -124 214 0 27 5 40 20 48 31 17 243 29 420 23 l165 -5 87 -44z
m1936 -2 c78 -52 69 -71 -42 -97 -37 -9 -71 -13 -77 -9 -11 7 -2 119 13 147
10 20 18 17 106 -41z m6346 48 c191 -14 186 -12 186 -69 0 -97 -81 -202 -206
-268 -131 -69 -351 -122 -593 -144 -170 -15 -595 -7 -781 16 -153 18 -401 59
-474 77 -92 24 -77 34 174 119 90 31 129 39 185 39 93 0 331 17 425 30 234 33
416 84 545 152 75 39 87 42 185 48 168 10 207 10 354 0z m-2330 -32 c23 -111
21 -114 -64 -95 -76 17 -80 43 -13 85 58 37 71 39 77 10z m-5675 -14 c232 -35
572 -110 663 -146 87 -33 -73 -34 -322 -2 -217 28 -403 74 -532 131 -114 51
-57 56 191 17z m7431 16 c0 -35 -240 -107 -487 -145 -136 -21 -353 -31 -353
-17 0 12 20 19 195 61 140 35 303 66 465 91 136 21 180 23 180 10z m-8426 -16
c3 -9 6 -26 6 -38 0 -43 32 -115 71 -159 21 -25 39 -49 39 -54 0 -6 -74 -15
-165 -21 -90 -7 -217 -21 -281 -32 -146 -25 -154 -25 -154 0 0 35 41 110 85
154 49 49 150 104 245 134 113 36 145 39 154 16z m9376 -19 c219 -75 325 -189
325 -350 -1 -84 -27 -150 -83 -208 -50 -52 -117 -91 -145 -84 -12 3 -137 11
-277 17 -360 17 -788 -4 -1160 -54 -94 -13 -97 -13 -244 20 -81 18 -207 49
-278 69 -244 68 -586 195 -595 221 -2 6 17 20 42 31 l45 19 108 -22 c146 -31
318 -60 492 -81 208 -25 755 -25 922 0 436 66 652 196 683 411 l7 48 44 -7
c24 -3 76 -17 114 -30z m-2850 16 c0 -5 -7 -11 -15 -15 -15 -5 -20 5 -8 17 9
10 23 9 23 -2z m-22 -99 c4 -29 -24 -40 -46 -18 -16 16 -16 18 3 32 24 18 39
13 43 -14z m-3738 -1 c0 -14 -41 -41 -62 -41 -22 0 -23 14 -2 34 17 17 64 22
64 7z m3856 -2 c32 -7 65 -16 72 -22 21 -17 13 -46 -18 -62 -27 -14 -33 -14
-87 8 -57 23 -71 41 -59 73 7 17 16 17 92 3z m-3992 -55 c-27 -37 -55 -45 -92
-27 -37 18 -42 40 -9 48 115 27 134 23 101 -21z m194 -31 c45 -107 66 -213 41
-213 -7 0 -30 15 -53 33 -23 19 -69 52 -103 76 -35 23 -63 46 -63 51 0 15 114
98 136 99 16 1 26 -10 42 -46z m3645 25 c18 -17 27 -38 31 -75 l6 -52 -74 -55
c-40 -31 -79 -56 -85 -56 -25 0 -4 106 41 213 23 54 43 60 81 25z m562 2 c50
-5 117 -10 150 -10 68 0 105 -8 105 -21 0 -6 -8 -12 -17 -16 -10 -3 -75 -28
-144 -54 l-127 -48 -103 29 c-57 17 -105 30 -106 30 -1 0 -9 13 -18 30 -42 81
-6 89 260 60z m-4591 4 c9 -3 16 -13 16 -21 0 -24 -28 -70 -47 -76 -10 -3 -59
-16 -109 -30 l-92 -25 -117 47 c-64 25 -117 51 -116 56 0 6 65 15 145 22 79 7
173 16 208 21 84 13 94 13 112 6z m464 -46 c61 -81 112 -165 138 -229 26 -64
42 -163 27 -172 -5 -3 -44 33 -87 79 l-78 85 -9 72 c-7 62 -24 126 -54 200
-15 37 24 15 63 -35z m3442 -34 c-12 -32 -25 -91 -29 -131 l-9 -72 -78 -85
c-42 -47 -81 -83 -86 -80 -30 19 25 193 93 300 58 89 110 147 121 136 4 -4 -1
-34 -12 -68z m-3835 36 c3 -6 -1 -13 -10 -16 -19 -8 -30 0 -20 15 8 14 22 14
30 1z m4220 -1 c10 -15 -1 -23 -20 -15 -9 3 -13 10 -10 16 8 13 22 13 30 -1z
m-169 -48 c-11 -18 -36 -13 -36 7 0 10 3 22 7 26 10 10 37 -20 29 -33z m151 2
c40 -13 58 -25 69 -45 13 -26 13 -28 -3 -28 -23 1 -125 62 -131 78 -5 16 1 15
65 -5z m-4177 -3 c0 -15 -80 -70 -102 -70 -17 0 -17 2 -4 28 18 34 106 69 106
42z m155 -57 c70 -46 163 -118 178 -138 19 -24 -31 -205 -57 -205 -7 0 -46 25
-87 56 -41 30 -125 85 -186 121 -62 36 -113 70 -113 76 0 22 151 137 180 137
8 0 47 -21 85 -47z m4025 -9 c55 -31 100 -62 100 -68 -1 -15 -189 -118 -205
-112 -13 5 -75 154 -75 180 0 17 46 56 66 56 7 0 58 -25 114 -56z m-6472 2
c134 -67 330 -114 572 -136 149 -13 460 -13 628 1 l132 10 147 -41 c153 -43
179 -54 153 -70 -23 -14 -291 -87 -455 -124 -148 -33 -151 -33 -245 -20 -372
50 -800 71 -1160 54 -140 -6 -265 -14 -277 -17 -28 -7 -95 32 -145 84 -56 58
-102 178 -80 211 19 29 355 76 580 80 76 2 88 -1 150 -32z m334 24 c193 -13
441 -43 628 -76 191 -33 226 -42 211 -57 -17 -17 -404 -22 -575 -7 -172 14
-328 42 -438 76 -221 70 -173 87 174 64z m1808 -14 c0 -8 -8 -24 -19 -37 -16
-20 -22 -21 -52 -13 -48 14 -49 39 -2 52 55 14 73 14 73 -2z m681 -33 c114
-128 166 -254 156 -377 -6 -76 -46 -217 -62 -219 -5 -1 -13 32 -17 74 -4 41
-16 100 -27 130 -14 36 -21 78 -21 124 0 84 -17 153 -59 236 -17 34 -31 66
-31 71 0 19 21 5 61 -39z m3852 25 c26 -13 16 -31 -23 -42 -29 -8 -35 -7 -51
13 -31 39 -25 54 18 46 21 -4 46 -11 56 -17z m-723 -8 c0 -6 -11 -33 -25 -60
-35 -69 -55 -153 -55 -230 0 -41 -8 -88 -21 -125 -29 -84 -34 -173 -15 -283
19 -108 18 -102 7 -102 -14 0 -69 112 -102 211 -70 209 -31 363 138 541 55 57
73 69 73 48z m-3912 -47 c7 -3 11 -10 9 -17 -4 -12 -134 -69 -253 -112 l-82
-28 -127 37 c-71 20 -130 39 -133 42 -14 13 22 24 153 44 77 12 187 32 245 45
111 24 100 25 188 -11z m4266 -60 c30 -76 35 -98 24 -104 -7 -4 -46 -33 -87
-63 -41 -31 -80 -56 -87 -56 -15 0 -50 88 -59 150 -6 41 -4 48 22 71 45 42
124 99 137 99 6 0 29 -43 50 -97z m-7060 15 c11 -68 43 -130 98 -185 28 -28
48 -55 44 -61 -3 -5 -32 -13 -63 -16 -121 -14 -352 -58 -460 -86 -148 -39
-147 -40 -140 10 14 103 108 217 236 284 89 46 216 95 252 96 23 0 27 -5 33
-42z m7517 -140 c80 -79 182 -170 227 -203 45 -33 80 -66 79 -74 -2 -11 -231
-100 -305 -118 -19 -4 -41 14 -130 104 -125 126 -243 279 -240 308 2 14 32 36
98 72 52 29 102 53 110 53 8 0 81 -64 161 -142z m-4568 111 c154 -79 356 -223
357 -254 0 -25 -95 -175 -111 -175 -7 0 -55 28 -107 61 -86 56 -346 189 -370
189 -5 0 -15 6 -21 14 -10 12 -6 22 21 50 33 36 166 135 181 136 4 0 27 -10
50 -21z m-163 -2 c0 -29 -139 -127 -180 -127 -27 0 -70 21 -70 34 0 9 218 104
243 105 4 1 7 -5 7 -12z m4791 -36 c174 -68 354 -125 567 -180 101 -25 183
-51 183 -56 0 -6 -28 -16 -63 -23 -35 -8 -131 -29 -213 -48 -83 -19 -158 -34
-167 -34 -44 0 -438 339 -438 376 0 8 2 14 4 14 2 0 59 -22 127 -49z m-4104
-53 c21 -24 54 -65 72 -92 32 -46 33 -51 23 -95 -14 -60 -49 -141 -61 -141 -5
0 -24 19 -42 43 -18 23 -52 63 -76 89 l-43 47 20 53 c11 29 24 72 30 96 6 23
17 42 24 42 7 0 31 -19 53 -42z m3358 15 c4 -16 17 -59 30 -96 l24 -68 -52
-57 c-29 -32 -64 -73 -78 -91 -15 -21 -30 -32 -37 -27 -6 4 -23 45 -38 91
l-26 84 25 43 c35 58 115 148 133 148 7 0 16 -12 19 -27z m-4324 -44 c63 -21
67 -34 18 -65 -69 -44 -310 -157 -333 -156 -37 0 -281 53 -290 62 -12 12 -15
11 194 64 96 25 216 58 265 74 107 36 103 35 146 21z m4628 -11 c41 -66 136
-182 229 -279 59 -62 101 -114 96 -118 -25 -23 -235 -123 -248 -118 -45 17
-286 348 -286 391 0 14 26 41 83 83 45 35 89 63 97 63 8 0 21 -10 29 -22z
m-4392 -82 c170 -73 374 -188 416 -234 16 -18 15 -21 -11 -58 -46 -63 -123
-144 -136 -144 -7 0 -59 24 -117 54 -117 61 -214 102 -374 156 -64 21 -111 43
-113 51 -1 8 13 24 32 37 18 13 74 56 122 97 49 41 92 75 96 75 3 0 42 -15 85
-34z m-157 14 c0 -12 -161 -142 -207 -166 -25 -14 -40 -16 -70 -8 -21 5 -38
14 -38 21 0 11 277 159 303 162 6 0 12 -3 12 -9z m-1290 -35 c258 -21 307 -27
322 -36 24 -16 -8 -26 -136 -43 -237 -31 -386 -39 -616 -33 -229 6 -322 18
-465 56 -160 44 -143 59 81 71 209 10 581 3 814 -15z m8569 6 c36 -3 66 -11
68 -18 5 -13 -85 -44 -199 -67 -243 -49 -594 -49 -979 0 -192 25 -200 41 -31
60 110 12 384 32 527 38 106 4 533 -5 614 -13z m-9605 -36 c156 -69 319 -96
621 -102 265 -6 454 8 743 53 l162 25 148 -27 c157 -28 192 -38 192 -53 0 -13
-148 -73 -361 -146 -429 -146 -822 -235 -1218 -275 -135 -13 -412 -13 -526 1
-317 39 -521 173 -543 356 -4 41 -3 44 30 57 95 40 513 123 679 135 9 0 42
-10 73 -24z m3128 -53 c51 -56 98 -128 98 -149 0 -20 -60 -127 -85 -152 -12
-13 -25 -3 -94 70 -44 46 -80 89 -81 96 0 19 102 173 115 173 7 0 28 -17 47
-38z m3585 -69 c39 -60 101 -143 138 -186 36 -43 65 -83 63 -88 -5 -15 -188
-89 -219 -89 -32 0 -51 20 -133 144 -79 118 -85 137 -59 182 27 48 112 144
127 144 6 0 44 -48 83 -107z m-3350 36 c27 -104 0 -312 -43 -326 -7 -2 -16 22
-22 64 -7 37 -17 86 -23 109 -11 37 -9 47 21 122 19 45 39 81 45 79 5 -2 15
-23 22 -48z m3054 -29 c17 -44 28 -85 25 -100 -3 -14 -12 -54 -20 -90 -9 -36
-16 -82 -16 -103 0 -60 -22 -40 -44 39 -32 121 -22 344 15 332 6 -2 24 -37 40
-78z m-4423 -5 c29 -9 52 -20 52 -25 0 -20 -266 -185 -480 -297 -106 -56 -128
-63 -270 -92 -454 -90 -875 -251 -1074 -410 -45 -36 -64 -42 -256 -81 -271
-55 -359 -64 -595 -65 -236 0 -306 8 -430 53 -132 47 -223 123 -272 227 -25
53 -28 72 -28 155 0 88 3 101 34 164 62 127 204 239 409 322 99 41 111 39 112
-11 0 -39 59 -144 105 -189 94 -90 260 -153 468 -177 128 -15 510 -6 662 15
341 48 689 130 1020 241 161 54 465 168 491 185 0 0 24 -7 52 -15z m291 -87
c154 -52 432 -182 439 -205 7 -25 -37 -29 -208 -19 -196 11 -511 -2 -768 -30
-142 -16 -187 -14 -152 7 8 5 71 41 140 80 69 39 175 104 235 144 61 41 121
74 134 74 14 1 95 -23 180 -51z m5396 16 c30 -20 55 -40 55 -45 0 -11 -24 -16
-100 -24 -36 -4 -122 -15 -192 -26 -70 -10 -134 -16 -143 -13 -21 8 -19 40 3
49 68 27 281 95 300 95 12 0 47 -16 77 -36z m-4655 -100 c85 -92 89 -103 54
-153 -16 -22 -34 -42 -39 -45 -6 -2 -55 5 -108 15 -96 19 -146 41 -147 66 0
20 143 183 161 183 9 0 45 -30 79 -66z m239 4 c18 -52 24 -189 9 -217 -18 -34
-44 -48 -64 -36 -14 9 -64 117 -64 139 0 17 85 145 97 146 6 0 16 -14 22 -32z
m3245 -16 c16 -26 51 -78 78 -115 27 -37 46 -72 43 -77 -3 -5 -44 -22 -91 -36
-64 -20 -88 -24 -97 -15 -23 23 -16 241 9 283 12 18 31 5 58 -40z m2091 38
c534 -39 973 -130 1298 -270 208 -90 370 -217 429 -337 32 -66 46 -148 34
-198 -6 -23 -10 -25 -70 -25 -192 0 -700 85 -767 128 -14 9 -61 41 -105 70
-220 146 -592 281 -1004 363 -142 29 -164 36 -270 92 -156 82 -280 156 -280
167 0 5 10 11 23 13 46 9 577 7 712 -3z m-686 -74 c69 -40 145 -83 169 -95 60
-31 55 -45 -15 -38 -166 16 -411 37 -506 43 -107 6 -108 6 -158 46 -28 22 -48
45 -46 51 5 17 218 50 416 66 8 0 71 -32 140 -73z m-659 39 c0 -8 -12 -17 -27
-21 -16 -3 -35 -8 -45 -10 -29 -8 -30 14 -1 30 36 20 73 20 73 1z m100 -74
c33 -29 41 -41 30 -44 -31 -11 -366 -23 -384 -14 -33 16 2 34 129 66 160 40
170 39 225 -8z m-4200 -122 c0 -23 -37 -26 -64 -6 -16 12 -16 14 5 41 l23 29
18 -23 c10 -12 18 -31 18 -41z m-593 43 c50 -4 95 -11 100 -15 4 -5 -12 -28
-37 -51 -45 -42 -46 -42 -170 -60 -848 -119 -1596 -443 -1770 -766 -33 -60
-35 -72 -36 -159 -1 -78 -4 -95 -19 -103 -9 -6 -72 -12 -139 -15 -230 -10
-365 48 -437 187 -20 37 -24 60 -24 135 0 81 3 95 30 144 32 59 97 136 126
152 11 5 81 27 157 49 310 88 650 215 957 357 159 74 161 75 320 98 136 20
285 34 505 49 86 5 346 4 437 -2z m5009 -83 c71 -49 136 -97 144 -105 12 -12
11 -14 -9 -14 -13 0 -78 11 -145 25 -67 14 -192 36 -280 49 l-158 23 -41 41
c-23 23 -38 45 -33 49 9 10 133 19 282 21 l111 2 129 -91z m270 66 c87 -9 215
-24 284 -35 116 -18 137 -25 290 -95 303 -141 648 -269 952 -355 76 -22 146
-44 157 -49 32 -18 99 -101 128 -159 28 -57 41 -148 29 -197 -5 -21 -12 -25
-44 -25 -93 0 -383 66 -596 136 -92 30 -118 44 -173 90 -113 96 -252 178 -455
267 -128 57 -363 141 -482 172 -49 14 -102 40 -180 90 -137 87 -226 153 -226
165 0 15 134 12 316 -5z m-4996 -24 c48 -35 33 -45 -75 -53 -132 -9 -138 -7
-89 43 38 39 41 40 89 34 28 -4 61 -15 75 -24z m4180 -6 c21 -22 30 -38 24
-44 -10 -10 -199 0 -210 12 -13 13 33 50 73 57 67 13 78 11 113 -25z m-4028
-11 c20 -12 4 -24 -31 -24 -37 0 -68 19 -54 34 7 7 70 -1 85 -10z m3801 9 c4
-3 2 -12 -4 -20 -13 -15 -79 -18 -79 -3 0 19 68 38 83 23z m-5518 -74 c-22
-35 -544 -239 -843 -329 -177 -53 -198 -44 -69 32 167 97 425 195 707 267 159
41 217 50 205 30z m1662 -5 c10 -26 -11 -48 -53 -58 -21 -5 -127 -31 -234 -59
-259 -65 -243 -62 -238 -47 2 8 44 47 92 89 85 73 89 75 154 81 37 4 113 8
170 9 87 1 104 -2 109 -15z m230 -1 c5 -15 -16 -20 -104 -29 -68 -6 -73 -5
-73 13 0 11 3 23 7 27 12 12 166 2 170 -11z m3371 0 c2 -9 -7 -13 -27 -13 -31
0 -42 14 -18 23 19 8 40 3 45 -10z m170 -7 c5 -26 -13 -35 -62 -29 -51 7 -63
17 -46 38 20 24 104 17 108 -9z m329 15 c72 -9 73 -9 170 -91 54 -46 100 -87
101 -91 6 -16 -32 -9 -150 25 -65 19 -170 47 -235 61 -65 15 -128 33 -140 41
-22 14 -30 43 -16 57 9 10 183 8 270 -2z m1590 -31 c283 -72 542 -170 710
-268 132 -78 109 -85 -84 -27 -290 87 -833 300 -833 326 0 17 49 9 207 -31z
m-6107 1 c0 -10 -81 -81 -175 -153 -35 -28 -91 -58 -135 -74 -371 -133 -723
-338 -881 -513 -47 -51 -67 -64 -153 -100 -110 -46 -340 -122 -429 -141 -76
-17 -82 -11 -82 88 0 69 4 84 35 142 170 314 849 610 1730 753 48 8 90 7 90
-2z m4929 -27 c75 -13 192 -38 261 -55 115 -27 138 -37 280 -118 260 -148 535
-279 808 -386 122 -47 125 -48 167 -106 56 -77 79 -144 73 -220 -6 -79 -13
-85 -85 -70 -92 20 -328 99 -451 152 -104 43 -121 55 -200 131 -169 161 -437
317 -774 448 -54 21 -117 53 -141 71 -100 78 -207 171 -207 181 0 14 92 5 269
-28z m-3933 0 c44 -14 104 -39 134 -56 60 -33 150 -114 150 -135 0 -16 -10
-16 -122 -1 l-89 12 -46 54 c-25 29 -70 72 -99 94 -84 63 -58 75 72 32z m2788
17 c3 -5 -18 -27 -48 -49 -29 -22 -74 -65 -100 -96 -45 -52 -50 -55 -104 -61
-31 -3 -76 -10 -100 -15 -64 -12 -66 10 -7 70 55 56 128 98 235 134 79 27 115
32 124 17z m-3057 -17 c2 -5 -3 -19 -11 -29 -14 -19 -15 -19 -21 -2 -4 9 -4
24 -1 33 6 16 27 15 33 -2z m132 -16 c67 -38 165 -131 159 -150 -3 -9 -33 -15
-94 -20 -49 -3 -115 -9 -146 -13 -55 -6 -58 -5 -58 15 0 22 38 178 46 192 10
15 37 8 93 -24z m376 0 c130 -37 201 -85 261 -175 45 -67 98 -189 88 -204 -3
-6 -32 15 -68 49 -34 33 -89 73 -123 90 -39 20 -68 43 -82 65 -30 49 -110 120
-175 158 -40 22 -54 34 -45 40 16 9 52 4 144 -23z m2345 23 c0 -5 -28 -25 -63
-44 -61 -34 -151 -119 -176 -165 -6 -12 -39 -36 -72 -53 -75 -37 -139 -95
-191 -172 -54 -79 -67 -64 -34 37 68 201 159 309 306 361 97 35 230 55 230 36z
m324 -31 c7 -31 3 -43 -32 -100 -43 -72 -28 -66 -167 -62 -54 2 -65 5 -65 19
0 23 94 112 160 151 69 40 92 38 104 -8z m-3254 19 c0 -19 -71 -109 -86 -109
-17 0 -57 77 -50 95 8 22 136 35 136 14z m3487 -6 c7 -3 13 -9 13 -13 0 -21
-62 -140 -73 -140 -14 0 -97 103 -97 121 0 7 8 21 17 32 15 16 26 18 72 12 30
-4 60 -9 68 -12z m-3630 -72 c32 -62 32 -64 15 -93 -21 -37 -78 -88 -97 -88
-7 0 -84 -20 -171 -45 -86 -25 -160 -43 -162 -40 -8 7 307 314 333 325 36 16
50 6 82 -59z m3823 -19 c41 -42 112 -112 158 -154 71 -66 96 -98 77 -98 -3 0
-67 18 -143 39 -75 22 -168 47 -205 55 -38 9 -77 21 -88 26 -28 16 -24 56 16
138 33 70 35 72 72 72 33 0 45 -8 113 -78z m-3990 46 c0 -15 -131 -143 -264
-260 -70 -60 -106 -84 -160 -104 -417 -156 -817 -373 -1078 -585 -53 -44 -101
-79 -107 -79 -17 0 -34 72 -28 125 5 54 43 141 71 164 8 7 82 45 163 85 246
121 549 303 747 450 40 30 86 61 102 69 60 31 470 145 527 146 15 1 27 -4 27
-11z m4180 -34 c267 -70 370 -109 456 -171 218 -157 489 -320 736 -444 126
-63 142 -74 169 -116 35 -57 49 -102 49 -165 0 -54 -7 -78 -24 -78 -6 0 -45
28 -86 61 -226 185 -607 397 -978 544 -131 52 -177 75 -221 112 -77 65 -291
274 -291 285 0 16 56 8 190 -28z m-3850 -4 c0 -35 -30 -99 -55 -120 -15 -12
-19 -12 -31 5 -21 29 -17 48 22 98 43 55 64 60 64 17z m3260 -39 c5 -11 10
-31 10 -45 0 -20 -5 -26 -22 -26 -13 0 -30 4 -38 10 -12 8 -12 13 3 44 19 41
32 45 47 17z m1746 -67 c71 -25 174 -66 229 -91 190 -85 403 -217 383 -238
-19 -20 -740 316 -784 366 l-19 22 31 -6 c18 -3 90 -27 160 -53z m-1624 19
c19 -17 24 -43 9 -43 -6 0 -17 10 -25 22 -27 38 -17 51 16 21z m-52 -14 c0 -5
-4 -9 -10 -9 -5 0 -10 7 -10 16 0 8 5 12 10 9 6 -3 10 -10 10 -16z m-3445 -19
c3 -6 -1 -13 -10 -16 -19 -8 -30 0 -20 15 8 14 22 14 30 1z m520 -42 c30 -65
51 -145 42 -154 -4 -4 -53 -11 -109 -15 -57 -4 -158 -18 -226 -30 -67 -12
-125 -20 -128 -17 -11 11 36 223 52 235 9 6 46 14 82 18 37 3 76 7 87 9 11 2
55 4 98 5 l78 1 24 -52z m180 26 c33 -8 65 -22 72 -31 20 -26 64 -166 55 -175
-7 -7 -44 -4 -198 18 -29 4 -32 9 -63 101 -22 69 -28 99 -20 104 14 8 75 2
154 -17z m2555 10 c8 -8 -24 -161 -40 -194 -6 -12 -25 -14 -91 -12 -46 2 -97
6 -113 9 -27 5 -28 7 -22 44 7 46 52 150 69 162 15 10 186 2 197 -9z m-242 -6
c-2 -7 -16 -52 -32 -100 -27 -83 -30 -88 -60 -92 -152 -22 -191 -25 -198 -18
-11 11 38 151 62 176 34 35 237 65 228 34z m384 -10 c25 -20 102 -228 90 -240
-15 -15 -232 31 -240 50 -6 18 14 124 33 169 13 30 18 33 58 33 24 0 50 -6 59
-12z m-3292 -23 c0 -27 -32 -96 -44 -92 -18 6 -19 54 0 81 18 28 44 35 44 11z
m3385 -9 c18 -27 17 -77 -1 -83 -12 -4 -44 65 -44 92 0 23 28 18 45 -9z
m-4415 4 c0 -13 -256 -181 -420 -275 -181 -104 -354 -189 -358 -175 -6 16 14
36 103 105 142 111 341 223 560 316 94 40 115 45 115 29z m940 -20 c0 -11 -37
-75 -83 -142 l-82 -123 -140 -51 c-77 -29 -144 -50 -149 -47 -10 7 340 361
369 373 11 5 35 9 53 9 25 1 32 -3 32 -19z m3714 -146 c91 -92 166 -170 166
-175 0 -14 -20 -10 -110 24 l-85 32 -82 123 c-80 118 -99 162 -69 162 7 0 88
-75 180 -166z m-2853 128 c59 -38 128 -116 167 -190 28 -53 41 -102 27 -102
-3 0 -31 21 -62 46 -30 25 -75 55 -99 66 -41 20 -44 25 -68 104 -38 119 -37
121 35 76z m1859 17 c0 -6 -11 -48 -25 -93 -26 -80 -27 -82 -78 -109 -29 -15
-76 -47 -104 -72 -46 -40 -73 -55 -73 -40 0 13 56 114 90 165 43 63 89 109
140 139 40 24 50 26 50 10z m2020 -97 c203 -101 470 -285 447 -308 -16 -16
-337 160 -570 312 -202 132 -149 130 123 -4z m-919 54 c242 -70 273 -83 382
-169 325 -255 702 -476 992 -582 55 -20 104 -41 109 -45 13 -13 -38 -58 -92
-82 -31 -14 -69 -22 -113 -22 -56 -1 -71 3 -100 25 -170 128 -569 349 -875
483 -124 55 -137 63 -250 165 -136 124 -254 244 -254 260 0 19 43 12 201 -33z
m-3994 18 c4 -11 -268 -281 -357 -356 -30 -25 -89 -60 -130 -78 -234 -102
-632 -324 -804 -448 -60 -44 -132 -53 -220 -28 -68 20 -132 71 -115 92 6 8 17
14 25 14 27 0 243 89 370 153 237 119 491 281 714 456 123 97 148 108 396 181
102 29 115 31 121 14z m190 -121 c-2 -24 -12 -52 -22 -63 -16 -18 -91 -38
-102 -26 -6 6 70 128 96 153 12 13 15 13 24 -2 5 -10 7 -37 4 -62z m3563 -3
c29 -44 50 -83 47 -86 -11 -11 -85 8 -102 25 -28 32 -33 141 -6 141 5 0 32
-36 61 -80z m3130 7 c158 -30 378 -57 468 -57 77 0 84 -11 46 -80 -45 -83
-121 -138 -244 -174 -72 -22 -236 -37 -310 -29 l-60 6 0 78 c0 92 -20 154 -74
229 -20 28 -36 53 -36 56 0 8 54 1 210 -29z m-4845 -22 c98 -30 229 -104 213
-121 -3 -2 -38 1 -79 7 -61 9 -87 8 -160 -6 -71 -13 -95 -14 -130 -5 -78 22
-193 15 -301 -16 -34 -10 -18 21 25 47 161 101 305 132 432 94z m-1301 -4 c3
-4 11 -52 17 -106 14 -112 16 -109 -71 -118 -89 -10 -201 -34 -343 -74 -76
-21 -132 -32 -137 -27 -16 17 18 230 42 261 29 37 473 95 492 64z m172 -2 c93
-17 100 -24 114 -124 7 -47 10 -89 7 -92 -3 -3 -59 -1 -124 3 l-118 9 -12 95
c-7 52 -10 101 -8 108 5 15 61 16 141 1z m2186 -24 c-1 -16 -5 -120 -8 -230
-3 -110 -9 -204 -14 -208 -4 -4 -61 10 -126 32 l-119 40 2 86 c1 109 21 248
37 271 16 21 114 43 181 41 49 -2 50 -3 47 -32z m259 18 c5 -5 11 -103 14
-219 2 -115 8 -233 13 -261 5 -29 5 -56 0 -61 -8 -8 -240 46 -266 62 -24 14
-11 448 15 490 7 11 211 2 224 -11z m167 -24 c130 -28 132 -29 132 -89 0 -95
46 -389 85 -542 5 -21 4 -28 -7 -28 -8 0 -82 27 -164 59 -173 69 -155 44 -174
253 -13 131 -11 334 3 356 10 16 10 16 125 -9z m-4053 1 c-19 -31 -322 -241
-489 -339 -124 -73 -328 -174 -446 -221 -153 -61 -169 -52 -62 35 138 115 384
267 612 377 251 122 406 182 385 148z m5092 -46 c249 -106 551 -271 735 -403
104 -73 175 -137 166 -146 -25 -25 -435 169 -670 317 -169 106 -388 264 -388
280 0 15 34 4 157 -48z m-3430 -17 c80 -59 126 -119 127 -165 1 -50 -17 -51
-112 -11 -42 18 -79 35 -81 36 -7 5 -29 167 -24 176 9 15 33 6 90 -36z m1700
16 c-3 -16 -11 -84 -18 -153 -6 -69 -15 -128 -18 -132 -10 -11 -206 76 -209
93 -7 40 180 219 230 219 17 0 19 -5 15 -27z m-2697 -31 c0 -17 -125 -254
-158 -299 -9 -13 -70 -48 -137 -79 -126 -59 -165 -72 -165 -57 0 5 41 56 91
114 50 57 128 150 172 206 65 83 88 105 121 117 56 20 76 19 76 -2z m3672 2
c40 -13 57 -29 126 -117 308 -394 718 -776 1043 -970 184 -109 314 -157 450
-164 116 -7 181 11 240 64 23 20 45 33 53 30 24 -10 83 -96 133 -195 43 -85
47 -100 51 -181 4 -79 1 -95 -20 -143 -34 -75 -79 -122 -146 -155 -49 -24 -69
-28 -142 -28 l-86 0 -159 149 c-290 270 -537 468 -859 685 -159 107 -184 128
-241 201 -154 194 -342 482 -458 701 -77 144 -76 154 15 123z m-3612 -19 c0
-30 -58 -214 -73 -233 -10 -13 -71 -42 -88 -42 -19 0 -6 33 61 156 39 71 70
132 70 136 0 5 7 8 15 8 9 0 15 -9 15 -25z m3539 -42 c81 -165 236 -417 382
-621 50 -70 94 -133 96 -139 9 -23 -18 -14 -96 31 -42 24 -133 74 -204 111
-70 37 -131 74 -136 83 -27 50 -101 474 -101 574 0 48 24 31 59 -39z m-1459
11 c80 -25 140 -57 140 -74 0 -6 -30 -10 -73 -10 -41 0 -99 -5 -129 -11 -56
-11 -57 -11 -118 27 -118 74 -121 81 -53 95 55 11 147 0 233 -27z m-410 16
c17 -12 14 -15 -88 -82 l-63 -41 -56 12 c-31 6 -94 11 -141 11 -71 0 -83 2
-73 14 15 18 99 54 176 77 67 20 221 25 245 9z m-1910 -18 c0 -23 -342 -421
-392 -457 -13 -9 -95 -57 -183 -107 -263 -148 -579 -363 -785 -533 -42 -34
-85 -67 -97 -73 -30 -17 -130 -15 -189 3 -60 18 -124 68 -124 98 0 36 275 288
440 402 20 14 77 36 126 49 235 63 462 196 840 489 12 10 80 40 151 68 70 27
137 54 148 59 25 11 65 12 65 2z m4091 -29 c59 -21 121 -51 148 -72 435 -337
718 -491 983 -535 60 -11 370 -260 475 -383 l46 -54 -29 -30 c-47 -50 -100
-72 -185 -77 -89 -5 -148 6 -269 51 -250 94 -599 353 -915 678 -164 169 -385
429 -385 452 0 13 30 6 131 -30z m-2043 -7 c37 -18 78 -43 92 -55 25 -21 25
-21 5 -36 -39 -30 -158 -105 -165 -105 -4 0 -38 20 -75 45 -38 25 -77 47 -87
51 -26 8 -22 30 10 52 26 19 141 82 149 82 2 0 34 -15 71 -34z m4153 -5 c97
-33 331 -90 452 -109 65 -11 120 -22 123 -25 11 -11 -8 -50 -44 -89 -77 -86
-203 -123 -388 -115 -67 3 -130 9 -140 15 -15 8 -18 24 -18 104 -1 86 -4 100
-33 158 -18 34 -33 67 -33 71 0 14 22 11 81 -10z m-5141 -54 c22 -11 25 -19
28 -74 l3 -62 -78 -45 c-68 -40 -84 -46 -128 -44 l-50 3 -3 103 c-4 145 -3
146 111 138 50 -4 103 -12 117 -19z m-252 -106 c3 -117 -4 -141 -38 -141 -41
0 -288 -76 -424 -130 -82 -33 -156 -60 -164 -60 -10 0 -13 7 -8 23 3 12 18 82
33 156 21 104 32 136 48 147 55 36 428 124 510 121 l40 -2 3 -114z m872 90
c14 -4 25 -13 25 -21 0 -23 -204 -215 -215 -204 -6 6 -30 50 -55 99 -51 102
-50 108 30 123 59 11 179 13 215 3z m846 -16 c58 -38 35 -73 -66 -104 -37 -12
-74 -21 -82 -21 -7 1 -39 25 -72 55 -88 82 -72 96 97 90 69 -2 105 -8 123 -20z
m-1329 -10 c13 -9 23 -19 23 -23 0 -12 -90 -53 -101 -47 -5 4 -9 27 -9 52 l0
46 32 -7 c18 -3 42 -13 55 -21z m626 -26 c61 -31 127 -78 127 -91 0 -6 -28
-36 -62 -68 -35 -31 -103 -105 -152 -164 -49 -58 -95 -106 -102 -106 -8 0 -23
18 -34 41 -12 22 -37 65 -56 95 -25 39 -34 63 -30 79 8 30 223 235 248 235 10
0 38 -10 61 -21z m453 -35 c35 -31 64 -62 64 -69 0 -7 -28 -33 -63 -58 -35
-25 -69 -52 -76 -61 -8 -9 -20 -16 -29 -16 -16 0 -155 126 -160 146 -5 20 143
113 182 114 10 0 47 -25 82 -56z m2279 -33 c99 -48 225 -114 280 -145 139 -80
325 -199 325 -208 0 -47 -324 94 -543 235 -120 78 -267 187 -267 198 0 18 28
7 205 -80z m-1897 57 c16 -16 15 -28 -2 -28 -17 0 -38 24 -29 33 9 10 17 9 31
-5z m-1285 -23 c8 -19 -13 -31 -24 -14 -13 20 -11 29 5 29 8 0 16 -7 19 -15z
m-1898 -25 c-29 -32 -237 -170 -350 -233 -103 -57 -262 -127 -289 -127 -33 0
-13 20 77 78 178 115 562 320 575 307 3 -3 -3 -14 -13 -25z m6295 -47 c52 -19
153 -51 224 -72 71 -20 131 -42 133 -48 7 -21 -66 -90 -120 -114 -46 -21 -67
-24 -182 -24 -76 0 -152 6 -182 13 l-52 14 5 91 c5 78 3 100 -14 146 -12 30
-19 58 -16 62 3 5 28 -1 57 -13 29 -11 95 -36 147 -55z m-7410 44 c0 -7 -7
-35 -16 -61 -16 -46 -15 -120 2 -188 8 -35 -9 -42 -132 -57 -158 -19 -283 14
-352 94 -51 57 -52 56 113 100 55 14 159 48 230 75 144 53 155 56 155 37z
m2904 1 c-28 -47 -81 -98 -101 -98 -38 0 -26 24 33 68 57 42 82 53 68 30z
m-109 -28 c-22 -24 -35 -26 -35 -5 0 9 10 19 23 24 30 12 34 5 12 -19z m-980
-154 c-15 -66 -31 -129 -36 -138 -6 -10 -27 -27 -49 -38 -46 -23 -50 -24 -50
-9 0 12 135 334 149 354 17 27 10 -60 -14 -169z m1143 114 c5 -78 2 -82 -53
-64 -25 9 -45 22 -45 30 0 19 70 96 84 91 6 -2 12 -27 14 -57z m1360 17 c23
-23 42 -48 42 -55 0 -15 -87 -55 -101 -46 -10 6 -12 127 -2 137 11 12 18 8 61
-36z m100 12 c48 -35 53 -56 16 -65 -21 -5 -33 1 -65 32 -21 21 -39 44 -39 51
0 23 45 14 88 -18z m-273 11 c7 -11 -19 -75 -35 -85 -15 -9 -62 34 -58 54 2 8
19 20 38 27 44 16 48 16 55 4z m-2363 -24 c-4 -22 -85 -212 -128 -300 -29 -59
-31 -60 -159 -132 -130 -73 -162 -86 -152 -60 3 7 46 70 96 139 49 69 121 174
159 233 60 94 73 109 113 125 53 22 75 20 71 -5z m1250 -17 c23 -33 36 -129
17 -129 -35 0 -56 29 -63 85 -9 80 7 97 46 44z m-302 1 c0 -16 -7 -20 -30 -20
-33 0 -39 14 -12 29 27 16 42 13 42 -9z m1500 -41 c0 -57 -13 -89 -37 -89 -13
0 -14 8 -9 43 17 108 46 138 46 46z m321 51 c28 -16 23 -32 -8 -28 -17 2 -29
10 -31 21 -4 19 10 22 39 7z m-841 -68 c38 -37 70 -72 70 -77 0 -6 -32 -46
-71 -90 -71 -79 -207 -264 -235 -317 -8 -16 -21 -28 -29 -28 -8 0 -22 12 -32
28 -10 15 -39 56 -65 92 -70 99 -70 101 9 200 94 119 237 260 262 260 11 0 51
-29 91 -68z m347 16 c18 -18 33 -40 33 -51 0 -29 -52 -169 -74 -199 -11 -16
-27 -28 -35 -28 -9 0 -47 39 -85 87 -54 67 -67 90 -59 102 16 27 147 121 168
121 10 0 34 -14 52 -32z m-2457 -3 c0 -20 -47 -94 -165 -260 -169 -237 -177
-245 -371 -376 -321 -217 -573 -418 -858 -684 l-159 -149 -55 -4 c-71 -6 -148
12 -205 48 -73 46 -75 58 -20 132 25 34 128 145 228 244 l182 182 87 26 c262
80 574 290 901 606 50 48 111 99 136 113 50 29 279 136 292 137 4 0 7 -7 7
-15z m2570 6 c0 -5 -5 -22 -10 -37 -8 -20 -14 -24 -22 -16 -9 9 -9 18 0 37 11
24 32 35 32 16z m-1510 -11 c12 -8 -5 -29 -87 -112 -113 -113 -129 -117 -117
-31 8 62 8 62 68 103 41 27 74 42 116 49 3 0 12 -4 20 -9z m2041 -31 c25 -16
53 -37 61 -47 20 -22 34 -117 19 -127 -6 -3 -57 38 -114 94 -80 80 -99 103
-87 110 21 14 69 2 121 -30z m-223 19 c14 -14 16 -44 3 -53 -6 -3 -19 4 -30
16 -16 17 -18 26 -10 36 14 16 22 16 37 1z m-1978 -8 c0 -5 -7 -10 -16 -10 -8
0 -12 5 -9 10 3 6 10 10 16 10 5 0 9 -4 9 -10z m280 0 c0 -5 -4 -10 -10 -10
-5 0 -10 5 -10 10 0 6 5 10 10 10 6 0 10 -4 10 -10z m1985 0 c3 -5 -1 -10 -9
-10 -9 0 -16 5 -16 10 0 6 4 10 9 10 6 0 13 -4 16 -10z m-2325 -24 c0 -19 -23
-42 -107 -107 -186 -144 -313 -257 -521 -467 -111 -113 -204 -203 -207 -200
-3 3 21 77 54 164 32 87 76 217 97 287 37 125 39 129 76 148 78 40 293 121
406 153 195 56 202 57 202 22z m290 -9 c0 -25 -18 -57 -82 -142 -44 -61 -115
-161 -155 -222 -68 -103 -93 -131 -93 -103 0 6 9 64 20 128 l21 117 129 128
c71 70 136 127 145 127 10 0 15 -10 15 -33z m171 18 c58 -21 69 -37 69 -110
l0 -62 -121 -181 c-67 -100 -126 -182 -132 -182 -6 0 -7 22 -3 63 4 34 15 141
25 238 16 169 18 178 46 212 34 40 53 44 116 22z m1543 -42 c40 -51 46 -64 51
-123 3 -36 12 -122 20 -192 17 -147 19 -191 6 -184 -5 4 -47 64 -94 135 -47
70 -105 157 -131 192 -41 56 -46 69 -46 115 0 33 5 56 14 64 16 13 104 49 123
50 6 0 32 -26 57 -57z m227 -70 l128 -128 26 -147 c15 -81 25 -155 23 -165 -3
-12 -34 28 -92 116 -48 74 -118 176 -156 226 -86 117 -90 124 -90 179 0 36 4
46 17 46 9 0 74 -57 144 -127z m288 51 c69 -36 129 -71 133 -77 14 -23 30
-119 21 -128 -5 -5 -30 9 -58 33 -28 22 -96 77 -152 120 -67 52 -103 86 -103
99 0 31 25 23 159 -47z m95 16 c16 -6 26 -17 26 -30 0 -11 -2 -20 -6 -20 -11
0 -84 45 -84 53 0 10 34 9 64 -3z m-1910 -32 c5 -15 6 -31 2 -35 -13 -13 -41
13 -44 41 -3 22 0 27 15 24 9 -2 22 -15 27 -30z m999 18 c7 -18 -20 -56 -39
-56 -16 0 -18 23 -4 51 12 22 36 25 43 5z m-1114 -10 c9 -11 9 -19 -1 -35 -18
-30 -38 -26 -38 7 0 42 17 54 39 28z m2231 -52 c185 -74 184 -73 203 -143 19
-69 21 -81 8 -81 -5 0 -49 27 -97 61 -49 33 -126 83 -170 110 -78 47 -101 70
-88 90 9 15 28 11 144 -37z m-2831 -11 c-2 -80 -11 -98 -99 -198 -206 -235
-434 -553 -569 -792 -180 -319 -282 -633 -268 -823 9 -105 31 -161 89 -225 36
-40 48 -60 43 -74 -8 -27 -136 -145 -203 -188 -162 -104 -323 -95 -439 24 -59
61 -85 135 -86 245 l0 87 100 153 c196 300 386 645 508 928 16 36 44 85 62
110 69 92 310 345 448 471 159 146 383 329 403 329 8 0 12 -15 11 -47z m1443
-20 c99 -122 97 -108 32 -194 -68 -91 -166 -253 -228 -376 -25 -51 -50 -93
-55 -93 -5 0 -44 66 -86 146 l-76 146 48 76 c96 155 266 362 297 362 7 0 38
-30 68 -67z m1062 -12 c55 -44 124 -101 153 -128 l52 -48 42 -155 c50 -185 55
-210 41 -210 -6 0 -21 15 -33 33 -47 66 -215 273 -292 360 l-80 89 -5 69 c-3
51 -1 69 8 69 7 0 58 -36 114 -79z m-1839 -76 c27 -214 26 -216 -62 -371 -42
-74 -81 -134 -86 -134 -6 0 -7 21 -4 53 28 244 37 340 37 388 0 31 3 70 6 87
8 38 73 117 86 104 4 -4 15 -62 23 -127z m1117 98 c11 -20 17 -69 22 -168 4
-77 13 -187 20 -245 19 -155 12 -157 -67 -21 -66 113 -67 121 -42 326 8 66 15
123 15 128 0 18 37 4 52 -20z m-1490 6 c7 -20 -12 -214 -36 -364 -23 -146 -25
-153 -85 -265 -195 -364 -327 -711 -390 -1022 -14 -72 -31 -133 -37 -135 -6
-2 -29 10 -51 26 -49 35 -91 115 -100 189 -5 46 -1 62 45 169 102 239 196 511
261 763 22 84 52 172 67 198 86 149 297 452 314 452 4 0 10 -5 12 -11z m428
-29 c29 -20 60 -92 60 -137 0 -29 -49 -105 -64 -100 -16 5 -46 257 -30 257 3
0 19 -9 34 -20z m976 -57 c-18 -204 -23 -214 -70 -143 -29 44 -31 65 -15 124
11 38 60 96 81 96 7 0 8 -26 4 -77z m3157 16 c127 -143 182 -292 146 -400 -23
-67 -26 -66 -139 43 -58 55 -156 141 -217 191 -62 49 -110 93 -108 97 3 5 29
13 57 20 59 12 121 46 157 84 14 14 30 26 37 26 7 0 37 -27 67 -61z m-7222 11
c51 -40 128 -70 181 -70 16 0 28 -5 28 -13 0 -7 -48 -51 -106 -97 -59 -46
-152 -128 -208 -182 -55 -54 -106 -98 -112 -98 -16 0 -35 47 -41 101 -11 93
51 231 157 352 23 26 44 47 46 47 3 0 27 -18 55 -40z m4534 -44 c66 -89 184
-271 248 -382 34 -59 57 -116 82 -210 62 -225 149 -478 237 -684 l41 -95 -11
-77 c-12 -83 -39 -146 -80 -190 -43 -46 -58 -38 -71 40 -51 299 -217 741 -405
1081 -60 108 -70 146 -101 401 -18 145 -19 190 -5 190 5 0 35 -33 65 -74z
m768 -66 l139 -95 58 -160 c32 -88 63 -172 69 -187 19 -50 -7 -38 -75 35 -37
39 -143 146 -234 237 l-167 165 -12 63 c-7 34 -9 67 -6 72 9 14 58 -15 228
-130z m-4243 107 c0 -8 -51 -58 -112 -112 -218 -191 -448 -347 -617 -421 -150
-65 -147 -42 10 79 186 142 517 362 664 440 58 31 55 31 55 14z m587 -215
c-30 -93 -83 -239 -117 -323 -56 -142 -68 -163 -151 -269 -293 -376 -474 -700
-541 -973 -20 -81 -27 -95 -106 -200 -120 -159 -222 -275 -353 -402 -221 -215
-411 -327 -589 -349 -155 -19 -319 75 -388 222 -25 52 -27 68 -27 177 0 106 3
130 29 205 39 116 112 260 132 260 8 0 30 -11 48 -25 126 -96 310 -93 511 7
438 220 1006 893 1428 1689 64 121 69 127 115 147 27 12 51 17 56 12 5 -5 -13
-78 -47 -178z m2634 96 c68 -97 147 -221 191 -298 14 -25 35 -91 47 -150 83
-396 197 -732 351 -1028 50 -97 67 -139 60 -146 -20 -20 -102 -11 -160 17
-100 47 -106 56 -161 238 -69 222 -155 447 -257 669 -46 102 -90 201 -97 220
-15 41 -51 317 -61 468 -9 132 1 133 87 10z m1379 -25 c243 -135 258 -146 365
-273 130 -153 395 -415 525 -520 182 -145 348 -243 493 -291 61 -20 75 -30
151 -110 244 -256 446 -561 522 -789 26 -75 29 -99 29 -205 0 -116 -1 -123
-33 -187 -69 -141 -231 -231 -382 -212 -78 9 -179 46 -264 94 -77 44 -189 124
-194 139 -2 5 18 36 43 69 129 167 112 392 -56 722 -228 448 -714 986 -1311
1452 -84 65 -86 67 -107 137 -12 40 -19 76 -16 81 9 14 57 -8 235 -107z
m-2760 35 c0 -65 -27 -304 -50 -443 -17 -106 -28 -141 -78 -252 -110 -239
-240 -587 -282 -753 -21 -80 -139 -175 -241 -194 -38 -7 -69 0 -69 15 0 5 22
48 50 97 142 249 279 638 363 1027 38 176 34 168 190 408 49 75 96 137 103
137 10 0 14 -13 14 -42z m1971 -76 c96 -112 205 -253 285 -367 56 -79 80 -125
114 -220 70 -195 185 -456 297 -678 l106 -208 -6 -77 c-3 -42 -13 -98 -22
-124 -19 -55 -89 -138 -115 -138 -37 0 -169 201 -289 440 -71 139 -80 164 -90
243 -27 206 -133 507 -261 742 -37 68 -64 167 -103 375 -23 123 -13 125 84 12z
m-2531 48 c0 -16 -12 -85 -26 -152 -22 -107 -34 -140 -94 -253 -168 -320 -257
-577 -281 -810 -11 -106 -13 -114 -74 -235 -109 -213 -241 -410 -275 -410 -27
0 -96 83 -114 138 -84 246 75 695 435 1227 145 214 394 525 420 525 5 0 9 -13
9 -30z m899 -8 c33 -64 91 -215 91 -236 0 -30 -50 -110 -62 -98 -9 9 -60 239
-75 335 -8 51 20 51 46 -1z m688 1 c-3 -21 -19 -103 -36 -183 -39 -191 -68
-398 -81 -595 -16 -233 -19 -251 -34 -234 -7 8 -30 61 -51 119 -21 58 -62 162
-91 232 -30 70 -54 135 -54 143 0 41 177 359 272 488 58 77 84 88 75 30z
m-2397 16 c0 -6 -30 -66 -66 -133 -406 -742 -944 -1375 -1351 -1588 -188 -99
-337 -119 -455 -60 -35 17 -74 42 -87 56 l-24 25 27 45 c64 109 292 392 397
493 30 28 65 48 108 63 274 91 645 382 971 761 63 74 127 145 141 159 29 28
307 190 327 190 6 0 12 -5 12 -11z m1657 -100 c7 -30 24 -112 37 -184 l25
-130 -61 -130 c-33 -71 -67 -145 -75 -162 -7 -18 -18 -33 -23 -33 -6 0 -9 114
-9 298 l0 297 35 53 c19 29 40 52 47 49 7 -2 18 -28 24 -58z m817 9 l34 -53 5
-340 c5 -347 16 -481 58 -730 71 -424 206 -754 364 -893 62 -55 128 -84 204
-90 l64 -5 -6 -101 c-12 -229 -105 -387 -253 -432 -122 -36 -236 -2 -331 99
-29 31 -53 62 -53 69 0 7 -9 90 -20 185 -41 360 -111 711 -216 1078 l-46 159
7 131 c9 188 32 428 56 584 18 122 62 346 74 379 8 23 25 12 59 -40z m1220
-52 c88 -80 334 -343 389 -416 18 -25 55 -94 82 -155 125 -280 299 -595 478
-868 l110 -168 0 -77 c0 -98 -23 -176 -68 -235 -52 -68 -76 -70 -128 -12 -163
185 -407 551 -407 611 0 40 -49 211 -91 316 -57 145 -165 353 -260 504 -45 71
-90 154 -101 184 -27 78 -108 358 -108 375 0 28 23 15 104 -59z m350 -33 c34
-26 116 -94 183 -150 798 -675 1315 -1457 1209 -1828 -24 -83 -95 -185 -129
-185 -15 0 -198 182 -288 287 -44 50 -118 142 -164 204 -69 92 -86 123 -96
168 -54 262 -273 658 -561 1018 -76 94 -91 123 -179 356 -53 142 -62 177 -42
177 4 0 34 -21 67 -47z m-2219 -13 c3 -5 1 -10 -4 -10 -6 0 -11 5 -11 10 0 6
2 10 4 10 3 0 8 -4 11 -10z m-297 -352 c-5 -299 -6 -304 -33 -378 -142 -391
-224 -678 -295 -1034 -11 -53 -19 -67 -69 -116 -79 -78 -179 -121 -247 -104
l-27 7 6 111 c6 118 31 271 74 451 20 88 34 123 68 175 118 179 222 451 290
755 23 106 35 136 102 260 92 170 112 200 126 186 6 -6 8 -114 5 -313z m1110
173 c52 -94 63 -122 86 -236 78 -374 193 -677 324 -851 52 -70 62 -89 80 -169
38 -161 63 -318 69 -432 l6 -112 -28 -7 c-44 -11 -128 14 -186 54 -207 145
-363 564 -435 1172 -17 142 -32 686 -20 717 7 17 9 16 26 -5 11 -13 46 -72 78
-131z m-687 -33 c33 -65 59 -126 59 -135 -1 -26 -37 -103 -49 -103 -5 0 -14
15 -19 33 -6 17 -31 100 -57 184 -30 93 -45 158 -41 170 7 17 9 16 28 -7 11
-14 47 -78 79 -142z m-2411 122 c-37 -69 -355 -385 -525 -521 -151 -121 -356
-245 -438 -265 -50 -12 -29 19 93 132 224 208 520 444 765 612 95 65 123 76
105 42z m5084 -42 c236 -160 542 -404 761 -608 149 -139 159 -160 59 -121
-210 80 -529 332 -810 639 -158 172 -160 192 -10 90z m-2796 0 c18 -23 106
-332 106 -373 0 -40 -99 -314 -121 -336 -14 -14 -17 13 -33 237 -6 88 -17 207
-25 263 l-15 103 31 59 c33 62 40 67 57 47z m-3525 -113 c44 -38 118 -65 178
-65 21 0 41 -5 44 -11 4 -6 -67 -85 -157 -177 -90 -92 -181 -191 -203 -219
-21 -29 -45 -53 -52 -53 -36 0 -66 125 -52 215 14 89 93 245 162 323 27 29 32
28 80 -13z m2407 -33 c0 -61 -215 -682 -253 -730 -41 -51 -17 105 42 288 61
184 180 450 201 450 6 0 10 -4 10 -8z m330 -17 c0 -8 -18 -83 -39 -167 -75
-292 -179 -581 -284 -781 -78 -150 -100 -157 -74 -23 26 128 81 312 143 474
60 156 169 399 210 470 25 42 44 54 44 27z m2067 -115 c152 -303 291 -698 319
-903 24 -175 -159 189 -281 559 -38 115 -125 439 -125 466 0 33 33 -13 87
-122z m-1373 68 c9 -52 34 -341 41 -484 l7 -132 -40 -138 c-107 -364 -180
-727 -222 -1095 -11 -96 -20 -180 -20 -187 0 -27 -105 -125 -165 -153 -62 -30
-157 -40 -170 -19 -12 20 -6 325 10 465 22 199 33 255 60 296 129 198 231 540
284 960 15 116 26 163 54 231 66 159 130 288 142 288 7 0 15 -15 19 -32z
m1687 -89 c65 -129 163 -427 157 -476 -4 -25 -7 -22 -32 32 -36 77 -156 433
-156 463 0 32 7 28 31 -19z m-1367 3 c25 -48 111 -270 158 -407 l45 -130 7
-210 c16 -531 105 -953 249 -1179 l32 -51 0 -300 c0 -239 -4 -323 -18 -415
-54 -348 -166 -564 -334 -646 -53 -26 -68 -29 -163 -29 -95 0 -110 3 -163 29
-89 43 -159 120 -217 240 -50 100 -108 291 -97 319 3 9 27 16 64 20 251 26
421 304 488 797 62 461 27 1074 -96 1677 l-41 201 25 56 c14 31 31 56 36 56 6
0 17 -13 25 -28z m810 -217 c101 -238 216 -569 202 -582 -23 -24 -140 198
-206 392 -46 134 -100 335 -100 368 l1 22 18 -22 c11 -13 49 -93 85 -178z
m987 63 c133 -228 294 -627 239 -593 -25 16 -274 554 -296 639 -12 48 14 27
57 -46z m-4003 10 c-37 -106 -281 -550 -414 -755 -85 -131 -107 -147 -83 -59
38 136 159 370 305 591 143 216 221 307 192 223z m4413 -20 c193 -244 417
-648 454 -815 12 -60 -14 -36 -89 80 -132 201 -379 652 -414 755 -16 47 1 40
49 -20z m-3018 -10 c-13 -74 -113 -360 -158 -450 -45 -95 -65 -118 -65 -79 0
35 111 340 183 504 29 63 50 76 40 25z m726 -25 c64 -239 125 -701 140 -1059
23 -510 -38 -950 -164 -1204 -86 -172 -194 -262 -334 -276 -58 -6 -61 -6 -70
18 -20 52 -33 294 -29 516 l4 227 29 45 c145 229 236 656 252 1190 l6 205 49
143 c59 173 84 232 97 232 6 0 15 -17 20 -37z m-3804 -248 c53 -40 128 -65
196 -65 26 0 50 -4 54 -9 3 -6 -29 -48 -71 -95 -102 -114 -213 -253 -282 -354
-31 -45 -61 -81 -66 -79 -6 1 -22 25 -36 52 -32 64 -39 175 -16 264 27 106
138 321 166 321 5 0 30 -16 55 -35z m3325 -14 c0 -33 -49 -290 -75 -392 -46
-180 -134 -405 -166 -425 -18 -11 -4 72 45 268 44 173 131 460 161 531 16 40
35 49 35 18z m280 -438 c-25 -382 -87 -693 -181 -903 -29 -63 -59 -92 -59 -56
0 47 46 368 76 526 37 196 128 580 146 613 23 44 29 -11 18 -180z m576 50 c69
-260 136 -605 169 -873 18 -151 18 -150 1 -150 -7 0 -27 30 -43 68 -96 213
-157 514 -183 900 -17 248 0 266 56 55z m1371 -25 c37 -72 106 -190 154 -262
104 -155 103 -161 -14 -161 -103 0 -167 33 -277 144 -47 47 -92 99 -100 114
-14 28 -13 29 33 69 52 44 91 111 102 174 15 82 22 76 102 -78z m-3288 35 c23
-67 61 -116 116 -149 25 -14 45 -30 45 -34 0 -16 -77 -105 -141 -164 -88 -81
-154 -111 -246 -111 -54 0 -77 4 -89 16 -15 15 -12 22 34 86 59 80 155 241
207 343 20 39 41 70 46 68 6 -2 18 -27 28 -55z m491 -110 c0 -5 -14 -73 -30
-153 -17 -80 -35 -199 -41 -265 -13 -148 -19 -171 -44 -167 -59 11 -133 95
-166 189 -26 72 -40 295 -19 308 7 4 40 9 74 10 59 2 129 28 181 69 21 16 45
21 45 9z m2305 -48 c51 -25 72 -30 140 -30 l80 0 0 -125 c-1 -192 -45 -301
-149 -364 -44 -28 -49 -29 -61 -13 -6 9 -15 61 -18 116 -4 55 -19 162 -33 238
-34 183 -39 216 -28 211 5 -2 36 -17 69 -33z m1031 -92 c87 -133 186 -268 267
-362 30 -36 53 -70 50 -76 -2 -7 -21 -17 -42 -24 -92 -27 -207 -3 -308 64 -66
44 -190 160 -198 186 -5 14 7 34 43 74 50 55 74 107 87 190 8 49 13 65 20 65
3 0 39 -53 81 -117z m599 -179 c83 -110 220 -266 324 -369 50 -49 91 -96 91
-103 0 -25 -85 -53 -160 -53 -91 0 -178 28 -272 90 -92 60 -198 149 -198 165
0 7 19 32 41 56 54 56 77 109 91 209 6 45 14 81 18 81 4 0 33 -34 65 -76z
m-3700 -378 c-9 -78 -17 -213 -18 -300 -1 -97 -5 -161 -12 -166 -16 -14 -88
23 -133 68 -77 77 -132 240 -132 390 l0 69 64 6 c71 7 136 35 201 87 39 31 40
31 43 10 2 -11 -4 -85 -13 -164z m335 -607 c0 -121 5 -275 11 -341 8 -83 9
-122 1 -130 -16 -16 -114 34 -166 85 -83 83 -158 278 -160 417 l-1 65 66 7
c73 7 133 33 193 84 22 19 43 34 48 34 4 0 8 -99 8 -221z"/>
</g>
</svg>
