<?xml version="1.0" standalone="no"?>
<!DOCTYPE svg PUBLIC "-//W3C//DTD SVG 20010904//EN"
 "http://www.w3.org/TR/2001/REC-SVG-20010904/DTD/svg10.dtd">
<svg version="1.0" xmlns="http://www.w3.org/2000/svg"
 width="1280.000000pt" height="1280.000000pt" viewBox="0 0 1280.000000 1280.000000"
 preserveAspectRatio="xMidYMid meet">
<metadata>
Created by potrace 1.15, written by Peter Selinger 2001-2017
</metadata>
<g transform="translate(0.000000,1280.000000) scale(0.100000,-0.100000)"
fill="#000000" stroke="none">
<path d="M4753 12150 c-195 -40 -284 -222 -269 -550 16 -375 174 -974 445
-1688 l51 -134 -83 -93 c-45 -51 -85 -92 -89 -92 -4 1 -79 108 -166 238 -692
1026 -1207 1511 -1579 1487 -254 -17 -428 -286 -509 -785 -44 -274 -66 -846
-47 -1221 8 -158 7 -163 -12 -167 -11 -2 -94 -13 -185 -25 -528 -67 -1065
-181 -1348 -286 -501 -188 -574 -421 -208 -666 193 -129 506 -265 916 -397
230 -75 330 -106 825 -262 110 -34 202 -64 204 -65 5 -5 29 -158 25 -163 -1
-2 -121 2 -266 8 -1258 53 -2001 -116 -2174 -494 -98 -214 -11 -495 256 -832
168 -213 493 -519 828 -782 72 -57 132 -108 132 -113 0 -4 -40 -86 -88 -181
-314 -614 -435 -1043 -362 -1278 24 -79 62 -126 131 -164 53 -29 57 -30 194
-30 123 0 152 4 240 29 289 81 696 282 1165 576 88 55 164 100 168 100 7 0
153 -82 460 -257 30 -17 40 -28 34 -36 -260 -331 -504 -714 -616 -965 -271
-613 -119 -972 448 -1057 200 -29 586 -15 876 34 30 5 56 8 56 7 1 0 27 -57
59 -126 238 -524 506 -936 721 -1110 226 -181 415 -182 593 -2 224 225 404
755 536 1575 18 115 37 213 41 217 10 9 194 80 209 80 11 0 197 -71 207 -79 4
-3 19 -82 33 -176 110 -716 276 -1262 460 -1521 64 -89 166 -179 234 -206 72
-28 175 -30 249 -4 82 28 188 105 287 208 110 114 183 211 298 393 79 126 291
533 361 693 21 48 32 62 44 58 27 -8 226 -35 341 -46 136 -13 433 -13 546 1
263 32 464 141 547 295 169 314 -28 853 -582 1590 -61 81 -110 150 -110 154 0
4 12 12 27 19 14 7 125 68 245 137 120 68 222 124 227 124 4 0 78 -43 162 -96
526 -330 966 -540 1251 -598 112 -23 254 -21 321 4 270 101 246 501 -73 1200
-33 74 -97 204 -141 289 l-79 153 22 18 c13 9 69 53 126 97 502 391 888 803
1028 1098 65 137 87 229 82 345 -3 88 -7 104 -41 173 -185 375 -911 538 -2165
486 -145 -6 -266 -9 -268 -6 -3 2 1 40 8 83 l13 78 295 93 c162 51 404 127
536 168 410 127 646 216 879 330 317 155 465 291 465 428 0 94 -49 163 -177
247 -237 157 -804 303 -1568 405 -110 14 -210 28 -223 31 -23 5 -23 6 -16 87
13 133 9 818 -5 972 -49 560 -163 896 -349 1037 -37 28 -86 54 -119 64 -372
108 -930 -388 -1662 -1481 -84 -126 -156 -232 -158 -235 -3 -3 -17 9 -31 26
-15 17 -53 61 -85 97 l-58 66 77 208 c388 1051 507 1727 354 2013 -21 40 -83
101 -122 121 -261 133 -785 -137 -1528 -786 -74 -65 -143 -124 -152 -132 -15
-13 -26 -6 -115 74 -678 608 -1235 929 -1510 873z m137 -40 c36 -6 94 -20 130
-31 277 -88 777 -433 1250 -861 l63 -58 -89 -83 c-49 -46 -103 -96 -120 -110
l-31 -26 -134 107 c-339 272 -630 447 -833 503 -116 31 -235 25 -302 -17 -101
-62 -144 -165 -152 -360 -5 -146 8 -280 44 -458 13 -66 22 -121 21 -123 -6 -6
-117 401 -147 537 -129 597 -74 933 161 979 61 12 66 12 139 1z m3150 -28
c164 -82 207 -359 124 -812 -35 -187 -160 -677 -171 -666 -3 2 5 46 16 98 67
316 65 583 -7 724 -27 53 -100 117 -150 132 -217 65 -575 -103 -1088 -513
l-134 -106 -115 108 c-63 59 -115 110 -115 114 0 4 51 51 113 106 407 357 739
599 1002 728 257 127 397 150 525 87z m-2861 -590 c155 -58 364 -180 571 -333
115 -85 310 -241 310 -248 0 -4 -47 -53 -104 -110 l-104 -104 -150 100 c-371
248 -616 312 -752 196 -122 -104 -142 -301 -75 -713 24 -147 -92 291 -131 495
-35 181 -41 473 -11 567 22 74 71 137 127 166 66 34 201 27 319 -16z m2713 3
c57 -40 104 -133 119 -235 28 -184 -16 -499 -122 -883 -44 -155 -59 -187 -35
-71 41 196 46 441 12 551 -50 161 -184 223 -377 174 -138 -35 -383 -166 -577
-311 l-32 -24 -109 107 -109 108 102 83 c312 256 604 437 814 507 75 25 100
29 179 27 84 -3 95 -6 135 -33z m-4688 -230 c354 -92 893 -665 1493 -1588 102
-156 93 -159 -13 -4 -291 421 -625 802 -849 970 -350 262 -611 234 -768 -81
-74 -149 -120 -323 -152 -582 -18 -149 -38 -564 -33 -695 1 -52 3 -95 3 -95 0
-6 -322 -35 -328 -30 -14 13 -21 722 -8 925 35 575 129 913 301 1086 102 103
210 131 354 94z m6580 -19 c145 -71 261 -283 325 -596 47 -224 68 -443 77
-795 5 -205 -7 -690 -18 -700 -2 -2 -295 29 -325 35 -2 0 -3 102 -3 228 0 585
-76 998 -225 1222 -78 117 -164 171 -286 178 -93 5 -160 -12 -280 -74 -160
-83 -404 -303 -618 -559 -99 -119 -321 -413 -410 -542 -35 -51 -65 -93 -67
-93 -8 0 13 33 141 225 596 890 1078 1394 1425 1490 84 23 194 15 264 -19z
m-3308 -217 c60 -56 112 -104 117 -108 7 -7 -214 -211 -228 -211 -4 0 -52 39
-107 88 -55 48 -107 93 -116 100 -15 12 -4 25 98 122 63 60 118 109 121 110 3
0 55 -46 115 -101z m-1236 -40 c134 -37 297 -123 488 -257 l93 -66 -106 -106
-106 -107 -89 44 c-113 56 -235 87 -308 80 -85 -9 -139 -48 -182 -131 -33 -66
-35 -72 -38 -202 -4 -117 4 -214 25 -329 3 -16 3 -28 0 -25 -11 10 -86 315
-107 435 -48 266 -44 449 11 562 57 117 153 148 319 102z m2465 2 c53 -24 99
-77 121 -143 26 -72 26 -340 1 -478 -22 -119 -108 -473 -114 -467 -2 3 3 56
13 118 19 134 15 306 -10 385 -24 77 -85 140 -153 160 -94 27 -195 7 -366 -73
l-78 -37 -104 104 c-57 57 -102 107 -99 112 12 19 278 188 369 235 87 44 184
82 250 96 50 11 132 6 170 -12z m-1506 -195 c152 -132 149 -107 27 -220 l-104
-96 -122 97 -122 97 109 103 c59 56 110 102 112 103 2 0 47 -38 100 -84z m541
-21 c57 -57 102 -106 99 -108 -2 -3 -55 -45 -118 -95 l-114 -91 -36 31 c-74
63 -172 161 -169 168 4 10 220 200 228 200 3 0 52 -47 110 -105z m-3209 -11
c73 -21 184 -82 277 -151 103 -77 345 -319 472 -473 170 -205 469 -614 457
-626 -2 -3 -49 52 -103 122 -380 489 -684 733 -915 734 -92 0 -150 -23 -219
-86 -151 -140 -237 -447 -265 -946 -6 -100 -9 -118 -23 -119 -10 0 -75 -6
-147 -13 -71 -8 -133 -12 -137 -9 -19 11 1 565 28 783 45 364 128 597 254 714
33 30 78 61 102 69 57 20 151 21 219 1z m5907 -15 c107 -53 185 -164 246 -350
75 -232 105 -468 113 -892 l6 -318 -39 6 c-22 2 -88 9 -147 15 -60 5 -112 12
-116 15 -4 2 -11 71 -14 152 -15 361 -86 668 -192 827 -121 183 -299 216 -523
96 -178 -95 -419 -330 -677 -660 -206 -264 -100 -92 147 238 449 600 805 901
1069 902 54 0 77 -6 127 -31z m-2869 -298 c0 -6 -116 -108 -180 -159 l-29 -23
-97 87 c-54 47 -99 90 -101 94 -2 4 43 51 99 103 l102 96 103 -95 c57 -53 104
-99 103 -103z m-598 98 c63 -50 116 -94 119 -96 3 -3 -39 -46 -94 -97 l-98
-92 -123 81 c-68 44 -123 83 -122 87 3 11 188 208 196 208 4 0 59 -41 122 -91z
m1007 -12 l103 -104 -128 -86 -128 -86 -93 92 c-50 50 -91 95 -89 100 3 9 218
186 227 186 3 1 52 -45 108 -102z m-1578 -33 c96 -34 172 -72 168 -84 -2 -5
-86 -99 -188 -207 -102 -109 -212 -228 -245 -264 -33 -37 -63 -67 -66 -68 -17
-3 -41 231 -37 355 4 140 24 208 73 254 60 56 164 61 295 14z m2194 6 c70 -43
106 -144 106 -298 0 -92 -24 -294 -39 -319 -4 -8 -35 18 -90 80 -46 50 -160
171 -252 269 -93 97 -169 178 -169 181 0 9 182 88 237 102 76 19 163 13 207
-15z m-1367 -176 c54 -47 98 -89 98 -94 0 -9 -169 -170 -179 -170 -3 0 -53 38
-110 84 l-104 83 91 92 c51 50 95 91 99 91 4 0 52 -39 105 -86z m469 -1 c52
-47 94 -89 94 -93 0 -6 -168 -145 -197 -163 -15 -9 -196 148 -190 166 3 9 187
176 195 177 2 0 46 -39 98 -87z m-950 -15 l123 -82 -102 -107 c-177 -186 -520
-551 -563 -597 l-40 -44 -36 133 c-62 225 -68 190 63 332 201 216 421 447 427
447 3 0 61 -37 128 -82z m1495 -50 c147 -156 378 -406 397 -430 11 -14 7 -39
-24 -160 -20 -79 -40 -153 -45 -166 -8 -20 -23 -6 -176 160 -92 100 -250 266
-350 369 -101 102 -183 189 -183 192 0 6 239 167 249 167 3 0 63 -60 132 -132z
m-3405 42 c206 -71 495 -339 797 -738 67 -88 79 -112 58 -112 -4 0 -45 43 -91
96 -155 176 -351 333 -480 384 -187 74 -338 6 -435 -194 -49 -100 -88 -243
-109 -391 -7 -52 -16 -99 -20 -103 -7 -6 -277 -31 -285 -26 -6 5 20 340 35
449 50 341 157 572 297 635 57 26 156 26 233 0z m5268 8 c62 -18 154 -115 199
-208 65 -136 114 -353 136 -605 11 -119 16 -274 10 -276 -12 -4 -268 14 -276
20 -5 3 -15 49 -22 101 -30 216 -104 424 -184 515 -19 22 -59 54 -88 70 -48
26 -63 30 -134 29 -100 0 -163 -24 -287 -106 -83 -56 -271 -230 -377 -351 -28
-31 -47 -45 -53 -39 -10 10 165 239 291 382 214 243 436 419 584 466 54 16
148 17 201 2z m-2646 -193 l91 -86 -89 -79 c-49 -44 -92 -80 -96 -80 -5 0 -72
56 -172 146 -11 9 3 28 75 97 48 48 91 87 94 87 4 0 47 -38 97 -85z m-443 -5
c52 -41 94 -78 95 -81 0 -3 -54 -59 -121 -125 -66 -65 -220 -224 -342 -351
l-220 -233 -107 0 -106 0 -18 55 -17 56 32 37 c169 195 680 723 696 720 8 -2
57 -37 108 -78z m995 -102 c97 -101 241 -253 320 -338 79 -85 160 -173 182
-195 l38 -41 -18 -54 -19 -55 -106 -3 -106 -3 -83 88 c-45 48 -201 208 -346
354 l-263 266 102 81 c56 45 106 82 112 82 6 0 90 -82 187 -182z m-758 -100
l77 -73 -257 -251 -257 -251 -164 -8 -164 -7 30 38 c17 22 164 175 328 341
243 248 300 301 313 293 10 -5 52 -42 94 -82z m636 -216 c142 -147 281 -291
308 -321 l49 -53 -165 7 -165 8 -255 249 c-140 137 -255 253 -255 258 0 4 38
42 85 83 l85 75 27 -19 c15 -11 144 -140 286 -287z m-2796 204 c110 -39 228
-125 379 -275 74 -75 148 -153 163 -173 l28 -38 -51 -58 -50 -59 -158 -7
c-180 -8 -610 -33 -725 -42 l-76 -6 5 43 c12 105 56 297 84 370 90 232 217
310 401 245z m4732 12 c57 -17 143 -105 182 -188 50 -103 93 -269 110 -419 l7
-64 -74 7 c-100 9 -527 34 -722 42 l-158 7 -50 55 c-27 31 -49 61 -49 68 0 18
257 281 337 344 166 133 303 181 417 148z m-2129 -417 l160 -161 -495 0 -494
0 35 36 c18 20 130 128 247 240 l214 204 86 -79 c48 -44 159 -152 247 -240z
m-1641 86 c31 -78 56 -146 56 -150 0 -5 -21 -33 -47 -63 -69 -79 -77 -77 -163
61 l-72 115 78 89 c44 49 82 90 86 90 3 1 32 -63 62 -142z m2764 52 l81 -90
-72 -114 c-86 -138 -94 -141 -164 -59 -26 31 -47 61 -45 68 4 15 103 269 109
279 2 4 6 7 8 7 2 0 39 -41 83 -91z m-2998 -234 c27 -41 50 -77 50 -82 0 -9
-109 139 -110 150 -1 17 12 3 60 -68z m3090 -14 c-28 -39 -54 -71 -56 -71 -2
0 20 36 48 79 29 44 54 76 56 71 2 -5 -20 -40 -48 -79z m-3090 -76 c0 -16 -20
2 -58 50 -24 30 -40 60 -37 65 5 9 95 -100 95 -115z m3145 50 c-26 -30 -50
-53 -52 -51 -3 3 14 32 38 66 27 39 46 57 52 51 6 -6 -7 -30 -38 -66z m-3254
3 c47 -55 46 -58 -27 -58 l-66 0 33 39 c19 22 36 40 37 40 2 1 12 -9 23 -21z
m2939 -40 c0 -4 -18 -8 -41 -8 -35 0 -40 3 -34 18 4 9 10 25 12 35 5 16 9 15
34 -9 16 -15 29 -31 29 -36z m396 -16 c-32 -2 -60 -1 -63 2 -3 2 8 21 24 41
l28 36 35 -38 35 -38 -59 -3z m-2902 52 c13 -34 7 -44 -29 -44 -41 0 -43 5
-13 37 25 27 34 29 42 7z m576 -121 c-30 -32 -89 -93 -130 -135 l-75 -78 -92
0 c-100 0 -98 -1 -123 64 -9 24 -3 33 65 109 l75 82 103 6 c56 3 131 6 167 7
l64 2 -54 -57z m1297 -69 c65 -69 119 -129 120 -132 2 -4 -348 -7 -777 -7
l-779 0 32 35 c17 19 74 79 127 133 l95 97 531 0 532 0 119 -126z m318 57 c29
-31 64 -69 77 -86 l25 -30 -19 -42 -19 -43 -96 0 -96 0 -105 111 c-58 61 -114
122 -125 135 l-19 25 162 -7 161 -7 54 -56z m-1995 2 c-30 -32 -57 -62 -61
-66 -4 -5 -15 15 -24 45 -10 29 -20 59 -23 66 -3 9 17 12 78 12 l83 0 -53 -57z
m2150 44 c0 -23 -31 -107 -40 -107 -4 0 -31 27 -60 60 l-52 60 76 0 c56 0 76
-3 76 -13z m-2284 -76 l31 -79 -42 -49 -43 -48 -21 35 c-11 19 -43 71 -70 115
-61 97 -57 105 43 105 l71 0 31 -79z m2500 64 c3 -8 -24 -64 -61 -126 l-68
-111 -45 45 -45 45 33 81 32 81 74 0 c56 0 76 -4 80 -15z m-2876 -51 l41 -55
-48 -56 c-26 -30 -55 -64 -64 -76 -15 -18 -33 -21 -195 -29 -99 -5 -187 -7
-197 -6 -13 2 10 35 93 133 61 71 118 133 128 137 9 4 58 7 108 7 l92 1 42
-56z m48 20 c13 -20 22 -38 19 -40 -2 -2 -16 14 -31 36 -14 22 -23 40 -19 40
5 0 18 -16 31 -36z m2982 -4 c-17 -22 -34 -40 -36 -40 -2 0 8 18 22 40 15 22
31 40 36 40 5 0 -5 -18 -22 -40z m292 21 c13 -11 71 -74 127 -141 l104 -122
-164 6 c-237 10 -229 8 -286 74 -84 99 -81 85 -34 147 l42 55 93 0 c77 0 98
-3 118 -19z m-3644 -8 c-9 -10 -62 -72 -117 -138 l-102 -120 -247 -17 c-136
-9 -296 -20 -355 -24 l-108 -7 6 94 c3 52 8 113 11 135 l5 41 72 6 c60 6 253
17 657 40 30 2 86 4 124 5 65 2 68 1 54 -15z m4222 -9 c135 -7 279 -17 321
-20 l76 -6 7 -61 c3 -33 6 -94 6 -135 l0 -75 -82 6 c-46 3 -204 14 -351 24
l-268 17 -107 126 c-60 69 -112 131 -116 139 -10 15 25 14 514 -15z m-5175
-82 c-3 -26 -7 -86 -11 -133 l-6 -87 -56 -6 c-31 -3 -92 -9 -134 -12 l-78 -7
0 137 c0 75 1 137 3 137 8 4 273 24 279 22 4 -2 5 -25 3 -51z m5903 29 c1 -1
2 -62 2 -136 l0 -135 -27 0 c-15 0 -78 5 -140 11 l-113 12 0 77 c0 42 -3 104
-6 136 l-6 60 143 -12 c79 -7 145 -13 147 -13z m-6228 -140 l0 -138 -112 -12
c-62 -7 -127 -15 -144 -17 -30 -6 -31 -5 -38 42 -6 44 -9 233 -3 235 4 1 252
27 275 28 22 1 22 0 22 -138z m6423 125 c76 -7 140 -16 144 -19 3 -3 2 -67 -2
-142 l-7 -137 -32 6 c-17 2 -82 10 -143 17 l-113 12 0 138 c0 77 3 139 8 139
4 -1 69 -7 145 -14z m-4703 -37 c15 -28 5 -23 -15 7 -9 15 -12 23 -6 20 6 -4
16 -16 21 -27z m-2067 14 c3 -5 6 -69 8 -143 l4 -134 -157 -21 -157 -21 -5 36
c-8 50 -19 250 -15 251 2 1 72 9 154 19 83 10 153 18 157 19 4 0 9 -2 11 -6z
m4901 -18 c-9 -14 -18 -25 -21 -25 -5 0 5 18 20 38 17 22 18 13 1 -13z m2226
5 c173 -17 163 -12 156 -78 -3 -32 -8 -95 -11 -142 l-6 -85 -157 19 c-86 11
-159 21 -160 22 -2 1 -1 66 3 144 l8 140 31 -5 c17 -3 78 -10 136 -15z m-5076
-60 c43 -60 40 -62 -63 -58 l-71 3 46 53 c25 28 47 52 49 52 2 0 19 -23 39
-50z m2950 -5 l47 -55 -85 0 c-47 0 -86 3 -86 7 0 9 64 102 71 103 3 0 27 -25
53 -55z m-5360 -62 c4 -60 9 -125 12 -145 7 -43 20 -38 -168 -68 -317 -50
-673 -135 -868 -207 -190 -70 -328 -161 -370 -244 -24 -45 -26 -116 -5 -164
31 -76 175 -199 313 -269 105 -53 53 -38 -173 51 -133 52 -383 174 -466 228
-88 57 -185 147 -209 195 -46 92 -33 149 50 231 186 182 764 346 1630 463 171
23 225 31 241 35 4 0 10 -47 13 -106z m7931 72 c566 -76 1055 -184 1335 -294
301 -120 415 -243 356 -386 -54 -129 -339 -306 -736 -458 -194 -75 -196 -75
-110 -27 256 143 360 284 306 415 -32 77 -150 164 -311 230 -218 90 -491 159
-905 229 l-195 33 2 84 c2 46 5 112 9 146 5 61 6 62 32 58 15 -3 113 -16 217
-30z m-2957 -53 c-37 -7 -49 4 -36 33 l12 26 22 -28 c22 -27 22 -28 2 -31z
m-2234 32 c11 -28 7 -34 -24 -34 -34 0 -37 6 -13 32 20 22 29 23 37 2z m1946
-89 c18 -16 49 -50 70 -75 l38 -46 -17 -39 -17 -39 -922 0 -921 -1 -17 43 -16
42 63 68 63 67 95 6 c53 3 423 6 823 5 l727 -1 31 -30z m-1891 -51 l28 -71
-23 -29 c-28 -34 -27 -35 -93 76 l-51 85 47 6 c27 3 52 5 56 5 5 -1 21 -33 36
-72z m126 34 c-21 -24 -41 -47 -46 -52 -7 -8 -30 29 -43 72 -7 21 -5 22 59 22
l67 0 -37 -42z m1935 35 c-1 -5 -11 -27 -23 -51 l-23 -43 -25 28 c-13 15 -33
38 -43 51 l-19 22 66 0 c37 0 67 -3 67 -7z m130 -3 l39 0 -56 -95 c-31 -52
-59 -95 -63 -95 -3 0 -17 11 -30 25 l-23 24 23 58 c35 87 40 95 57 89 8 -3 32
-6 53 -6z m-2487 -36 l25 -37 -71 -82 -72 -83 -105 -6 c-58 -3 -135 -8 -172
-11 -38 -3 -68 -2 -68 2 0 5 45 61 100 125 l101 117 102 4 c56 1 109 4 118 5
9 1 27 -14 42 -34z m2856 26 l87 0 103 -121 c57 -66 102 -122 100 -124 -2 -2
-80 1 -174 6 -193 10 -159 -5 -269 123 l-48 56 27 36 c24 31 32 35 58 30 16
-3 69 -6 116 -6z m-3281 -130 c-56 -66 -109 -120 -118 -121 -8 0 -96 -6 -195
-13 -99 -7 -181 -12 -182 -11 -1 0 45 58 103 127 l104 127 98 4 c53 1 141 4
195 5 l97 2 -102 -120z m3818 102 c13 -8 204 -234 204 -242 0 -3 -80 0 -177 7
-98 6 -185 12 -195 12 -9 1 -53 45 -99 99 -45 53 -92 108 -103 121 l-21 23
190 -7 c105 -4 195 -10 201 -13z m-4183 -24 c-10 -13 -55 -66 -98 -118 -43
-52 -81 -98 -85 -102 -4 -5 -422 -48 -468 -48 -1 0 -1 55 0 123 l3 122 95 8
c190 15 466 34 519 36 l54 1 -20 -22z m4592 1 c165 -11 306 -22 314 -25 10 -3
12 -29 10 -118 -2 -63 -6 -117 -9 -120 -3 -3 -105 4 -225 14 -121 11 -223 20
-226 20 -6 0 -167 190 -197 232 -17 23 -39 23 333 -3z m-5285 -152 l0 -123
-126 -13 c-70 -6 -127 -11 -129 -9 -1 2 -5 56 -9 121 -5 90 -3 119 6 122 14 5
172 21 226 24 l32 1 0 -123z m5828 107 l82 -7 0 -119 c0 -90 -3 -120 -14 -124
-7 -3 -67 1 -132 8 -113 12 -119 14 -118 36 0 12 1 68 2 123 l2 102 48 -6 c26
-3 84 -9 130 -13z m-4256 -62 l38 -57 -73 -8 c-124 -13 -126 -12 -65 60 29 34
55 62 58 62 3 1 22 -25 42 -57z m2609 -13 l53 -61 -94 7 c-52 4 -96 9 -98 10
-7 6 71 114 78 110 4 -3 32 -32 61 -66z m-4487 0 c3 -34 6 -90 6 -124 l0 -63
-135 -17 c-75 -10 -138 -15 -141 -12 -8 7 -27 237 -21 244 5 5 203 30 253 32
31 1 31 1 38 -60z m6420 46 c70 -7 129 -15 130 -17 4 -6 -15 -242 -19 -247 -5
-5 -263 27 -274 34 -3 1 -5 57 -3 124 3 106 5 121 20 121 9 0 75 -7 146 -15z
m-6750 -102 c4 -43 9 -99 12 -125 2 -27 3 -48 2 -48 -2 0 -68 -11 -148 -25
-80 -14 -150 -25 -157 -25 -10 0 -28 159 -28 245 0 18 12 22 120 36 66 9 136
17 157 18 l36 1 6 -77z m7088 62 c62 -8 122 -17 134 -20 20 -4 20 -6 8 -130
-7 -70 -14 -129 -17 -131 -4 -4 -214 27 -285 42 -23 5 -23 6 -17 117 4 62 8
118 10 125 6 16 30 15 167 -3z m-4619 -29 c4 -9 -3 -16 -19 -19 -26 -5 -31 2
-12 21 16 16 25 15 31 -2z m2013 -7 c19 -22 19 -22 -6 -14 -32 9 -33 11 -25
24 8 15 9 14 31 -10z m-4833 -128 l12 -130 -75 -16 c-589 -127 -861 -266 -860
-437 1 -95 101 -204 275 -300 28 -15 46 -28 42 -28 -19 0 -302 117 -408 170
-267 132 -389 241 -389 347 0 58 18 91 81 147 148 133 548 258 1139 356 91 15
166 26 168 24 2 -1 9 -61 15 -133z m7977 78 c676 -124 1050 -291 1050 -468 0
-133 -223 -294 -638 -460 -85 -33 -156 -61 -159 -61 -3 0 34 25 83 55 173 108
253 221 225 318 -30 99 -186 202 -426 281 -114 37 -359 99 -437 111 -25 4 -50
10 -56 13 -7 5 -7 42 0 127 5 66 11 125 13 131 4 13 72 4 345 -47z m-3274 -1
c2 -3 -14 -48 -37 -100 l-41 -95 -815 1 -814 1 -40 89 c-21 48 -39 92 -39 97
0 5 73 10 163 12 227 5 1617 1 1623 -5z m-1859 -10 c13 -17 73 -170 73 -185 0
-32 -23 -5 -74 85 -31 54 -56 101 -56 105 0 12 47 8 57 -5z m1993 7 c0 -17
-117 -205 -127 -205 -18 0 -18 -3 28 110 39 94 44 100 70 100 16 0 29 -2 29
-5z m-2201 -23 c8 -15 -4 -34 -65 -104 l-74 -86 -83 -6 c-121 -8 -227 -12
-227 -8 0 2 41 50 90 107 l91 104 67 4 c175 9 191 8 201 -11z m2524 11 l97 -6
85 -101 c47 -55 85 -103 85 -106 0 -6 -47 -5 -215 6 l-90 6 -60 70 c-88 102
-90 105 -75 123 14 17 33 18 173 8z m-2853 -8 c0 -14 -183 -215 -196 -215 -7
0 -81 -5 -164 -11 -83 -6 -154 -9 -157 -6 -2 3 35 53 83 111 80 96 92 106 124
107 35 2 245 14 288 17 12 1 22 0 22 -3z m3250 -11 l105 -6 70 -85 c39 -46 79
-96 89 -110 l20 -26 -95 7 c-52 4 -130 9 -174 13 l-81 5 -84 100 c-47 55 -87
104 -88 109 -2 5 24 7 65 4 37 -3 115 -8 173 -11z m-3660 -11 c0 -5 -40 -55
-88 -113 l-88 -105 -189 -17 c-105 -10 -193 -17 -197 -15 -7 2 127 174 167
215 8 9 71 18 196 27 101 7 187 13 192 14 4 0 7 -2 7 -6z m4070 -13 c79 -6
147 -14 151 -18 3 -4 46 -56 95 -116 l88 -109 -44 6 c-25 3 -115 11 -202 18
l-156 12 -79 96 c-117 142 -112 130 -51 125 29 -2 118 -9 198 -14z m-4608
-133 l-91 -114 -112 -12 c-61 -6 -113 -11 -114 -9 -1 2 -5 51 -8 111 -4 79 -3
107 6 108 7 0 100 8 207 18 107 9 197 16 199 15 2 -2 -37 -54 -87 -117z m5003
103 c72 -6 151 -13 178 -17 l47 -6 0 -103 c0 -56 -4 -105 -9 -108 -5 -3 -57
-1 -116 6 l-106 11 -86 106 c-48 58 -91 111 -96 118 -6 9 0 11 25 8 18 -3 92
-10 163 -15z m-3615 -114 c0 -7 -181 -18 -187 -13 -3 4 21 36 52 72 l58 66 39
-61 c21 -33 38 -62 38 -64z m2308 2 c15 -21 10 -22 -110 -12 l-76 7 41 64 40
64 46 -52 c25 -29 52 -61 59 -71z m-4064 45 c3 -21 6 -70 6 -109 l0 -70 -122
-16 c-68 -9 -124 -15 -126 -13 -2 2 -6 52 -9 113 l-6 110 84 9 c46 6 103 11
125 12 40 1 42 0 48 -36z m5797 25 l101 -11 -7 -111 c-4 -61 -8 -112 -9 -113
-5 -6 -251 33 -248 40 1 4 2 52 2 107 l0 100 30 0 c16 0 75 -5 131 -12z
m-6091 -72 c0 -29 3 -80 6 -113 l6 -59 -113 -17 c-63 -10 -126 -20 -141 -23
l-26 -6 -7 89 c-4 48 -8 101 -9 118 l-1 30 115 16 c181 26 170 29 170 -35z
m6383 37 l129 -17 -7 -110 c-4 -61 -10 -114 -13 -118 -4 -4 -67 3 -140 15
l-132 21 0 37 c0 80 14 189 23 189 6 0 69 -8 140 -17z m-6710 -55 c3 -18 9
-72 13 -120 l6 -86 -58 -12 c-33 -6 -101 -22 -152 -35 l-92 -23 -5 22 c-8 39
-26 228 -23 232 3 3 244 46 299 53 4 1 9 -14 12 -31z m7064 1 c124 -20 132
-23 128 -43 -2 -12 -6 -50 -10 -86 -3 -36 -8 -83 -11 -105 l-6 -41 -154 35
c-123 28 -153 39 -150 51 3 8 8 58 11 110 4 52 9 98 12 103 2 4 14 5 26 3 12
-3 82 -15 154 -27z m-2838 -25 c8 -8 -323 -718 -615 -1317 l-169 -349 -135
274 c-228 461 -633 1323 -646 1375 l-6 23 263 3 c295 4 1302 -3 1308 -9z
m-4579 -16 c1 -7 7 -65 15 -128 7 -63 13 -116 12 -116 -1 -1 -47 -16 -102 -34
-159 -52 -259 -104 -326 -168 -65 -65 -80 -106 -60 -174 15 -49 83 -123 159
-174 81 -55 83 -57 22 -36 -83 29 -174 69 -284 124 -400 200 -441 360 -131
516 115 57 331 124 575 177 129 28 120 28 120 13z m2802 -57 c108 -176 283
-479 417 -718 154 -279 461 -856 461 -868 0 -10 -8 -8 -425 64 -623 109 -1585
289 -1742 328 -21 5 -14 17 85 147 151 199 551 697 736 916 l156 185 78 6 c42
3 104 5 136 5 l59 -1 39 -64z m143 27 c29 -72 28 -75 -4 -23 -32 53 -37 65
-22 65 5 0 17 -19 26 -42z m1709 -9 c-14 -28 -27 -49 -30 -47 -7 8 36 98 47
98 5 0 -2 -23 -17 -51z m475 -7 c184 -197 972 -1184 957 -1199 -9 -9 -669
-139 -1106 -218 -417 -76 -1080 -192 -1080 -189 0 1 65 126 145 278 234 445
504 929 721 1289 l59 98 130 -6 130 -6 44 -47z m2626 22 c170 -37 368 -97 471
-141 296 -128 337 -264 127 -422 -102 -76 -339 -194 -498 -247 -39 -13 -39
-13 -15 4 141 98 190 150 210 221 33 120 -100 235 -378 328 -59 19 -108 37
-110 38 -4 3 16 197 24 233 3 17 10 21 27 17 12 -3 76 -17 142 -31z m-5327 17
c-1 -6 -87 -110 -189 -233 -270 -324 -522 -640 -784 -985 -8 -11 -31 -9 -127
12 -65 14 -120 25 -123 25 -18 0 753 977 890 1128 l40 44 135 7 c74 5 141 9
148 9 8 1 12 -2 10 -7z m2986 -9 l49 -7 165 -200 c319 -388 758 -953 748 -962
-3 -3 -47 -14 -98 -24 -51 -10 -103 -21 -115 -24 -18 -4 -39 18 -134 142 -172
225 -479 609 -676 846 -98 117 -184 220 -190 228 -11 14 -1 15 95 11 59 -2
129 -7 156 -10z m-3344 -7 c0 -2 -48 -62 -107 -132 -156 -187 -467 -579 -638
-803 -171 -225 -172 -226 -182 -217 -4 4 -17 81 -29 170 l-22 162 72 95 c113
150 543 687 558 696 7 5 78 14 158 20 197 15 190 15 190 9z m3663 -11 l128 -7
122 -151 c132 -164 344 -431 447 -564 l64 -84 -22 -166 c-13 -91 -25 -168 -28
-171 -7 -8 -32 22 -175 209 -160 212 -434 557 -616 777 -73 89 -133 164 -133
168 0 4 19 5 43 1 23 -3 99 -8 170 -12z m-4073 -19 c0 -3 -64 -86 -143 -183
-79 -97 -208 -260 -288 -362 l-144 -185 -16 155 c-9 85 -19 179 -21 207 l-5
53 113 142 113 143 168 16 c197 19 223 21 223 14z m4540 -19 l115 -11 112
-140 c80 -99 113 -147 113 -166 0 -32 -28 -311 -36 -357 l-5 -34 -72 93 c-58
75 -410 518 -491 617 l-19 24 84 -7 c46 -4 136 -13 199 -19z m-4997 -28 c-154
-199 -157 -202 -164 -177 -4 13 -7 56 -8 96 l-1 72 58 6 c31 3 64 8 72 9 37 8
52 6 43 -6z m5305 -4 l52 -6 -1 -46 c-1 -26 -4 -70 -7 -99 l-7 -52 -80 101
c-44 56 -82 106 -84 111 -2 5 14 7 35 3 22 -3 63 -8 92 -12z m-5514 -134 l7
-120 -102 -132 c-57 -73 -104 -135 -106 -137 -9 -12 -14 21 -32 199 -31 306
-32 279 4 285 87 14 154 23 186 24 l36 1 7 -120z m5749 106 c54 -8 101 -17
104 -20 4 -3 -4 -104 -15 -223 -12 -120 -22 -226 -22 -235 0 -10 -3 -18 -7
-18 -12 0 -218 271 -216 284 1 6 4 59 8 119 8 124 -7 115 148 93z m-6039 -119
c3 -51 15 -169 25 -262 l20 -170 -110 -145 c-61 -80 -114 -146 -118 -148 -13
-4 -111 762 -99 773 7 8 203 43 244 44 l31 1 7 -93z m6345 73 c62 -11 115 -21
118 -23 8 -8 -82 -728 -95 -761 -6 -15 -27 7 -115 122 -59 78 -110 147 -113
155 -3 8 4 94 15 193 11 98 23 214 26 257 9 91 -4 86 164 57z m-6659 -142 c13
-127 77 -626 86 -674 l6 -32 -156 38 c-86 20 -159 39 -161 41 -4 4 -66 439
-84 589 -5 41 -6 78 -2 82 3 3 58 18 121 31 63 14 124 28 135 30 11 3 25 5 31
6 7 1 16 -41 24 -111z m6968 82 c73 -16 137 -32 143 -36 14 -8 10 -54 -37
-399 -20 -143 -39 -264 -44 -268 -4 -5 -76 -26 -159 -47 -139 -35 -151 -36
-151 -19 0 10 9 78 19 151 11 73 31 230 45 348 35 292 36 300 44 300 4 0 67
-14 140 -30z m-7324 -72 c3 -13 10 -66 16 -118 7 -52 25 -187 41 -299 16 -112
28 -206 26 -207 -10 -11 -166 45 -256 91 -177 91 -291 194 -291 262 0 68 66
136 190 195 57 28 242 96 262 98 4 0 10 -10 12 -22z m7637 -14 c195 -68 315
-145 339 -219 16 -48 -10 -104 -77 -165 -92 -84 -267 -178 -394 -210 l-71 -19
4 32 c57 431 84 617 89 617 4 0 53 -16 110 -36z m-6641 -311 l21 -193 -103
-137 -103 -136 -22 158 c-37 269 -45 232 77 391 58 75 106 131 107 123 1 -8
12 -101 23 -206z m5682 51 l84 -111 -24 -189 c-13 -104 -28 -193 -32 -197 -7
-8 -190 227 -197 255 -4 14 14 220 33 366 l5 42 23 -27 c12 -16 61 -78 108
-139z m-5932 -334 c12 -94 20 -173 18 -175 -3 -3 -64 9 -136 26 l-131 31 107
143 c59 79 110 144 113 145 3 0 16 -77 29 -170z m6175 16 c71 -95 94 -131 84
-136 -17 -9 -251 -62 -254 -58 -2 2 6 62 16 133 10 72 21 150 25 174 7 52 -2
60 129 -113z m-5879 -119 c9 -70 14 -130 11 -133 -6 -6 -169 25 -187 36 -8 5
13 40 71 118 46 61 84 110 85 109 2 -1 10 -60 20 -130z m5612 -98 c-18 -9
-187 -43 -192 -38 -3 4 16 162 29 237 l6 34 85 -113 c58 -78 81 -115 72 -120z
m-6371 46 l113 -36 -33 -45 c-28 -39 -36 -44 -61 -39 -16 3 -52 5 -81 5 -60 0
-59 -1 -71 103 -6 47 -4 57 7 53 8 -2 65 -21 126 -41z m7093 33 c0 -37 -24
-140 -34 -143 -6 -2 -43 -6 -82 -8 l-72 -6 -31 45 c-25 35 -29 45 -18 50 24 9
221 72 230 73 4 1 7 -4 7 -11z m-6910 -113 c0 -13 3 -31 7 -41 6 -15 1 -16
-37 -10 -25 4 -46 9 -48 11 -2 2 8 19 23 39 29 38 55 39 55 1z m6661 -27 c7
-14 6 -18 -4 -18 -8 0 -29 -3 -47 -7 l-33 -6 6 38 c11 65 37 62 78 -7z m-6512
6 c121 -36 116 -33 105 -44 -9 -9 -189 1 -199 11 -2 2 -6 16 -10 32 -9 34 -6
34 104 1z m6393 -3 c-4 -33 -8 -34 -146 -46 -97 -10 -84 12 30 46 118 36 122
36 116 0z m-6977 -40 c84 -5 100 -9 103 -23 3 -17 -15 -18 -270 -18 -1022 0
-1548 -184 -1609 -561 -44 -271 215 -670 719 -1107 67 -59 122 -109 122 -112
0 -17 -172 -305 -181 -302 -6 1 -77 55 -158 119 -414 330 -723 638 -892 892
-108 160 -159 277 -180 410 -64 412 400 657 1352 711 156 9 811 3 994 -9z
m8595 -1 c495 -41 838 -136 1028 -283 69 -53 114 -108 149 -183 25 -53 28 -70
28 -169 0 -90 -4 -123 -24 -180 -49 -144 -147 -307 -286 -475 -92 -112 -349
-369 -490 -491 -172 -149 -429 -349 -437 -341 -4 4 -45 74 -92 155 l-84 147
112 97 c143 124 373 356 454 457 88 109 158 216 202 305 64 129 75 173 75 296
0 99 -3 116 -28 169 -71 152 -213 253 -469 335 -242 77 -532 111 -1015 118
-346 5 -363 7 -363 24 0 17 9 19 68 20 37 1 137 5 222 9 199 10 788 4 950 -10z
m-7840 -10 c0 -5 -4 -10 -10 -10 -5 0 -10 5 -10 10 0 6 5 10 10 10 6 0 10 -4
10 -10z m5960 0 c0 -5 -5 -10 -11 -10 -5 0 -7 5 -4 10 3 6 8 10 11 10 2 0 4
-4 4 -10z m-6450 -9 c0 -5 -6 -14 -14 -20 -20 -17 -106 -4 -106 15 0 10 16 14
60 14 33 0 60 -4 60 -9z m7050 -5 c0 -9 -17 -16 -50 -21 -53 -7 -70 -2 -70 21
0 11 14 14 60 14 45 0 60 -4 60 -14z m-6906 -2 c29 -4 46 -12 46 -20 0 -11
-15 -13 -72 -8 -81 7 -83 8 -73 23 7 13 33 14 99 5z m6741 -5 c10 -15 8 -16
-72 -23 -60 -5 -73 -4 -73 8 0 22 133 35 145 15z m-6516 -15 c17 -4 21 -8 13
-16 -15 -15 -152 0 -152 16 0 12 80 12 139 0z m6331 2 c0 -17 -137 -33 -153
-17 -11 11 14 19 83 24 25 2 51 4 58 5 6 1 12 -4 12 -12z m-6222 -12 c32 -9
27 -24 -7 -24 -30 0 -46 12 -34 24 8 7 12 7 41 0z m6017 -9 c0 -5 -17 -11 -37
-13 -38 -3 -53 12 -20 21 26 8 57 3 57 -8z m-5832 -10 c37 -4 67 -11 67 -16 0
-5 -31 -7 -72 -3 -95 7 -118 12 -118 25 0 6 12 8 28 5 15 -2 57 -8 95 -11z
m5717 5 c0 -12 -24 -17 -112 -25 -37 -3 -69 -1 -72 4 -5 7 35 14 172 30 6 0
12 -3 12 -9z m-6530 -35 l0 -25 -104 0 c-206 0 -528 -37 -697 -80 -585 -150
-700 -472 -341 -956 32 -44 110 -136 174 -205 l116 -126 -83 -137 c-46 -76
-86 -140 -88 -143 -3 -2 -43 28 -89 68 -342 299 -553 543 -663 764 -122 248
-107 417 51 565 138 129 391 217 759 265 187 24 346 32 668 34 l297 1 0 -25z
m89 16 c10 -7 8 -12 -10 -24 -26 -19 -39 -14 -39 14 0 20 24 25 49 10z m7094
3 c11 -11 -5 -34 -23 -34 -21 0 -34 26 -17 34 17 7 33 7 40 0z m882 -14 c565
-62 864 -183 975 -392 28 -51 34 -76 38 -141 10 -165 -55 -323 -224 -547 -149
-197 -583 -616 -609 -588 -16 17 -165 265 -165 274 0 3 49 57 109 120 254 264
380 490 381 680 0 95 -16 147 -67 222 -134 196 -530 319 -1088 338 -93 3 -175
7 -182 9 -6 2 -9 13 -6 26 l6 22 366 -6 c201 -3 411 -11 466 -17z m-7761 4
c29 -4 46 -12 46 -20 0 -11 -18 -14 -72 -14 -105 0 -151 9 -137 26 12 15 84
18 163 8z m753 -20 c-6 -6 -77 9 -77 16 0 4 18 3 40 -2 23 -6 39 -12 37 -14z
m6028 15 c12 -18 -2 -22 -105 -27 -86 -4 -100 -3 -100 11 0 18 27 23 132 25
38 1 70 -3 73 -9z m-6626 -5 c48 -10 37 -24 -19 -24 -38 0 -50 4 -50 15 0 16
19 19 69 9z m5790 2 c-2 -2 -22 -6 -44 -9 -28 -5 -34 -4 -20 3 19 8 73 14 64
6z m591 -11 c0 -11 -12 -15 -49 -15 -54 0 -78 16 -34 23 62 9 83 7 83 -8z
m-6202 -5 c12 0 22 -4 22 -10 0 -6 -28 -10 -65 -10 -36 0 -65 4 -65 8 0 18 16
24 50 18 19 -3 45 -6 58 -6z m6050 -7 c3 -10 -14 -13 -64 -13 -71 0 -80 15
-14 23 52 6 73 3 78 -10z m-5858 -13 c11 -7 -5 -10 -52 -10 -37 0 -70 5 -73
10 -8 13 105 13 125 0z m5690 0 c0 -6 -29 -10 -66 -10 -41 0 -63 4 -59 10 3 6
33 10 66 10 33 0 59 -4 59 -10z m-5580 -10 c11 -7 7 -10 -17 -10 -18 0 -33 5
-33 10 0 13 30 13 50 0z m5400 0 c0 -5 -14 -10 -31 -10 -17 0 -28 4 -24 10 3
6 17 10 31 10 13 0 24 -4 24 -10z m-5200 -22 c10 -6 -2 -7 -34 -4 -27 3 -64 6
-82 6 -19 0 -34 4 -34 10 0 11 128 1 150 -12z m5100 12 c0 -5 -15 -10 -34 -10
-18 0 -55 -3 -82 -6 -28 -4 -45 -3 -41 2 5 5 32 11 60 15 82 10 97 10 97 -1z
m-5942 -10 c48 0 62 -3 62 -15 0 -8 -8 -15 -17 -16 -170 -10 -273 -13 -273 -9
0 3 7 16 16 29 16 22 21 23 83 17 36 -3 94 -6 129 -6z m6846 -15 c9 -13 16
-26 16 -28 0 -3 -91 0 -217 9 -64 4 -81 9 -76 19 3 10 29 15 91 18 48 1 106 4
128 5 35 2 45 -2 58 -23z m-7130 -2 c10 -26 -4 -32 -95 -43 -399 -48 -656
-165 -740 -336 -21 -43 -24 -63 -24 -154 1 -97 4 -111 35 -185 18 -44 62 -122
97 -174 35 -52 63 -96 63 -97 0 -10 -174 -274 -180 -274 -16 0 -203 206 -280
308 -136 180 -211 366 -196 482 13 95 36 142 105 211 132 132 357 211 721 253
176 21 201 22 356 24 115 2 133 0 138 -15z m426 2 c-7 -8 -19 -15 -26 -15 -8
0 -14 7 -14 15 0 10 10 15 26 15 22 0 25 -2 14 -15z m161 5 c57 0 69 -3 69
-16 0 -12 -6 -15 -22 -10 -13 3 -56 6 -97 6 -65 0 -72 2 -61 15 7 9 20 13 27
10 8 -3 46 -5 84 -5z m749 -10 c58 -7 107 -14 110 -17 3 -3 -20 -3 -50 0 -30
3 -90 9 -132 13 -43 4 -78 11 -78 16 0 4 10 6 23 4 12 -3 69 -10 127 -16z
m4680 12 c0 -8 -249 -36 -257 -29 -2 3 42 10 99 16 57 7 110 14 118 15 29 7
40 6 40 -2z m704 -7 c4 -12 -7 -15 -69 -17 -41 -1 -82 -2 -90 -2 -8 -1 -16 4
-17 9 -2 6 30 12 72 16 41 3 80 6 86 7 7 1 14 -5 18 -13z m94 3 c-3 -7 -13
-13 -23 -13 -10 0 -20 6 -22 13 -3 7 5 12 22 12 17 0 25 -5 23 -12z m882 -13
c344 -43 576 -122 706 -239 73 -65 107 -133 112 -227 2 -42 -1 -101 -8 -131
-18 -80 -101 -242 -176 -341 -87 -115 -273 -319 -287 -314 -6 2 -50 64 -98
138 l-86 134 52 75 c315 452 140 750 -499 850 -220 35 -211 32 -214 59 l-4 24
189 -6 c103 -4 244 -13 313 -22z m-6910 -5 c0 -5 -18 -10 -39 -10 -22 0 -43 5
-46 10 -4 6 12 10 39 10 25 0 46 -4 46 -10z m5710 0 c0 -5 -18 -10 -39 -10
-22 0 -43 5 -46 10 -4 6 12 10 39 10 25 0 46 -4 46 -10z m-5555 -10 c7 -12
-48 -12 -85 0 -20 6 -14 8 27 9 28 1 55 -3 58 -9z m5400 0 c-45 -11 -85 -11
-85 0 0 6 25 9 58 9 47 -1 52 -3 27 -9z m-5250 -10 c7 -11 -35 -11 -80 0 -26
7 -23 8 22 9 28 0 55 -3 58 -9z m5090 -1 c-22 -4 -51 -8 -65 -8 -20 -1 -22 1
-10 9 8 5 38 9 65 9 l50 -1 -40 -9z m-4855 -19 c52 -7 42 -7 -45 -3 -60 3
-117 9 -125 14 -15 10 46 5 170 -11z m4710 11 c-8 -5 -62 -11 -120 -14 l-105
-5 100 13 c131 16 144 17 125 6z m-5680 -33 c0 -22 -227 -354 -236 -345 -9 8
-65 339 -59 346 6 5 71 10 258 19 32 2 37 -1 37 -20z m306 10 c3 -4 10 -25 14
-48 7 -39 5 -44 -99 -191 -92 -131 -107 -147 -113 -127 -3 13 -19 92 -34 175
-25 146 -26 154 -9 179 17 26 18 26 125 22 60 -2 112 -6 116 -10z m6118 -12
c14 -23 13 -37 -15 -193 -16 -92 -31 -172 -32 -177 -2 -5 -51 58 -110 141
-106 150 -107 151 -101 196 8 53 7 53 150 56 87 1 93 0 108 -23z m265 14 c42
0 81 -4 87 -8 9 -5 4 -54 -19 -179 -16 -95 -33 -173 -36 -173 -3 0 -44 55 -91
122 -47 67 -100 143 -119 170 -47 67 -39 83 41 74 33 -3 95 -6 137 -6z m-6309
-20 c-6 -11 -12 -20 -14 -20 -2 0 -6 9 -9 20 -4 15 0 20 14 20 17 0 18 -3 9
-20z m170 12 l45 -7 11 -67 11 -67 -91 -130 c-50 -71 -94 -130 -97 -130 -3 -1
-18 69 -33 154 l-26 154 36 51 c39 54 46 56 144 42z m548 1 c-10 -2 -26 -2
-35 0 -10 3 -2 5 17 5 19 0 27 -2 18 -5z m4330 0 c-10 -2 -26 -2 -35 0 -10 3
-2 5 17 5 19 0 27 -2 18 -5z m653 -43 l36 -50 -24 -138 c-13 -75 -27 -145 -31
-155 -6 -14 -26 10 -100 113 l-92 131 11 69 12 69 36 4 c109 11 113 10 152
-43z m49 29 c0 -18 -2 -19 -15 -9 -8 7 -15 16 -15 21 0 5 7 9 15 9 9 0 15 -9
15 -21z m-5433 3 c8 -5 3 -18 -17 -45 -30 -41 -40 -35 -40 24 0 23 4 29 23 29
12 0 27 -4 34 -8z m5152 -14 c-1 -13 -4 -34 -8 -47 -6 -23 -7 -22 -33 15 -29
41 -25 54 20 54 17 0 22 -5 21 -22z m-6256 0 c-37 -47 -298 -426 -424 -615
-84 -126 -154 -230 -157 -233 -7 -9 -57 57 -103 137 -120 211 -120 374 0 493
97 96 274 169 506 209 135 24 192 26 178 9z m102 -189 l35 -195 -150 -225
c-83 -123 -192 -289 -243 -368 l-92 -144 -102 109 c-57 60 -103 115 -103 122
0 26 605 910 616 899 2 -2 20 -91 39 -198z m1301 181 c533 -50 1167 -138 1817
-253 136 -25 250 -46 252 -49 9 -9 -1018 -844 -1475 -1199 -299 -233 -532
-409 -539 -409 -7 0 -103 384 -175 700 -109 479 -223 1084 -208 1103 5 7 28
38 51 70 23 31 45 57 49 57 5 0 107 -9 228 -20z m4781 -50 l50 -70 -24 -137
c-41 -235 -150 -771 -209 -1026 -67 -288 -149 -615 -157 -623 -15 -15 -1046
797 -1741 1370 -230 189 -276 231 -260 237 26 11 546 101 859 148 425 66 817
115 1235 155 213 21 189 26 247 -54z m1237 -183 c91 -130 227 -329 302 -442
l137 -204 -26 -33 c-14 -18 -61 -71 -105 -118 l-79 -85 -54 85 c-29 47 -139
213 -242 369 l-189 285 32 185 c36 203 39 216 50 204 4 -4 83 -115 174 -246z
m48 234 c535 -93 715 -309 542 -653 -42 -83 -114 -190 -125 -186 -4 2 -74 102
-155 223 -81 121 -209 308 -284 415 -75 107 -140 201 -144 208 -10 17 31 16
166 -7z m-7013 -234 l30 -168 -117 -176 c-64 -97 -118 -170 -120 -162 -1 8
-18 90 -36 183 l-34 170 106 150 c115 166 135 192 139 179 1 -4 16 -84 32
-176z m6557 1 c57 -81 104 -153 104 -160 0 -30 -64 -348 -70 -348 -4 0 -58 76
-120 170 l-113 169 28 153 c15 84 29 164 32 177 7 29 -9 47 139 -161z m-6240
-39 l27 -156 -104 -153 -103 -154 -32 160 c-18 87 -29 164 -26 169 16 27 206
294 208 292 1 -1 15 -72 30 -158z m5994 -147 c0 -18 -49 -280 -56 -301 -2 -7
-50 55 -108 141 l-104 154 29 154 c16 85 29 157 29 160 0 12 210 -296 210
-308z m-5655 -167 c73 -376 149 -722 236 -1069 38 -153 68 -282 67 -287 -2 -5
-46 -40 -98 -78 -61 -45 -97 -65 -101 -58 -29 55 -239 965 -335 1453 l-38 190
94 134 95 134 12 -65 c6 -35 37 -194 68 -354z m5294 224 l52 -75 -51 -255
c-70 -351 -158 -739 -246 -1094 -42 -165 -77 -301 -78 -302 -2 -2 -48 30 -103
71 l-100 73 38 149 c99 384 218 921 289 1299 22 121 45 244 51 273 l11 54 42
-59 c23 -32 66 -92 95 -134z m-2789 -773 c-18 -816 -50 -1388 -111 -1971 -12
-110 -25 -204 -29 -208 -18 -20 -739 298 -1255 553 -469 233 -625 317 -625
337 0 18 181 236 384 463 283 314 1007 1026 1496 1469 l145 131 3 -142 c2 -79
-2 -363 -8 -632z m277 579 c359 -328 547 -508 898 -859 401 -402 707 -734 877
-954 41 -52 41 -53 22 -71 -49 -47 -817 -430 -1244 -621 -203 -90 -606 -260
-619 -260 -20 0 -80 665 -111 1220 -27 504 -55 1744 -38 1738 3 -2 100 -88
215 -193z m-3708 -72 l33 -172 -109 -173 c-60 -95 -133 -212 -162 -260 -29
-49 -55 -88 -58 -88 -8 0 -203 174 -203 181 0 23 452 701 461 691 3 -4 20 -84
38 -179z m7165 -102 c100 -152 201 -306 224 -343 l42 -67 -78 -71 c-42 -40
-89 -81 -104 -91 l-28 -20 -27 46 c-16 26 -89 144 -164 262 l-135 216 35 178
c19 97 39 175 44 172 5 -3 91 -130 191 -282z m-6819 93 l28 -150 -40 -60 c-22
-32 -73 -113 -113 -178 l-74 -119 -33 154 c-18 85 -33 162 -33 172 0 24 220
351 229 340 4 -4 20 -76 36 -159z m6394 -3 l113 -169 -31 -148 c-18 -82 -34
-157 -37 -167 -4 -13 -30 21 -91 120 -47 76 -98 156 -113 178 l-28 40 31 158
c17 86 34 157 37 157 3 0 57 -76 119 -169z m-6070 -68 c67 -332 152 -713 243
-1080 l82 -332 -25 -20 c-13 -11 -29 -20 -36 -21 -6 0 -61 30 -122 66 -99 59
-112 70 -121 103 -49 183 -223 944 -261 1139 l-12 62 99 150 c55 82 101 150
104 150 3 0 25 -98 49 -217z m5741 66 l101 -150 -62 -287 c-56 -263 -215 -941
-221 -947 -13 -12 -225 -135 -233 -135 -5 0 -22 10 -37 23 l-27 22 69 270 c84
330 170 711 244 1073 31 151 56 275 56 278 0 15 21 -13 110 -147z m-6010 -266
c47 -236 228 -1020 246 -1067 3 -9 2 -16 -2 -16 -5 1 -88 54 -184 118 l-175
117 -64 277 -64 277 109 175 c60 97 112 176 116 176 4 0 12 -26 18 -57z m6217
-50 c116 -181 147 -236 145 -260 -2 -22 -93 -429 -113 -504 -8 -34 -25 -48
-186 -153 -97 -64 -178 -114 -180 -112 -2 2 12 66 31 142 45 181 146 618 186
809 33 159 39 185 45 185 2 0 34 -48 72 -107z m-6538 -63 c17 -80 31 -154 31
-164 0 -20 -168 -316 -178 -316 -7 0 -102 73 -163 124 l-32 27 83 137 c121
199 224 356 226 346 2 -5 17 -74 33 -154z m7024 -187 l87 -143 -94 -75 c-51
-41 -97 -75 -102 -74 -5 0 -48 69 -96 154 l-87 154 29 138 c17 76 33 151 36
167 6 28 10 24 74 -75 36 -57 106 -168 153 -246z m-7764 169 l103 -112 -73
-121 c-40 -66 -76 -122 -80 -124 -3 -3 -57 39 -118 93 -79 68 -111 102 -108
114 6 23 161 268 167 265 3 -1 52 -53 109 -115z m8446 -18 l87 -136 -34 -35
c-45 -47 -198 -177 -202 -172 -2 2 -38 60 -79 129 l-75 124 107 113 c58 62
107 112 108 113 1 0 40 -61 88 -136z m-8269 -155 c16 -17 59 -56 97 -87 37
-31 67 -59 67 -63 0 -12 -131 -239 -139 -239 -4 0 -55 38 -114 85 l-107 85 31
52 c65 112 121 198 128 198 4 0 20 -14 37 -31z m8012 -88 c40 -65 72 -123 72
-128 0 -18 -211 -176 -221 -166 -5 5 -38 59 -73 121 l-64 112 102 89 c55 50
103 90 106 91 3 0 38 -53 78 -119z m-8327 -84 l66 -57 -76 -135 c-42 -74 -80
-135 -85 -135 -4 0 -55 37 -113 83 -57 45 -111 87 -120 94 -14 11 -5 30 72
159 l87 146 52 -49 c28 -27 81 -75 117 -106z m8782 8 c47 -76 83 -143 81 -147
-8 -13 -235 -188 -244 -188 -4 0 -42 61 -84 135 l-77 135 38 33 c21 17 74 64
118 103 44 40 81 71 81 70 1 0 40 -64 87 -141z m-7798 -123 c25 -111 45 -207
45 -212 0 -8 -151 94 -244 165 -17 13 -14 21 60 151 63 113 79 135 85 119 5
-11 29 -111 54 -223z m6696 104 c70 -123 76 -136 60 -149 -27 -24 -244 -177
-247 -175 -1 2 20 98 47 213 27 116 49 218 49 228 0 9 3 17 8 17 4 0 41 -61
83 -134z m-7067 -68 c50 -40 93 -73 96 -75 6 -5 -113 -243 -123 -243 -4 0 -53
33 -107 73 -69 49 -98 77 -94 87 8 23 127 230 132 230 2 0 45 -32 96 -72z
m7468 -49 l67 -120 -101 -74 c-56 -41 -105 -75 -109 -75 -5 0 -36 54 -68 119
l-60 119 97 76 c53 41 99 76 102 76 3 0 35 -55 72 -121z m-7888 -30 c49 -38
98 -76 110 -84 20 -15 20 -17 -47 -150 -37 -74 -71 -135 -76 -135 -15 0 -231
160 -231 172 0 12 143 268 150 268 3 0 45 -32 94 -71z m2450 -141 c-115 -117
-274 -279 -351 -360 -78 -82 -144 -148 -146 -148 -8 0 -48 160 -43 168 3 5 94
72 203 150 109 77 275 199 368 270 94 72 172 130 175 131 2 0 -90 -95 -206
-211z m3246 51 c107 -80 273 -201 368 -269 95 -68 171 -128 169 -134 -2 -6
-12 -44 -22 -84 -11 -40 -22 -71 -25 -70 -3 2 -165 165 -360 362 -195 198
-348 355 -340 350 8 -5 103 -75 210 -155z m2620 21 c38 -69 69 -128 68 -132
-2 -4 -55 -45 -118 -92 l-115 -84 -68 130 c-37 72 -69 134 -70 139 -3 12 216
180 225 171 4 -4 39 -63 78 -132z m-8744 -47 c68 -53 123 -99 122 -102 -57
-113 -151 -297 -154 -300 -3 -4 -31 15 -171 117 -94 68 -102 76 -91 96 31 60
161 286 165 286 2 0 60 -44 129 -97z m9212 -49 c45 -80 82 -151 82 -157 -1
-12 -258 -203 -264 -196 -2 2 -38 71 -81 153 -65 124 -75 150 -64 161 26 25
232 185 238 185 3 0 43 -66 89 -146z m-8078 30 c82 -58 151 -113 154 -122 3
-10 21 -84 41 -167 19 -82 38 -158 41 -168 4 -14 -5 -11 -47 14 -43 27 -420
277 -454 301 -6 4 14 55 50 128 33 66 61 120 62 120 2 0 71 -48 153 -106z
m6941 -16 c47 -94 58 -123 47 -129 -7 -5 -121 -80 -253 -168 -132 -87 -242
-157 -244 -156 -2 2 16 84 40 181 40 161 47 179 74 200 38 30 269 194 272 194
2 0 30 -55 64 -122z m-3551 -583 c10 -248 43 -829 57 -1001 l6 -81 -46 -18
c-43 -16 -47 -16 -89 3 l-44 19 12 169 c17 238 42 686 53 969 6 132 14 317 18
410 l7 170 7 -190 c4 -104 13 -307 19 -450z m-3824 529 c57 -42 104 -78 104
-80 0 -5 -112 -268 -116 -273 -2 -2 -212 137 -232 154 -4 3 131 275 136 275 2
0 51 -34 108 -76z m7778 -65 c62 -118 65 -127 48 -141 -15 -13 -175 -121 -210
-142 -8 -5 -16 2 -22 21 -6 15 -32 79 -59 140 l-48 113 31 19 c17 11 64 45
105 75 41 31 78 53 82 49 4 -5 37 -65 73 -134z m-8191 -62 c59 -43 107 -82
107 -87 0 -4 -12 -34 -26 -66 -15 -33 -43 -100 -64 -151 l-37 -92 -119 80
c-65 44 -125 86 -132 93 -11 11 0 39 62 165 56 110 80 150 89 144 8 -4 61 -43
120 -86z m8631 -58 c44 -85 75 -154 70 -159 -5 -5 -65 -48 -134 -95 -107 -73
-126 -83 -132 -68 -4 10 -33 77 -63 148 -31 72 -57 135 -58 141 -2 9 216 180
233 183 3 1 41 -67 84 -150z m-7555 97 c9 -8 88 -60 176 -116 l160 -101 32
-126 c34 -132 34 -141 -9 -164 -15 -8 -44 5 -154 72 -75 45 -140 92 -145 103
-5 12 -25 86 -44 166 -20 80 -38 153 -41 163 -6 21 4 22 25 3z m6252 -167
l-46 -182 -138 -84 -138 -84 -30 18 c-16 9 -29 23 -29 30 0 7 14 67 31 132
l32 120 156 100 c86 55 165 107 176 115 11 8 23 16 26 16 4 0 -14 -82 -40
-181z m-6564 13 c115 -76 237 -156 273 -179 l66 -41 37 -145 c20 -80 37 -148
37 -151 0 -7 -55 -36 -68 -36 -17 0 -672 405 -672 415 0 1 21 52 46 111 25 60
50 121 56 137 5 15 12 27 14 27 2 0 97 -62 211 -138z m7156 21 c72 -171 76
-151 -45 -230 -199 -129 -551 -343 -565 -343 -8 0 -27 7 -42 15 l-29 14 39
148 c21 81 44 152 51 159 7 6 101 68 208 137 107 69 224 146 259 171 35 25 67
43 71 41 4 -2 27 -53 53 -112z m1262 -228 c211 -431 325 -779 325 -991 0 -331
-232 -400 -729 -218 -94 35 -586 272 -578 280 2 2 42 -12 88 -30 194 -79 383
-115 491 -96 139 26 203 91 229 234 30 161 -42 453 -196 798 l-53 117 137 99
136 98 24 -40 c13 -23 70 -135 126 -251z m-9657 193 c70 -50 129 -93 131 -95
2 -1 -24 -67 -57 -145 -80 -188 -124 -309 -158 -443 -24 -93 -28 -130 -28
-240 0 -102 3 -138 17 -168 27 -58 82 -112 140 -137 119 -52 343 -17 612 95
90 38 7 -11 -176 -103 -270 -137 -487 -220 -656 -253 -93 -17 -248 -8 -300 19
-102 53 -139 144 -130 327 8 178 59 361 187 668 64 152 269 567 281 567 5 0
66 -41 137 -92z m857 -156 c-17 -44 -56 -213 -62 -265 -4 -41 -10 -57 -18 -53
-11 4 -273 172 -283 181 -4 4 58 161 97 248 l30 68 122 -81 c94 -64 119 -85
114 -98z m7974 -12 l50 -121 -144 -95 c-79 -51 -146 -94 -148 -94 -3 0 -10 36
-16 80 -7 44 -23 117 -36 162 -14 46 -25 86 -25 90 0 4 53 43 117 88 l117 81
18 -35 c10 -19 40 -89 67 -156z m-6320 22 l22 -82 -42 -50 c-23 -28 -44 -50
-47 -50 -2 0 -37 18 -77 40 -68 38 -84 56 -85 97 0 16 192 145 201 135 3 -4
16 -44 28 -90z m4482 31 c92 -61 100 -69 94 -92 -9 -37 -19 -46 -92 -87 l-65
-36 -39 38 c-21 21 -42 46 -45 56 -5 17 34 188 43 188 2 0 48 -30 104 -67z
m-259 -65 c33 -38 58 -68 56 -68 -2 0 -42 42 -88 93 -46 50 -71 81 -56 67 15
-14 55 -55 88 -92z m-4699 42 c42 -25 77 -47 77 -51 0 -6 -121 -92 -124 -87
-5 6 -46 166 -46 178 0 15 -1 15 93 -40z m5393 33 c-3 -10 -13 -49 -22 -88 -9
-38 -20 -73 -23 -77 -7 -8 -121 68 -121 80 0 8 150 101 163 102 5 0 6 -8 3
-17z m-4773 -67 c-37 -41 -70 -73 -72 -70 -4 4 129 144 137 144 2 0 -27 -33
-65 -74z m-2339 -50 l123 -85 -34 -123 c-43 -154 -54 -304 -30 -388 54 -184
236 -222 550 -116 70 24 127 41 127 39 0 -8 -348 -175 -452 -217 -250 -100
-438 -125 -550 -74 -99 46 -135 130 -125 296 9 158 64 348 179 620 44 103 65
141 75 138 8 -3 69 -44 137 -90z m8923 17 c84 -185 155 -386 189 -538 22 -97
25 -264 5 -318 -16 -46 -63 -102 -103 -123 -105 -55 -304 -29 -563 72 -93 37
-458 214 -452 220 2 2 37 -9 78 -25 121 -47 244 -73 340 -74 75 0 95 3 144 28
137 66 168 232 96 505 -17 63 -33 124 -36 135 -4 16 17 35 123 107 70 47 131
87 135 87 5 1 24 -34 44 -76z m-6497 63 c0 -2 -8 -10 -17 -17 -16 -13 -17 -12
-4 4 13 16 21 21 21 13z m-1637 -154 c111 -71 253 -159 315 -196 62 -37 110
-71 107 -76 -8 -14 -215 -97 -295 -119 l-75 -21 -162 97 -163 98 0 50 c1 66
53 295 67 295 3 0 95 -58 206 -128z m5619 -14 c22 -27 36 -48 31 -47 -4 0 -43
44 -86 97 -73 91 -35 55 55 -50z m20 50 c48 -61 26 -43 -37 30 -32 37 -44 54
-26 37 18 -16 46 -47 63 -67z m1763 -19 c14 -53 26 -127 28 -165 l2 -68 -161
-98 -161 -98 -85 25 c-78 22 -273 99 -290 114 -4 3 61 48 145 98 84 51 226
140 317 197 91 58 168 102 172 98 4 -4 19 -51 33 -103z m-5816 6 c-65 -78 -91
-104 -73 -72 10 17 135 157 141 157 2 0 -28 -38 -68 -85z m-41 26 c-24 -27
-45 -47 -47 -45 -5 4 79 94 87 94 2 0 -16 -22 -40 -49z m-810 -137 c-20 -20
-142 -103 -146 -100 -5 5 -62 219 -62 233 0 7 50 -18 111 -54 90 -54 108 -69
97 -79z m391 129 c26 -15 33 -30 56 -115 l27 -97 -33 -40 c-18 -23 -34 -41
-37 -41 -3 0 -53 28 -112 61 -99 56 -109 64 -115 96 -3 19 -3 38 0 41 11 11
169 111 177 111 3 1 20 -7 37 -16z m5048 -46 c80 -50 83 -53 77 -82 -8 -40
-13 -44 -128 -111 l-100 -57 -37 40 -38 41 29 97 c16 53 30 98 32 99 33 25 56
35 67 31 8 -3 52 -29 98 -58z m431 -65 l-31 -122 -26 16 c-69 45 -131 90 -131
96 0 7 213 138 217 134 2 -1 -11 -57 -29 -124z m-5188 48 c-18 -23 -35 -38
-38 -35 -5 5 56 75 66 75 2 0 -11 -18 -28 -40z m4352 -14 l21 -31 -36 34 c-21
19 -37 39 -37 44 0 14 28 -11 52 -47z m-4506 -2 l44 -26 -27 -33 c-16 -19 -31
-34 -34 -34 -3 -1 -11 18 -18 42 -7 23 -15 50 -17 60 -7 23 -1 22 52 -9z
m4676 -31 c-9 -32 -17 -60 -19 -62 -4 -6 -43 31 -54 51 -7 13 -1 22 33 42 24
14 46 26 49 26 4 0 -1 -26 -9 -57z m-6398 -75 c138 -88 144 -94 150 -131 8
-46 36 -105 63 -129 46 -42 111 -60 202 -57 84 3 131 -4 131 -20 0 -9 -185
-90 -278 -120 -162 -55 -319 -69 -393 -38 -46 20 -95 76 -108 124 -17 59 -12
189 9 288 30 133 49 187 66 181 8 -3 79 -47 158 -98z m1906 77 c-7 -8 -17 -15
-23 -15 -5 0 -2 9 8 20 21 23 35 19 15 -5z m4280 5 c6 -11 9 -20 7 -20 -2 0
-12 9 -22 20 -10 11 -13 20 -7 20 6 0 16 -9 22 -20z m2093 -72 c66 -233 59
-399 -20 -470 -85 -77 -271 -67 -518 28 -126 49 -205 85 -205 95 0 14 41 21
143 22 89 2 108 5 145 27 49 28 87 83 105 155 12 44 16 48 157 139 80 52 150
95 156 95 6 1 23 -41 37 -91z m-1918 -57 c-6 -5 -94 92 -94 104 0 6 22 -15 49
-45 27 -30 47 -56 45 -59z m405 105 c0 -3 -4 -8 -10 -11 -5 -3 -10 -1 -10 4 0
6 5 11 10 11 6 0 10 -2 10 -4z m-4969 -23 c-13 -24 -81 -89 -81 -78 0 8 80 95
87 95 2 0 -1 -8 -6 -17z m-437 -97 c8 -28 27 -95 42 -149 l27 -98 -24 -24 -24
-24 -138 78 c-76 43 -145 85 -153 93 -8 7 -15 30 -17 50 -2 36 -1 38 98 101
l100 64 37 -20 c31 -17 40 -30 52 -71z m439 15 c-32 -40 -59 -67 -61 -61 -4
11 108 143 115 136 3 -2 -22 -36 -54 -75z m4491 10 c49 -57 65 -81 52 -81 -2
0 -32 34 -67 76 -76 92 -63 96 15 5z m626 -3 c97 -61 100 -64 94 -93 -3 -16
-10 -37 -14 -45 -5 -8 -73 -51 -152 -96 l-143 -82 -22 21 c-13 11 -23 27 -23
35 0 8 17 75 37 150 34 122 41 137 68 154 16 10 36 18 43 18 6 0 57 -28 112
-62z m-5015 32 c-6 -10 -134 -181 -141 -189 -2 -2 -4 4 -4 15 0 19 128 184
143 184 5 0 5 -5 2 -10z m4354 -74 c66 -77 83 -106 63 -106 -7 0 -142 175
-142 185 0 13 14 -1 79 -79z m-4250 -106 c27 -91 49 -165 48 -167 -3 -2 -240
126 -249 135 -4 4 27 52 68 106 42 53 78 96 80 94 2 -3 26 -78 53 -168z m4200
75 c39 -52 71 -98 71 -102 0 -8 -242 -142 -248 -137 -2 1 17 71 43 156 56 185
53 178 58 178 3 0 37 -43 76 -95z m-4719 19 c55 -31 78 -50 73 -58 -5 -7 -29
-36 -54 -65 l-46 -53 -11 44 c-6 24 -20 73 -31 111 -11 37 -17 67 -15 67 3 0
41 -21 84 -46z m5165 -64 c-16 -55 -31 -100 -35 -100 -3 0 -28 25 -54 56 -35
40 -45 59 -38 66 17 17 146 87 151 83 2 -2 -9 -49 -24 -105z m-4467 11 c455
-241 949 -474 1451 -682 119 -50 219 -93 222 -97 4 -4 4 -27 0 -51 l-6 -44
-108 -38 -108 -39 -207 89 c-388 166 -825 370 -1143 533 l-176 90 -38 122
c-59 187 -64 206 -59 206 2 0 80 -40 172 -89z m3843 -58 c-22 -72 -45 -142
-50 -156 -9 -22 -61 -52 -298 -171 -328 -164 -696 -335 -1015 -471 l-219 -94
-107 38 -107 38 -9 47 c-4 26 -7 48 -5 50 2 1 90 38 194 81 448 185 1032 458
1440 673 116 61 211 107 213 103 1 -4 -15 -66 -37 -138z m-4356 93 c-16 -24
-35 -35 -35 -19 0 10 43 54 48 49 2 -2 -4 -16 -13 -30z m4765 -20 c0 -5 -9 -1
-20 9 -11 10 -20 25 -20 34 0 12 6 9 20 -9 11 -14 20 -29 20 -34z m-6116 -68
l120 -73 -49 -3 c-56 -4 -122 18 -153 51 -23 25 -57 97 -45 97 4 0 61 -33 127
-72z m709 58 c4 -10 1 -13 -8 -9 -8 3 -12 9 -9 14 7 12 11 11 17 -5z m6029 -8
c-7 -7 -12 -8 -12 -2 0 14 12 26 19 19 2 -3 -1 -11 -7 -17z m823 -5 c-19 -76
-90 -122 -190 -123 l-59 0 119 74 c66 41 124 75 129 75 4 1 5 -11 1 -26z
m-6175 -3 c0 -5 -2 -10 -4 -10 -3 0 -8 5 -11 10 -3 6 -1 10 4 10 6 0 11 -4 11
-10z m-696 -34 l39 -24 58 -203 c32 -112 54 -207 51 -211 -7 -7 -491 262 -492
272 0 5 291 189 300 190 3 0 23 -11 44 -24z m600 12 c-11 -19 -126 -158 -130
-158 -2 0 -4 6 -4 13 0 16 118 157 132 157 5 0 6 -6 2 -12z m4887 -7 c8 -11
36 -45 63 -76 28 -32 45 -59 40 -64 -5 -5 -38 28 -76 75 -38 46 -62 84 -54 84
7 0 20 -9 27 -19z m764 -72 c80 -50 145 -94 145 -98 0 -15 -478 -283 -485
-271 -3 5 20 99 52 210 55 197 57 202 92 225 20 13 39 24 43 24 4 1 73 -40
153 -90z m-5662 -42 c-96 -128 -91 -124 -99 -104 -7 19 152 221 167 211 5 -3
-26 -51 -68 -107z m4910 5 c50 -60 74 -97 70 -108 -7 -19 -4 -21 -97 100 -41
55 -73 103 -69 109 3 5 9 5 13 0 4 -4 41 -50 83 -101z m-4783 58 c0 -4 -28
-51 -62 -103 -35 -52 -67 -103 -73 -112 -9 -14 -12 -14 -29 -2 -18 13 -15 20
65 125 75 98 99 121 99 92z m4703 -62 c35 -46 73 -97 85 -115 22 -31 22 -32 4
-42 -17 -9 -28 3 -96 105 -65 99 -81 134 -61 134 2 0 33 -37 68 -82z m-5693
57 c0 -12 -140 -74 -155 -69 -27 11 -16 19 68 45 45 15 83 27 85 28 1 1 2 -1
2 -4z m6690 -25 c36 -12 72 -24 80 -27 13 -4 12 -6 -2 -14 -13 -7 -37 0 -95
31 -84 44 -83 45 17 10z m-6188 -54 l118 -67 -77 -95 c-43 -51 -80 -90 -84
-86 -8 8 -89 294 -89 312 0 6 3 9 8 7 4 -2 60 -35 124 -71z m5697 -82 c-23
-82 -45 -155 -49 -163 -5 -9 -30 15 -83 80 -43 52 -73 97 -68 102 12 12 235
136 239 133 1 -2 -16 -70 -39 -152z m-5002 66 l142 -75 61 -180 c33 -99 60
-183 60 -186 0 -3 -69 30 -153 72 l-153 78 -44 143 c-24 79 -49 162 -56 186
-8 24 -10 42 -6 40 4 -2 71 -37 149 -78z m4309 -114 c-30 -97 -56 -179 -57
-180 -14 -13 -292 -146 -296 -142 -3 3 21 84 54 182 l59 176 144 78 c80 43
146 75 148 71 1 -4 -22 -87 -52 -185z m-4447 0 c23 -76 41 -140 39 -142 -2 -2
-52 22 -111 52 l-106 56 35 55 c73 114 87 134 94 126 3 -4 25 -70 49 -147z
m4605 63 c32 -50 54 -95 50 -99 -10 -9 -198 -110 -206 -110 -2 0 16 67 41 150
25 82 48 150 51 150 3 0 31 -41 64 -91z m-4958 4 c-10 -10 -19 5 -10 18 6 11
8 11 12 0 2 -7 1 -15 -2 -18z m5205 4 c-13 -13 -26 -3 -16 12 3 6 11 8 17 5 6
-4 6 -10 -1 -17z m-5239 -41 c1 -11 -174 -246 -183 -246 -4 0 -9 8 -11 18 -4
12 25 55 86 130 82 101 106 123 108 98z m5374 -102 c72 -87 85 -109 80 -129
-6 -23 -16 -13 -101 101 -52 69 -92 130 -89 135 8 14 18 6 110 -107z m-4176
-154 c290 -139 594 -278 823 -375 76 -32 134 -62 130 -66 -12 -11 -355 -121
-378 -121 -23 0 -394 167 -710 321 l-220 107 -59 175 c-33 96 -62 180 -64 188
-3 8 42 -11 99 -42 57 -31 228 -115 379 -187z m-1135 221 c5 -9 -149 -253
-164 -259 -4 -1 -15 4 -25 11 -18 13 -13 22 73 135 89 118 103 132 116 113z
m4475 0 c0 -11 -117 -352 -123 -357 -18 -18 -900 -427 -921 -427 -11 0 -330
97 -376 115 -22 8 -4 18 158 88 322 138 625 279 940 436 169 84 310 153 315
153 4 1 7 -3 7 -8z m779 -113 c82 -111 90 -124 74 -135 -9 -7 -20 -13 -24 -13
-9 0 -160 229 -167 253 -12 47 34 6 117 -105z m-178 57 c-7 -28 -8 -28 -18
-10 -9 15 -8 22 5 31 22 16 23 14 13 -21z m-4996 15 c3 -5 1 -18 -4 -27 -6
-10 -11 -13 -11 -6 0 6 -3 18 -6 27 -7 17 11 22 21 6z m275 -145 c33 -21 39
-34 100 -216 36 -107 66 -200 68 -207 3 -12 -295 132 -330 160 -9 7 -37 80
-62 161 l-46 148 20 39 20 39 97 -51 c54 -29 114 -61 133 -73z m-322 83 c7
-28 2 -46 -35 -122 -23 -49 -45 -91 -47 -93 -3 -4 -63 22 -74 32 -5 5 132 215
140 215 4 0 11 -15 16 -32z m5000 -2 l20 -33 -48 -152 c-26 -83 -49 -153 -51
-155 -8 -6 -336 -176 -341 -176 -3 0 27 95 67 211 l71 210 120 64 c65 35 124
64 131 64 6 1 20 -14 31 -33z m157 -66 c36 -55 65 -103 65 -108 0 -9 -53 -42
-69 -42 -6 0 -11 5 -11 11 0 6 -18 49 -40 95 -21 47 -37 91 -35 99 3 8 7 22
10 30 2 8 7 15 10 15 3 0 35 -45 70 -100z m-5097 -131 c18 -56 31 -104 28
-106 -7 -7 -126 57 -126 68 0 15 54 139 61 139 3 0 20 -46 37 -101z m5027 26
c15 -36 26 -67 24 -69 -23 -18 -122 -67 -126 -62 -8 8 56 208 66 202 4 -3 20
-35 36 -71z m-5473 -102 c-454 -677 -504 -1141 -145 -1330 139 -74 245 -94
522 -102 l224 -6 73 -173 c45 -110 68 -175 61 -177 -23 -7 -154 -26 -287 -40
-158 -17 -475 -20 -585 -4 -506 70 -676 351 -509 838 90 260 290 606 559 966
130 174 135 179 153 161 12 -12 3 -30 -66 -133z m1108 -26 c36 -85 149 -391
146 -395 -3 -2 -76 31 -163 75 l-158 78 -67 195 c-37 107 -67 201 -67 208 -1
20 298 -135 309 -161z m3874 -29 c-35 -107 -70 -202 -77 -211 -16 -20 -330
-170 -324 -154 22 51 128 325 141 364 l16 48 153 77 c83 41 153 75 154 74 2
-1 -27 -90 -63 -198z m891 101 c346 -456 557 -825 640 -1122 32 -113 44 -287
25 -368 -51 -219 -240 -347 -573 -389 -142 -18 -500 -8 -702 20 -88 12 -161
23 -163 25 -1 1 30 82 70 179 l73 176 180 0 c422 0 656 92 755 295 52 104 60
193 35 341 -39 219 -147 454 -357 777 -75 114 -88 140 -78 152 7 8 14 15 16
15 2 0 38 -45 79 -101z m-5705 26 c0 -7 -7 -18 -15 -25 -8 -7 -15 -11 -15 -9
0 2 -4 18 -9 36 -9 31 -9 32 15 21 13 -6 24 -17 24 -23z m5546 9 c-3 -9 -6
-22 -6 -30 0 -22 -18 -17 -25 7 -5 14 -2 25 6 30 21 13 32 11 25 -7z m-5609
-65 c10 -37 8 -46 -32 -127 -125 -255 -158 -491 -91 -637 61 -133 181 -215
376 -255 l85 -17 67 -174 c37 -96 67 -180 67 -186 1 -10 -40 -13 -171 -13
-330 0 -530 58 -648 186 -76 84 -95 143 -94 294 1 106 5 139 28 215 40 133
107 284 187 425 77 135 201 330 209 330 3 0 11 -18 17 -41z m183 -4 c0 -3 -9
-36 -19 -74 -11 -38 -23 -100 -27 -138 l-7 -68 -38 119 c-36 114 -37 121 -22
150 28 56 31 57 74 36 21 -11 39 -23 39 -25z m5370 5 c11 -21 20 -45 20 -51 0
-7 -17 -65 -37 -128 l-37 -116 -7 85 c-4 47 -16 112 -26 145 l-19 60 35 22
c20 12 39 23 43 23 4 0 17 -18 28 -40z m207 -124 c229 -359 348 -695 315 -892
-45 -274 -274 -394 -751 -394 -161 0 -173 1 -166 18 4 9 34 87 66 172 32 85
63 161 67 169 4 8 47 22 96 32 103 21 217 72 274 123 172 155 174 405 7 762
-42 91 -44 99 -34 138 l11 41 19 -24 c10 -13 54 -78 96 -145z m-5279 -244 c47
-139 83 -255 80 -257 -7 -8 -125 24 -182 49 -71 32 -148 104 -174 164 -39 91
-38 214 4 343 l15 46 86 -46 86 -46 85 -253z m4967 113 c0 -111 -2 -124 -27
-171 -33 -63 -84 -109 -163 -145 -56 -27 -183 -65 -190 -57 -2 2 36 118 83
259 l86 255 86 46 85 46 20 -56 c15 -44 19 -85 20 -177z m-3830 -65 c99 -45
200 -91 225 -102 42 -19 43 -21 22 -29 -39 -15 -423 -109 -445 -109 -12 0 -63
19 -114 41 l-91 42 -51 126 c-48 122 -111 289 -111 296 0 2 87 -38 193 -90
105 -51 273 -130 372 -175z m2889 69 c-42 -107 -78 -200 -81 -208 -8 -19 -181
-101 -213 -101 -22 0 -328 74 -444 107 -26 8 -10 17 175 101 112 51 301 139
419 196 118 56 216 102 217 101 2 -1 -31 -89 -73 -196z m-4279 -463 l94 -278
-42 6 c-76 12 -191 56 -247 94 -188 130 -199 383 -34 737 l28 60 53 -170 c30
-93 96 -295 148 -449z m5475 384 c55 -163 63 -293 24 -403 -24 -69 -101 -149
-184 -191 -64 -32 -214 -75 -224 -65 -3 3 39 135 92 294 54 160 120 360 147
445 l48 155 34 -75 c19 -41 48 -113 63 -160z m-4848 -141 c32 -85 58 -157 58
-161 0 -14 -287 -9 -297 5 -12 14 -163 453 -163 471 0 7 76 -26 172 -75 l171
-86 59 -154z m1893 321 c3 -5 -1 -10 -9 -10 -9 0 -16 5 -16 10 0 6 4 10 9 10
6 0 13 -4 16 -10z m165 0 c0 -5 -7 -10 -16 -10 -8 0 -12 5 -9 10 3 6 10 10 16
10 5 0 9 -4 9 -10z m2188 -246 l-83 -239 -147 -3 c-103 -2 -148 1 -148 9 0 11
97 274 110 298 9 17 344 193 348 182 1 -4 -35 -116 -80 -247z m-2228 200 c43
-17 44 -20 54 -139 l5 -60 -58 -23 -58 -22 -58 22 -57 22 6 59 c3 33 6 74 6
92 0 28 5 34 38 48 49 20 73 20 122 1z m-257 -96 c-3 -24 -9 -47 -14 -52 -4
-5 -35 2 -71 17 -39 16 -57 27 -48 31 34 13 125 45 132 45 3 1 4 -18 1 -41z
m464 21 c32 -12 62 -25 66 -29 5 -4 -19 -17 -53 -30 -33 -12 -62 -21 -64 -19
-6 7 -17 99 -12 99 3 0 31 -10 63 -21z m-573 -89 l88 -35 -7 -60 c-4 -33 -10
-64 -15 -70 -5 -6 -53 -26 -108 -45 l-99 -34 -177 76 -178 75 198 65 c110 36
202 65 205 64 4 0 46 -17 93 -36z m904 -24 c105 -34 194 -65 197 -68 3 -3 -72
-38 -166 -77 -188 -80 -170 -78 -303 -30 l-85 30 -8 57 c-4 31 -8 61 -8 66 0
5 41 26 90 47 50 21 90 38 90 38 0 0 87 -28 193 -63z m-2385 -45 c154 -73 156
-74 176 -120 11 -25 18 -47 16 -49 -5 -6 -196 -32 -231 -32 -31 0 -32 2 -77
123 -25 67 -49 130 -53 141 -9 23 -21 27 169 -63z m3720 -13 c-19 -51 -42
-113 -52 -138 -14 -38 -21 -45 -47 -48 -31 -3 -222 22 -230 31 -3 2 3 23 12
46 16 40 23 46 173 121 86 43 161 79 167 79 7 1 -2 -36 -23 -91z m-2010 -10
c21 -11 21 -11 2 -19 -33 -13 -45 -10 -45 11 0 23 12 25 43 8z m200 -8 c6 -22
3 -23 -30 -14 -36 10 -28 24 18 33 4 0 9 -8 12 -19z m-816 -82 c92 -39 171
-74 176 -78 8 -7 -393 -140 -430 -142 -21 -2 -402 164 -387 169 5 1 97 25 204
52 107 28 209 55 225 60 17 5 33 10 37 10 3 1 82 -31 175 -71z m1816 5 c120
-31 214 -59 210 -63 -4 -4 -89 -43 -189 -88 l-181 -81 -209 65 c-245 77 -248
78 -214 93 251 110 328 140 345 136 11 -3 118 -31 238 -62z m-3592 -67 c30
-14 97 -37 149 -49 l93 -23 60 -158 c32 -86 57 -160 54 -163 -11 -10 -165 -15
-249 -9 l-84 7 -84 247 c-46 136 -85 252 -87 258 -2 6 18 -10 45 -36 27 -26
73 -59 103 -74z m2600 43 c4 -19 10 -64 13 -100 l6 -67 -74 -27 -75 -27 -71
28 -71 28 7 90 c3 50 10 95 15 101 5 5 35 19 67 31 l57 21 60 -22 c53 -20 60
-26 66 -56z m2411 -176 l-88 -258 -45 -7 c-58 -9 -214 -9 -260 0 l-36 7 60
161 61 160 79 17 c108 22 217 75 269 131 24 25 44 45 45 46 1 0 -37 -116 -85
-257z m-4051 153 c-35 -10 -45 -4 -56 32 l-6 22 46 -22 47 -23 -31 -9z m3078
20 c-12 -26 -32 -32 -65 -19 -13 5 -7 11 27 29 24 12 45 21 47 19 1 -1 -3 -14
-9 -29z m-1823 -58 c-4 -23 -9 -44 -11 -47 -6 -6 -82 20 -102 34 -14 10 -7 15
43 33 32 11 63 21 68 21 5 1 6 -18 2 -41z m585 18 l64 -24 -40 -16 c-53 -23
-85 -30 -85 -20 0 5 -4 26 -9 47 -5 20 -5 37 -1 37 4 0 36 -11 71 -24z m-1546
-92 c105 -48 191 -87 193 -89 2 -2 -306 -85 -366 -98 -22 -5 -29 5 -83 120
-33 69 -58 127 -56 129 5 5 80 22 102 23 12 1 106 -38 210 -85z m2734 68 c17
-6 14 -17 -40 -131 -33 -69 -61 -126 -62 -128 -3 -3 -330 81 -366 95 -19 7 6
21 166 95 172 79 192 86 236 81 26 -2 56 -8 66 -12z m-3030 -144 l59 -127 -46
-10 c-129 -27 -223 -43 -226 -40 -1 2 -28 65 -59 139 l-56 135 112 16 c62 9
122 16 135 15 19 -1 32 -22 81 -128z m3259 110 c50 -6 92 -15 92 -19 0 -11
-102 -253 -111 -263 -7 -7 -255 36 -265 47 -3 2 23 61 56 132 l61 128 37 -7
c20 -3 79 -11 130 -18z m-2109 -20 c62 -24 81 -36 81 -50 0 -28 -32 -151 -42
-165 -6 -7 -48 -25 -93 -40 l-84 -27 -128 54 c-70 29 -159 68 -198 85 l-70 31
215 71 c118 39 220 71 227 72 6 1 48 -13 92 -31z m1040 -39 c119 -39 217 -72
219 -73 4 -5 -383 -166 -399 -166 -8 0 -51 13 -95 29 l-79 29 -22 88 c-12 49
-19 92 -15 96 10 10 144 66 161 67 8 1 111 -31 230 -70z m-2501 -97 c30 -73
51 -136 48 -140 -11 -10 -280 -42 -287 -34 -6 7 -119 299 -119 308 0 2 68 3
152 2 l151 -3 55 -133z m3986 71 c-14 -38 -41 -108 -59 -156 -19 -49 -35 -91
-38 -93 -5 -5 -244 25 -273 34 -21 7 -21 10 35 144 l56 138 152 0 152 0 -25
-67z m-2245 -48 c23 -12 23 -13 -24 -29 -27 -9 -49 -16 -50 -16 0 0 1 16 3 35
5 38 14 40 71 10z m241 -11 c0 -32 -2 -35 -22 -28 -13 3 -34 12 -48 19 l-25
13 35 15 c53 23 60 21 60 -19z m-934 -85 c103 -44 195 -84 203 -89 10 -5 -46
-27 -174 -68 -265 -85 -458 -142 -478 -142 -9 0 -28 17 -41 39 -37 58 -128
223 -124 225 2 2 77 22 168 45 131 33 244 64 256 70 1 1 86 -35 190 -80z
m1916 31 c81 -22 170 -45 198 -51 27 -6 50 -16 50 -22 0 -19 -134 -249 -148
-255 -25 -9 -681 193 -668 206 16 15 393 171 406 167 8 -2 81 -23 162 -45z
m-1395 18 c-3 -8 -6 -5 -6 6 -1 11 2 17 5 13 3 -3 4 -12 1 -19z m343 -17 l75
-28 14 -98 c7 -54 9 -100 5 -104 -5 -5 -47 -23 -93 -41 l-84 -34 -49 18 c-27
10 -70 26 -95 37 l-45 19 7 83 c4 45 11 91 15 102 7 19 123 73 160 74 9 1 49
-12 90 -28z m182 4 c3 -13 1 -22 -3 -19 -9 5 -13 44 -5 44 2 0 6 -11 8 -25z
m-554 -132 c-6 -29 -15 -53 -20 -53 -10 0 -3 45 14 89 14 38 17 20 6 -36z
m596 -25 c3 -16 2 -28 -3 -28 -11 0 -18 19 -25 75 l-6 40 14 -30 c7 -16 16
-42 20 -57z m-1716 21 c15 -27 48 -87 75 -131 26 -45 45 -83 43 -86 -9 -8
-277 -72 -285 -68 -12 8 -134 276 -128 282 6 7 212 51 245 53 17 1 28 -11 50
-50z m2987 26 c65 -14 121 -27 123 -29 3 -3 -124 -275 -132 -283 -4 -5 -275
63 -282 70 -3 3 22 52 55 109 33 57 65 116 72 131 7 15 19 27 28 27 9 0 70
-12 136 -25z m-1915 11 c0 -9 -23 -66 -26 -66 -3 0 -21 7 -42 16 l-37 16 45
18 c47 19 60 22 60 16z m769 -32 c2 -1 -14 -10 -35 -19 -41 -17 -49 -13 -59
27 l-7 27 48 -16 c27 -9 51 -17 53 -19z m-2117 -159 c56 -122 63 -145 50 -149
-25 -8 -263 -56 -277 -56 -15 0 -140 295 -130 309 3 6 25 11 48 12 23 0 78 6
122 14 44 7 89 13 100 14 17 1 32 -25 87 -144z m3616 121 c56 -7 105 -15 107
-18 6 -6 -109 -286 -123 -300 -9 -9 -267 37 -291 51 -8 5 7 46 45 127 31 65
60 130 65 143 8 21 14 23 52 17 23 -4 88 -12 145 -20z m-2355 -16 c26 -11 47
-27 47 -35 0 -17 -40 -125 -76 -206 l-26 -57 -121 -42 c-67 -24 -181 -62 -253
-85 -131 -42 -131 -42 -157 -23 -42 30 -214 245 -204 254 1 2 99 32 217 68
118 36 274 85 345 110 72 25 141 43 155 41 14 -2 46 -13 73 -25z m1013 0 c101
-35 517 -163 582 -180 l43 -11 -43 -62 c-24 -34 -77 -97 -118 -139 l-75 -78
-249 83 c-159 54 -254 90 -262 102 -13 17 -83 190 -98 241 -6 19 1 25 56 47
35 14 66 26 69 27 3 0 45 -14 95 -30z m-2619 -159 c35 -85 62 -156 59 -158 -6
-6 -171 -31 -260 -39 l-71 -6 -44 118 c-24 66 -54 146 -66 179 l-23 60 171 0
170 -1 64 -153z m4453 146 c0 -14 -122 -332 -131 -341 -9 -10 -155 4 -276 25
l-61 11 38 86 c20 48 49 119 64 157 l27 70 170 0 c93 0 169 -4 169 -8z m-2738
-53 c-12 -82 -46 -193 -60 -197 -10 -3 -24 -8 -33 -11 -12 -5 -5 21 27 101 24
59 43 114 44 121 0 8 6 12 13 9 6 -2 11 -13 9 -23z m656 -16 c8 -24 27 -76 43
-116 16 -41 29 -75 29 -77 0 -2 -13 1 -30 6 -22 8 -32 20 -39 47 -46 177 -47
182 -28 182 6 0 18 -19 25 -42z m-44 -123 c4 -22 4 -35 -2 -31 -9 5 -15 36
-27 126 -4 28 -2 26 9 -11 7 -26 16 -63 20 -84z m-367 61 c2 -2 -27 -15 -64
-29 -67 -24 -68 -25 -71 -5 -2 12 -1 35 2 53 l7 33 61 -24 c33 -13 63 -25 65
-28z m271 -52 c-3 -2 -35 8 -72 22 -37 15 -65 28 -63 30 2 2 30 15 63 28 l59
24 8 -50 c5 -27 7 -51 5 -54z m-488 10 c-7 -30 -14 -53 -17 -50 -3 3 0 34 7
68 8 34 15 57 18 50 2 -6 -2 -37 -8 -68z m-812 -226 c75 -79 91 -64 -132 -129
l-148 -43 -18 23 c-30 41 -153 269 -149 277 2 5 67 25 144 44 l140 36 50 -70
c27 -39 78 -101 113 -138z m2638 130 c11 -11 -153 -298 -171 -298 -11 0 -327
91 -334 96 -2 2 21 31 52 64 31 33 82 95 113 138 l56 79 138 -36 c76 -20 142
-39 146 -43z m-1881 -181 c-108 -504 -245 -838 -404 -990 -77 -73 -134 -99
-218 -100 -177 0 -393 199 -615 565 -78 130 -152 268 -146 272 5 4 297 78 312
80 7 0 47 -44 88 -99 177 -237 333 -345 482 -333 69 6 110 24 175 76 102 83
209 277 287 522 25 80 51 156 56 170 23 56 17 -7 -17 -163z m698 47 c100 -329
225 -540 368 -619 47 -26 64 -30 135 -30 72 0 87 4 149 35 90 46 209 158 310
294 55 75 83 105 94 101 8 -3 80 -22 160 -42 80 -20 148 -37 149 -39 2 -1 -24
-53 -59 -116 -239 -434 -467 -682 -660 -717 -253 -46 -468 267 -628 914 -84
340 -95 472 -18 219z m-1930 84 c13 -24 52 -92 86 -151 34 -60 61 -110 59
-112 -2 -2 -74 -21 -162 -43 l-158 -40 -15 26 c-23 43 -141 297 -138 300 2 3
273 59 292 61 7 1 23 -18 36 -41z m3317 12 c80 -16 146 -30 148 -30 7 0 -15
-53 -78 -186 l-68 -142 -73 18 c-169 40 -249 63 -249 70 0 4 24 48 53 98 30
50 67 116 83 146 16 31 31 56 34 56 3 0 70 -14 150 -30z m-2126 -22 c-17 -80
-90 -273 -144 -384 -72 -145 -150 -238 -236 -280 -47 -23 -63 -26 -118 -22
-92 8 -171 53 -276 158 -78 79 -191 222 -191 244 0 5 80 33 177 61 l177 53 41
-28 c87 -58 174 -73 262 -43 60 20 166 121 210 200 27 49 54 70 92 72 10 1 12
-7 6 -31z m801 20 c14 -6 42 -38 61 -70 125 -206 292 -259 465 -149 l45 28
171 -51 c94 -28 175 -54 179 -58 10 -11 -101 -159 -178 -238 -182 -185 -326
-217 -472 -105 -102 78 -213 290 -299 573 -27 88 -25 94 28 70z m515 -179 c0
-13 -99 -51 -147 -56 -43 -5 -62 -1 -107 21 -54 26 -122 93 -158 154 l-17 28
214 -70 c118 -39 215 -73 215 -77z m-2803 -22 c42 -87 73 -160 71 -163 -5 -5
-144 -35 -260 -57 l-77 -14 -65 153 c-92 217 -92 201 -9 209 37 4 102 13 143
20 125 21 112 31 197 -148z m1336 132 c-26 -45 -103 -123 -144 -145 -51 -27
-151 -25 -211 4 -27 13 -48 27 -48 31 0 6 384 139 408 140 10 1 8 -7 -5 -30z
m2673 5 c127 -17 134 -19 128 -38 -7 -21 -134 -329 -138 -333 0 -1 -75 14
-166 33 -91 18 -168 34 -171 34 -4 0 28 75 70 166 l76 165 34 -5 c19 -3 94
-13 167 -22z m-2461 -254 c-136 -744 -301 -1193 -509 -1388 -87 -81 -142 -106
-236 -106 -60 0 -86 5 -132 26 -187 87 -357 273 -574 629 -98 161 -355 674
-342 684 2 1 79 17 172 35 144 28 171 31 178 19 5 -8 38 -68 75 -134 280 -508
546 -752 782 -714 238 37 439 389 582 1021 19 81 35 142 37 135 1 -7 -13 -100
-33 -207z m709 -195 c118 -401 269 -653 441 -731 67 -31 158 -34 233 -10 187
63 401 304 622 701 40 72 76 134 80 139 7 7 333 -50 349 -60 6 -5 -244 -507
-309 -619 -299 -519 -573 -763 -803 -715 -285 59 -512 550 -682 1474 -44 238
-44 275 0 86 18 -80 49 -199 69 -265z"/>
</g>
</svg>
