<?xml version="1.0" encoding="utf-8"?>
<!-- Generator: Adobe Illustrator 19.0.0, SVG Export Plug-In . SVG Version: 6.00 Build 0)  -->
<svg version="1.1" id="Слой_1" xmlns="http://www.w3.org/2000/svg" xmlns:xlink="http://www.w3.org/1999/xlink" x="0px" y="0px"
	 viewBox="0 0 600 600" style="enable-background:new 0 0 600 600;" xml:space="preserve">
<style type="text/css">
	.st0{opacity:0.7;}
	.st1{fill-rule:evenodd;clip-rule:evenodd;fill:#fff;}
</style>
<g id="XMLID_496_" class="st0">
	<path id="XMLID_497_" class="st1" d="M333.9,336.9c0,0,1.2,8.9,2,11.4c0.3,5.2-0.9,5-1.2,8.3c11.5-1.8,9-7.7,15.7-7.2
		c0.1,1.8,0.7,9.4-2.7,11.3c-0.8,0.4,0.7,1.7,0.4,2c-1.3,1.3-3.4,0.9-4.3,2.1c-2,3-2.1,6.2-1.2,6.4c1.6,0.7,6-1.8,8-8.3
		c1.6-3.9,5.5-13.9,5.2-18.6c0-1.3-2.1-1.3-2.4-1.6c-4.8,0.8-8,1.4-13.6,3c-1,2.4-2.1,6.2-2.9,5.9c-0.9-0.3,2.5-9,1.4-10.9
		C337.3,338.8,335.9,336.9,333.9,336.9L333.9,336.9z M322,285.5c0,0,3.5,4.2-0.5,3.8c-11.1,1.2-14.1,10.2-15.6,18.2
		c-0.1,1-3.1-0.9-4.1-1.8c-0.1,0,0.1-2.9,0.1-6c0,0-4.1-1.7,3.9-6.5c-1.6-5.1,2-4.2,4.1-5.1c0.4-4.8,6.2-4.3,6.7-5.4
		c1.4-2.5-0.8-3.7-0.8-3.7c-7.9-6.8,15.1,4.2,21.9,10.7c11.5,1.3,5.1,2.7,2,2.9c-0.7,0-2.9-1.7-6.3-1.8
		C332.1,286.9,326.2,285.5,322,285.5L322,285.5z M300,315.9h-5.1c0,0-5.8-5.4-6.8-13.1c-0.3-2.5-0.9-5.1-1-5.1c-1,0-8.8-0.3-9.6-0.7
		c-1.8-0.8-4.3-5.2-4.3-6.8l-1.2-5.8c2,0.1,3.8,0.3,5,0.3c2.7,3.1,12.3,7.9,16,6.2c0.7,0.4,4.6,3,4.6,3.3c1.2,3.3-0.5,8.6,0.3,8.6
		l2.2,2.1V315.9L300,315.9z M272.7,300.3c-2.9,3.1-7.5,9.7-8.2,9.6c-5.1-1-7.1,1.6-8.9,1c1.4-3.3,6.2-9.2,5.1-10l-11.8,13.2
		c2.6,1.4,4.3,4.8,7.6,0.8c2.1,0.8,3.7,4.1,6.4-0.7h0.4c2,0.9,3.7,2.8,6.3-0.3c0.3-0.3,2.6-5.6,4.6-9.8L272.7,300.3L272.7,300.3z
		 M255.3,304.7c-0.8-0.5-3.1-0.3-3.8-1.7c-0.7-1.6,4.1-5.9,2.6-5.4c-3,0.5-5.6,3.3-6,0.5c2.7-3.9,12.4-10.1,10.2-12.4l-14.5,13
		c0,0.3-2.4,2.4,4.7,3.1c0.4,1.3-2.6,2.2-2,3.7c0.3,0.5,4.3,0.9,3.4,2.1c-2.5,3.3-1.2,4.7-0.5,3.9
		C251.9,309.1,250.6,310.6,255.3,304.7L255.3,304.7z M285.2,285.4c-1.7,0.9-5.6,0.5-6.8-3.5c-1.7-1.8-2.9-0.7-2.6-3.4
		c1.7-3.1,6-3.4,8.6-4.8c3.5-2,0.4-2.9,6-3.1c1.2,0,2.5,0.3,3.8,0.9c6.3,0,6,3.9,6.8,6.3c3.5,3.3,1.3,6.9,1.3,7.1l0.1,1.7l-1.7-0.1
		c0,0-3.5-0.3-3.5-0.4c-1,1.6-4.1,3.5-6.3,3l0.5-3.5c0.7-0.7,1.6-0.3,2.9,0c0.9,0.5,0.4-1.7,0.7-3.5c0.7-0.3,0.9-0.9,1.2-1
		c-2.6,0-5.6-4.7-8.1-0.5c-0.3,0.9-0.9-1.8-1.7-1.8c1.6-2.2,5.4-3.7,7.7,0h5.4c-0.7-2-3.5-5.5-5.4-5.8c-1-0.5-3.7-1-5.6-0.4
		c-0.9,0.7-1.7,1.8-2.9,2.4c-4.7,0.1-4.8,2.9-6,3.8c1.6,4.7,6.8,3.4,7.6,4.7C288.3,285.2,288.3,283.2,285.2,285.4L285.2,285.4z
		 M251.8,358.9c-3.7,2.4-0.3,0.4-1.7,0.8c-0.1,0-5.5,3.9-5,8c-2.9,0.5-3.9,4.6-4.3,4.7c-1.8-4.5-0.7-7.7,0.3-10.1c0-1,1,2.4,2.1,1.6
		c0.8-0.3,0.7-8.5,0.7-9.4c0.3-1.8-0.3-8.6-0.3-11.5c0-4.1-2.4-17.4,8.2-16.2c6.9,0.8,8.5,4.8,12.3,8.5c0.1,1.2-0.5,2.4-1.8,2.4
		c-1.6-1.3-4.6-1.6-4.8,0.1c-0.9,5.2-0.7,19.6-3,19.6c-0.5,0-0.1-9.7-1.2-11.3c-0.7-1.4-1.7,0.4-1.7-0.3L251.8,358.9L251.8,358.9z
		 M287.8,374.9c0,2.2,20.3,14,20.3,21.2c0,1.8-7.2-0.7-8-2.6c-0.1-0.7,1.8-2.1,1.2-2.8c-0.4-0.5-1.2-1.4-1.8-2
		c-0.5-0.5-4.2,1.2-4.2,0c0.4-5.1-10.3-11.7-14-14.1l-0.1-1.8c2.4-3.4,2.6-7.5,1.6-11.3c1.6-1.7,1.7-6,1.7-7.9
		c3.4-0.6,8-0.1,12.8-0.1l2.2,3.8c0.5,1.2-10.2,0.4-10.2,1c0,0.9,5.2,0.8,5.2,2.9c0,2.4-6.7,8.4-6.9,10.9
		C287.1,374.3,287.8,374.5,287.8,374.9L287.8,374.9z M295.9,350.6c-2.1,1.4-11.3,0.5-11.5,0.5c0-1.6-0.9-7.2-0.9-8.9
		c6.4,3.5,8.9,0.4,9.4,1.6L295.9,350.6L295.9,350.6z M296.7,337.1c0,0-1.4-3.4-0.8-2.2c0,0.3-2.8-0.9-5.1-2.2L275,299.3
		c4.1,2.6,8.5,3.3,10.9,3.5c0.9,0-0.7,9.3,2.4,12.2c1,0.9,4.6,0.9,5.1,0.9c0,1.6-1.8,3.9-1.8,5.6c1.3,0,1.8,0,3.8,0
		c0,3,5.9,9.6,5.9,11.3l-0.7,2.1h3c-3.5,6,2.2,19.1,3.5,24.1c0,0.7-1.4,1-1.4,1.6c0.3,1.3,1,1,1.6,1c5.1,0.5,9.4,7.1,7.6,6.9
		l-7.5-0.4l-12-25.7C294.7,341.1,295.1,338.7,296.7,337.1L296.7,337.1z M281.4,329.7c1.8,0.8,3.8,2.9,6.3,3.1l3.9,8.6
		c-1.2,0.5-3.5,0.8-7.9-0.9C282.3,336.2,282.7,335,281.4,329.7L281.4,329.7z M282.4,322.3l4.3,8.5
		C284.4,330.7,279.5,327.1,282.4,322.3L282.4,322.3z M299.6,358l4.7,10.3l-4.2,0.1c-1.2,0-2-3.5-0.8-5.9c0.1,0-0.7-1.8-0.7-2.7
		C298.7,358.9,299.6,358.2,299.6,358L299.6,358z M275.7,298c-4.3,3.4-8,3.8-9.3,1.3c-0.9-2.4-5-11.4-5.1-16.6c-2-1.3-1.8-6.7-1-9.6
		c0.1-0.4,2.1-1.4,2.2-1.7c1.7,0,3.5,3.8,3.5,5.1c-3.4,1.2-2.5,4.3-3.5,6.2c0,3.4,3.5,6.8,4.3,8C268.7,290.7,275.7,296.7,275.7,298
		L275.7,298z M294.5,301.9c0.4,1,1.4-0.5,1.7,0.8c0.3,1.6-2,8.6,1,8.4c1.6-0.1,1.8,2.1,1.4,3.5l-3.4-0.1c-2-5.1-2.1-8.5-2.1-11.9
		l-3.4-0.7c-0.9-0.1-1.7-2.2-1.2-3.9c1.3,0,1.6-0.7,1.4-1.7c-0.1-0.8-0.5-1.8-0.5-3.5l3.5,0.4C294.7,296.2,294.5,299.7,294.5,301.9
		L294.5,301.9z M316.9,388.5l-8.9-19.2h-2.9l9.6,21.1c0.8,2.1-3.5,3.3-3.1,3.3c5.1,0,7.1,4.3,5.1,4.3c-12,0-18.7,2.9-24.2-2.8
		c-17.3-17.3-24.4,2.2-26.8,8.1l-2.6,1c0-3.1-4.1-12-3.9-13.6c1.2-13.2,4.1-19,17.2-25.5c12.7-6.4,2.9-31.8,3.4-38.6
		c-8,0-14,7.5-15.1,11.1c-2.7,7.7,1.4,18.9,0.5,24c-0.4,1.6-5.6,0.3-5.4,3.1c2.5,17.4-10.7,24.5-2.2,29.6c0.3,0.1,0,3.9,0,3.9
		c-3.9,0.9-3.5,5.9-3.7,5.9c-2,0-11.7-4.2-7.6-14.5c0-3.1-3.9-3.7-4.7-4.2c-1.6,1,4.1,3.3-0.1,11c0.1,2.5,1.8,6.8,6,10.5
		c4.2,3.8,22.3,4.3,25.8-2.2c3.3-6.3,8.4-9,14.5,0.8c3.4,3.4-7.6,3.5-6.5,5.9c5.9,2.8,0.4,5.5,6.2,7.3c1-2.5,4.5-2.5,4.5-2.5
		l-7.1-4.6c3.9,0.8,9.4-0.8,11.3-4.1c5.2,1.8,12.6,4.1,20.4,1.4c-3.4,1.8-5.4,3.7-3.3,5c4.6-1,5,1,8.8,2.1c0.1-2,2.5-1.4,3.4-2.4
		c2.1,0.3-10-2.1-8-2.1c0.4,0,8.2-1.4,9.7-3.9c19.6,3.9,19.4,0.1,24.1-2.2c1.4-0.7,6.4-7.2,6.3-9.3c0.4,0.3-2.2-2-2.5-0.4
		c-0.4,2.1-4.8,6.4-5.4,6.2l-1.4-0.8c-1.7-1.3,0.5-5.1,4.5-9c1-0.9,2.2-0.9,2.2-0.9c0.1-1.4-1-2-2.6-1.4c0,0-9.6,4.2-6.9,8.8
		c0.9,1.7-1.2,2.6-1.2,2.6c-0.3-1.4,0-2.2-4.1-6c-2.2-7.6-6-17.3-8.1-23.4c-1.2-6.3-2-7.9-2-13.4c1.4,0,2.1-2,2.7-3
		c2.1-2.5,1.7-4.8,1.7-6.5c-2.9-8.3-0.5-8.8-2.9-12.4c-0.5-1.4,0.5-0.9,0.8-2.1c0.3-1.2,5.8,1.8-0.7-6.2c-11-1.8-18.2-8.4-25.9-14.3
		c-1.8,4.8-5.6,11.7-0.9,16.6l25,2.9c0.1,2.8-1,2.8-1.2,3.4c-7.3-0.4-14.5,0-23.3-1.6c0.7,8.5,2.5,13,4.3,23.2l9.8,2.2
		c2.9,8.4,6.8,9,6.4,14.1c1.4,2.1,1.6-0.3,3.3,2.4c7.2,16.1,3.9,20.3,7.5,18.6l1.6,2.2c-0.9,1.8-1.7,2.4-0.4,5
		c-1.6-0.7-6.8-3.9-14-4.3c1.4-4.2,7.9-2.9,7.2-5c-0.1-1.3-0.3-6.7-11.8-11.4c-0.3-0.3,1.6,3,1.8,4.2l-3.4-0.7
		C319,387.2,319,388.7,316.9,388.5L316.9,388.5z M271.2,290.9l-3.9-2l-3.1-6.7l1.4-3.7L271.2,290.9L271.2,290.9z M261.5,269.8
		l-2.1,2.4l-2.9-6.2l2.7-1L261.5,269.8L261.5,269.8z M323.5,308.6l0.8,8.5c-6.4-3.5-10.5-5.4-16.6-8.6c1.8-10.7,4.6-17.7,19-17.2
		c-0.9-2.5-1.6-0.9-0.9-3.4c3.5,0.9,7.2,2.4,6.7,3.8c5.6-0.4,14.4,5.1,12.8,9.4c-0.1,0.8-12.2-2.2-11.8,0c1,0.3,7.3,0.8,8.1,0.8
		c2.5,0,7.5,16.5,6.7,17.3c-1.4,1.4-0.5,2.4-2,3.4c-2.4,1.7-6.7,2.1-7.3-2.4c-0.4-1.2-1.3-2.6-2.6-4.2c-1.8-1.6-8.1-3.1-9.3-5.8
		c-1.6-3.5-0.4-6.9-0.4-10.3C323.7,299.7,323.5,307.2,323.5,308.6L323.5,308.6z M330.9,323.9l0.5,2.4c-9.6-0.4-21.3-11-24.9-14.4
		c0,0,0.3-2.7,0.7-2C310.5,312.7,328,322.5,330.9,323.9L330.9,323.9z M334.8,320.6c-1.3,1.3-6.4,0.4-8.1-3c0,0-0.4-3.1-0.4-5
		C329.8,314.4,333.5,317.4,334.8,320.6L334.8,320.6z M279.5,316.2l-1.2,0.9c-4.7-2.9-2.9,2-6.4-1.3l3.1-9.6L279.5,316.2L279.5,316.2
		z M335.5,302.3c0.4,0.5,0.4,1.4-0.1,1.4c-0.9,0.4-2,0.3-2.9-0.3c-0.3-0.3-0.3-1.3,0.3-1.6C333.5,301.7,334.7,301.9,335.5,302.3
		L335.5,302.3z M291.1,280.3c0.4-0.3,1.3-0.3,1.7-0.3c0.3,0.3,0.1,1.3,0,1.4c-0.4,0.4-1.2,0.1-1.4-0.1
		C290.9,281,290.8,280.7,291.1,280.3L291.1,280.3z M385,123.7c6.7,0,13,0.8,18.9,2c0.8,0.3,1.2-1,0-1.7v-3.3c1.3,0.1,1.4-1.6,0-1.7
		c2.4-6.3,6.4-14.9,6.7-19.3c0.3-6.4-4.3-11.5-13.6-13c-1.7-1.4-4.7-1.2-5.5,0.8c-0.1,1.2-2,0.8-2-0.1c0-0.8-1.3-2.2-1.3-2.2
		c1.7-1.3,2.6-3.7,2.6-5.8c0-1.4-0.8-4.6-4.3-5.4l-0.3-3.3l4.3,0.4v-3.3l-4.3,0.5l0.3-4.3h-3.1l0.5,4.3l-4.5-0.5v3.3l4.5-0.4
		l-0.3,3.3c-3.4,0.8-4.2,3.9-4.2,5.4c0,2.1,1,4.5,2.6,5.8c0,0-1.4,1.4-1.4,2.2c0,0.9-1.8,1.3-2.1,0.1c-0.4-2-3.7-2.2-5.4-0.8
		c-9,1.4-14,6.4-13.5,13c0.5,4.6,4.5,13,6.5,19.3c-1.8,0.3-1,2,0.1,1.7c0,1.2,0,2.2,0,3.3c-1.6,0.3-1.2,2,0,1.7
		C371.9,124.6,378.3,123.7,385,123.7L385,123.7z M295.8,597.5c-2.5-0.4-11.8-8.1-14.1-13.5c0,0,5.9-12.4,5.9-14.1c0,0-3.8,2.1-9,1.4
		c-2.5-8.5-2.9-18.1,5.6-50.3l9.3-34.6c-0.3,11.8,0,81.1,0,96h4.7c0-14.8,0.5-84.1,0.1-96l9.3,34.7c8.6,32.3,8,41.8,5.6,50.3
		c-5.2,0.5-9-1.4-9-1.4c0,1.7,5.8,14.1,5.8,14.1C307.6,589.5,298.5,597.2,295.8,597.5L295.8,597.5z M295.8,462.2
		c-5.1-3.5-13.5-22.8-14.7-24.9c-1-2.1-3.1-4.6-3.3-9.6c8.3,1.7,12.7,9.3,17.9,19.5c5.2-10,9.8-17.7,17.9-19.4c0,5-2.2,7.3-3.1,9.4
		C309.4,439.5,300.9,458.9,295.8,462.2L295.8,462.2z M295.8,482.6c-7.7-4.2-18.5-33.5-16.9-44.1c2,0.4,5.6,17.4,13.8,22.9
		c0.7,3.9,1.2,9,3.1,12.6c2.1-3.5,2.6-8.6,3.1-12.6c8.1-5.4,12-22.4,13.9-22.7C314.4,449.4,303.8,478.7,295.8,482.6L295.8,482.6z
		 M462.1,111.2c0.5-0.9-0.3-1.7-1.4-0.9c-2.1,1.7-3.9,5-4.2,9.3c0,1.3,2.1,1,2.1-0.5C458.6,114.5,461.4,112.3,462.1,111.2
		L462.1,111.2z M451.8,75.9c17.8,4.5,29.3,2.6,30.5,14c1.2,10.9-18.2,22.8-8.4,26.8c3.4,1.3,11.4-0.3,11.4,1.2c0,0.7-0.7,1-2,1.3
		c-6.9,1-10,0.1-10.7-0.1c-7.7-2.4-3.7-10.1-0.7-14.7c1.4-2.1,6.7-8.8,7.2-12.6c1.7-12.6-25-10.3-35.9-15.6
		c-11.1-5.1-19.6-8.4-22.1-1.6c-2.9,6.4,8.5,26.6,8.5,33.8c0,5.4-2.4,10.7-7.7,14c-1.7,0.9-14.9,3.8-14.9,2.4
		c0-1.6,9.6-2.4,11.9-3.4c3.1-1.4,7.6-4.2,7.7-13c-0.5-6-3.9-11.7-6.2-16.8c-2.8-6.4-5.1-13.6-2.9-18.9c1.8-4.1,5.9-6,12.4-4.8
		C436.7,69.2,433.8,71.2,451.8,75.9L451.8,75.9z M428.4,92.4c3.5,6.7,6.3,13.8,2,25.1c0.4,0.9,1.6,0.5,2.4-0.5
		c13-17-7.9-33.5,2.5-41.1c-1-0.4-2-1.2-4.8,1.8c-0.5,0.5,0-5.8-0.5-4.3c-0.3,0.5-2.1,3.1-2.2,4.7c0,1.4-1.2-0.4-1.6-4.7
		C422.7,75.8,424.8,85.7,428.4,92.4L428.4,92.4z M318,100.2c11.8,13.6,33.8,23.7,41,24.2l1.7,0.1c0.8-0.1,0.8-0.9,0-1.3
		c-18.7-6.8-30.9-15.8-36-21.1C322.6,100.8,318.6,99.2,318,100.2L318,100.2z M320.1,108.8c4.6,3.3,8.6,4.7,12.4,6.2
		c0.3-0.3,1.8,0,1-0.3c-7.6-4.3-14.4-7.9-18.7-14.5c-1.8-1.3-4.8-2.4-5-1.4C309.9,100.6,315.8,105.2,320.1,108.8L320.1,108.8z
		 M312.8,110.9c9,5.9,26.1,11.8,33.8,14.1l2.5,0.1c0.9-0.7,0.1-1.2-0.5-1.3c-13.6-4.7-35.8-14.5-41.8-24.9c-1.7-1-7.3-1.3-7.1,0
		C299.8,100.8,303.5,104.6,312.8,110.9L312.8,110.9z M316.3,571.4c7.5-1.4,7.9-14.7,6-26.1c-2.6-16.2-15.1-39.4-19.4-64.3
		C298.3,497.7,322,537.9,316.3,571.4L316.3,571.4z M340,561.2c2.2-2.5,8.2-4.5,15.5-4.8c7.6-0.3,6-9.4,5.1-13.1
		c-2.5,2.2-3,5.4-9.4,5.8c-5.1,0.1-13.4-5.4-13.9-15.7l3.8-0.3c-7.7-20.4-28.2-29.2-35.1-54.2c-0.9,8.5,8.2,33.1,10.9,40.3
		c7.5,18.5,8.4,24.2,8.8,36.1c0.8,12-2.2,21.5-16.4,19.1c5.4,16.5,33,15.3,38-3.8c-1.8,0-6.2,0.5-9.2,2
		C335.7,568.8,337.7,563.8,340,561.2L340,561.2z M344.5,534.2c2.2-0.5,5.5-1.4,6-5.6c0.7-5.9-9.7-15.5-18.7-22.8
		c-8.2-6.9-15.5-13-18.9-17C314.3,497.8,341.6,518.4,344.5,534.2L344.5,534.2z M336.8,506.3l-20.4-16.8c-4.1-4.7-11.8-12.2-7.7-20.2
		c2,8.4,8.6,18.7,24.8,26.6c0,1.3-2.8,1.7-4.5,1.7c5.6,4.6,23,12,27.9,16.9c8.1,7.2,15.1,16.2,15.6,27.6
		c0.5,12.6-2.5,20.2-14.3,24.2c13.5,0,16.8-11.3,17-24.1c0-12.6-10.1-24.1-15.5-28.4c-10.6-8.4-18.1-10.1-25.9-15.5
		c2.1-3.3,20.7,4.1,34,16.1c3.8,3.7,11,6.7,13.6,6.4c7.2-1,8.8-6.2,7.6-12.2c4.8,0.4,7.2,5.1,7.7,9.2c0.7,3.8-0.4,11.9-8.9,15.7
		c14.5,1.7,19.5,21.5,7.1,29.1c-1.2,0.8,0,4.3-1,5.4c-3.7-2.2-3.7-18.7-12.3-18.7c1.6,9.3-2.4,20.2-8.3,24.6
		c-6.3,4.6-17.5,2.4-24.2-6.4c-2.9,0.6-8.1,1.8-9.6,1.4c1-10.3,12.3-9.8,19.1-11.1c7.3-3.1,4.8-13.4,2.6-19.1
		c-2.6,4.5-4.7,7.9-10.5,8c-5.9,0.1-10.3-7.1-10.7-10c7.3,0.7,12-0.3,13-8.6C353.8,520.1,340,509.7,336.8,506.3L336.8,506.3z
		 M336.2,491.4c-3.7-0.5-7.3-2.2-9.2-2.2c3.5,3.4,13,7.2,17.8,7.2C343.3,491.8,340,491.8,336.2,491.4L336.2,491.4z M317.5,480.5
		c4.8,6.3,13.5,5.4,20.4,8.8c-0.7-6.5-21.1-8.9-21.3-27.4C313.7,466.9,310.8,472.5,317.5,480.5L317.5,480.5z M314,451.2
		c-1.3,4.2-3.8,7.9-3.1,16.8c3.5-14.4,12.6-10.6,10-24.1C317.5,447.3,315.3,447.3,314,451.2L314,451.2z M344,470.9
		c2,3.1,6.3,4.8,9.2,4.8l-0.8,3c16.8-0.3,22.1-21.6,13.9-34.7c-3.7-6.5-18.6-11.5-27-4.5c11.4,0.9,24.2,8.6,24.2,14.8
		C363.4,464,355.5,470.7,344,470.9L344,470.9z M316,435.1c0,1.6-1.3,8.5-1.3,10.2c1.8-1.7,10.9-10.1,11-18.1c-0.7,0-2,0-2.7,0
		c-1.4,4.5-2.1,9.2-3.5,9.4c-0.8,0,0.8-8.8,0.5-9.6c-0.8,0-3-0.5-3.7,0C316.2,429.1,316.2,431.2,316,435.1L316,435.1z M323.9,449.4
		c8.6-8.9,16.5-15.1,18.2-22.1c-0.8,0-2.9,0-4.2,0c-2.2,4.7-8.5,9.8-9,10.2c-2.2,1,3.4-4.7,5.8-10.2c-1.8,0-3.3,0-4.7,0
		C325.2,433.3,322.4,441.5,323.9,449.4L323.9,449.4z M362,381.3c-0.5,5.9,7.7,13.2,14.3,15.2c-5.9-11.3-9-27.6-1.2-38.2
		c-3.3,1.7-5.4,2.1-7.2,2.1c-0.7,4.7-1.7,14.3-2,17.9c-0.4,0-1.6-12.2-1.3-17.9c-3.1-2.1-2.9-1.3-2.9-0.4L362,381.3L362,381.3z
		 M361,409.8c10.2,2.9,19.1,10.9,29.3,1.3c-13.9-1.2-21-7.7-20.6-14.5c-3-2.4-6.8-5.5-8.2-8.9l0.3,5.9c0,3.9,4.3,9.8,6.2,11.8
		c-2.9-0.1-6.2-2-6.4-5.5C361.8,405.1,361.8,406.9,361,409.8L361,409.8z M339.9,436.7c11.9-5.2,17.8-3.4,31.7,5.2
		c0.8-6.2-7.7-13.7-16.5-18.7l-3.4,2c3.5,0.8,10.7,7.6,10.1,8.1c-4.2-0.7-8.6-5.6-12.6-7.2c-1,0.1-3.8,1-4.8,0.8
		C343.8,429.6,340.4,435.8,339.9,436.7L339.9,436.7z M372.1,461.8c-1.2,7.3-3,12.2-1.3,15.6c6.9-3.4,8.5-34.3-3.8-35.5
		C370.7,446.5,373.3,454.6,372.1,461.8L372.1,461.8z M388.9,463.3c-0.7,5.9,2.9,8.2,5.9,8.9c-0.3-3.9-2.1-10.1-1.6-14.3
		c0.9-4.3,2.9-7.3,0.4-10.6c-0.9,1.8-1.8,8.6-2.6,8.6c-0.3,0-1.7-2.4-2-1.7C388.4,454.9,389.5,457.8,388.9,463.3L388.9,463.3z
		 M378.7,469.8c-0.3,3.3,2,6.8,6.9,10.1c2.2-5.6,0.5-17.4,1-23.2c0.7-6-3.7-7.6-4.6-7.6c1.4,4.5,1.4,8.9,0.7,9.3
		c-0.7,0.1-1.2-10.1-6.3-11.7C379.6,453.7,378.7,466.5,378.7,469.8L378.7,469.8z M374.9,442.8c2.5,2.6,11.1,3.1,15.3,9.8
		c2.6-9.7-2.1-14.1-5.9-17.8c-1.3-0.7-4.8-1.3-5.5-0.7c3.8,2.6,5.4,8.6,4.7,8.1c-2.4-1.8-5.2-6.8-7.9-8.1c-1.6-0.4-3.1-0.9-5-0.9
		C373.3,435.7,373.7,439.3,374.9,442.8L374.9,442.8z M371.3,424.9c-0.8,1-8.1-1.8-12.3-6.4l-1.4,2.4c0.3,1.6,5.4,5.8,7.3,6.8
		c7.1,3.7,12.6,6.3,26.2,3.4c-13.4-3-21.6-17.3-30.1-18.9l-0.9,3.1C360.1,418.9,371.6,424.6,371.3,424.9L371.3,424.9z M393.6,432.5
		c4.3,2.8,4.6,9,3.9,9.3c-0.8,0.1-2.9-6.5-6.2-8.6c-1.4,0-3.3,0.7-4.1,1.2c2.2,2.7,11,11,11,20c5-4.3,4.7-14.9,3.8-19.8
		C399.8,433.3,396.9,432.7,393.6,432.5L393.6,432.5z M403.4,431.7c-0.3-6.4-8.8-18.9-20.4-14.5c1.8,3.3,11.7,5.9,10.7,7.1
		c-0.8,0.7-8.9-2.9-14.1-6.7c-1.7,0.4-4.7-0.9-7.3-1.4C372.4,417.2,383,430.4,403.4,431.7L403.4,431.7z M403.8,447.7
		c-1.4,4.6-2.2,6.7-5.4,8.8c-0.9,0.8-1.2-3.3-2.2-2.2c-2.6,10.6,1.3,19.8,7.9,22c1.3-3.1-2.9-11.9,0-16.6c3-5,4.7-10.5,5.5-17.9
		c0.7-5,0.4-10.7-5-12.6C404.6,433.4,405.4,440.5,403.8,447.7L403.8,447.7z M409.8,452c0.8,6.2,6.8,9.4,7.1,9.6
		c0.1,1.2-5.1,0.5-8.5-6.2c-0.5,2.2-3,4.6-2.2,6c3.1,5,15.7,8,19.4,1.6c-5.8-0.9-9-7.1-9-12.1c0.1-4.8,1.2-8,1.3-16.1
		c0.1-8.3-10.7-20.7-24.9-19.5c7.2,2.2,10.2,10.7,11.7,11c4.3,1.6,6.5,5.8,7.2,8.3C413.3,441.4,411,448.2,409.8,452L409.8,452z
		 M380.4,257.9c-5,7.2-12,6.4-18.3,6.3V280c3.1,0,8.4,0,10.2,0C380.1,279.5,383.5,264.2,380.4,257.9L380.4,257.9z M378.4,263.2
		c3.5,0.9,1.7,11-5.4,11.5c-1.8-0.9,1.4-2.6,2.9-5.8C378,265.5,377.2,263.3,378.4,263.2L378.4,263.2z M423.5,286.2
		c1.3-2.2,9.8,2.6,8.5,4.7C430.8,292.5,422,288.4,423.5,286.2L423.5,286.2z M391.4,344.2c-1.2-0.5-1-11.8-0.4-21.7
		c-1.2-1-1.6-1.2-2.9-3.4c-1.3,1.7-2.6,3.1-4.2,3.9c0.1,7.6-1.8,20.7-1.7,28.2c0.1,4.2,6.9,9.7,10.2,9.4c3.3-0.1,9.8-7.3,9.8-9.7
		c-0.4-7.1-2.4-15.3-3.5-24.5c-3,0-3.8-1.3-4.6-2.1C393.9,332.2,392.8,344.6,391.4,344.2L391.4,344.2z M405.4,348.5
		c0,4.2,12.3,7.1,15.3,6.2c2.8-0.8,6.3-9.3,5.1-12.3c-3.8-10-7.6-16-10.6-23.3c-2-0.4-3.7-0.9-4.8-1.6c1.6,12.6,5.2,21.7,3.4,22
		c-1.8,0.4-4.8-12.3-6.4-19.5c-1.4,2.8-3,3.5-5.2,5.2C403.2,333,403.8,341.5,405.4,348.5L405.4,348.5z M423.2,318.7
		c-2.4,0.4-3.7,0.4-5.4,0c2.6,5.1,6.5,13.7,11,23c0.9,1.4,9.3,4.2,12.4,2.4c3-2,4.3-10.3,3.5-12.8c-4.3-6.7-11.9-16.1-15.5-19.8
		c-0.7,1.8-1.2,3.7-3.3,5.8c2.6,4.8,8.4,14,7.1,14.5C432,332.4,426.9,324.6,423.2,318.7L423.2,318.7z M446.9,298.9
		c-0.9,1.8-1.6,1.7-2.2,2.5c4.1,2.1,9,5.8,18.2,10.5c3.7,1.8,15.1-0.1,17.2-2.7c2.4-2.2-1.4-12.4-5.2-13.2
		c-6.9-1.8-22.9-3.5-27.8-4.2c-0.4,0,0.7,2.1,0.5,4.7c5.6,1.6,19.1,5.1,18.6,6.3C465.8,303.8,453.2,300.9,446.9,298.9L446.9,298.9z
		 M434.6,304.5c-1.3,0.1-0.9-0.3-3.3-0.1c0,2.4-0.4,3.9-0.4,4.7c5.9,7.1,13.4,17.8,16.1,21.3c1.4,1.7,12.4,1.4,14.4,0
		c2-2,1.3-13.2-1-15.3c-8-6.8-11.3-8-18.3-12.3c-0.4-0.3-1.6,0.4-3.7,0.5c3.3,4.6,14.9,14.9,13.5,15.7
		C450.3,319.6,438.9,308.2,434.6,304.5L434.6,304.5z M410.6,397.5c4.7,0,15.1-7.1,14.3-11.4c-2-11-4.5-20.7-6-27.4
		c-3.5-0.5-5-1.2-8.3-2.4c0.3,12.2,1.4,26.2,0,26.1c-1.4-0.4-3.8-14.5-4.5-27.6c-2.1,1-5.4,3.9-6.7,6c-0.8,7.1-0.9,20-0.8,27.2
		C398.7,390.4,405.4,397.5,410.6,397.5L410.6,397.5z M430.1,388.5c1.7,6.5,10.6,9.7,16.2,8.3c5.8-1.2,10.6-9.9,8.6-15.1
		c-5.8-14.7-9.7-22.3-14-33.8c-3.5,0.1-7.2-0.4-9.7-1.2c5.2,16.9,11,32.2,9.2,32.9c-2.1,0.5-8.5-20.7-12-31.8
		c-1.2,4.3-4.5,8.5-6,10.5C424.3,367.4,428.6,382.1,430.1,388.5L430.1,388.5z M458.6,381.3c3,6.7,17.9,6.7,21.3,4.5
		c3.5-2.2,6.3-13.2,3.7-17.2c-8.5-12.3-18.6-22.4-25.7-33c-3.3-0.3-5.4-0.3-9-1.6c4.5,9.8,21.2,34.3,19.3,35.4
		c-1.6,1.3-15.6-20.8-21.1-31c-0.8,4.2-1.8,6.5-3.3,8.6C449.8,361.5,452,366.3,458.6,381.3L458.6,381.3z M487.1,366.3
		c4.6,4.8,20.6,5.1,24,2c3.5-3.1,2.5-14.8-1.3-17.9c-13.1-11.3-32.1-23.6-45.6-33c0.8,2.4,1.4,5.6,1.3,7.5
		c7.2,9.9,29.2,27.1,28.2,28.7c-1,0.5-20.3-15.4-28.7-24c-0.8,1.4-1.3,3.9-3.7,4.7C470.2,346.3,483.8,362.4,487.1,366.3L487.1,366.3
		z M509.1,345.5c6,4.5,21,3.4,23.6,0.9c2.5-2.4,0.7-12.6-9.7-17.7c-10.1-5-33.8-13.5-41-17.2c-1.8,1.7-3,1.2-5.1,1.8
		c11.8,6.3,33.7,19.6,31.6,21c-9.6-5-24.8-13.9-34.3-19.8c-1.8,0-4.6,0.4-7.6,0.4C479.9,324.4,496.3,335.3,509.1,345.5L509.1,345.5z
		 M518,311.9c-0.7,1.6-25.5-5.5-34.7-8.2c0.1,1.4,0.4,4.2,0.4,5.2c7.2,4.7,32.6,13,41.8,17c11.5,4.7,23.4-0.8,24.9-3.4
		c1.7-2.8-4.7-15.5-19.4-18.2c-15.1-4.2-31.6-7.2-50.9-8.4c1,1.7,1.7,2.8,2.9,4.1C491.8,302.3,518.7,309.6,518,311.9L518,311.9z
		 M391.4,176.6c-5.6-0.3-7.2,1.6-3,2.4c5.6,1.2,10.9,2.2,14.8,10.2c0.9,1.8,3,1.8,4.5,0.1C411.4,179.5,396.9,177,391.4,176.6
		L391.4,176.6z M385.8,143.7v-3.5c0-0.8-6.2,0.5-8.6,0.7C380.6,141.8,382.3,141.9,385.8,143.7L385.8,143.7z M311.1,162.5
		c5.5,6.7,27-4.3,30.9-13.5l-5.9,0.1C331.7,154.1,325.6,159.6,311.1,162.5L311.1,162.5z M301,204.6c5.6-13.1,28.2-36.4,31-43.3
		c-3.4-1.2-14,14.4-13.2,12.8c2.1-3.4,1.3-5.5,5-9.4C314.4,167,306,186.4,301,204.6L301,204.6z M306.8,252.3l-1.2,8.8h3.5
		C307.6,258.8,308.2,254,306.8,252.3L306.8,252.3z M335.7,251c-1,0.1,1.3,6.2,1.3,9.7c1.8,0,2.5,0.3,4.3,0.3
		C341.1,257.7,337.2,254.5,335.7,251L335.7,251z M323.5,252.3c-2.4,0,0.8,5.1,0.8,8.8c1.8,0,2.2,0,3.9,0
		C328.5,257,324.7,255.4,323.5,252.3L323.5,252.3z M297.2,239.2c-2.4,0,1.4,18.2,1.4,21.9c1.8,0,3.1,0,4.8,0
		C303.1,256.1,297.5,247.3,297.2,239.2L297.2,239.2z M316.6,246.5c-2.4,0-0.4,10.9-0.4,14.5c1.8,0,3.8,0,5.5,0
		C322.4,257.1,316.9,251.6,316.6,246.5L316.6,246.5z M311.6,246.5c-2.2-4.3-1.7-12-3.1-15.1c-1.8,7.9,0.5,22.8,3,29.6h2.2v-22.8
		C311.6,238.7,313.2,243.1,311.6,246.5L311.6,246.5z M298.4,229.2c5.2-14.8,11.5-32.3,20-44.9C313.3,187.9,294.2,211.8,298.4,229.2
		L298.4,229.2z M300.2,239.7c0.4,4.2,1,9.4,4.5,14.7c0.8-8.6,0.8-27.6,2.6-40.9C300.5,225.8,299.6,235.7,300.2,239.7L300.2,239.7z
		 M309.1,218.8c0,3.1,1.2,13.8,2.5,17c3.3-18.7,10.7-26.3,11.3-38.4c-5.1,3-8.6,16-10.1,19.1c0.1-7.5,4.8-16.2,4.1-23.4
		C310.6,199.6,309.1,208.8,309.1,218.8L309.1,218.8z M315.4,235c0,5,3.8,14.5,5.8,15.2c-0.5-8.6,4.8-21.2,2.1-32
		c-1.2,4.8-2.1,9.7-3.5,13.2c-2-2.8,2.2-17.4,2.2-18.9C317.1,216.1,315.4,230.3,315.4,235L315.4,235z M342.4,243.1
		c0.5,1.2,3.8,8.2,11.9,8.2c4.3,0,9.7-2.6,11.1-7.2c-11.7,4.3-20.6-8.9-23.6-15.2c0,1.3,0.5,5,0.5,6c1.2,4.7,11.4,10.7,10.6,11.7
		c-0.8,0.9-7.1-3.3-10.9-7.7C342.1,240,342.4,241.5,342.4,243.1L342.4,243.1z M324.2,243.1c-0.4,9,4.7,9.3,5.9,17.9h4.1
		c-0.3-13.2-7.6-14.9-8-26.8C324.5,234.2,324.2,240,324.2,243.1L324.2,243.1z M338.6,243.1c-2.9-3.9-5-12.7-6.8-20.8
		c-4.8,17.8,0,24,7.5,30.4c7.3,6.4,4.1,8.4,4.6,8.4h17.7C345.4,255.3,341.4,247.4,338.6,243.1L338.6,243.1z M472.6,87.4
		c0.8,3.4,0.3,5-2.2,6.5c0.5-3.1,0.5-5.6-1.2-7.6c0,1.4-1.8,7.6-1.8,9.3c-0.3-7.3-2.5-8.2-4.7-11c0.9,2.7,1.6,6.7,0.5,10.7
		c-1.2-3.8-4.6-10.6-5.5-9.7c5.2,16.4-3.9,20.3-6,29.2c-2.6,11.4,12.6,16.6,8.6,27.4c-0.8,2.1,1,2.1,3.1,0.7
		c8.6-11.9-3.1-13-3.1-20.8c0-1.7,0.4-2.4,0.4-3.5c1.3-3.7,1.3,0.8,4.1,2.4c2.6,1.6,7.5,3,11.5,2.4c2-0.4,1.8-1.6,0.1-1.6
		c-18.1-1.3-11.5-15.7-2.5-25.1C477.7,91.7,475.1,88.1,472.6,87.4L472.6,87.4z M433.7,66.1c11.5,6.8,22.8,9.3,35.2,11.7
		c3.1,0.7,4.5-0.4,1-1.4c-12.4-3.1-16.6-20-31-20.3c-0.4,0-1.8,1-2.4,1.2c-1,0.4,4.8,1.2,3.3,2l-6.7,0.4c-1,0-1.2,1.4-1.7,1.4
		c2.7-0.4,3,0.9,4.1,2.1c-1.6,0-6.7-0.7-7.6,0.1c-0.5,0.3-4.2,1.6-2.9,1.6C426.6,64.8,431.3,65,433.7,66.1L433.7,66.1z M405.7,170.3
		c-4.3-1.6-11.8-0.5-14.8,0c-3.1,0.8-4.2,3.8-2.2,3.4c2.7-0.5,16.8-0.8,29.2,10.9c5.8,5,15.8,0.3,21.5-6c2-1.2,0.8-3.1,0.3-2.9
		C427.4,178.7,415.6,173.7,405.7,170.3L405.7,170.3z M403.6,386.5c1.4,1.8,3.4,4.5,7.1,4.6c3.9,0,8.1-2.1,9.2-4.6
		c0.5-1.3,2.9-2.4,2.2,0.3c-0.7,2.7-6.5,7.7-11.4,7.5c-4.7-0.1-7.2-3.9-8.8-7.3C400.9,384.7,402.1,384.7,403.6,386.5L403.6,386.5z
		 M385,350.2c1.4-0.7,3.1,3.8,6.9,3.8c4.8,0,5.8-5.4,7.3-5.5c1.6,0-0.5,3.9-1.2,4.7c-1.2,1.4-3.5,3.5-6.5,3.5
		C388.8,357,383.5,351,385,350.2L385,350.2z M369.1,357.4c1.6,0,10-2.1,11.3-6.3c0.3-7.5,0.4-17.2,0-26.7c-2,0.7-3.9,1-5,1.6
		c-2,7.6-4.3,17.8-5.2,17.8c-2.4-0.4,1-14.4,2.1-19.2c-1-1-3.7-3.8-4.2-5.9c-1.8,0.8-6,15.5-6,20v8.5c2,2.8,4.7,5.6,7.6,4.8
		c3.1-0.9,5.2-1.7,5.5-2c1.3-2.8,1.7-6,2.6-6.2c1-0.3,0.5,6.3-1.3,7.7c-2,1.6-5.1,3.1-6.9,2.9c-2.1,0-5.5-1.4-7.5-3.4v2.6
		C362,356,367.3,357.4,369.1,357.4L369.1,357.4z M433.7,388c0.9-0.6,2.2,0.5,3.8,1.6c1.8,1,4.8,1.6,7.7,0.8c3.1-1.2,3.5-3,4.2-4.3
		c0.7-1.8,0.5-4.1,1.7-4.1c0.9-0.3,1.3,1.2,0.9,3.3c-0.3,2.1-3,7.2-6.7,8c-4.2,0.9-7.9-0.5-10-2.5
		C433.7,389.3,432.6,388.6,433.7,388L433.7,388z M462.8,380.1c1.2-0.8,2.6-0.3,4.7,0.7c2.1,0.8,5.2,0.9,7.9-0.7
		c2.9-1.6,3.8-4.5,3.8-6.9c0-2-0.5-3.1,0-3.9c0.8-0.7,1.8,0.3,2.2,2.4c0.4,2.5-0.3,8.5-3.3,10.9c-3,2.4-7.6,1.7-10.1,0.9
		C465.6,382.6,461.8,380.9,462.8,380.1L462.8,380.1z M526.4,322.2c1-0.9,2.9-0.3,4.7-0.1c2,0.3,9.6-0.8,11-2.8
		c1.4-2-0.4-5.1-1.8-6.4c-1.2-1-3.4-2.6-2.6-3.3c0.9-0.7,4.1,0.8,5.5,2.6c1.4,1.7,4.3,6.4,2,9c-2.4,2.5-12.7,3.5-15.2,3.1
		C527.7,323.8,525.9,323.3,526.4,322.2L526.4,322.2z M511.5,343.2c0.9-0.9,2.7-0.3,4.3,0.3c2,0.3,8.6,0.3,10.2-1.6
		c1.6-2,0.3-4.2-0.1-5.5c-0.7-1.4-2.1-4.2-1.4-4.6c1-0.5,2.5,1.3,3.5,3.5c1.2,2.4,3.3,6.8,0,9.2c-2.9,2.5-10.9,1.8-13.2,1
		C512.5,344.7,510.4,344.1,511.5,343.2L511.5,343.2z M491.8,364.5c0.8-0.9,2.5-0.4,4.5,0.1c1.6,0.5,8.2,0.5,9.8-1.6
		c1.6-1.8,1.2-6.3,0.7-7.5c-0.5-1.4-2-4.2-1.2-4.6c0.9-0.7,2.5,1.2,3.4,3.5c1.2,2.2,2.5,9-0.7,11.3c-3.1,2.5-11,1.7-13.4,1
		C492.7,366.1,490.6,365.4,491.8,364.5L491.8,364.5z M429.9,338.8c1-1.2,4.6,1.4,8.1,0c3.8-2,2.1-6.9,3.7-7.9
		c1.6-0.9,1.3,8.4-1.8,10.1C434.7,342.5,428.8,339.9,429.9,338.8L429.9,338.8z M408.5,347.4c1.4-1.3,6,3,10.1,1.8
		c3.7-1,2.5-6.7,4.1-6.9c1.7-0.3,0.5,8.5-3.1,9.8C415.7,353.2,407,348.5,408.5,347.4L408.5,347.4z M448.2,326.9
		c1.7-1.2,5.1,1.3,8.1-0.9c3.1-2.2,0.5-8.9,1.7-9.3c1.2-0.5,3.9,8.5,0.5,11.3C455.7,330.7,446.5,328.2,448.2,326.9L448.2,326.9z
		 M452,268.1c-0.4-3.3-6.3-9.3-10-9.2c-5,0.4-10.1,1.4-15.2,3c-2.1,0.7-2.9-1.6-0.3-2.5c5.4-1.6,10.7-2.7,15.3-3.9
		c5.6-1.6,8.6-14.4,7.3-16.8c-1.3-2.2-10.3-5-14.7-3c-4.5,2-7.7,6.2-13.6,12.3c-1.8,1.8-3.1,0.1-1.2-2.1
		c5.2-6.7,20.3-18.6,24.8-26.5c4.6-5.1,3.3-24.4,0.9-26.5c-10.6,12.4-36.3,32.1-43,46.8c-0.9,2.4-1.6,10.3,0.4,14.4
		c1.3,2.9,21.9,10.3,8.9,28.8c-14,19.8-38.9,11.9-40.2-0.4c-2.5,0-7.3,0.1-9.6,0.1v9.4c0,0.5,2.4,0.7,2,1.6c-0.5,2.5-2,3.3-2,5.6
		v24.6c2.6-2.6,5.8-21,7.6-26.1c0.1-0.9,3.1-2,2.6,1.6c-0.4,1.8-2.2,7.7-3.9,14.1c-0.9,3.4,4.2,8.6,6.4,9.2c4.8,0.9,11.7-3.3,12-7.9
		c0.5-3.8,0.5-4.6,0.7-10.9c0-3.3,2.4-1.8,2.4,0c0,2.6-0.5,6.4,0,11c0.4,3.5,6.6,8.6,10.1,7.9c3.3-0.7,8-5.8,7.5-8.6
		c-0.7-3.8-1.7-6.8-3.3-11.5c-0.5-1.3,1.6-2.6,2.6-0.9c0.9,3,3.1,9.6,3.9,11.7c1.2,2.6,11.1,3.4,13,2.2c3.4-2.1,5.9-11.3,3.7-13.1
		c-3.3-3.3-6.9-7.1-8.4-8.8c-1-1,0.7-2,1.6-1.3c2.2,2.1,4.3,4.7,9.7,8.4c1.4,0.9,12.7-0.5,14.4-3c1.6-2.5-1.3-13.4-5.2-14.7
		c-3.8-1-8.8-1.7-11.9-2.4c-1.6-0.3-1.8-2.6,0.3-2.4c2.7,0.7,7.9,1.4,12.4,1.7C447.6,280.7,452.4,271.7,452,268.1L452,268.1z
		 M488.8,285.5c0.5-5-5.4-10.3-9-10.3c-8.4,0-16.4,0-26.5,0c-0.9,1.8-2.6,4.1-4.6,5.1c8.6,0,26.3,1.4,25.5,2.9
		c-0.9,1.4-21.7-1-30.9,0.1c1.8,2.1,2.4,3.3,3.5,5.9c8.5,0.8,19.5,3.1,28.8,4.1C479,293.5,488.4,290.7,488.8,285.5L488.8,285.5z
		 M493.4,258.2c-1.3-4.1-9.7-7.6-14-6.4c-7.3,1.8-18.5,5.4-29.5,8c1.8,0.5,2.6,2.7,4.1,4.7c8.4-0.8,24.1-3.4,24.6-1.8
		c0.4,2-15.2,3.4-23.4,4.6c-0.3,0.8-0.4,4.2-0.9,5.6c10.6,0,20.2,0,28.8-1.4C489.6,270.1,494.7,262.5,493.4,258.2L493.4,258.2z
		 M449.8,196.2c0.5,4.1,0.5,7.6,0,11.9c8.3-6.5,12.8-17.2,15.2-17.3c2.4-0.1-8,14.5-15.5,21.9c-0.5,4.5-2,6-3,8.2
		c10.9-7.6,18.7-14.1,25.1-21.9c8.3-10,7.3-23.7,2-34.6C466.7,178.4,464.3,183.7,449.8,196.2L449.8,196.2z M488.3,203.8
		c-2.9-3.7-17.5,3.5-20.4,5c-8.2,5.4-21.1,15.2-30.9,23.8c2.1-0.8,5.4,0,7.5,0.4c0.3,0.4,24-17.3,25.1-15.8
		c1.4,1.7-22,17.3-21.9,17.3c1.6,0.3,3.5,2.7,4.5,4.2c5.9-2.4,15.6-6.5,24.4-12.8C485.3,219.8,491,208,488.3,203.8L488.3,203.8z
		 M495.2,232c-2.4-4.6-11.8-5.8-16.2-3.8c-4.2,1.7-19.3,10.5-26.1,13c0.4,1.3-0.8,4.3-0.9,5.4c2.9,0,22.8-10.7,24.6-9
		c1.6,1.3-13.8,7.9-25.5,12.7c-2.9,3.8-1.6,2.8-4.7,6.3c0.8,0.7,0.7,0.4,2,1.2c6.7-2.2,24.2-6.9,33.8-9.6
		C492,245.3,497.3,236.2,495.2,232L495.2,232z M352.1,148.7c0,0-4.7,0-6.3,0c-4.6,7.5-11.9,10.7-13.4,18.3
		C340.4,162.6,342.5,160.9,352.1,148.7L352.1,148.7z M338.1,167.7c-2.5,2.1-7.5,11.3-10.9,13.2c1.7-4.8,6.2-9.8,5.4-11.4
		c-4.2,1.4-14.4,10.2-13,28.7C317.9,200,340.2,174,338.1,167.7L338.1,167.7z M329.2,205.4c1.4-8.6,3.4-16.2,7.1-25.1
		c-17.8,14.7-10.2,42.8-8.5,52.3c0.3-0.3,5.6-33.3,7.2-32.1c-3.9,22,5.5,42.2,4.7,37.8c-1.2-14.7-2.6-37.2,5.2-49.9
		C334.2,191.5,329.2,208.8,329.2,205.4L329.2,205.4z M355.2,160.1c-16.2,8.1-15.3,15.2-20.8,33.3c8.6-8.1,26.5-19.3,32.9-28.4
		c-6.8,5.2-17.7,11.5-21.6,12.7C347.2,172.4,348.6,167,355.2,160.1L355.2,160.1z M340,166.8c3.7-8.1,15.1-14.9,21.7-21.6
		c-8.1,2.5-22.9,2.4-30-0.7c12.6-2.7,50.5-5.9,60,5.8l5-9.4c3.4-6.4-9.3-1.8-18.7-1.8c-26.1,0.1-44.1,1.8-52.3-9.4l75,0
		c3.8,0,2.4,1.4,2.4,2.9c-1.6,1.2-3.4,4.1-3.9,6.7c-0.5,3.3-4.7,9.6-8.5,14.1c-11.7,10.7-19.8,12.8-21.5,12.3c4.1-5.2,7.2-9,7.9-13
		c-10.3,10.2-16.6,14.7-27.1,21c0-4.8,14.4-20.4,18.9-24.9C359.6,152.6,346.2,163.1,340,166.8L340,166.8z M401.9,139.1
		c-9.7,20.6-21.9,24.9-33.3,30.1c-7.9,6-27.2,15.6-27.2,42.3c9.4-31.4,28.2-35.1,44.4-48.3c11.8-9.4,18.1-17.2,22.5-25.5
		c0.3-0.8,1-3.5,0-4.2C405.4,131.8,404.1,134.3,401.9,139.1L401.9,139.1z M393.7,159.3c-8,8-18.3,12.6-27.5,19.8
		c0,0.8,1.8,2.9,3.7,1c15.8-12,33.5-19.1,40.9-19c7.6,0.4,11,2.1,15.1,6.9c4.2-3.8,5.2-12.7,3.5-18.6c-2-6-16.5-17.5-20.4-9.2
		C407.1,144.5,399,154.3,393.7,159.3L393.7,159.3z M488.9,277.6c1.7,2.4,3.4,4.6,3.4,6.4c11.8,0,38.9,1.6,39.3,3.7
		c0.7,1.7-24.4-0.5-39.8,0.5c-1.6,1.8-4.1,3.3-5.1,4.5c8,0.8,31.6,4.8,45,8.2c13.6,3.3,27.1-8.1,26.7-13.4
		c-0.4-5.2-9-10.5-24.6-10.3C522.9,277.2,508.5,277.8,488.9,277.6L488.9,277.6z M496.4,257.7c0,0,0.3,4.2-0.5,6.4
		c9.7-1.4,38.9-5.2,39.5-3.9c0.8,1.8-29.3,5.5-41.4,7.6c-2.9,2.7-5.2,5.1-8,5.8c5,1.4,43.2,1.2,52.6-0.5
		c9.4-2.1,25.5-15.1,24.2-20.3c-1.2-5.8-15.2-5.2-25.9-4.5C526.3,249.4,507.7,254.4,496.4,257.7L496.4,257.7z M534.9,119.8
		c2.4-18.5-5.9-29.6-10.3-27.6c-4.1,2.2-10.2,19.1-13.7,24.4c-3.5,5.2-19.3,36.8-32.7,50.4c1.7,3.5,3,6.3,2.5,11.3
		c16.1-16.5,30.6-47.9,33.7-48.3c2.6-0.5-18.7,39.3-33.3,54.2c-1,6.5-3.5,11.5-6.3,16.2C501.5,181.4,532.4,138.2,534.9,119.8
		L534.9,119.8z M532.7,201.7c0.7,1.4-27,17.5-38.4,25.4c2,1,2.5,1.8,3.5,4.2c17.4-6.7,39.9-17.4,48.2-23.8
		c10.5-8.4,13.8-23.2,10.1-26.1c-3.5-2.5-12.2,2.2-15.6,3.4c-19.8,8.8-44.3,24.8-58.5,39.5c1.4-0.5,5.6-0.4,8.6,0.7
		C506.9,216.3,531.1,200.3,532.7,201.7L532.7,201.7z M487.6,249.8c1.7,0.4,4.3,1.4,6.5,4.2c11.9-1.3,46.6-11.7,52.8-14.4
		c8-3.5,24.2-18.5,19.5-22.5c-4.8-4.1-21.6-3.4-32.6,2.2c-9.4,4.3-24.6,9.4-35,14.5c-0.5,3.7-2.2,6.9-4.2,8.8
		c11.7-3.3,43.9-15.8,45.6-14.8c1.4,0.9-33.1,14.8-47.5,18.3C490.9,248,489.3,248.8,487.6,249.8L487.6,249.8z M492.1,202.9
		c0.3,2.5-1,5.9-2,9.7c30.8-20.6,48.5-34,54.7-40.9c9-10.1,8.4-32.1,3-33.9c-5.2-1.8-10.7,9.7-19.9,18.6c-9,8.9-21.5,20.7-27.6,26.1
		c-7.2,6-11.1,9-22.9,18.7c3.9-1,9.3-2.7,12.3-0.8c14.1-7.5,36.4-30,38-28.5C528.8,172.9,504.5,194.7,492.1,202.9L492.1,202.9z
		 M295.8,103c2.2,0.1,4.1,0.1,4.5-0.5c0.3-0.3-2.1-3.5-2.9-3.5c-0.5-0.1-0.4-0.1-1.6-0.1c-1.2-0.1-0.9-0.1-1.6,0.1
		c-0.7,0-3,3.3-2.6,3.5C291.7,103,293.7,103,295.8,103L295.8,103z M206.5,123.7c-6.7,0-12.8,0.5-18.7,2c-0.8,0.3-1-1.2-0.1-1.7v-3.5
		c-1,0.3-1.3-1.3,0-1.7c-2.2-6.2-6.3-14.7-6.4-19c-0.5-6.5,4.2-11.7,13.4-13.1c1.7-1.4,4.8-1.3,5.5,0.8c0.3,1.2,2.1,0.9,2.1-0.1
		c0-0.8,1.2-2.2,1.2-2.2c-1.6-1.3-2.4-3.5-2.4-5.6c0-1.6,0.7-4.6,4.1-5.5l0.3-3.3l-4.3,0.5v-3.4l4.3,0.5L205,64h3.1l-0.3,4.3
		l4.3-0.5v3.4l-4.3-0.5l0.1,3.3c3.4,0.9,4.2,3.9,4.2,5.5c0,2.1-0.9,4.3-2.5,5.6c0,0,1.3,1.4,1.3,2.2c0,1,1.8,1.3,2.1,0.1
		c0.3-2.1,3.8-2.2,5.5-0.8c9,1.4,14,6.3,13.2,13.1c-0.4,4.6-4.2,12.8-6.4,19c1.8,0.5,1,2.2,0,2c0,1,0,2.1,0,3.1c1.4,0.1,1,2.1,0,1.8
		C219.6,124.5,213.4,123.7,206.5,123.7L206.5,123.7z M113.1,451.7c4.2,0,7.5,3.3,7.5,7.5c0,4.1-3.3,7.3-7.5,7.3
		c-3.9,0-7.2-3.3-7.2-7.3C105.9,455,109.2,451.7,113.1,451.7L113.1,451.7z M65.3,342.1c3.4,0,6.4,2.8,6.4,6.5c0,3.7-3,6.5-6.4,6.5
		c-3.7,0-6.7-2.9-6.7-6.5C58.6,344.9,61.6,342.1,65.3,342.1L65.3,342.1z M51.3,319.1c-0.7-0.1,4.5-4.8,4.7-4.8
		c0.9-1.4,3.9-0.3,4.5-0.7c2-2.1,0-5.8-2.1-6.9c-0.8-0.4-2.2,2-3.1,2c-2.1-0.7-8.5-3.5-9.8-3.5c-0.7,1.2-3.1,7.3-4.3,9.3
		c-0.7,0.8-3.4-0.1-3.7,0.8c-0.5,2.4,0.5,6.3,3.7,6.3c0.7,0,1.7-2.8,3.4-2.5C44.7,318.9,51.6,318.5,51.3,319.1L51.3,319.1z
		 M119.3,473.1c4.1-1.3,5.8-9.8,2.7-8.8c-0.9,0.1-0.5,2.8-4.1,4.2c-3.7,1.6-5.6-0.3-6.8,0.3C108,470.3,115.6,474.4,119.3,473.1
		L119.3,473.1z M109.8,450.9c3.3-1,4.6-8.4,2.2-7.3c-0.8,0.1-0.4,2.1-3.5,3.7c-3,1-4.8-0.3-5.5,0.1
		C100,448.7,106.6,452.1,109.8,450.9L109.8,450.9z M70,361.6c3.3-1.2,4.8-8.4,2.4-7.3c-0.7,0.3-0.7,2.4-3.7,3.4
		c-3,1-4.7-0.1-5.8,0.4C60.5,359.3,66.6,362.7,70,361.6L70,361.6z M147.9,537.1c-2,0.8-5.4,1.2-7.5,0.1c-1.2-0.4-1.8,1.6-1.3,2.2
		c0.8,0.9,12,9.6,13,9c1-0.7,1.6-0.7,2.7-1.6c1.2-0.4,0.9-7.9,0.5-14.1c-0.7-1.6-3.4-1.6-3-0.5C151.9,534.9,150.2,536.2,147.9,537.1
		L147.9,537.1z M129.7,111.2c-0.5-1,0.3-2,1.4-1c2,1.7,3.9,5,4.1,9.3c0,1.4-2.1,0.9-2-0.5C133.1,114.4,130.1,112.2,129.7,111.2
		L129.7,111.2z M52.6,341.6c0.8,0,1.7,0.9,1.7,1.8c0,0.9-0.9,1.7-1.7,1.7c-0.9,0-1.7-0.8-1.7-1.7C50.9,342.5,51.7,341.6,52.6,341.6
		L52.6,341.6z M67.9,334.3c1,0,2,0.9,2,2c0,0.9-0.9,1.6-2,1.6c-0.8,0-1.6-0.7-1.6-1.6C66.4,335.2,67.1,334.3,67.9,334.3L67.9,334.3z
		 M66.9,339.9c-1,0.8-2.8-1.2-6,0.3c-3.3,1.3-2.8,4.2-3.4,4.3c-0.5,0.3-1.3-4.3-1.3-5.6l6.8-3.3C65,337.1,65.6,338.3,66.9,339.9
		L66.9,339.9z M41.1,336c6-2.6,10,0.7,13.4,1.7c-0.7-1.7-3.1-3.7-5-5.5c-3.3,1.2-6.7-2.6-7.2-5.8l-6-1.2
		C34.7,328.4,36.6,333.7,41.1,336L41.1,336z M71.1,322.9c-6.3,2.6-6.4,7.7-8,10.9c-0.8-1.6-0.5-4.8-0.5-7.3c3-1.7,2.5-6.7,0.7-9
		l3.1-5.2C69.5,313.3,72.1,318,71.1,322.9L71.1,322.9z M225.5,484.5c0,2.2-0.3,2-1.2,3.4c0.1,0.8,1.6,0.9,2.2,0.3
		c1.2-1.4,1.7-2.9,1.2-4.7C227.7,482.8,225.6,480,225.5,484.5L225.5,484.5z M216,490.1c-0.4,0-2.8,1.3-0.7,1.7c3.7,0,6.8,0,13.1,0.8
		c1.8-0.5,5.6-3-3.5-2.2C223.2,490.6,220.1,489.8,216,490.1L216,490.1z M140,75.8c-17.7,4.5-29.3,2.6-30.5,14
		c-1,10.9,18.3,22.8,8.4,27c-3.4,1.2-11.4-0.3-11.5,1.2c0,0.7,0.8,0.8,2.2,1.2c6.9,1.2,10,0.1,10.6,0c7.7-2.5,3.8-10.2,0.8-14.7
		c-1.6-2.2-6.8-8.8-7.5-12.7c-1.6-12.4,25.1-10.2,36.1-15.5c10.9-5.2,19.5-8.5,22.1-1.8c2.9,6.5-8.6,26.7-8.6,33.9
		c0,5.5,2.4,10.7,7.7,14c1.7,0.9,15.1,3.9,15.1,2.4c-0.1-1.4-9.7-2.4-12-3.4c-3.1-1.4-7.5-4.3-7.7-13c0.5-5.9,4.1-11.7,6.2-16.6
		c2.7-6.5,5.2-13.7,3-18.9c-1.8-4.2-5.9-6-12.4-5C155.1,69.1,157.9,71,140,75.8L140,75.8z M163.4,92.1c-3.7,6.8-6.4,13.9-2.1,25.3
		c-0.3,1-1.4,0.5-2.4-0.5c-13-17,7.9-33.5-2.4-41c1-0.5,1.8-1.4,4.7,1.8c0.5,0.4,0-5.9,0.5-4.6c0.3,0.7,2.2,3.3,2.4,4.8
		c0,1.4,1.2-0.4,1.4-4.6C169.2,75.6,167.1,85.6,163.4,92.1L163.4,92.1z M273.7,100.2c-11.8,13.6-33.7,23.7-40.9,24.2l-1.7,0
		c-1,0-0.9-0.9,0-1.2c18.6-6.8,30.8-16,35.7-21.2C268.9,100.8,272.9,99.1,273.7,100.2L273.7,100.2z M271.4,108.5
		c-4.6,3.4-8.6,4.8-12.4,6.3c-0.1-0.1-2,0.1-0.9-0.3c7.5-4.3,14.3-7.9,18.7-14.5c1.7-1.3,4.7-2.4,4.8-1.4
		C281.5,100.6,275.7,105.2,271.4,108.5L271.4,108.5z M278.9,110.7c-9.3,6-26.1,11.8-33.7,14.1l-2.5,0.1c-0.9-0.5-0.3-1.2,0.5-1.3
		c13.4-4.7,35.6-14.4,41.4-24.8c1.8-1.2,7.5-1.3,7.2-0.1C291.7,100.6,288.1,104.4,278.9,110.7L278.9,110.7z M275.2,571.3
		c-7.5-1.3-7.9-14.7-5.9-25.9c2.6-16.4,15.1-39.6,19.1-64.3C293.3,497.4,269.6,537.9,275.2,571.3L275.2,571.3z M251.8,561.1
		c-2.2-2.4-8.2-4.5-15.6-4.7c-7.6-0.4-5.9-9.6-5.1-13.1c2.5,2.1,3.1,5.4,9.4,5.8c5.1,0.1,13.6-5.5,13.7-15.8l-3.7-0.3
		c7.6-20.3,28-29.2,35-54.1c0.9,8.4-8.2,33-11,40.1c-7.2,18.7-8.1,24.4-8.6,36.3c-0.8,12.1,2.5,21.5,16.5,19.1
		c-5.4,16.5-32.9,15.5-38-3.8c2,0,6.3,0.5,9,2C255.8,568.7,254.1,563.7,251.8,561.1L251.8,561.1z M247.2,534.2
		c-2.4-0.5-5.4-1.6-5.9-5.8c-0.8-5.8,9.7-15.3,18.5-22.8c8.1-7.1,15.5-13.1,19-16.9C277.3,497.8,250.1,518.4,247.2,534.2
		L247.2,534.2z M254.5,506.2l20.7-16.8c4.1-4.7,11.8-12.1,7.6-20.2c-2,8.4-8.5,18.9-24.6,26.7c0,1.3,3,1.4,4.6,1.4
		c-5.9,4.7-23,12.3-28,17.2c-8,7.1-14.9,16.2-15.3,27.6c-0.5,12.6,2.4,20,14.1,24.2c-13.5,0-16.8-11.4-16.8-24.2
		c0-12.6,10-24.1,15.2-28.4c10.7-8.4,18.2-10.1,25.8-15.3c-2.1-3.4-20.6,3.9-33.9,16.1c-3.8,3.5-11,6.5-13.6,6.2
		c-7.1-0.9-8.8-6-7.6-11.9c-4.8,0.4-7.1,5-7.7,9c-0.7,3.8,0.7,12,8.9,15.8c-14.5,1.6-19.4,21.3-7.1,28.9c1.2,0.8,0,4.3,1,5.5
		c3.8-2.2,3.7-18.9,12.4-18.9c-1.6,9.4,2.2,20.3,8.4,24.8c5.9,4.6,17.3,2.2,23.8-6.6c3,0.7,8.4,1.7,9.7,1.4
		c-1-10.2-12.2-9.7-19.3-11.1c-7.1-3-4.7-13.2-2.5-19.1c2.5,4.6,4.7,7.9,10.5,8.1c6,0.1,10.3-7.2,10.7-10
		c-7.3,0.5-11.9-0.5-13.1-8.6C237.8,520,251.7,509.7,254.5,506.2L254.5,506.2z M255.3,491.4c3.7-0.7,7.5-2.4,9.2-2.4
		c-3.4,3.5-12.7,7.1-17.5,7.1C248.4,491.8,251.7,491.8,255.3,491.4L255.3,491.4z M274,480.4c-4.7,6.3-13.5,5.5-20.2,8.8
		c0.5-6.5,20.7-9,21.1-27.4C277.8,466.8,280.9,472.4,274,480.4L274,480.4z M277.6,451.2c1.4,4.2,3.8,7.7,3.3,16.8
		c-3.7-14.4-12.6-10.7-10.1-24.2C274,447,276.1,447.3,277.6,451.2L277.6,451.2z M151.6,525.2c1,11-10.3,9.9-10.5,9.2
		c0-0.1,4.3-0.7,6.2-5.6c1.4-4.2-0.3-11.5-1.3-11.4c-0.8,0.1-1.3,6-6.4,3.9c1.2-1.4,2.6-9.4,1.2-11c-0.4-0.8-1.3,2.5-5,2.5
		c1.2-1.7,0.9-4.3,0-6.5c3.3,0,4.6-4.7,4.6-6.4C142.8,502.4,151.2,521.1,151.6,525.2L151.6,525.2z M142.3,531.1
		c-5.4,0.4-12.4-5-15.5-6.9c0.7,0.1,0.5-1.4,1.6-0.8c8.5,4.2,7.6,2.5,10.2,0C144.5,521.8,146.2,527.3,142.3,531.1L142.3,531.1z
		 M133.4,523.1c-2.7,0.3-5.5-4.8-16.8-5c-4.3-3.3-2.4-8,1.2-7.3c1,0.8,2.4,1,3.1,2c5.8,8.3,8.9,2.9,11.3,2.9c2.5-0.5,4.2,0,4.2,2.6
		C136.4,520.6,135.9,522.7,133.4,523.1L133.4,523.1z M127.5,514.5c-5.1,0,0.9-5-14.7-7.3c-3.9-1-1.7-14.1,2.8-12
		c1.6,0.5,1.6,1.3,2.4,4.6c-3.5,0.5-1.6,2.5-1.3,5c5.9,0.9,5.4,4.2,11.4-0.8c1.8,0,5.1,1.2,5.1,3.9
		C133.1,510.3,132.7,514.5,127.5,514.5L127.5,514.5z M131,480.9c0,2.4-5.9,9.4-5.5,12.2c0.4,3,2,5.1,2.4,6.9
		c0.1,0.5-3.7,3.7-4.3,2.8c-5.6-4.7-11.8-24.1-8.1-25.9c4.5,1.3,8.5,0,10.7-4.2C129.9,474,131,480.9,131,480.9L131,480.9z
		 M229,481.5c1.2,3,6.5,7.3,5.9,10.3c-0.4,3.3-5,2.4-8.5,2.4c-12.2-1.2-21.2-0.3-23.6,0c-4.2,0.4-0.5-4.3-2.2-4.5
		c-1.6-0.1-3.3,5.6-3.3,5.6l-2.5-5.1l-2,5.9c0,0-1.4-4.7-2.9-4.3c-1.6,0.3-0.7,4.8-1.8,5.5c-1.2,0.9-2-4.5-3.4-3.7
		c-1.6,1.2-1,5.8-2.2,6.4c-1.2,0.5-1.2-4.8-2.2-4.6c-1.2,0.7-1.2,6.8-2.5,6.9c-1.3,0-1-5.1-2.1-5.1c-1.2,0-1.6,6.7-2.6,6.7
		c-0.8,0-1.6-4.5-3.1-3.5c1.2,7.6-10.9,14-15.7,17.6c-2.6-3.3-4.1-6.4-5.4-10.5c5.2,0,15.3-1.6,14.9-3.9c-0.1-2.1-4.5-1.2-4.7,0.3
		c-4.6,2-13.6,2.4-14.5-2.9c2,0.9,11.1,0.5,11-0.9c-0.4-1.6-7.7,1.2-12-5.5c1-4.3,1.6-5.1,0.5-8.5l-4.2-1.2c0,1.6-5.6,3.7-4.5,5.4
		c3.4,2.4,3.9,4.6,1.7,8.2c-2.5,0.5-6.4,2.1-7.3,0c-1-2.1-1.2-5.1-0.9-7.1c0.4-2.2,4.7-8.5,6.8-11.8c2-3.4,9.4-0.4,12.8,8.5
		c2.2,5.6,10.5,9.2,17.4,8c13.6-2.6,30.3-9.3,36.8-15.6c1.2,0.4,1.6,1.2,2.4,2.8c4.1-1.3,8.6-4.5,10.7-9.3c2,3.7,2.4,3.7,5.1,6.7
		c3.1-1.6,2.2-4.5,3.4-7.3C227.6,475.2,227.6,478.7,229,481.5L229,481.5z M247.9,470.9c-2.1,3.1-6.3,4.8-9.3,4.6l0.8,3.3
		c-16.6-0.4-22-21.7-13.9-34.8c3.8-6.5,18.6-11.5,27-4.5c-11.4,1-24.2,8.6-24.2,14.9C228.5,463.9,236.2,470.5,247.9,470.9
		L247.9,470.9z M275.6,435c0,1.4,1.3,8.6,1.3,10.1c-1.8-1.4-10.9-9.9-10.9-17.9c0.5,0,1.8,0,2.7,0.1c1.4,4.2,2,9,3.4,9.4
		c0.7,0-0.8-8.8-0.5-9.8c0.8,0,2.9-0.3,3.9,0C275.6,429.1,275.5,431,275.6,435L275.6,435z M267.6,449.1
		c-8.6-8.6-16.4-14.9-18.1-21.9c0.9,0,2.9,0,4.3-0.1c2,4.7,8.3,9.9,8.9,10.2c2.1,1.2-3.5-4.7-6-10.1c2.1,0,3.4,0,4.8,0
		C266.3,433.3,269.1,441.4,267.6,449.1L267.6,449.1z M229.8,381.1c0.4,5.9-7.7,13.2-14.4,15.1c6-11.1,8.9-27.4,1.4-38
		c3,1.6,5.2,2.1,6.9,2.1c0.7,4.6,1.7,14.1,2.1,17.9c0.3-0.1,1.6-12.3,1.2-18.1c3-2,2.9-1.3,2.9-0.3L229.8,381.1L229.8,381.1z
		 M230.8,409.8c-10.3,2.6-19.1,10.9-29.5,1c13.9-1,21-7.7,20.7-14.4c2.9-2.4,6.7-5.4,8-8.9v5.9c0,3.8-4.3,9.7-6.3,11.8
		c3,0,6.3-1.8,6.4-5.4C229.9,404.8,230,406.8,230.8,409.8L230.8,409.8z M251.9,436.7c-11.9-5.4-18.1-3.4-31.8,5.2
		c-0.7-6.2,7.9-13.7,16.6-18.9l3.3,2c-3.4,0.9-10.7,7.6-10,8.3c4.1-0.8,8.5-5.6,12.4-7.3c1.2,0.1,3.9,0.9,5,0.8
		C247.9,429.5,251.4,435.8,251.9,436.7L251.9,436.7z M219.6,461.6c1.2,7.3,3.1,12.4,1.3,15.6c-6.8-3.1-8.5-34.2,3.8-35.2
		C221,446.5,218.4,454.6,219.6,461.6L219.6,461.6z M202.8,463.3c0.5,5.6-2.9,8.2-5.9,8.8c0.4-3.8,2.2-10.1,1.6-14.1
		c-0.9-4.3-2.9-7.3-0.4-10.6c1,1.7,1.8,8.6,2.8,8.6c0.1,0,1.7-2.4,1.8-1.8C203.3,454.7,202.3,457.6,202.8,463.3L202.8,463.3z
		 M213.3,469.7c0.1,3.4-2.2,6.8-7.1,10.1c-2.4-5.8-0.7-17.4-1.2-23.3c-0.5-5.9,3.7-7.3,4.7-7.5c-1.6,4.6-1.6,8.9-0.9,9.2
		c0.9,0.3,1.4-9.8,6.4-11.4C212,453.6,213,466.4,213.3,469.7L213.3,469.7z M216.8,442.7c-2.5,2.8-11,3-15.2,9.8
		c-2.8-9.7,2-14,5.8-17.9c1.3-0.5,4.8-1.2,5.5-0.5c-3.8,2.6-5.4,8.8-4.7,8.3c2.4-1.8,5.2-6.9,7.9-8.3c1.4-0.4,3-0.9,5.1-0.8
		C218.7,435.7,218,439.2,216.8,442.7L216.8,442.7z M220.5,424.9c0.8,1,8-2,12.4-6.7l1.3,2.6c-0.4,1.6-5.5,5.5-7.5,6.8
		c-6.9,3.5-12.6,6.2-26.1,3.4c13.2-3.1,21.5-17.3,30-19l0.8,3.3C231.5,418.9,220.1,424.5,220.5,424.9L220.5,424.9z M198.1,432.3
		c-4.3,2.8-4.5,9.2-3.8,9.3c0.8,0.3,2.9-6.4,6-8.5c1.4-0.3,3.3,0.5,4.2,1.2c-2.2,2.6-11.3,11-11.3,19.9c-4.7-4.2-4.6-14.9-3.8-19.8
		C192.1,433.1,194.8,432.6,198.1,432.3L198.1,432.3z M188.4,431.4c0.1-6.3,8.8-18.7,20.3-14.4c-1.7,3.4-11.5,5.9-10.7,7.2
		c0.8,0.7,9-2.9,14-6.9c1.8,0.5,5-0.7,7.6-1.3C219.4,417,208.7,430.3,188.4,431.4L188.4,431.4z M187.9,447.5
		c1.4,4.7,2.4,6.7,5.4,8.8c1,0.8,1.3-3.4,2.4-2.2c2.5,10.6-1.3,19.9-7.9,22.1c-1.4-3.3,2.9-12.1-0.1-16.8
		c-2.9-4.8-4.7-10.5-5.4-17.9c-0.8-4.8-0.4-10.9,4.8-12.4C187,433.3,186.3,440.3,187.9,447.5L187.9,447.5z M182,451.9
		c-0.8,6.2-6.8,9.3-7.1,9.7c-0.3,0.9,5,0.4,8.4-6.4c0.5,2.2,3.1,4.7,2.4,6c-3.3,5.2-16,8.1-19.5,1.7c5.6-0.9,9-6.9,9-11.9
		c0-5-1.2-8.1-1.4-16.4c0-8.3,11-20.7,25-19.4c-7.1,2.4-10.2,10.7-11.7,11.1c-4.3,1.4-6.4,5.6-7.2,8.3
		C178.5,441.3,180.7,448.1,182,451.9L182,451.9z M55.7,323.4l-3.5,1.7c-3.3-4.5-8.8-0.3-9-2.5c-0.1-2.1,5.4-3.5,9.6-1.3
		c0.7-4.6,5.2-7.3,6.8-6C60.7,316.5,54.2,318.7,55.7,323.4L55.7,323.4z M58.5,334.8c-1.7,0.9-3.9,0.4-4.7-1.2l-2.9-5.9l7.7-3.9
		l2.2,6.4C61.4,331.8,60.5,334,58.5,334.8L58.5,334.8z M108.4,439.5c3.7,4.3-4.8,8.1-6.3,2.8c-5.6-17.4-34.4-78.2-31.4-79.5
		C73.4,361.5,97.3,422.9,108.4,439.5L108.4,439.5z M211.5,257.7c4.8,7.3,11.9,6.5,18.3,6.4l0,15.8c-3.3,0-8.4,0-10.2,0
		C211.7,279.4,208.2,264.2,211.5,257.7L211.5,257.7z M213.4,263c-3.5,0.9-1.7,11,5.2,11.5c1.8-0.9-1.3-2.6-2.9-5.8
		C213.7,265.4,214.3,263.2,213.4,263L213.4,263z M174.7,234c2.4-2.5-8.9-14.5-11-12.2C161.8,224.3,172.3,236.7,174.7,234L174.7,234z
		 M200.3,344.1c1.3-0.7,1-11.7,0.5-21.7c1-0.9,1.4-1,2.9-3.4c1.3,1.7,2.5,3.3,4.2,3.9c-0.3,7.7,1.8,20.6,1.6,28.2
		c-0.1,4.2-6.8,9.7-10.2,9.4c-3.3-0.1-9.8-7.2-9.8-9.7c0.4-7.1,2.5-15.3,3.4-24.5c3.1,0.1,3.9-1.3,4.7-2.1
		C197.8,331.9,199,344.5,200.3,344.1L200.3,344.1z M186.3,348.4c-0.1,4.2-12.2,7.2-15.2,6.2c-3-0.8-6.5-9.4-5.4-12.3
		c3.9-9.8,7.9-16,10.7-23.3c2-0.3,3.8-0.9,4.8-1.4c-1.6,12.4-5.1,21.6-3.4,21.9c1.8,0.4,4.8-12.2,6.5-19.5c1.3,2.8,2.9,3.7,5,5.2
		C188.5,332.8,187.7,341.3,186.3,348.4L186.3,348.4z M168.5,318.7c2.4,0.3,3.8,0.4,5.2-0.1c-2.5,5.2-6.4,13.9-11.1,23
		c-0.7,1.4-8.9,4.3-12.2,2.4c-2.9-2-4.3-10.3-3.4-12.8c4.3-6.7,11.8-16,15.3-19.8c0.8,2,1.3,3.7,3.4,5.8c-2.6,4.8-8.5,14-7.2,14.7
		C159.9,332.4,165,324.4,168.5,318.7L168.5,318.7z M144.9,298.8c0.9,1.8,1.6,1.7,2.1,2.6c-4.1,2-9,5.6-18.2,10.3
		c-3.7,1.8-14.9-0.1-17.2-2.7c-2.2-2.1,1.4-12.4,5.2-13.2c7.1-1.8,23-3.5,27.8-4.1c0.4,0-0.7,2-0.7,4.6c-5.2,1.7-19,5.2-18.5,6.3
		C126.1,303.6,138.8,300.9,144.9,298.8L144.9,298.8z M157.2,304.4c1.2,0.1,0.8-0.1,3.3-0.1c0,2.4,0.3,3.9,0.4,4.7
		c-6,7.1-13.4,17.8-16.2,21.2c-1.4,2-12.6,1.7-14.5,0c-1.8-1.8-1.2-13.1,1.2-15.1c8-6.9,11.3-8.1,18.5-12.4c0.4-0.1,1.4,0.4,3.5,0.7
		c-3.3,4.6-14.9,14.8-13.4,15.6C141.4,319.6,152.9,308.1,157.2,304.4L157.2,304.4z M181.3,397.5c-5,0-15.3-7.1-14.4-11.5
		c2-11,4.3-20.6,5.9-27.4c3.7-0.5,5-1.2,8.5-2.4c-0.5,12.2-1.7,26.3-0.1,26.1c1.3-0.4,3.7-14.4,4.3-27.6c2.1,1.2,5.2,3.9,6.8,6
		c0.7,7.1,0.8,20,0.8,27.2C193.1,390.3,186.2,397.5,181.3,397.5L181.3,397.5z M161.6,388.3c-1.6,6.5-10.6,9.6-16.1,8.3
		c-5.9-1.2-10.6-9.9-8.6-14.9c5.6-14.8,9.7-22.4,13.9-33.9c3.4,0.3,7.2-0.4,9.7-1.2c-5.2,17-11,32.2-9,32.9c2,0.4,8.5-20.7,12-31.7
		c1,4.3,4.3,8.4,5.9,10.3C167.5,367.4,163.1,381.9,161.6,388.3L161.6,388.3z M133.3,381.1c-3.1,6.8-18.1,6.8-21.5,4.5
		c-3.4-2.2-6.4-13.2-3.5-17c8.4-12.4,18.5-22.5,25.7-33.1c3.1-0.1,5.2-0.1,8.9-1.4c-4.2,9.7-21.1,34.3-19.3,35.2
		c1.6,1.2,15.6-20.8,21.1-30.9c0.8,4.2,1.8,6.5,3.4,8.5C142,361.4,139.7,366.3,133.3,381.1L133.3,381.1z M104.6,366.2
		c-4.6,5-20.4,5-24,1.8c-3.4-3-2.4-14.5,1.3-17.7C95,339,114,326.8,127.5,317.2c-0.8,2.4-1.2,5.6-1.2,7.5
		c-7.2,9.9-29.2,27.1-28.2,28.5c1,0.8,20.3-15.3,28.5-23.7c0.8,1.4,1.3,3.8,3.8,4.6C121.5,346.3,107.9,362.2,104.6,366.2
		L104.6,366.2z M89,340.9c-11.4,8.6-9.6,6.4-14.3,7.9c-0.3-2.9-0.4-5.4-4.5-7.2c1.8-2.2,2.2-5.2,0.1-9.2c10.2-8,32.1-17.3,39.4-20.9
		c1.8,1.7,2.8,1.3,5.1,1.8c-11.8,6.3-33.8,19.8-31.7,21c9.6-4.8,24.8-13.9,34.4-19.9c1.7,0,4.6,0.7,7.5,0.7
		C111.9,324.3,102,330.6,89,340.9L89,340.9z M76.6,314c0.5,1.6,22.7-7.7,32-10.5c-0.1,1.6-0.5,4.2-0.5,5.4
		c-7.2,4.6-26.8,13.8-35.4,18.7c2.2-4.7,2.2-14.8-6-18.9c-0.8-0.3-2.5,2.5-2.5,1.8c-0.9-2.2-1.2-4.5-5-6c14.9-4.3,33.3-7.5,52.5-8.8
		c-1,1.8-1.6,2.8-2.8,4.2C99.9,302.2,75.9,312,76.6,314L76.6,314z M200.5,176.5c5.5-0.3,7.1,1.7,2.9,2.5
		c-5.6,1.2-10.9,2.2-14.8,10.2c-0.9,1.8-2.9,1.8-4.5,0C180.3,179.3,194.8,177,200.5,176.5L200.5,176.5z M200.2,146.3l-2.6-5.8
		c0-0.3-0.8-0.7,1.6-0.5c0.4,3.3,2.6,4.3,2.7,5.1C202.2,145.4,201,146,200.2,146.3L200.2,146.3z M206.1,143.6l-0.1-3.5
		c0-0.7,6,0.5,8.8,0.7C211.1,141.6,209.4,141.8,206.1,143.6L206.1,143.6z M280.6,162.5c-5.5,6.5-27-4.5-30.9-13.6l6,0.1
		C260,154.1,266.1,159.4,280.6,162.5L280.6,162.5z M290.4,204.4c-5.5-13-28-36.1-30.9-43.2c3.5-1,14.1,14.5,13.2,13
		c-2-3.7-1.3-5.6-5-9.4C277.2,167,285.6,186.3,290.4,204.4L290.4,204.4z M284.7,252.2l1.4,8.8h-3.5
		C284,258.6,283.2,253.9,284.7,252.2L284.7,252.2z M256.1,251c0.9,0-1.3,6.2-1.3,9.7c-2,0-2.6,0-4.3,0
		C250.7,257.4,254.5,254.4,256.1,251L256.1,251z M268.2,252.2c2.1,0-0.8,5.1-0.8,8.8c-2,0-2.4,0-4.1,0
		C263.2,256.9,266.8,255.3,268.2,252.2L268.2,252.2z M294.3,238.9c2.4,0-1.3,18.3-1.3,22c-1.8,0-3.1,0-5,0
		C288.5,256,294,247.2,294.3,238.9L294.3,238.9z M275.1,246.5c2.2,0,0.4,10.7,0.4,14.4c-1.8,0-3.8,0-5.6,0
		C269.1,257,274.6,251.4,275.1,246.5L275.1,246.5z M279.8,246.4c2.4-4.2,1.8-11.9,3.4-15.1c1.8,8-0.5,22.8-3.1,29.6l-2.2,0
		l-0.1-22.8C279.8,238.7,278.4,243.1,279.8,246.4L279.8,246.4z M293.3,229.1c-5.2-14.7-11.7-32.3-20-44.8
		C278.4,187.9,297.4,211.6,293.3,229.1L293.3,229.1z M291.6,239.7c-0.5,4.1-1.3,9.3-4.6,14.5c-0.8-8.5-0.8-27.6-2.6-40.7
		C291.2,225.8,292.1,235.5,291.6,239.7L291.6,239.7z M282.6,218.8c0,3-1.3,13.5-2.7,17c-3-19-10.7-26.3-11-38.5
		c5,3,8.5,16.1,10.1,19.1c-0.1-7.5-5-16.2-4.3-23.4C281,199.5,282.6,208.8,282.6,218.8L282.6,218.8z M276,235
		c0,4.8-3.8,14.4-5.8,15.2c0.7-8.6-4.7-21.2-1.8-32.1c1,5,2.1,9.7,3.5,13.2c1.8-2.8-2.4-17.4-2.4-18.9C274.4,216,276,230.2,276,235
		L276,235z M249.3,243c-0.4,1.2-3.9,8.2-11.9,8.2c-4.3,0-9.7-2.6-11.3-7.2c11.8,4.3,20.7-8.8,23.8-15.2v0.1c0,1.3-0.5,4.8-0.7,5.9
		c-1.2,4.7-11.4,10.9-10.7,11.7c0.9,0.9,7.2-3.1,11-7.7C249.6,239.8,249.3,241.5,249.3,243L249.3,243z M267.4,243.1
		c0.4,9-4.6,9.2-5.9,17.8l-3.9,0c0.3-13.1,7.5-14.9,7.7-26.8C267.1,234.1,267.4,240,267.4,243.1L267.4,243.1z M253.2,243.1
		c2.7-4.2,4.6-12.8,6.4-21.1c5.1,17.9,0.1,24.1-7.2,30.6c-7.1,6.3-4.1,8.3-4.6,8.3l-17.7,0C246.4,255.3,250.5,247.3,253.2,243.1
		L253.2,243.1z M119.3,87.3c-0.9,3.4-0.4,4.8,2.2,6.7c-0.5-3.3-0.5-5.6,1.2-7.7c0,1.3,1.8,7.5,1.8,9.4c0.1-7.3,2.5-8.4,4.7-11.1
		c-1,2.8-1.7,6.7-0.7,10.7c1.3-3.9,4.7-10.6,5.6-9.6c-5.4,16.2,3.8,20.3,5.9,29.2c2.7,11.4-12.6,16.5-8.6,27.2
		c0.7,2.2-0.9,2.1-3.1,0.7c-8.6-11.9,3.1-13,3.1-20.7c0-1.8-0.3-2.5-0.4-3.5c-1.2-3.8-1.2,0.7-3.9,2.2c-2.6,1.6-7.6,3.1-11.5,2.5
		c-2-0.5-1.8-1.6-0.1-1.7c17.9-1.3,11.5-15.7,2.4-25.1C114,91.6,116.6,87.9,119.3,87.3L119.3,87.3z M158,65.9
		c-11.5,6.9-22.8,9.3-35.4,11.8c-2.9,0.5-4.3-0.4-0.8-1.4c12.3-3.4,16.5-20,31-20.4c0.3,0,1.8,0.9,2.2,1.3c1.2,0.3-5,1-3.3,2
		l6.7,0.3c1,0,1.3,1.3,1.7,1.3c-2.6-0.1-3,1-3.9,2.2c1.4,0,6.3-0.7,7.5,0.1c0.4,0.3,4.3,1.7,2.9,1.7C165.1,64.8,160.4,64.8,158,65.9
		L158,65.9z M186.2,170.2c4.2-1.6,11.7-0.5,14.8,0.1c3.1,0.7,4.1,3.8,2.2,3.4c-2.9-0.5-16.8-0.8-29.5,10.7c-5.6,5.1-15.7,0.4-21.3-6
		c-2-1.2-0.8-3-0.1-3C164.2,178.6,176.1,173.7,186.2,170.2L186.2,170.2z M188.1,386.5c-1.3,1.6-3.3,4.2-6.9,4.5
		c-4.1,0.1-8.2-2.2-9.4-4.6c-0.5-1.2-2.7-2.5-2.1,0.4c0.7,2.7,6.5,7.6,11.5,7.3c4.5-0.1,7.2-3.8,8.6-7.3
		C190.8,384.5,189.5,384.5,188.1,386.5L188.1,386.5z M206.6,350.1c-1.3-0.5-3,3.9-6.8,3.9c-4.8-0.1-5.8-5.5-7.3-5.5
		c-1.6-0.1,0.7,3.8,1.3,4.7c1,1.3,3.5,3.4,6.4,3.5C203.1,356.9,208,350.9,206.6,350.1L206.6,350.1z M222.7,357.3
		c-1.6,0-10-2-11.3-6.2c-0.4-7.5-0.4-17.3-0.1-26.8c2.1,0.7,3.9,1,5,1.6c2,7.7,4.2,17.8,5.4,17.8c2.2-0.3-1.2-14.4-2.2-19.1
		c1-1.2,3.8-3.9,4.3-5.9c1.8,0.7,5.9,15.3,5.9,19.9l0.1,8.4c-2.1,2.8-4.8,5.9-7.6,5.1c-3.3-0.9-5.4-1.7-5.4-2
		c-1.6-2.8-1.7-6.2-2.9-6.3c-1-0.4-0.5,6.3,1.3,7.7c2,1.7,5.2,3.1,6.9,3c2.1-0.1,5.5-1.4,7.6-3.4l0,2.4
		C229.8,355.9,224.3,357.3,222.7,357.3L222.7,357.3z M158.2,388c-0.9-0.8-2.4,0.4-4.1,1.6c-1.7,0.9-4.6,1.6-7.6,0.7
		c-3-1.2-3.5-3-4.2-4.5c-0.7-1.6-0.5-3.8-1.7-4.1c-0.8,0-1.3,1.2-0.9,3.4c0.3,2.1,3.1,7.2,6.8,8.1c4.2,0.8,7.6-0.5,10-2.6
		C158.2,389.1,159.1,388.5,158.2,388L158.2,388z M129,380.1c-1-0.8-2.6-0.4-4.6,0.4c-2.1,0.8-5.2,1.2-8-0.4c-3-1.6-3.9-4.6-3.9-7.1
		c0-1.8,0.7-3,0-3.9c-0.7-0.5-1.7,0.3-2.1,2.4c-0.3,2.6,0.3,8.6,3.4,11c2.9,2.2,7.3,1.7,10,0.9C126.2,382.5,130,380.9,129,380.1
		L129,380.1z M99.9,364.4c-0.7-0.8-2.5-0.3-4.3,0.1c-1.7,0.5-8.4,0.5-10-1.6c-1.6-1.8-1.2-6.2-0.5-7.6c0.4-1.3,2.1-4.1,1.2-4.5
		c-0.9-0.5-2.5,1.2-3.5,3.7c-1,2.1-2.4,8.9,0.8,11.1c3,2.4,10.9,1.8,13.2,1.2C99.1,366,101.1,365.3,99.9,364.4L99.9,364.4z
		 M161.8,338.8c-0.9-1.2-4.6,1.3-8.1-0.1c-3.8-1.8-2.1-6.9-3.5-7.7c-1.6-1-1.4,8.2,1.4,10.1C157,342.5,162.7,339.8,161.8,338.8
		L161.8,338.8z M183.2,347.4c-1.4-1.4-6.2,3-10.1,1.8c-3.8-1.2-2.5-6.7-4.2-7.1c-1.7-0.3-0.5,8.5,3.3,9.8
		C176.1,353.1,184.7,348.4,183.2,347.4L183.2,347.4z M143.6,326.9c-1.8-1.2-5.2,1.3-8.3-1c-3.1-2.4-0.4-8.9-1.7-9.3
		c-1-0.4-3.8,8.5-0.5,11.4C136,330.6,145.2,328.2,143.6,326.9L143.6,326.9z M127.5,308.9c-0.9-2-7.9,0.7-10.3-3.5
		c-1.6-2,2-6.5,0.9-7.3c-0.9-1.2-5.6,5.6-4.1,8.9C115.5,310.2,128.4,311,127.5,308.9L127.5,308.9z M116.4,290c1-1.8-7.2-1.6-7.9-6.9
		c-0.1-3.8,3.8-4.5,3.1-5.6c-0.9-1.4-6.4,2.9-5.9,6.7C106.4,289,115.5,291.7,116.4,290L116.4,290z M110.6,268.1
		c1.2-1.8-7.5-3.9-6.4-9c0.9-3.9,8.3-3.4,7.9-5c-0.4-1.6-9.7,0.4-10.9,5.2C99.9,264.2,109.6,270,110.6,268.1L110.6,268.1z
		 M108.8,244.4c1.8-1.4-7.3-7.2-5.8-10.9c0.9-3.3,7.7-1.7,8.1-2.9c0.5-0.9-8.6-2.6-10.7,2C98.2,237,107.1,245.7,108.8,244.4
		L108.8,244.4z M139.7,268c0.4-3.3,6.3-9.4,10.1-9c5,0.3,10.1,1.3,15.2,3c2.2,0.7,2.7-1.7,0.1-2.6c-5.5-1.4-10.6-2.8-15.3-3.9
		c-5.8-1.6-8.5-14.4-7.3-16.6c1.2-2.2,10.5-5,14.8-3c4.5,1.8,7.7,5.9,13.5,12.2c2,1.8,3,0.3,1.3-2c-5.4-6.7-20.4-18.6-24.8-26.6
		c-4.7-5.1-3.3-24.4-1-26.3c10.6,12.4,36.3,32,43.1,46.6c0.9,2.4,1.4,10.5-0.4,14.4c-1.3,3-21.9,10.3-9,28.8
		c14,19.9,39,11.9,40.2-0.4c2.6,0,7.5,0.1,9.6,0.1v9.3c0,0.7-2.4,0.8-2,1.7c0.5,2.6,2.1,3.4,2.1,5.6l0,24.5
		c-2.9-2.5-5.9-20.7-7.6-25.8c-0.1-0.9-3.3-2.1-2.6,1.6c0.3,1.8,2.2,7.6,3.8,14c0.9,3.4-4.2,8.8-6.4,9.2c-5,0.8-11.8-3.1-12-8
		c-0.4-3.8-0.4-4.5-0.5-10.7c-0.1-3.1-2.5-1.7-2.5,0c0,2.7,0.7,6.4,0,11.1c-0.3,3.5-6.5,8.6-10,7.9c-3.4-0.8-8.1-5.9-7.5-8.8
		c0.7-3.8,1.7-6.8,3.3-11.5c0.4-1.3-1.7-2.5-2.6-0.8c-1,2.9-3.1,9.6-3.9,11.5c-1.3,2.8-11.3,3.4-13.1,2.4
		c-3.4-2.2-5.9-11.4-3.7-13.2c3.3-3.3,6.9-6.9,8.4-8.6c0.9-1.2-0.7-2.1-1.6-1.3c-2.1,2-4.2,4.5-9.7,8.2c-1.4,1-12.7-0.5-14.3-2.9
		c-1.7-2.6,1.3-13.6,5.1-14.8c3.8-1,8.6-1.6,11.8-2.4c1.6-0.1,2-2.5,0-2.4c-2.9,0.7-8.1,1.4-12.6,1.7
		C144,280.7,139.3,271.5,139.7,268L139.7,268z M103,285.4c-0.7-5.1,5.4-10.3,9-10.3c8.2,0,16.2,0,26.3,0c0.9,1.8,2.7,4.1,4.6,5.1
		c-8.5,0-26.3,1.4-25.5,2.9c0.9,1.6,21.7-1,30.9,0.1c-1.8,2.1-2.4,3.3-3.4,5.9c-8.5,0.9-19.5,3.1-28.9,3.9
		C112.6,293.4,103.4,290.4,103,285.4L103,285.4z M98.3,258.2c1.3-4.2,9.7-7.7,14-6.4c7.3,1.8,18.3,5.4,29.5,7.9
		c-1.8,0.5-2.6,2.7-3.9,4.7c-8.5-0.7-24.1-3.4-24.8-1.7c-0.5,1.8,15.2,3.4,23.6,4.5c0.3,0.8,0.3,4.2,0.8,5.6c-10.5,0-20,0-28.9-1.4
		C102.1,270,96.9,262.5,98.3,258.2L98.3,258.2z M142,196.1c-0.7,4.2-0.7,7.7,0,11.9c-8.4-6.4-12.8-17.2-15.3-17.3
		c-2.2,0,8,14.7,15.5,21.9c0.7,4.5,2,5.9,3.1,8.3c-10.9-7.5-18.7-14.1-25.1-21.7c-8.4-10-7.6-23.7-2.2-34.6
		C125,178.3,127.4,183.5,142,196.1L142,196.1z M103.4,203.8c2.9-3.8,17.5,3.4,20.6,4.8c8.1,5.4,21.1,15.2,30.8,24
		c-2.1-0.9-5.4,0-7.3,0.3c-0.4,0.4-24.1-17.3-25.4-15.7c-1.3,1.7,22.1,17.3,22,17.3c-1.6,0-3.5,2.7-4.5,4.2
		c-5.9-2.5-15.6-6.7-24.4-12.8C106.3,219.7,100.8,207.9,103.4,203.8L103.4,203.8z M96.6,231.9c2.1-4.5,11.9-5.8,16.2-3.8
		c4.1,1.8,19.1,10.6,25.9,13.1c-0.4,1.2,0.8,4.3,0.9,5.4c-2.7-0.1-22.8-10.9-24.8-9c-1.3,1.3,13.9,7.7,25.7,12.7
		c3,3.7,1.7,2.8,4.8,6.3c-0.9,0.5-0.8,0.3-2,0.9c-6.7-2.1-24.4-6.7-33.9-9.4C99.9,245.2,94.5,236.2,96.6,231.9L96.6,231.9z
		 M239.7,148.4c0,0,4.6,0,6.2,0c4.7,7.5,11.9,11,13.2,18.5C251.3,162.5,249.3,160.8,239.7,148.4L239.7,148.4z M253.5,167.6
		c2.5,2.1,7.6,11.1,10.6,13.1c-1.3-4.7-5.9-9.7-5.1-11.1c4.2,1.2,14.4,10,13,28.7C273.8,199.9,251.5,173.7,253.5,167.6L253.5,167.6z
		 M262.4,205.1c-1.3-8.5-3.4-16-7.1-25c17.8,14.7,10.2,43,8.5,52.1c-0.3,0-5.6-33-7.2-32c3.8,22-5.2,42.2-4.7,37.8
		c1.3-14.7,2.6-37.2-5-50C257.4,191.5,262.4,208.8,262.4,205.1L262.4,205.1z M236.6,160c16.1,8.2,15.3,15.3,20.4,33.3
		c-8.3-8.1-26.1-19.1-32.6-28.5c6.9,5.4,17.7,11.8,21.7,12.8C244.5,172.3,243.1,166.9,236.6,160L236.6,160z M251.7,166.5
		c-3.7-8-14.9-14.7-21.6-21.5c8.1,2.5,22.7,2.2,29.7-0.7c-12.3-2.8-50.4-5.9-59.8,5.8l-4.8-9.4c-3.4-6.4,9.2-1.8,18.5-1.8
		c26.2,0.1,44.3,2,52.1-9.3l-74.9-0.1c-3.7,0-2.2,1.4-2.2,2.9c1.7,1.2,3.5,4.2,3.8,6.7c0.8,3.3,5,9.4,8.6,14.1
		c11.8,10.6,19.8,12.8,21.5,12.3c-3.8-5.2-7.2-8.9-7.9-13c10.3,10.3,16.8,14.7,27.2,21c0-4.8-14.5-20.4-19-24.8
		C232.3,152.5,245.4,163,251.7,166.5L251.7,166.5z M190,139c9.6,20.6,21.9,24.8,33.3,30.1c7.9,5.9,27.2,15.6,27.2,42.3
		c-9.6-31.4-28.3-35-44.5-48.3c-11.8-9.4-18.1-17.2-22.4-25.5c-0.4-0.7-1.2-3.5-0.1-4.1C186.4,131.7,187.7,134.3,190,139L190,139z
		 M198,159.2c8,8,18.3,12.7,27.5,19.8c0,0.8-1.7,2.9-3.7,1c-15.8-11.9-33.4-19.1-40.9-18.9c-7.6,0.1-11,2.1-15.1,6.9
		c-4.1-4.1-5.2-12.7-3.4-18.7c1.8-5.9,16.4-17.4,20.3-9.2C184.7,144.4,192.7,154.2,198,159.2L198,159.2z M102.9,277.6
		c-1.8,2.4-3.5,4.5-3.5,6.3c-11.8,0-38.9,1.7-39.3,3.7c-0.7,1.7,24.4-0.5,39.8,0.5c1.6,2,4.1,3.3,5.1,4.6c-8.1,0.7-31.6,4.7-45,8.1
		c-13.6,3.3-27-8.1-26.7-13.4c0.3-5.1,9-10.5,24.6-10.3C68.7,277,83.4,277.7,102.9,277.6L102.9,277.6z M95.3,257.4
		c0,0-0.3,4.3,0.7,6.5c-9.7-1.3-39-5.4-39.8-3.9c-0.7,1.8,29.5,5.5,41.5,7.5c2.9,2.9,5.4,5.2,7.9,5.9c-4.8,1.6-43.1,1.2-52.5-0.5
		c-9.3-2-25.5-14.9-24.4-20.3c1.3-5.6,15.5-5.2,25.9-4.3C65.4,249.4,84.2,254.4,95.3,257.4L95.3,257.4z M56.9,119.6
		c-2.5-18.5,5.9-29.6,10.2-27.5c4.1,2.1,10.2,18.9,13.8,24.4c3.5,5.2,19.1,36.8,32.9,50.3c-1.7,3.5-3.1,6.2-2.6,11.3
		C95,161.5,80.4,130,77.6,129.6c-2.7-0.3,18.6,39.4,33.1,54.2c1,6.8,3.4,11.5,6.4,16.4C90.2,181.3,59.4,138.1,56.9,119.6L56.9,119.6
		z M59.2,201.6c-0.8,1.6,26.7,17.4,38.2,25.4c-2.1,1-2.5,1.8-3.5,4.2c-17.3-6.8-39.9-17.4-48.1-23.8c-10.7-8.3-13.7-23-10.2-26.1
		c3.7-2.4,12.2,2.2,15.7,3.5c19.8,8.6,44.3,24.6,58.3,39.4c-1.2-0.4-5.6-0.4-8.4,0.8C84.8,216.3,60.7,200.3,59.2,201.6L59.2,201.6z
		 M103.9,249.5c-1.6,0.7-4.1,1.7-6.3,4.3c-12-1.3-46.8-11.7-52.9-14.5c-7.9-3.4-24.2-18.3-19.5-22.5c5.1-3.9,21.6-3.3,32.6,2.2
		c9.3,4.5,24.5,9.7,35,14.7c0.5,3.5,2.2,6.8,4.1,8.9c-11.5-3.4-43.6-15.8-45.3-14.9c-1.4,1,33,14.9,47.5,18.3
		C100.8,247.8,102.4,248.6,103.9,249.5L103.9,249.5z M99.6,202.8c-0.3,2.6,1.2,5.9,1.8,9.8c-30.5-20.6-48.3-34.2-54.6-41
		c-8.9-10-8.2-32.1-3-33.9c5.2-1.8,10.7,9.8,20,18.6c9,8.9,21.5,20.8,27.5,26.1c7.3,6,11.3,9.2,22.8,18.7c-3.8-1-9-2.6-12.2-0.8
		c-14-7.5-36.4-29.9-37.8-28.4C63.1,172.8,87.2,194.5,99.6,202.8L99.6,202.8z M295.8,94.6c-10.2,0-19.8,1.2-28.8,3.1
		c-0.9,0.4-1.7-1.8-0.1-2.4v-5.2c-1.7,0.1-2-2.4,0-2.9c-3.3-9.3-9.3-22.5-9.8-29.1c-0.7-9.8,6.5-17.7,20.3-19.9
		c2.8-2,7.7-1.6,8.5,1.4c0.4,1.7,3,1.2,3-0.3c0-1.3,2.2-3.3,2.2-3.3c-2.6-2.2-3.9-5.5-3.9-8.9c0-2.2,1-6.8,6.3-8.1l0.5-5.1l-6.4,0.7
		v-5l6.4,0.7l-0.5-6.5h4.8l-0.5,6.5l6.5-0.7v5l-6.5-0.7l0.5,5.1c5,1.3,6,5.9,6,8.1c0,3.4-1.3,6.7-3.8,8.9c0,0,2,2,2,3.3
		c0,1.4,2.7,2,3.1,0.3c0.9-3,5.8-3.4,8.5-1.4c13.9,2.2,21.5,9.8,20.2,19.9c-0.5,7.1-6.3,19.8-9.6,29.1c2.4,0.8,1.4,3.3-0.1,2.9
		c0,1.6,0,3.4,0,5c2.1,0.5,1.6,3.1,0,2.6C315.7,96.2,305.9,94.6,295.8,94.6L295.8,94.6z M288.7,62.5c-0.7-3-2.5-13.9-3-18.7
		c-0.7-5-4.2-3.7-3.4,0.3c0.5,4.1,2.5,13.6,3.8,17.9C287.3,66.7,289.2,65.8,288.7,62.5L288.7,62.5z M291.3,56.6
		c-0.4-3.3-0.9-8.2-0.8-11.5c0.1-3-3.1-2.5-2.5,0c0.4,2.4,1.4,8.3,1.8,11.7C290.7,59.9,291.9,59.8,291.3,56.6L291.3,56.6z
		 M300.5,56.6c0.3-3.3,0.8-8.2,0.5-11.5c-0.1-3,3.3-2.5,2.8,0c-0.5,2.4-1.6,8.3-2,11.7C300.9,59.9,300,59.8,300.5,56.6L300.5,56.6z
		 M282.7,74.5c-0.9,0.9,0.5,3.4,3.1,5.8c2.4,2.5,5,3.7,5.8,2.9c0.7-0.7-0.5-3.4-2.9-5.8C286.2,74.8,283.5,73.8,282.7,74.5
		L282.7,74.5z M309,74.5c0.7,0.9-0.5,3.4-3.1,5.8c-2.2,2.5-5,3.7-5.6,2.9c-0.8-0.7,0.5-3.4,2.9-5.8C305.6,74.8,308.1,73.8,309,74.5
		L309,74.5z M278,82.6c0,0.7,1.8,1.4,3.7,1.6c2.1,0.1,3.8-0.3,3.8-1c0.1-0.5-1.4-1.6-3.4-1.6C280.1,81.1,278.2,81.8,278,82.6
		L278,82.6z M313.5,82.6c0,0.7-1.4,1.4-3.5,1.6c-2,0.1-3.5-0.3-3.5-1c-0.3-0.5,1.3-1.6,3.5-1.6C311.8,81.1,313.3,81.8,313.5,82.6
		L313.5,82.6z M287.5,69.2c-0.5,0.5-0.4,2.1,0.5,3.9c0.7,1.8,2,3.1,2.8,2.8c0.8-0.3,0.5-2-0.3-3.9C289.8,70.1,288.3,69.1,287.5,69.2
		L287.5,69.2z M304,69.2c0.5,0.5,0.5,2.1-0.3,3.9c-0.8,1.8-2,3.1-2.9,2.8c-0.4-0.3-0.4-2,0.4-3.9C302.2,70.1,303.3,69.1,304,69.2
		L304,69.2z M303.5,62.5c0.5-3,2.1-13.9,2.6-18.7c0.5-5,4.3-3.7,3.5,0.3c-0.7,4.1-2.5,13.6-3.8,17.9C304.7,66.7,303,65.8,303.5,62.5
		L303.5,62.5z M295.8,65.7c1.2,0,2.4,4.1,2.4,9c0,4.8-1.2,8.6-2.4,8.6c-1.3,0-2.4-3.8-2.4-8.6C293.4,69.7,294.5,65.7,295.8,65.7
		L295.8,65.7z M295.8,58.6c0.8,0,1.2,0.5,1.2,1.3c0,0.7-0.4,1.2-1.2,1.2c-0.5,0-1-0.5-1-1.2C294.7,59.1,295.3,58.6,295.8,58.6
		L295.8,58.6z M295.8,54.2c0.8,0,1.4,0.4,1.4,1.3c0,0.8-0.7,1.3-1.4,1.3c-0.8,0-1.3-0.5-1.3-1.3C294.5,54.5,295,54.2,295.8,54.2
		L295.8,54.2z M295.8,49.4c0.8,0,1.6,0.5,1.6,1.6c0,0.9-0.8,1.3-1.6,1.3c-0.8,0-1.4-0.4-1.4-1.3C294.3,50,295,49.4,295.8,49.4
		L295.8,49.4z M295.8,44.3c0.8,0,1.6,0.8,1.6,1.8c0,1-0.8,1.6-1.6,1.6c-0.9,0-1.7-0.5-1.7-1.6C294.1,45.1,294.9,44.3,295.8,44.3
		L295.8,44.3z M295.8,39.5c0.9,0,1.7,0.8,1.7,2.1c0,1-0.8,1.8-1.7,1.8c-1,0-2-0.8-2-1.8C293.8,40.3,294.7,39.5,295.8,39.5
		L295.8,39.5z M329.3,62.9c1,0.3,1.3-5,1.3-5.5c0-0.4-4.5-3.3-5.1-3C325,54.5,328.5,62.4,329.3,62.9L329.3,62.9z M327.9,70.1
		c0.7-0.3,1.4-4.8,1.4-5.4c-0.1-0.7-4.8-2.9-5.5-2.5C323.4,62.4,327.1,70.3,327.9,70.1L327.9,70.1z M325,76.7c0.5-0.3,2.6-4.5,2.5-5
		c-0.3-0.7-4.8-2.9-5.5-2.6C321.6,69.2,324.5,76.9,325,76.7L325,76.7z M322,83.1c0.4-0.1,2.7-4.5,2.6-4.8c-0.1-0.7-4.8-2.9-5.5-2.5
		C318.6,75.9,321.5,83.4,322,83.1L322,83.1z M330.6,55.1c0.4-0.5-0.1-3.8-0.3-4.3c-0.1-0.4-4.6-4.7-5.1-4.3
		C324.7,46.6,330,55.2,330.6,55.1L330.6,55.1z M323,59.5c0.5-0.1,1-5.1,0.9-5.8c0-0.8-4.5-2.7-5-2.5C318.4,51.4,322.4,59.9,323,59.5
		L323,59.5z M320.9,66.9c0.5-0.3,2-4.6,1.8-5.2c-0.1-0.7-4.8-2.8-5.5-2.4C316.7,59.4,320.4,67,320.9,66.9L320.9,66.9z M318.6,73.7
		c0.5-0.3,2.6-4.6,2.4-5c0-0.8-4.7-3-5.4-2.8C315,66.2,318,73.9,318.6,73.7L318.6,73.7z M315.4,80.1c0.8-0.1,2.6-4.3,2.6-4.8
		c-0.1-0.9-5-2.9-5.4-2.7C312,72.9,314.9,80.5,315.4,80.1L315.4,80.1z M323.7,51.1c1,0.5,0.5-4.7,0.4-5.5c-0.1-0.7-4.8-3.5-5.5-3.1
		C318,42.6,321.7,50.5,323.7,51.1L323.7,51.1z M316.2,56.8c1.3,0.7,0.9-5.1,1.2-6c0.1-0.9-5.5-3.4-5.5-2.6
		C311.8,48.9,314.9,56.2,316.2,56.8L316.2,56.8z M314.6,64c0.4-0.4,1.7-4.6,1.6-5.2c0-0.7-5.1-3-5.6-2.7
		C309.9,56.2,314,64.1,314.6,64L314.6,64z M312.2,70.5c0.5,0,2.5-4.3,2.5-4.8c0-0.9-5-2.9-5.5-2.6C308.6,63.3,311.4,70.9,312.2,70.5
		L312.2,70.5z M306.7,72.4c0.5,0,3.3,0,3.3-0.7c0-0.7-2.6-2.5-3.3-2C306.1,69.9,306,72.9,306.7,72.4L306.7,72.4z M316.9,48.1
		c1.2,0,0.8-5.6,0.4-6.3c-0.4-0.8-4.6-1.7-5.2-1.6C311.4,40.3,316.2,48.1,316.9,48.1L316.9,48.1z M262.1,62.9c-0.9,0.3-1.3-5-1-5.5
		c0-0.4,4.2-3.3,5-3C266.5,54.5,263,62.4,262.1,62.9L262.1,62.9z M263.6,70.1c-0.5-0.3-1.4-4.8-1.4-5.4c0.3-0.7,4.8-2.9,5.5-2.5
		C268.3,62.4,264.1,70.3,263.6,70.1L263.6,70.1z M266.5,76.7c-0.4-0.3-2.6-4.5-2.5-5c0.1-0.7,4.8-2.9,5.5-2.6
		C270,69.2,267,76.9,266.5,76.7L266.5,76.7z M269.5,83.1c-0.5-0.1-2.6-4.5-2.6-4.8c0.1-0.7,5.1-2.9,5.5-2.5
		C273,75.9,270.1,83.4,269.5,83.1L269.5,83.1z M261.1,55.1c-0.5-0.5,0.1-3.8,0.1-4.3c0.1-0.4,4.3-4.7,4.8-4.3
		C266.7,46.6,261.5,55.2,261.1,55.1L261.1,55.1z M268.4,59.5c-0.5-0.1-1-5.1-1-5.8c0.3-0.8,4.6-2.7,5.1-2.5
		C273.1,51.4,269.1,59.9,268.4,59.5L268.4,59.5z M270.5,66.9c-0.4-0.3-2-4.6-1.7-5.2c0-0.7,4.8-2.8,5.5-2.4
		C274.6,59.4,271.2,67,270.5,66.9L270.5,66.9z M273,73.7c-0.7-0.3-2.8-4.6-2.5-5c0-0.8,5-3,5.5-2.8C276.4,66.2,273.5,73.9,273,73.7
		L273,73.7z M276,80.1c-0.4-0.1-2.6-4.3-2.5-4.8c0.1-0.9,4.8-2.9,5.5-2.7C279.3,72.9,276.5,80.5,276,80.1L276,80.1z M267.8,51.1
		c-1,0.5-0.4-4.7-0.4-5.5c0.3-0.7,4.8-3.5,5.5-3.1C273.4,42.6,269.7,50.5,267.8,51.1L267.8,51.1z M275.5,56.8
		c-1.6,0.7-1.2-5.1-1.4-6c-0.1-0.9,5.5-3.4,5.5-2.6C279.7,48.9,276.5,56.2,275.5,56.8L275.5,56.8z M276.9,64
		c-0.5-0.4-1.8-4.6-1.7-5.2c0.3-0.7,5.1-3,5.6-2.7C281.5,56.2,277.5,64.1,276.9,64L276.9,64z M279.3,70.5c-0.4,0-2.5-4.3-2.4-4.8
		c0.1-0.9,4.7-2.9,5.5-2.6C282.8,63.3,280.1,70.9,279.3,70.5L279.3,70.5z M284.8,72.4c-0.4,0-3.3,0-3.3-0.7c0.1-0.7,2.6-2.5,3.3-2
		C285.3,69.9,285.4,72.9,284.8,72.4L284.8,72.4z M274.6,48.1c-1,0-0.8-5.6-0.3-6.3c0.3-0.8,4.6-1.7,5-1.6
		C280.1,40.3,275.5,48.1,274.6,48.1L274.6,48.1z M444.5,472c-0.5,0-1.2,0.5-1.2,1c0,0.9,0.7,1.3,1.2,1.3c0.8,0,1.4-0.4,1.4-1.3
		C446,472.5,445.3,472,444.5,472L444.5,472z M476.6,439.3c0.7,0,1.4,0.4,1.4,1.2c0,0.8-0.8,1.3-1.4,1.3c-0.7,0-1.3-0.5-1.3-1.3
		C475.3,439.7,476,439.3,476.6,439.3L476.6,439.3z M507,475c0.7,0,1.3,0.4,1.3,1.2c0,0.7-0.7,1.3-1.3,1.3c-0.7,0-1-0.6-1-1.3
		C506,475.4,506.4,475,507,475L507,475z M451.5,470.5c-0.9,0-1.7,0.5-1.7,1.7c0,0.9,0.8,1.8,1.7,1.8c0.9,0,1.8-0.9,1.8-1.8
		C453.3,471,452.4,470.5,451.5,470.5L451.5,470.5z M476.6,444c0.8,0,2,0.8,2,2c0,0.9-1.2,1.7-2,1.7c-0.8,0-1.6-0.8-1.6-1.7
		C475.1,444.8,475.8,444,476.6,444L476.6,444z M500.7,473.3c0.8,0,1.8,0.7,1.8,1.8c0,0.9-1,1.7-1.8,1.7c-0.8,0-1.7-0.8-1.7-1.7
		C499,474,499.9,473.3,500.7,473.3L500.7,473.3z M457.9,469.7c-1.2,0-2.4,1-2.4,2.4c0,1.4,1.2,2.4,2.4,2.4c1.3,0,2.4-0.9,2.4-2.4
		C460.3,470.7,459.2,469.7,457.9,469.7L457.9,469.7z M476.8,450.9c1.4,0,2.4,1,2.4,2.5c0,1.2-0.9,2.5-2.4,2.5
		c-1.2,0-2.1-1.3-2.1-2.5C474.7,452,475.6,450.9,476.8,450.9L476.8,450.9z M493.8,470.9c1,0,2.2,1,2.2,2.5c0,1.2-1.2,2.4-2.2,2.4
		c-1.4,0-2.2-1.2-2.2-2.4C491.6,471.9,492.3,470.9,493.8,470.9L493.8,470.9z M466.9,468.9c-1.3,0-2.7,1.2-2.7,2.9
		c0,1.6,1.4,2.8,2.7,2.8c1.6,0,2.9-1.2,2.9-2.8C469.8,470.1,468.5,468.9,466.9,468.9L466.9,468.9z M476.5,459.7c1.6,0,2.9,1,2.9,2.8
		c0,1.7-1.3,3-2.9,3c-1.4,0-2.6-1.3-2.6-3C473.9,460.8,475.1,459.7,476.5,459.7L476.5,459.7z M485.8,469.4c1.3,0,2.6,1,2.6,2.9
		c0,1.7-1.3,2.9-2.6,2.9c-1.6,0-2.7-1.2-2.7-2.9C483,470.5,484.2,469.4,485.8,469.4L485.8,469.4z M476.4,468.2
		c1.8,0,3.4,1.4,3.4,3.3c0,2-1.6,3.5-3.4,3.5c-1.6,0-3-1.6-3-3.5C473.4,469.7,474.8,468.2,476.4,468.2L476.4,468.2z M481.1,507.4
		l-4.7,2.1c-1.8,1.2-7.2,2.2-7.2,2.2c0.1,3,5.9,2.9,8.3,1.6c0,0,1.6-4.1,8.4-5.5l6.3-2.7c1.3-4.8,1.6-5.5-3.3-6.2
		C482.8,501.1,490.9,506.5,481.1,507.4L481.1,507.4z M487.1,441c7.9,1.8,21.9,16.4,21.6,25.8c-8.3-2-14.7-3.5-21.6-3.8
		C486.7,455.5,487.1,448.1,487.1,441L487.1,441z M482,440.1c0.8,0,0.5,0,1.6,0.1c-0.4,13.6-0.1,15.2,0.1,25.1
		c9.2,0.1,17.4,1.8,25,3.9c0.4,0.8,0.5,1.6,0.5,2.1c-8-2.2-18.6-4.5-27.2-4.6C482,456.3,481.6,447.3,482,440.1L482,440.1z
		 M508.1,481.2c-6.9-1.6-17-3.1-31.7-4.1c-13-0.9-28.5,0.5-33.4,0.9c-0.1,0.8,0.4,1.7,0.4,2.4c3.4-0.4,17.9-2.1,32.6-1.2
		c13.8,0.7,23.3,2,31.3,4.1C507.4,482.6,507.8,482.2,508.1,481.2L508.1,481.2z M472.3,439.5c-0.9,0-0.8,0-1.8,0.1
		c0.5,13.7,0.3,15.7-0.1,25.7c-8.9-0.3-17,0-27.4,1c-0.1,0.5-0.3,1.4-0.3,1.8c6.8-0.4,21-1.7,29.5-1.2
		C472.2,456.8,472.7,446.5,472.3,439.5L472.3,439.5z M467.3,440.5c-8.9,1-21.2,12.2-23.4,22.8c8-0.3,14.7-1,23.3-0.4
		C467.2,452.5,467.6,447.5,467.3,440.5L467.3,440.5z M462.2,502.7c-8.5-3.1-16.9-13.4-18.1-20.3c12.2-2.6,46.5-2.5,62.6,2.9
		c0,0.7-1,2.5-2.8,4.8c-0.3,0.5-3.4,0.4-2.7-1.6c0.5-1.7-6.9-2-7.7-0.3c1.8,2,6.2,4.1,7.7,5.8c-1.2,1.3-4.6,4.8-4.6,4.8
		c-1.3-1.6-3-3.4-5.6-4.5c-0.9-3.4-3.4-6.2-5.8-5.4c-0.4,1.2,1.3,4.1,0.5,6.3c-2,1.7-1.8,6.2-3,8.5c-1.3,0.7-2.9,0.1-3.4,0.7
		c-2.2-2.9,2.6-10.3-5.1-12.4c-1.4-3.4-2.9-4.8-5-5.6c-1.3,2.8,0.3,5-0.4,6.8C462.6,493.5,463.9,503.1,462.2,502.7L462.2,502.7z
		 M366.9,485.9c0.1,2.2,0.7,2.2,1.4,3.8c-0.3,0.8-1.6,0.9-2.1,0.1c-1.6-1.3-2.1-3-1.8-4.7C364.5,484.5,366.8,481.6,366.9,485.9
		L366.9,485.9z M375.5,491.4c0.4,0,2.7,1,0.7,1.6c-3.7,0-6.8,0-13.2,0.7c-1.8-0.3-5.6-3,3.4-2.2
		C368.3,491.7,371.5,490.8,375.5,491.4L375.5,491.4z M476.6,432.5l3.1,0.1l-1-5.4l6.2,0.5v-4.8l-6.3,1.2l1.2-6.2l-3.1,0.1l-2.8-0.1
		l1.2,6.2l-6.2-1.2v4.8l5.9-0.5l-0.9,5.4L476.6,432.5L476.6,432.5z M459.5,512.1c1.8-1,5.8-5.6,6.7-6.7c0.9-0.5,0.5-3.5,0.8-6
		c0.4-2.5,3.4-4.1,5.8-4.1c2.4-0.3,3.5,8.8,2,9.6c-2,0.8-3.7,1.3-5.8,2.6c-1.6,0.3-7.9,8.3-9.4,9c-4.6,3.3-6.9,4.1-14,0
		c-10.9-6.3-19.2-11.7-26.7-12.6c-3.8,0.5-3-5.1-4.2-5.1c-1.3,0-0.8,5-2.1,4.8c-1.4-0.1-1.4-6.4-2.5-6.8c-1.2-0.5-1,5-2.1,4.5
		c-1.2-0.7-0.8-5.2-2.2-6.2c-1.6-1-2.2,4.3-3.5,3.7c-1.2-1-0.3-5.4-1.8-5.8c-1.6-0.5-2.7,4.3-2.7,4.3l-2.1-5.8l-2.5,4.8
		c0,0-1.6-5.6-3.3-5.5c-1.8,0.1,1.2,4.6-3.3,4.3c-2.4-0.1-8.6-1.7-20.9-0.1c-3.4,0-5.4-0.5-8.1-1.7c-0.5-2.9,3.7-5.6,5.2-8.5
		c1.4-2.7,0.5-8.8,3.7-10.6c1.4,3,1.3,5.1,3.9,8.5c3-3,4.3-4.6,5.8-8.5c2.8,3.9,6.2,10,10.5,10.6c1-1.6,0.4-2.7,1.4-2.9
		c6.7,6.2,24,12.7,37.2,15.2c6.9,1.6,12.4,2.2,17.3-2c2-2,1.4-6.3,2.2-3.9c0.1,1.4,3.8,5.4,6.5,8.3c-0.4,1-6.5,3.9-5.9,4.3
		c3.5,3,8-2.9,14.9,2c2.2,1.6-10.3,2.6-10.3,3.5C449.8,511.4,455,515.4,459.5,512.1L459.5,512.1z M321.2,90.6c0.7,0,1.2,0.7,1.2,1.3
		c0,0.9-0.5,1.6-1.2,1.6c-0.8,0-1.4-0.7-1.4-1.6C319.7,91.2,320.4,90.6,321.2,90.6L321.2,90.6z M315.7,89.6c0.8,0,1.4,0.5,1.4,1.6
		c0,0.7-0.7,1.3-1.4,1.3c-0.9,0-1.6-0.7-1.6-1.3C314.1,90.2,314.8,89.6,315.7,89.6L315.7,89.6z M309.9,88.6c0.9,0,1.6,0.7,1.6,1.7
		c0,0.9-0.7,1.6-1.6,1.6c-0.9,0-1.8-0.7-1.8-1.6C308.1,89.2,309,88.6,309.9,88.6L309.9,88.6z M303.6,87.3c1,0,2,0.8,2,2
		c0,1.2-0.9,2-2,2c-1.2,0-2.2-0.8-2.2-2C301.4,88.1,302.5,87.3,303.6,87.3L303.6,87.3z M270.2,90.6c-0.7,0-1.3,0.7-1.3,1.3
		c0,0.9,0.7,1.6,1.3,1.6c0.8,0,1.4-0.7,1.4-1.6C271.7,91.2,271,90.6,270.2,90.6L270.2,90.6z M275.7,89.6c-0.7,0-1.4,0.5-1.4,1.6
		c0,0.7,0.8,1.3,1.4,1.3c1,0,1.6-0.7,1.6-1.3C277.3,90.2,276.8,89.6,275.7,89.6L275.7,89.6z M281.5,88.6c-0.8,0-1.7,0.7-1.7,1.7
		c0,0.9,0.9,1.6,1.7,1.6c1.2,0,1.7-0.7,1.7-1.6C283.2,89.2,282.7,88.6,281.5,88.6L281.5,88.6z M288.1,87.3c-1.4,0-2.2,0.8-2.2,2
		c0,1.2,0.8,2,2.2,2c0.8,0,1.8-0.8,1.8-2C289.9,88.1,288.8,87.3,288.1,87.3L288.1,87.3z M295.8,86.2c-1.4,0-2.5,1-2.5,2.4
		c0,1.4,1,2.6,2.5,2.6c1.2,0,2.5-1.2,2.5-2.6C298.3,87.3,297,86.2,295.8,86.2L295.8,86.2z M295.8,21.5c3.1,0,6,2.8,6,6.2
		c0,3.3-2.9,7.9-6,7.9c-3.4,0-6-4.6-6-7.9C289.8,24.3,292.4,21.5,295.8,21.5L295.8,21.5z M368.3,120.9c-0.5,0-0.9,0.5-0.9,0.9
		c0,0.7,0.4,0.9,0.9,0.9c0.4,0,0.9-0.3,0.9-0.9C369.3,121.5,368.7,120.9,368.3,120.9L368.3,120.9z M371.9,120.3
		c-0.5,0-0.9,0.4-0.9,1c0,0.5,0.4,1,0.9,1c0.7,0,1.2-0.5,1.2-1C373,120.7,372.5,120.3,371.9,120.3L371.9,120.3z M375.7,119.6
		c-0.5,0-1,0.7-1,1.2c0,0.7,0.5,1,1,1c0.8,0,1.2-0.4,1.2-1C376.8,120.3,376.5,119.6,375.7,119.6L375.7,119.6z M379.7,118.7
		c-0.7,0-1.3,0.5-1.3,1.4c0,0.7,0.7,1.3,1.3,1.3c0.8,0,1.4-0.7,1.4-1.3C381.2,119.2,380.5,118.7,379.7,118.7L379.7,118.7z
		 M401.7,120.9c0.4,0,0.8,0.5,0.8,0.9c0,0.7-0.4,0.9-0.8,0.9c-0.4,0-0.9-0.3-0.9-0.9C400.8,121.5,401.3,120.9,401.7,120.9
		L401.7,120.9z M398.2,120.3c0.4,0,0.9,0.4,0.9,1c0,0.5-0.5,1-0.9,1c-0.7,0-1.2-0.5-1.2-1C397,120.7,397.5,120.3,398.2,120.3
		L398.2,120.3z M394.4,119.6c0.5,0,1,0.7,1,1.2c0,0.7-0.5,1-1,1c-0.8,0-1.2-0.4-1.2-1C393.2,120.3,393.6,119.6,394.4,119.6
		L394.4,119.6z M390.2,118.7c0.8,0,1.2,0.5,1.2,1.4c0,0.7-0.4,1.3-1.2,1.3c-0.8,0-1.2-0.7-1.2-1.3
		C389,119.2,389.4,118.7,390.2,118.7L390.2,118.7z M385,118.1c0.8,0,1.7,0.7,1.7,1.6c0,1-0.9,1.8-1.7,1.8c-0.9,0-1.4-0.8-1.4-1.8
		C383.5,118.7,384,118.1,385,118.1L385,118.1z M385,75.8c-2.2,0-3.9,1.7-3.9,3.9c0,2.4,1.7,5.1,3.9,5.1c2.4,0,4.1-2.7,4.1-5.1
		C389,77.5,387.3,75.8,385,75.8L385,75.8z M389.7,102.5c0.5-1.8,1.6-8.9,1.7-12.3c0.5-3.3,3-2.2,2.5,0.3c-0.4,2.7-1.7,8.9-2.5,11.9
		C390.6,105.2,389.3,104.8,389.7,102.5L389.7,102.5z M387.8,98.7c0.3-2.2,0.5-5.2,0.4-7.5c0-2.1,2.4-1.7,2,0c-0.4,1.6-1,5.4-1.3,7.6
		C388.2,100.8,387.6,100.6,387.8,98.7L387.8,98.7z M382,98.7c-0.1-2.2-0.5-5.2-0.4-7.5c0-2.1-2.2-1.7-2,0c0.5,1.6,1,5.4,1.6,7.6
		C381.6,100.8,382.2,100.6,382,98.7L382,98.7z M393.6,110.5c0.5,0.4-0.5,2.2-2.2,3.8c-1.4,1.6-3.1,2.4-3.5,1.8
		c-0.5-0.7,0.3-2.2,1.8-3.8C391.2,110.9,393,109.9,393.6,110.5L393.6,110.5z M376.5,110.5c-0.7,0.4,0.3,2.2,1.8,3.8
		c1.4,1.6,3.3,2.4,3.8,1.8c0.5-0.7-0.3-2.2-1.8-3.8C378.4,110.9,376.8,109.9,376.5,110.5L376.5,110.5z M396.5,115.6
		c0,0.8-1,1.2-2.2,1.2c-1.4,0.1-2.6-0.1-2.6-0.7c0-0.5,1-1.2,2.4-1.2C395.2,114.9,396.4,115.3,396.5,115.6L396.5,115.6z
		 M373.3,115.6c0,0.8,0.9,1.2,2.2,1.2c1.4,0.1,2.5-0.1,2.5-0.7c0-0.5-1-1.2-2.2-1.2C374.5,114.9,373.3,115.3,373.3,115.6
		L373.3,115.6z M390.3,107.1c0.4,0.3,0.4,1.3-0.1,2.5c-0.7,1.3-1.4,2-2,1.7c-0.4,0-0.4-1.3,0-2.5C389,107.6,389.8,106.9,390.3,107.1
		L390.3,107.1z M379.5,107.1c-0.3,0.3-0.3,1.3,0.1,2.5c0.8,1.3,1.6,2,2,1.7c0.5,0,0.4-1.3-0.3-2.5
		C380.6,107.6,380.1,106.9,379.5,107.1L379.5,107.1z M380,102.5c-0.5-1.8-1.6-8.9-2-12.3c-0.3-3.3-2.6-2.2-2.2,0.3
		c0.5,2.7,1.6,8.9,2.5,11.9C379.1,105.2,380.4,104.8,380,102.5L380,102.5z M385,104.6c-0.9,0-1.4,2.7-1.4,6c0,3.3,0.5,5.9,1.4,5.9
		c0.8,0,1.4-2.6,1.4-5.9C386.4,107.3,385.8,104.6,385,104.6L385,104.6z M385,100c-0.5,0-0.9,0.3-0.9,0.8c0,0.5,0.4,0.9,0.9,0.9
		c0.4,0,0.8-0.4,0.8-0.9C385.8,100.2,385.4,100,385,100L385,100z M385,97.1c-0.5,0-0.9,0.3-0.9,0.8c0,0.5,0.4,1,0.9,1s0.8-0.5,0.8-1
		C385.8,97.4,385.5,97.1,385,97.1L385,97.1z M385,94c-0.7,0-1,0.3-1,1c0,0.4,0.4,0.8,1,0.8c0.5,0,0.8-0.4,0.8-0.8
		C385.8,94.2,385.5,94,385,94L385,94z M385,90.6c-0.7,0-1,0.7-1,1.2c0,0.8,0.4,1.2,1,1.2c0.7,0,1-0.4,1-1.2
		C386,91.2,385.6,90.6,385,90.6L385,90.6z M385,87.4c-0.8,0-1.2,0.7-1.2,1.3c0,0.8,0.4,1.3,1.2,1.3c0.8,0,1.2-0.5,1.2-1.3
		C386.1,88.1,385.8,87.4,385,87.4L385,87.4z M362.8,102.7c-0.5,0.1-0.8-3.3-0.8-3.7c0.1-0.1,3-2,3.4-1.8
		C365.8,97.4,363.5,102.5,362.8,102.7L362.8,102.7z M364,107.5c-0.5-0.1-1.2-3-1-3.3c0-0.5,3.3-2,3.4-1.7
		C366.8,102.5,364.3,107.7,364,107.5L364,107.5z M365.8,111.9c-0.4-0.3-1.8-3-1.7-3.4c0.1-0.4,3.1-1.7,3.7-1.6
		C367.9,107.1,366.2,112,365.8,111.9L365.8,111.9z M367.8,116.1c-0.4,0-1.7-2.9-1.6-3c0-0.5,3.1-2.2,3.5-1.8
		C370,111.2,368.1,116.4,367.8,116.1L367.8,116.1z M362.2,97.6c-0.4-0.3,0.1-2.4,0.1-2.7c0.1-0.5,2.9-3.1,3.1-3
		C366,92.1,362.6,97.8,362.2,97.6L362.2,97.6z M367,100.6c-0.3,0-0.8-3.5-0.8-3.8c0-0.4,3.3-1.7,3.5-1.6
		C370.2,95.4,367.4,100.8,367,100.6L367,100.6z M368.5,105.4c-0.4-0.1-1.2-2.9-1.2-3.1c0-0.7,3.3-2.1,3.5-1.8
		C371.2,100.6,368.7,105.6,368.5,105.4L368.5,105.4z M370,109.7c-0.3,0-1.7-2.8-1.6-3.1c0-0.5,3.1-2,3.5-1.7
		C372.3,105.1,370.4,109.9,370,109.7L370,109.7z M372,114c-0.4,0-1.8-2.8-1.6-3.1c0.1-0.4,3-2,3.5-1.6
		C374.2,109.3,372.4,114.4,372,114L372,114z M366.6,95.1c-0.7,0.3-0.4-3.3-0.4-3.5c0-0.4,3.5-2.4,3.7-2.2
		C370.2,89.5,367.8,94.6,366.6,95.1L366.6,95.1z M371.6,98.9c-0.9,0.1-0.7-3.5-0.8-4.1c-0.1-0.7,3.7-2.4,3.7-2
		C374.5,93.6,372.4,98.4,371.6,98.9L371.6,98.9z M372.5,103.7c-0.3-0.4-1.2-3-1-3.5c0.1-0.4,3.4-2.1,3.7-1.8
		C375.5,98.4,373,103.7,372.5,103.7L372.5,103.7z M374.2,107.8c-0.3,0-1.7-2.9-1.7-3.3c0.1-0.4,3.3-2.1,3.7-1.7
		C376.6,103,374.7,108.1,374.2,107.8L374.2,107.8z M377.9,109c-0.5-0.1-2.4,0-2.2-0.5c0.1-0.4,1.7-1.4,2.2-1.2
		C378.3,107.3,378.3,109.3,377.9,109L377.9,109z M371.1,93.2c-0.7,0-0.4-3.8-0.3-4.2c0.4-0.7,3.1-1,3.4-0.9
		C374.7,88.1,371.6,93.2,371.1,93.2L371.1,93.2z M407.1,102.7c0.7,0.1,0.8-3.3,0.8-3.7c0-0.1-2.9-2-3.3-1.8
		C404.2,97.4,406.4,102.5,407.1,102.7L407.1,102.7z M406.2,107.5c0.3-0.1,0.9-3,0.8-3.3c0-0.5-3.1-2-3.5-1.7
		C403.2,102.5,405.7,107.7,406.2,107.5L406.2,107.5z M404.2,111.9c0.4-0.3,1.7-3,1.6-3.4c-0.1-0.4-3.1-1.7-3.7-1.6
		C401.9,107.1,403.8,112,404.2,111.9L404.2,111.9z M402.1,116.1c0.4,0,1.7-2.9,1.7-3c0-0.5-3-2.2-3.7-1.8
		C400,111.2,401.9,116.4,402.1,116.1L402.1,116.1z M407.9,97.6c0.3-0.3-0.1-2.4-0.1-2.7c-0.1-0.5-3-3.1-3.1-3
		C404.1,92.1,407.4,97.8,407.9,97.6L407.9,97.6z M402.9,100.6c0.4,0,0.7-3.5,0.7-3.8c0-0.4-3-1.7-3.4-1.6
		C399.9,95.4,402.5,100.8,402.9,100.6L402.9,100.6z M401.6,105.4c0.3-0.1,1.2-2.9,1.2-3.1c-0.1-0.7-3.3-2.1-3.5-1.8
		C398.7,100.6,401.2,105.6,401.6,105.4L401.6,105.4z M400,109.7c0.1,0,1.7-2.8,1.6-3.1c0-0.5-3.3-2-3.5-1.7
		C397.7,105.1,399.8,109.9,400,109.7L400,109.7z M398.1,114c0.3,0,1.7-2.8,1.7-3.1c-0.3-0.4-3.4-2-3.7-1.6
		C395.7,109.3,397.5,114.4,398.1,114L398.1,114z M403.4,95.1c0.7,0.3,0.1-3.3,0.1-3.5c0-0.4-3.3-2.4-3.5-2.2
		C399.8,89.5,402.1,94.6,403.4,95.1L403.4,95.1z M398.3,98.9c0.9,0.1,0.8-3.5,0.9-4.1c0-0.7-3.7-2.4-3.7-2
		C395.4,93.6,397.5,98.4,398.3,98.9L398.3,98.9z M397.4,103.7c0.3-0.4,1.2-3,1-3.5c-0.1-0.4-3.5-2.1-3.7-1.8
		C394.5,98.4,396.9,103.7,397.4,103.7L397.4,103.7z M395.7,107.8c0.4,0,1.7-2.9,1.7-3.3c0-0.4-3.1-2.1-3.5-1.7
		C393.5,103,395.2,108.1,395.7,107.8L395.7,107.8z M392.2,109c0.5-0.1,2.4,0,2.2-0.5c-0.1-0.4-1.7-1.4-2.2-1.2
		C391.8,107.3,391.6,109.3,392.2,109L392.2,109z M399,93.2c0.8,0,0.3-3.8,0.3-4.2c-0.5-0.7-3.1-1-3.5-0.9
		C395.2,88.1,398.3,93.2,399,93.2L399,93.2z M223.2,120.9c0.5,0,0.9,0.4,0.9,0.9c0,0.5-0.4,0.8-0.9,0.8c-0.4,0-1-0.3-1-0.8
		C222.2,121.3,222.8,120.9,223.2,120.9L223.2,120.9z M219.6,120.3c0.5,0,0.9,0.4,0.9,0.9s-0.4,0.9-0.9,0.9c-0.5,0-0.9-0.4-0.9-0.9
		C218.7,120.7,219,120.3,219.6,120.3L219.6,120.3z M215.8,119.5c0.8,0,1.2,0.7,1.2,1.2c0,0.7-0.4,1.2-1.2,1.2c-0.7,0-1-0.5-1-1.2
		C214.7,120.2,215.1,119.5,215.8,119.5L215.8,119.5z M211.7,118.6c0.8,0,1.4,0.7,1.4,1.4c0,0.7-0.7,1.3-1.4,1.3
		c-0.7,0-1.4-0.7-1.4-1.3C210.3,119.2,211.1,118.6,211.7,118.6L211.7,118.6z M190,120.9c-0.5,0-0.9,0.4-0.9,0.9
		c0,0.5,0.4,0.8,0.9,0.8c0.3,0,0.8-0.3,0.8-0.8C190.8,121.3,190.2,120.9,190,120.9L190,120.9z M193.5,120.3c-0.5,0-1.2,0.4-1.2,0.9
		c0,0.5,0.7,0.9,1.2,0.9s0.8-0.4,0.8-0.9C194.3,120.7,194,120.3,193.5,120.3L193.5,120.3z M197.3,119.5c-0.7,0-1.2,0.7-1.2,1.2
		c0,0.7,0.5,1.2,1.2,1.2c0.5,0,1-0.5,1-1.2C198.4,120.2,197.8,119.5,197.3,119.5L197.3,119.5z M201.4,118.6c-0.8,0-1.3,0.7-1.3,1.4
		c0,0.7,0.5,1.3,1.3,1.3c0.8,0,1.3-0.7,1.3-1.3C202.7,119.2,202.2,118.6,201.4,118.6L201.4,118.6z M206.5,117.9
		c-0.7,0-1.6,0.7-1.6,1.6c0,0.9,0.9,1.8,1.6,1.8c1,0,1.6-0.9,1.6-1.8C208,118.6,207.5,117.9,206.5,117.9L206.5,117.9z M206.5,75.6
		c2.2,0,3.9,1.7,3.9,3.9c0,2.2-1.7,5.2-3.9,5.2c-2.1,0-3.8-3-3.8-5.2C202.7,77.3,204.4,75.6,206.5,75.6L206.5,75.6z M201.9,102.5
		c-0.4-1.8-1.4-9-1.8-12.3c-0.5-3.3-2.8-2.4-2.4,0.3c0.3,2.5,1.7,8.8,2.6,11.8C201,105.2,202.3,104.6,201.9,102.5L201.9,102.5z
		 M203.7,98.5c-0.4-2.1-0.7-5.2-0.5-7.3c0.1-2.2-2.2-1.8-1.8-0.1c0.3,1.7,1.2,5.4,1.3,7.6C203.3,100.8,203.9,100.6,203.7,98.5
		L203.7,98.5z M209.7,98.5c0-2.1,0.3-5.2,0.1-7.3c0-2.2,2.4-1.8,2-0.1c-0.4,1.7-0.9,5.4-1.4,7.6C209.9,100.8,209.4,100.6,209.7,98.5
		L209.7,98.5z M197.8,110.3c-0.5,0.5,0.7,2.2,2.2,3.7c1.6,1.8,3.3,2.5,3.8,2c0.5-0.5-0.5-2.1-2-3.8
		C200.3,110.7,198.6,109.7,197.8,110.3L197.8,110.3z M215.1,110.3c0.7,0.5-0.3,2.2-1.7,3.7c-1.7,1.8-3.5,2.5-3.8,2
		c-0.8-0.5,0.1-2.1,1.8-3.8C213.2,110.7,214.7,109.7,215.1,110.3L215.1,110.3z M195,115.4c0,0.8,1,1.2,2.4,1.3
		c1.4,0,2.5-0.3,2.5-0.8c0-0.5-0.8-1-2.2-1C196.3,114.8,195.1,115.2,195,115.4L195,115.4z M218.3,115.4c0,0.8-1,1.2-2.4,1.3
		c-1.2,0-2.5-0.3-2.5-0.8c0-0.5,1.2-1,2.4-1C217,114.8,218.3,115.2,218.3,115.4L218.3,115.4z M201.1,106.9c-0.3,0.3-0.1,1.4,0.4,2.6
		c0.4,1.3,1.2,2,1.8,1.7c0.5-0.3,0.4-1.3-0.1-2.7C202.7,107.5,201.6,106.8,201.1,106.9L201.1,106.9z M212,106.9
		c0.4,0.3,0.4,1.4-0.1,2.6c-0.5,1.3-1.4,2-2,1.7c-0.3-0.3-0.1-1.3,0.4-2.7C210.9,107.5,211.5,106.8,212,106.9L212,106.9z
		 M211.6,102.5c0.4-1.8,1.6-9,1.8-12.3c0.3-3.3,2.8-2.4,2.4,0.3c-0.5,2.5-1.7,8.8-2.4,11.8C212.5,105.2,211.3,104.6,211.6,102.5
		L211.6,102.5z M206.5,104.4c1,0,1.6,2.7,1.6,6c0,3.3-0.5,5.9-1.6,5.9c-0.7,0-1.4-2.6-1.4-5.9C205,107.2,205.8,104.4,206.5,104.4
		L206.5,104.4z M206.6,99.9c0.5,0,0.9,0.4,0.9,0.8c0,0.5-0.4,0.9-0.9,0.9c-0.4,0-0.7-0.4-0.7-0.9C206,100.2,206.2,99.9,206.6,99.9
		L206.6,99.9z M206.6,97c0.5,0,0.9,0.4,0.9,0.8c0,0.5-0.4,1-0.9,1c-0.5,0-0.8-0.5-0.8-1C205.8,97.4,206.1,97,206.6,97L206.6,97z
		 M206.6,94c0.7,0,1,0.3,1,0.9c0,0.5-0.4,0.9-1,0.9c-0.5,0-0.8-0.4-0.8-0.9C205.8,94.2,206.1,94,206.6,94L206.6,94z M206.5,90.6
		c0.8,0,1.2,0.7,1.2,1.2c0,0.7-0.4,1.2-1.2,1.2c-0.5,0-1-0.5-1-1.2C205.4,91.2,206,90.6,206.5,90.6L206.5,90.6z M206.5,87.3
		c0.8,0,1.2,0.7,1.2,1.4c0,0.7-0.4,1.2-1.2,1.2c-0.5,0-1.2-0.5-1.2-1.2C205.3,87.9,206,87.3,206.5,87.3L206.5,87.3z M228.7,102.5
		c0.5,0.4,0.7-3.1,0.7-3.5c-0.1,0-2.9-2-3.3-1.8C225.9,97.2,228.1,102.5,228.7,102.5L228.7,102.5z M227.7,107.3c0.4-0.1,1-3,0.9-3.3
		c-0.1-0.5-3.1-1.8-3.7-1.7C224.7,102.5,227.3,107.6,227.7,107.3L227.7,107.3z M225.9,111.8c0.3-0.3,1.7-3,1.6-3.4
		c-0.1-0.4-3.3-1.7-3.5-1.6C223.5,106.9,225.5,111.9,225.9,111.8L225.9,111.8z M223.9,116c0.3,0,1.6-2.7,1.6-3.1
		c0-0.5-3.3-2-3.7-1.6C221.5,111.2,223.4,116.2,223.9,116L223.9,116z M229.3,97.6c0.4-0.3,0-2.5,0-2.7c0-0.5-2.9-3.1-3.3-3
		C225.6,91.9,229,97.6,229.3,97.6L229.3,97.6z M224.3,100.6c0.5-0.3,1.2-3.5,0.9-3.9c0-0.4-3-1.7-3.4-1.6
		C221.5,95.3,224.2,100.8,224.3,100.6L224.3,100.6z M223.1,105.2c0.3,0,1.2-2.9,1.2-3.1c-0.1-0.7-3.3-2.1-3.8-1.8
		C220.5,100.4,222.7,105.4,223.1,105.2L223.1,105.2z M221.5,109.7c0.3,0,1.7-2.9,1.6-3.4c0-0.3-3.1-1.8-3.5-1.4
		C219.2,105,221.1,109.9,221.5,109.7L221.5,109.7z M219.6,114c0.3-0.1,1.7-2.8,1.6-3.1c-0.1-0.5-3.1-2-3.7-1.6
		C217.2,109.3,219,114.4,219.6,114L219.6,114z M224.9,95.1c0.7,0.3,0.5-3.3,0.5-3.8c-0.3-0.3-3.4-2.2-3.8-2.1
		C221.3,89.4,223.8,94.4,224.9,95.1L224.9,95.1z M220,98.8c0.8,0.1,0.5-3.4,0.5-3.9c0.3-0.8-3.4-2.4-3.4-2
		C217,93.6,219,98.3,220,98.8L220,98.8z M218.9,103.5c0.3-0.4,1.2-3.1,1.2-3.5c-0.1-0.5-3.3-2.1-3.8-1.8
		C215.9,98.3,218.7,103.5,218.9,103.5L218.9,103.5z M217.2,107.8c0.4-0.1,1.7-3,1.7-3.4c0-0.4-3.1-2-3.7-1.6
		C215.1,102.9,217,108,217.2,107.8L217.2,107.8z M213.5,108.9c0.5,0,2.4,0,2.2-0.5c0-0.4-1.7-1.4-2.2-1.2
		C213.4,107.2,213.4,109.3,213.5,108.9L213.5,108.9z M220.5,92.9c0.7,0,0.4-3.7,0-4.1c0-0.5-2.9-1-3.3-0.9
		C217,88.1,220,92.9,220.5,92.9L220.5,92.9z M184.5,102.5c-0.8,0.4-0.8-3.1-0.8-3.5c0,0,3-2,3.3-1.8
		C187.1,97.2,184.9,102.5,184.5,102.5L184.5,102.5z M185.4,107.3c-0.5-0.1-0.9-3-0.7-3.3c0-0.5,3-1.8,3.4-1.7
		C188.4,102.5,185.8,107.6,185.4,107.3L185.4,107.3z M187.1,111.8c-0.1-0.3-1.4-3-1.4-3.4c0.1-0.4,3.3-1.7,3.7-1.6
		C189.6,106.9,187.7,111.9,187.1,111.8L187.1,111.8z M189.3,116c-0.3,0-1.7-2.7-1.6-3.1c0-0.5,3-2,3.5-1.6
		C191.7,111.2,189.7,116.2,189.3,116L189.3,116z M183.7,97.6c-0.3-0.3,0-2.5,0-2.7c0.1-0.5,3-3.1,3.4-3
		C187.6,91.9,184.1,97.6,183.7,97.6L183.7,97.6z M188.5,100.6c-0.1-0.3-0.7-3.5-0.4-3.9c0-0.4,2.6-1.7,3.1-1.6
		C191.7,95.3,189.1,100.8,188.5,100.6L188.5,100.6z M190,105.2c-0.3,0-1.3-2.9-1.3-3.1c0.3-0.7,3.4-2.1,3.7-1.8
		C192.7,100.4,190.4,105.4,190,105.2L190,105.2z M191.7,109.7c-0.4,0-1.7-2.9-1.7-3.4c0-0.3,3.1-1.8,3.7-1.4
		C193.8,105,191.9,109.9,191.7,109.7L191.7,109.7z M193.6,114c-0.4-0.1-1.7-2.8-1.7-3.1c0.1-0.5,3.3-2,3.7-1.6
		C195.7,109.3,193.9,114.4,193.6,114L193.6,114z M188.3,95.1c-0.7,0.3-0.4-3.3-0.4-3.8c0.3-0.3,3.3-2.2,3.7-2.1
		C191.9,89.4,189.5,94.4,188.3,95.1L188.3,95.1z M193.1,98.8c-0.8,0.1-0.8-3.4-0.8-3.9c0-0.8,3.5-2.4,3.5-2
		C196,93.6,193.9,98.3,193.1,98.8L193.1,98.8z M194.2,103.5c-0.4-0.4-1.2-3.1-1-3.5c0-0.5,3.3-2.1,3.7-1.8
		C197.2,98.3,194.6,103.5,194.2,103.5L194.2,103.5z M195.7,107.8c-0.1-0.1-1.6-3-1.6-3.4c0.1-0.4,3.1-2,3.5-1.6
		C198,102.9,196.3,108,195.7,107.8L195.7,107.8z M199.4,108.9c-0.3,0-2.2,0-2.1-0.5c0-0.4,1.8-1.4,2.1-1.2
		C199.5,107.2,199.8,109.3,199.4,108.9L199.4,108.9z M192.5,92.9c-0.5,0-0.4-3.7-0.1-4.1c0.4-0.5,3.3-1,3.4-0.9
		C196.3,88.1,193.1,92.9,192.5,92.9L192.5,92.9z M415,153.2c1.4,0.8,4.8,2.5,3.9,6.3c-1.3-0.9-3.8-1.6-5.8-1.4v-3.4
		C413.6,153.8,414.2,153.3,415,153.2L415,153.2z M391.5,146.5l2.6-5.8c0.1-0.4,0.8-0.7-1.4-0.5c-0.5,3.3-2.8,4.2-2.9,5
		C389.7,145.6,390.7,146.1,391.5,146.5L391.5,146.5z M176.7,153c-1.4,0.8-4.7,2.6-3.9,6.4c1.4-0.9,3.9-1.6,5.8-1.6v-3.4
		C178.2,153.8,177.7,153.3,176.7,153L176.7,153z M380.4,300.2c2.5,0.7,0,8.4-1.2,8.4C377.9,308.5,378.7,300.3,380.4,300.2
		L380.4,300.2z M411.9,296.7c2-1.2,7.6,7.1,5.8,8.2C415.7,305.7,410,298,411.9,296.7L411.9,296.7z M397.3,301.4
		c1.8-0.3,2.5,8.4,0.8,8.5C396.2,310,395.2,301.5,397.3,301.4L397.3,301.4z M392.2,314.8c1.4-0.8,2.5,2.8,6.3,2.8
		c5,0,4.3-4.2,5.8-4.2c1.4-0.1,0.4,3-0.4,4.1c-1,1.3-2.2,3.3-5.1,3.3C395.7,320.9,390.9,315.5,392.2,314.8L392.2,314.8z
		 M371.9,313.4c0.9-0.9,1.4,4.1,4.6,4.3c4.8,0.9,5.2-3.5,6.8-2.8c1.7,0.5-0.1,2.8-1.8,4.1c-1.2,0.9-3.7,1.7-5.6,1.3
		C371.2,319.3,371.1,314.2,371.9,313.4L371.9,313.4z M412.5,311.3c0.7-0.4,5.1,2,8.5-0.4c3.5-2.4,1.7-6.2,3.3-7.1
		c1.6-0.8,1.3,7.9-1.7,9.7C417.4,315,411.2,312.8,412.5,311.3L412.5,311.3z M430.8,298c1.2-2,6-0.4,8.2-3.4c2-2.9-2.9-6.4-1-8.1
		c1.7-1.7,5.5,7.3,3.5,10C439.3,299,429.6,299.6,430.8,298L430.8,298z M417,234.1c-2.5-2.5,9-14.5,11.1-12.2
		C429.9,224.4,419.5,236.8,417,234.1L417,234.1z M423.9,254.4c-1.4-2.6,9.4-8,10.6-5.9C435.5,250.6,425.3,256.5,423.9,254.4
		L423.9,254.4z M426.6,269.7c-0.5-2.6,11.1-3.1,11.4-0.5C438,271.4,426.9,272.3,426.6,269.7L426.6,269.7z M442.6,251.8
		c-1.4-0.8,2.5-6,0.4-9.7c-1-2.7-7.6-2.4-7.5-3.8c0.5-1.6,8.5-0.5,10.5,1.8C447.7,242.3,444,252.5,442.6,251.8L442.6,251.8z
		 M442.3,277.2c-1.6-1,3.8-3.4,3.7-8.2c-0.3-3.9-4.7-5.9-4.3-7.6c0.7-1.4,7.9,3.3,7.7,7.2C449.3,273,443.9,278.3,442.3,277.2
		L442.3,277.2z M435.5,225.8c0,0-1-2,1-3.5c6.2-4.8,5.2-13.5,5-19.1c-0.1-2.4,1.2-3.3,2.5-2.2C445.2,215,443.5,218.8,435.5,225.8
		L435.5,225.8z M466.5,202.4c-2.5-0.4,0.1-2.9,2.6-6.7c5.2-7.6,3.7-15.5,2.9-20c-0.4-1.6,1-4.6,1.8-3.4
		C476.2,177.6,478.1,189.8,466.5,202.4L466.5,202.4z M464.2,308.9c0.8-2,7.9,0.8,10.5-3.4c1.3-2.1-2.1-6.5-1-7.5
		c1-0.9,5.5,5.8,4.1,8.9C476.4,310.3,463.4,311,464.2,308.9L464.2,308.9z M475.3,290c-0.9-1.6,7.1-1.4,7.7-6.9
		c0.4-3.8-3.5-4.3-3-5.5c0.9-1.4,6.5,2.7,6,6.7C485.3,289,476.4,291.7,475.3,290L475.3,290z M481.1,268.3c-1.2-1.7,7.6-3.9,6.4-9
		c-0.8-3.9-8.4-3.4-7.7-5.1c0.4-1.4,9.6,0.5,10.9,5.4C491.8,264.2,482.1,270.1,481.1,268.3L481.1,268.3z M476.2,222.8
		c-1.6-1.6,8.4-13,6.5-15.1c-2.2-2.2-3-0.1-3.9-1.2c-0.8-1,3.1-3.7,6.4,0.1C488.7,210.6,477.7,224.3,476.2,222.8L476.2,222.8z
		 M483,244.6c-2-1.4,7.1-7.1,5.8-10.9c-1.2-3.4-7.9-1.7-8.3-3c-0.5-0.9,8.6-2.5,10.9,2C493.7,237.2,484.6,245.7,483,244.6L483,244.6
		z M535.4,295.6c0.1-0.4,3-0.4,6.8-0.9c4.3-0.7,8.1-3.7,8.1-6.9c-0.3-4.8-8-6-11-6.5c-0.1-3.3,15.2-0.5,15.3,6.3
		c0.3,5.4-7.9,9.6-12.6,10.1C538.6,298,535.8,297.5,535.4,295.6L535.4,295.6z M536.6,210.1c-2.7-2,3.7-5.2,7.3-8.1
		c6.2-5.2,7.3-13.2,5.8-14.5c-2.2-2.4-9.2,4.6-16.4,5.6c-1.8-2.4,3.5-3.5,7.7-5.9c4.3-2.4,9.3-3.9,11.3-2.9
		C556,186.7,554.9,202,536.6,210.1L536.6,210.1z M534,176.3c-2.2-2.2,4.6-4.7,7.9-9.6c7.3-10.6,5.1-18.5,3.5-18.7
		c-4.2-0.1-5.9,6-15.2,13c-2.4-1.2,3-4.5,6.3-8.9c3.4-4.6,7.5-8.4,9.6-8.4C551.3,144,551.8,167.3,534,176.3L534,176.3z M544.9,235.8
		c9.3-5.9,17.3-11.4,14.3-15.6c-2.4-3.1-7.6-1.7-16-0.1c-2.5-2.9,13.9-6.7,19-1.2C567.5,224.3,547,240.8,544.9,235.8L544.9,235.8z
		 M537.8,265.9c4.7-1,8.1-3.3,10.9-4.6c2.6-1.4,6.4-4.8,5.8-7.2c-0.7-2.4-7.6-2.4-12.7-2.4c0-3.5,13.9-2.4,16,0.9
		c2.2,3.3-3.4,8.6-6.4,10.6C548.4,265.1,537.7,269.7,537.8,265.9L537.8,265.9z M523.9,135.6c-2.9-2,2.7-4.7,4.6-13.1
		c3-12.6,0-20.6-3.5-20.3c-4.2,0.3-0.5,5-9.3,14.5c-2.6-0.5,0.1-0.8,3.7-10.6c2.9-7.2,3.9-7.2,6.2-7.2
		C531.5,98,538.6,120.3,523.9,135.6L523.9,135.6z M295.8,593.7c-4.1-2.5-7.3-5.4-10.3-9.6l0.8-2.1c2.6,3.5,5,6.5,9.6,8.6
		c4.7-2.1,6.9-4.8,9.7-8.5l0.7,2.1C303.3,588.4,299.8,591.3,295.8,593.7L295.8,593.7z M393.9,518c-2.2,7.6-8.1,11-10,11.4
		c-1.3,0.5-0.8,1.4-0.1,2.1C391.2,532,394.7,523.4,393.9,518L393.9,518z M357.3,534.5c-3.7,11.9-10.6,6.7-11.7,7.5
		c4.6,5.9,12.4-0.3,13-6.2C358.8,534.9,357.7,534.6,357.3,534.5L357.3,534.5z M310.3,550.3h-1.4c1,6.7,1,11.5,0.1,18.2h1.4
		C312,564.2,312,557.3,310.3,550.3L310.3,550.3z M337.3,552.7c-0.3,12.7-5.5,17.3-10.9,22.8c-0.9,0.9-2.5,1.4-3.7,1.2
		c-1.2-0.4,1.8-1.4,2.9-3c6.2-6.9,8.5-11.3,8.5-21.7c0.3-18.6-17.9-42.4-16-43.1c0.1,0,0.8,0.4,1.4,1.3
		C334.7,534.5,337.8,541.8,337.3,552.7L337.3,552.7z M379.6,541.4c-0.1-0.7,0.1-1.7,1.7-1.7c6.8,0.1,17.2,6.7,11.8,18.9
		C393,548.4,389.3,542.9,379.6,541.4L379.6,541.4z M197.8,517.9c2.2,7.6,8.1,11.1,10.1,11.5c1.2,0.5,0.8,1.3,0.1,1.8
		C200.5,531.9,197.2,523.2,197.8,517.9L197.8,517.9z M234.5,534.5c3.7,11.8,10.3,6.5,11.7,7.3c-4.6,6-12.6-0.3-13.2-6.2
		C232.9,534.8,233.8,534.5,234.5,534.5L234.5,534.5z M281.2,550.2h1.6c-1.2,6.5-1.2,11.5-0.1,18.3h-1.6
		C279.5,564,279.5,557.3,281.2,550.2L281.2,550.2z M254.3,552.7c0.3,12.6,5.4,17.3,10.9,22.7c0.9,0.9,2.5,1.4,3.7,1.2
		c1.3-0.4-1.8-1.4-2.7-3c-6.3-6.9-8.5-11.1-8.6-21.7c-0.4-18.6,18.1-42.3,16-43c-0.1,0-0.8,0.4-1.4,1.3
		C256.8,534.5,254.1,541.7,254.3,552.7L254.3,552.7z M212,541.4c0.3-0.8,0-1.7-1.6-1.7c-6.8,0.1-17.2,6.5-11.8,18.7
		C198.7,548.1,202.5,542.9,212,541.4L212,541.4z M211.5,300.1c-2.6,0.8,0,8.5,1.2,8.4C213.8,308.3,213.3,300.2,211.5,300.1
		L211.5,300.1z M168.1,286.2c-1-2.4-9.7,2.4-8.4,4.6C161,292.4,169.7,288.2,168.1,286.2L168.1,286.2z M179.8,296.5
		c-2-1.2-7.5,7.1-5.6,8.3C176.1,305.7,181.9,298,179.8,296.5L179.8,296.5z M194.6,301.3c-1.8-0.3-2.5,8.4-0.8,8.5
		C195.6,309.9,196.5,301.4,194.6,301.3L194.6,301.3z M199.4,314.8c-1.4-0.8-2.2,2.8-6.2,2.8c-4.8,0-4.2-4.2-5.6-4.3
		c-1.6-0.3-0.5,3,0.3,4.1c1.2,1.4,2.4,3.3,5.2,3.4C196,320.8,201,315.3,199.4,314.8L199.4,314.8z M219.8,313.3
		c-0.9-0.9-1.2,4.1-4.6,4.3c-4.8,0.9-5.2-3.7-6.8-2.9c-1.8,0.8,0.3,2.9,1.8,4.3c1.3,0.8,3.7,1.6,5.6,1.2
		C220.5,319.3,220.5,314.2,219.8,313.3L219.8,313.3z M179.1,311.2c-0.5-0.4-4.8,2-8.4-0.3c-3.5-2.5-1.7-6.3-3.3-7.2
		c-1.7-0.9-1.3,7.9,1.7,9.7C174.4,315,180.7,312.8,179.1,311.2L179.1,311.2z M160.9,297.7c-1.2-1.7-6-0.1-8.2-3.3
		c-2-2.8,2.9-6.4,1-8.1c-1.7-1.7-5.5,7.3-3.5,10C152.4,299,162.1,299.6,160.9,297.7L160.9,297.7z M168,254.3c1.3-2.5-9.6-8-10.7-5.9
		C156.2,250.5,166.4,256.5,168,254.3L168,254.3z M165.1,269.6c0.5-2.6-11-3-11.3-0.5C153.7,271.4,165,272.2,165.1,269.6L165.1,269.6
		z M149.2,251.8c1.4-1-2.5-6-0.7-9.8c1.2-2.6,7.9-2.2,7.5-3.8c-0.4-1.6-8.4-0.4-10.2,1.8C144,242.2,147.7,252.4,149.2,251.8
		L149.2,251.8z M149.4,277.2c1.8-1.2-3.9-3.5-3.5-8.4c0.1-3.8,4.6-5.9,4.2-7.5c-0.7-1.6-7.7,3.1-7.7,7.1
		C142.4,272.8,147.8,278.3,149.4,277.2L149.4,277.2z M156.1,225.8c0,0,1.2-2.2-0.9-3.8c-6.2-4.8-5.2-13.2-5-19.1
		c0-2.1-1.2-3.3-2.5-2.1C146.5,214.8,148.2,218.8,156.1,225.8L156.1,225.8z M115.6,222.7c1.7-1.4-8.5-12.8-6.5-15.1c2-2.1,3,0,3.9-1
		c0.8-1-3.4-3.8-6.5,0C103.2,210.6,114,224,115.6,222.7L115.6,222.7z M125.2,202.4c2.6-0.7-0.1-3.1-2.5-6.8
		c-5.2-7.7-3.8-15.5-3-20.2c0.5-1.3-0.9-4.5-1.7-3.4C115.6,177.6,113.9,189.8,125.2,202.4L125.2,202.4z M48.3,311l0.8-2l2.6,2
		l-1.3,4.1l-5-1l0.9-3.7L48.3,311L48.3,311z M56.3,295.6c-0.1-0.5-2.9-0.5-6.8-1c-4.3-0.7-8.1-3.7-8-6.9c0.3-4.8,7.9-5.9,10.7-6.7
		c0.4-3.1-14.9-0.3-15.2,6.4c-0.3,5.4,7.9,9.7,12.4,10.2C53.1,298,56,297.3,56.3,295.6L56.3,295.6z M55.2,209.9
		c2.8-1.7-3.7-5-7.2-7.9c-6.3-5.2-7.6-13.4-6-14.8c2.4-2.2,9.3,4.8,16.4,5.8c1.7-2.2-3.5-3.4-7.7-5.8c-4.3-2.4-9.3-4.1-11.3-2.9
		C35.7,186.5,36.9,201.7,55.2,209.9L55.2,209.9z M46.8,235.7c-9.2-5.9-17.3-11.4-14.1-15.6c2.4-3,7.6-1.7,15.8-0.3
		c2.5-2.6-13.9-6.5-19-1C24.3,224.3,44.9,240.5,46.8,235.7L46.8,235.7z M53.9,265.9c-4.7-1.2-8-3.3-10.7-4.7
		c-2.8-1.4-6.5-4.7-5.8-7.1c0.5-2.4,7.5-2.4,12.6-2.4c0.1-3.7-13.9-2.4-16,0.9c-2.1,3.1,3.4,8.6,6.4,10.5
		C43.3,265,54,269.6,53.9,265.9L53.9,265.9z M57.6,176.2c2.4-2.1-4.3-4.7-7.7-9.7c-7.2-10.6-5.1-18.5-3.5-18.6
		c4.2-0.1,5.9,6,15.1,13.1c2.6-1.3-2.6-4.6-6.2-9.2c-3.4-4.3-7.2-8.2-9.4-8.2C40.4,143.9,39.9,167.2,57.6,176.2L57.6,176.2z
		 M67.8,135.5c3-2-2.8-4.7-4.6-13.1c-2.7-12.7,0-20.6,3.7-20.2c4.2,0.3,0.3,4.8,9.2,14.4c2.8-0.5-0.3-0.8-3.7-10.6
		c-2.9-7.1-3.8-7.1-6-7.1C60.5,97.9,53.1,120.3,67.8,135.5L67.8,135.5z"/>
</g>
</svg>
