<?xml version="1.0" encoding="iso-8859-1"?>
<!-- Generator: Adobe Illustrator 19.0.0, SVG Export Plug-In . SVG Version: 6.00 Build 0)  -->
<svg xmlns="http://www.w3.org/2000/svg" xmlns:xlink="http://www.w3.org/1999/xlink" version="1.1" id="Layer_1" x="0px" y="0px" viewBox="0 0 511.989 511.989" style="enable-background:new 0 0 511.989 511.989;" xml:space="preserve" width="512px" height="512px">
<g>
	<g>
		<path d="M383.424,285.797c-6.246-65.591-61.543-115.556-127.429-115.142c-2.241,0-4.425,0.222-6.637,0.336    c-1.531-0.36-3.133-0.279-4.621,0.234c-69.936,6.659-121.231,68.752-114.572,138.688c6.659,69.936,68.752,121.231,138.688,114.572    S390.083,355.732,383.424,285.797z M252.372,187.905c1.213-0.04,2.4-0.183,3.623-0.183c36.21,0.024,70.124,17.738,90.833,47.442    l-26.383,13.192c-4.069,1.947-8.245,3.661-12.508,5.133c-11.733,4.296-26.342,9.642-26.342,28.1    c0.293,12.195,8.273,22.867,19.888,26.596c2.619,1.18,5.104,2.637,7.412,4.346c-2.498,2.616-5.205,5.022-8.096,7.196    c-2.849,2.193-5.577,4.54-8.171,7.029c-4.104,5.032-7.062,10.899-8.667,17.192c-4.85,13.879-8.821,22.975-19.433,22.975    c-17.067,0-17.067-8.292-17.067-17.067c0-12.721-11.725-25.6-34.133-25.6c-4.008,0.253-7.838-1.684-10.008-5.063    c-2.683-5.305-2.466-11.613,0.575-16.721c5.875-11.754,17.142-12.35,35.033-12.35c8.488,0.299,16.239-4.795,19.333-12.704    c5.3-12.796-0.292-31.525-13.3-44.529C236.644,224.571,245.289,201.356,252.372,187.905z M305.24,398.154    c-15.313,7.559-32.168,11.473-49.245,11.434c-61.252,0.015-110.918-49.628-110.933-110.88    c-0.013-52.153,36.314-97.269,87.268-108.385c-6.882,16.082-13.606,40.461,0.565,54.631c7.55,6.346,11.197,16.201,9.596,25.933    c-0.579,1.404-1.321,2.167-3.563,2.167c-17.558,0-39.408,0-50.3,21.783c-5.734,10.385-5.668,23.001,0.175,33.325    c5.269,8.418,14.597,13.423,24.525,13.158c11.083,0,17.067,4.396,17.067,8.533c0,22.65,11.483,34.133,34.133,34.133    c23.525,0,31.05-21.542,35.546-34.412c1.066-3.771,2.619-7.386,4.621-10.754c2.152-2.041,4.409-3.967,6.763-5.771    c7.196-5.754,14.637-11.708,15.108-20.179c0.199-4.422-1.558-8.707-4.804-11.716c-3.74-3.415-8.011-6.197-12.646-8.237    c-8.338-4.167-10.454-5.825-10.454-11.329c0-5.617,2.121-7.308,15.142-12.071c4.867-1.691,9.633-3.66,14.275-5.896l27.416-13.708    C382.552,304.726,360.053,371.095,305.24,398.154z" fill="#1d4373"/>
	</g>
</g>
<g>
	<g>
		<path d="M366.928,93.854H145.061c-4.713,0-8.533,3.82-8.533,8.533s3.82,8.533,8.533,8.533h221.867c4.713,0,8.533-3.82,8.533-8.533    S371.641,93.854,366.928,93.854z" fill="#1d4373"/>
	</g>
</g>
<g>
	<g>
		<path d="M366.928,127.988H145.061c-4.713,0-8.533,3.821-8.533,8.533s3.82,8.533,8.533,8.533h221.867    c4.713,0,8.533-3.82,8.533-8.533S371.641,127.988,366.928,127.988z" fill="#1d4373"/>
	</g>
</g>
<g>
	<g>
		<path d="M366.928,452.254H145.061c-4.713,0-8.533,3.821-8.533,8.533s3.82,8.533,8.533,8.533h221.867    c4.713,0,8.533-3.82,8.533-8.533S371.641,452.254,366.928,452.254z" fill="#1d4373"/>
	</g>
</g>
<g>
	<g>
		<path d="M405.974,42.654h-4.912V26.738c0.076-8.015-3.373-15.659-9.433-20.904c-5.351-4.612-12.459-6.639-19.438-5.542    L110.235,42.654h-4.22C90.047,42.512,76.977,55.32,76.794,71.288v412.067c0.182,15.967,13.253,28.775,29.221,28.633h299.958    c15.968,0.142,29.039-12.666,29.221-28.633V71.288C435.012,55.32,421.942,42.512,405.974,42.654z M374.915,17.142    c2.041-0.306,4.112,0.312,5.65,1.688c2.246,2.007,3.5,4.897,3.429,7.908v15.917h-166.84L374.915,17.142z M418.128,483.354    c-0.174,6.545-5.608,11.717-12.154,11.567H106.015c-6.546,0.151-11.98-5.021-12.154-11.567V71.288    c0.174-6.545,5.608-11.717,12.154-11.567h299.958c6.546-0.151,11.981,5.021,12.154,11.567V483.354z" fill="#1d4373"/>
	</g>
</g>
<g>
</g>
<g>
</g>
<g>
</g>
<g>
</g>
<g>
</g>
<g>
</g>
<g>
</g>
<g>
</g>
<g>
</g>
<g>
</g>
<g>
</g>
<g>
</g>
<g>
</g>
<g>
</g>
<g>
</g>
</svg>
