<?xml version="1.0"?>
<svg xmlns="http://www.w3.org/2000/svg" height="512px" viewBox="-40 0 480 480" width="512px"><path d="m392 0h-384c-4.417969 0-8 3.582031-8 8v464c0 4.417969 3.582031 8 8 8h384c4.417969 0 8-3.582031 8-8v-464c0-4.417969-3.582031-8-8-8zm-8 464h-368v-448h368zm0 0" fill="#1d4373"/><path d="m40 400h320c4.417969 0 8-3.582031 8-8v-352c0-4.417969-3.582031-8-8-8h-320c-4.417969 0-8 3.582031-8 8v352c0 4.417969 3.582031 8 8 8zm8-352h304v336h-304zm0 0" fill="#1d4373"/><path d="m80 64h16v16h-16zm0 0" fill="#1d4373"/><path d="m96 80h16v16h-16zm0 0" fill="#1d4373"/><path d="m80 96h16v16h-16zm0 0" fill="#1d4373"/><path d="m64 80h16v16h-16zm0 0" fill="#1d4373"/><path d="m96 160h16v16h-16zm0 0" fill="#1d4373"/><path d="m112 176h16v16h-16zm0 0" fill="#1d4373"/><path d="m96 192h16v16h-16zm0 0" fill="#1d4373"/><path d="m80 176h16v16h-16zm0 0" fill="#1d4373"/><path d="m304 104h16v16h-16zm0 0" fill="#1d4373"/><path d="m320 120h16v16h-16zm0 0" fill="#1d4373"/><path d="m304 136h16v16h-16zm0 0" fill="#1d4373"/><path d="m288 120h16v16h-16zm0 0" fill="#1d4373"/><path d="m232 208.359375v-2.457031c15-10.476563 23.953125-27.605469 24-45.902344v-16c0-30.929688-25.070312-56-56-56s-56 25.070312-56 56v16c.046875 18.296875 9 35.425781 24 45.902344v2.457031c-45.289062 4.191406-79.945312 42.160156-80 87.640625v64c0 4.417969 3.582031 8 8 8h208c4.417969 0 8-3.582031 8-8v-64c-.054688-45.480469-34.710938-83.449219-80-87.640625zm64 143.640625h-192v-56c.042969-39.746094 32.253906-71.957031 72-72 4.417969 0 8-3.582031 8-8v-14.480469c-.003906-2.855469-1.527344-5.492187-4-6.917969-12.34375-7.160156-19.960938-20.332031-20-34.601562v-16c0-22.089844 17.910156-40 40-40s40 17.910156 40 40v16c-.039062 14.269531-7.65625 27.441406-20 34.601562-2.472656 1.425782-3.996094 4.0625-4 6.917969v14.480469c0 4.417969 3.582031 8 8 8 39.746094.042969 71.957031 32.253906 72 72zm0 0" fill="#1d4373"/></svg>
